%TF.GenerationSoftware,KiCad,Pcbnew,9.0.2*%
%TF.CreationDate,2026-08-20T20:50:25+02:00*%
%TF.ProjectId,retro-003,72657472-6f2d-4303-9033-2e6b69636164,rev?*%
%TF.SameCoordinates,Original*%
%TF.FileFunction,Copper,L1,Top*%
%TF.FilePolarity,Positive*%
%FSLAX46Y46*%
G04 Gerber Fmt 4.6, Leading zero omitted, Abs format (unit mm)*
G04 Created by KiCad (PCBNEW 9.0.2) date 2026-08-20 20:50:25*
%MOMM*%
%LPD*%
G01*
G04 APERTURE LIST*
G04 Aperture macros list*
%AMRoundRect*
0 Rectangle with rounded corners*
0 $1 Rounding radius*
0 $2 $3 $4 $5 $6 $7 $8 $9 X,Y pos of 4 corners*
0 Add a 4 corners polygon primitive as box body*
4,1,4,$2,$3,$4,$5,$6,$7,$8,$9,$2,$3,0*
0 Add four circle primitives for the rounded corners*
1,1,$1+$1,$2,$3*
1,1,$1+$1,$4,$5*
1,1,$1+$1,$6,$7*
1,1,$1+$1,$8,$9*
0 Add four rect primitives between the rounded corners*
20,1,$1+$1,$2,$3,$4,$5,0*
20,1,$1+$1,$4,$5,$6,$7,0*
20,1,$1+$1,$6,$7,$8,$9,0*
20,1,$1+$1,$8,$9,$2,$3,0*%
G04 Aperture macros list end*
%TA.AperFunction,SMDPad,CuDef*%
%ADD10RoundRect,0.291666X0.408334X-0.458334X0.408334X0.458334X-0.408334X0.458334X-0.408334X-0.458334X0*%
%TD*%
%TA.AperFunction,ComponentPad*%
%ADD11RoundRect,0.250000X-0.550000X-0.550000X0.550000X-0.550000X0.550000X0.550000X-0.550000X0.550000X0*%
%TD*%
%TA.AperFunction,ComponentPad*%
%ADD12C,1.600000*%
%TD*%
%TA.AperFunction,SMDPad,CuDef*%
%ADD13RoundRect,0.291666X-0.458334X-0.408334X0.458334X-0.408334X0.458334X0.408334X-0.458334X0.408334X0*%
%TD*%
%TA.AperFunction,SMDPad,CuDef*%
%ADD14RoundRect,0.350000X0.350000X-0.400000X0.350000X0.400000X-0.350000X0.400000X-0.350000X-0.400000X0*%
%TD*%
%TA.AperFunction,SMDPad,CuDef*%
%ADD15RoundRect,0.171450X-0.400050X1.289050X-0.400050X-1.289050X0.400050X-1.289050X0.400050X1.289050X0*%
%TD*%
%TA.AperFunction,SMDPad,CuDef*%
%ADD16RoundRect,0.075000X-0.075000X1.712500X-0.075000X-1.712500X0.075000X-1.712500X0.075000X1.712500X0*%
%TD*%
%TA.AperFunction,SMDPad,CuDef*%
%ADD17RoundRect,0.350000X-0.350000X0.400000X-0.350000X-0.400000X0.350000X-0.400000X0.350000X0.400000X0*%
%TD*%
%TA.AperFunction,ComponentPad*%
%ADD18RoundRect,0.250001X-0.799999X-0.799999X0.799999X-0.799999X0.799999X0.799999X-0.799999X0.799999X0*%
%TD*%
%TA.AperFunction,ComponentPad*%
%ADD19C,6.400000*%
%TD*%
%TA.AperFunction,ComponentPad*%
%ADD20O,3.000000X2.000000*%
%TD*%
%TA.AperFunction,ComponentPad*%
%ADD21RoundRect,0.250001X0.799999X-0.799999X0.799999X0.799999X-0.799999X0.799999X-0.799999X-0.799999X0*%
%TD*%
%TA.AperFunction,SMDPad,CuDef*%
%ADD22RoundRect,0.350000X-0.400000X-0.350000X0.400000X-0.350000X0.400000X0.350000X-0.400000X0.350000X0*%
%TD*%
%TA.AperFunction,ComponentPad*%
%ADD23R,1.700000X1.700000*%
%TD*%
%TA.AperFunction,ComponentPad*%
%ADD24C,1.700000*%
%TD*%
%TA.AperFunction,ComponentPad*%
%ADD25C,1.500000*%
%TD*%
%TA.AperFunction,SMDPad,CuDef*%
%ADD26RoundRect,0.250000X0.450000X-0.262500X0.450000X0.262500X-0.450000X0.262500X-0.450000X-0.262500X0*%
%TD*%
%TA.AperFunction,ComponentPad*%
%ADD27RoundRect,0.250000X0.550000X0.550000X-0.550000X0.550000X-0.550000X-0.550000X0.550000X-0.550000X0*%
%TD*%
%TA.AperFunction,SMDPad,CuDef*%
%ADD28RoundRect,0.291666X0.458334X0.408334X-0.458334X0.408334X-0.458334X-0.408334X0.458334X-0.408334X0*%
%TD*%
%TA.AperFunction,SMDPad,CuDef*%
%ADD29O,4.000000X0.200000*%
%TD*%
%TA.AperFunction,SMDPad,CuDef*%
%ADD30R,1.766000X0.270000*%
%TD*%
%TA.AperFunction,SMDPad,CuDef*%
%ADD31R,0.270000X1.766000*%
%TD*%
%TA.AperFunction,SMDPad,CuDef*%
%ADD32O,0.200000X4.000000*%
%TD*%
%TA.AperFunction,ComponentPad*%
%ADD33R,2.000000X2.000000*%
%TD*%
%TA.AperFunction,ComponentPad*%
%ADD34C,2.000000*%
%TD*%
%TA.AperFunction,ComponentPad*%
%ADD35RoundRect,0.250000X0.600000X-0.600000X0.600000X0.600000X-0.600000X0.600000X-0.600000X-0.600000X0*%
%TD*%
%TA.AperFunction,ViaPad*%
%ADD36C,0.508000*%
%TD*%
%TA.AperFunction,Conductor*%
%ADD37C,0.101600*%
%TD*%
%TA.AperFunction,Conductor*%
%ADD38C,0.406400*%
%TD*%
G04 APERTURE END LIST*
D10*
%TO.P,R95,1*%
%TO.N,Net-(Jx2-Pin_1)*%
X174047400Y-30594800D03*
%TO.P,R95,2*%
%TO.N,+5V*%
X174047400Y-28594800D03*
%TD*%
D11*
%TO.P,U14,1,A14*%
%TO.N,/GA14*%
X193446400Y-82575400D03*
D12*
%TO.P,U14,2,A12*%
%TO.N,/GA12*%
X193446400Y-85115400D03*
%TO.P,U14,3,A7*%
%TO.N,/CA7*%
X193446400Y-87655400D03*
%TO.P,U14,4,A6*%
%TO.N,/CA6*%
X193446400Y-90195400D03*
%TO.P,U14,5,A5*%
%TO.N,/CA5*%
X193446400Y-92735400D03*
%TO.P,U14,6,A4*%
%TO.N,/CA4*%
X193446400Y-95275400D03*
%TO.P,U14,7,A3*%
%TO.N,/CA3*%
X193446400Y-97815400D03*
%TO.P,U14,8,A2*%
%TO.N,/CA2*%
X193446400Y-100355400D03*
%TO.P,U14,9,A1*%
%TO.N,/CA1*%
X193446400Y-102895400D03*
%TO.P,U14,10,A0*%
%TO.N,/CA0*%
X193446400Y-105435400D03*
%TO.P,U14,11,D0*%
%TO.N,D0*%
X193446400Y-107975400D03*
%TO.P,U14,12,D1*%
%TO.N,D1*%
X193446400Y-110515400D03*
%TO.P,U14,13,D2*%
%TO.N,D2*%
X193446400Y-113055400D03*
%TO.P,U14,14,GND*%
%TO.N,GND*%
X193446400Y-115595400D03*
%TO.P,U14,15,D3*%
%TO.N,D3*%
X208686400Y-115595400D03*
%TO.P,U14,16,D4*%
%TO.N,D4*%
X208686400Y-113055400D03*
%TO.P,U14,17,D5*%
%TO.N,D5*%
X208686400Y-110515400D03*
%TO.P,U14,18,D6*%
%TO.N,D6*%
X208686400Y-107975400D03*
%TO.P,U14,19,D7*%
%TO.N,D7*%
X208686400Y-105435400D03*
%TO.P,U14,20,~{CS}*%
%TO.N,~{ROM}*%
X208686400Y-102895400D03*
%TO.P,U14,21,A10*%
%TO.N,/CA10*%
X208686400Y-100355400D03*
%TO.P,U14,22,~{OE}*%
%TO.N,~{Read}*%
X208686400Y-97815400D03*
%TO.P,U14,23,A11*%
%TO.N,/CA11*%
X208686400Y-95275400D03*
%TO.P,U14,24,A9*%
%TO.N,/CA9*%
X208686400Y-92735400D03*
%TO.P,U14,25,A8*%
%TO.N,/CA8*%
X208686400Y-90195400D03*
%TO.P,U14,26,A13*%
%TO.N,/GA13*%
X208686400Y-87655400D03*
%TO.P,U14,27,~{WE}*%
%TO.N,~{Write}*%
X208686400Y-85115400D03*
%TO.P,U14,28,VCC*%
%TO.N,+5V*%
X208686400Y-82575400D03*
%TD*%
D13*
%TO.P,R81,1*%
%TO.N,Net-(L48-A)*%
X244745000Y-51435000D03*
%TO.P,R81,2*%
%TO.N,Net-(PB1-Pin_5)*%
X246745000Y-51435000D03*
%TD*%
D14*
%TO.P,L7,1,K*%
%TO.N,Net-(L7-K)*%
X186690000Y-121650000D03*
%TO.P,L7,2,A*%
%TO.N,+5V*%
X186690000Y-119650000D03*
%TD*%
D11*
%TO.P,Cx15,1*%
%TO.N,+5V*%
X222758000Y-28956000D03*
D12*
%TO.P,Cx15,2*%
%TO.N,GND*%
X225258000Y-28956000D03*
%TD*%
D15*
%TO.P,M3,*%
%TO.N,*%
X183816800Y-91122500D03*
X174317200Y-91122500D03*
X183816800Y-112966500D03*
X174317200Y-112966500D03*
D16*
%TO.P,M3,1,A11*%
%TO.N,/CA11*%
X182817000Y-91357000D03*
%TO.P,M3,2,A9*%
%TO.N,/CA9*%
X182317000Y-91357000D03*
%TO.P,M3,3,A8*%
%TO.N,/CA8*%
X181817000Y-91357000D03*
%TO.P,M3,4,A13*%
%TO.N,/GA13*%
X181317000Y-91357000D03*
%TO.P,M3,5,~{WE}*%
%TO.N,~{Write}*%
X180817000Y-91357000D03*
%TO.P,M3,6,CS2/CE2*%
%TO.N,+5V*%
X180317000Y-91357000D03*
%TO.P,M3,7,A15*%
%TO.N,/GA15*%
X179817000Y-91357000D03*
%TO.P,M3,8,VCC*%
%TO.N,+5V*%
X179317000Y-91357000D03*
%TO.P,M3,9,NC*%
%TO.N,unconnected-(M3-NC-Pad9)*%
X178817000Y-91357000D03*
%TO.P,M3,10,A16*%
%TO.N,GA16*%
X178317000Y-91357000D03*
%TO.P,M3,11,A14*%
%TO.N,/GA14*%
X177817000Y-91357000D03*
%TO.P,M3,12,A12*%
%TO.N,/GA12*%
X177317000Y-91357000D03*
%TO.P,M3,13,A7*%
%TO.N,/CA7*%
X176817000Y-91357000D03*
%TO.P,M3,14,A6*%
%TO.N,/CA6*%
X176317000Y-91357000D03*
%TO.P,M3,15,A5*%
%TO.N,/CA5*%
X175817000Y-91357000D03*
%TO.P,M3,16,A4*%
%TO.N,/CA4*%
X175317000Y-91357000D03*
%TO.P,M3,17,A3*%
%TO.N,/CA3*%
X175317000Y-112732000D03*
%TO.P,M3,18,A2*%
%TO.N,/CA2*%
X175817000Y-112732000D03*
%TO.P,M3,19,A1*%
%TO.N,/CA1*%
X176317000Y-112732000D03*
%TO.P,M3,20,A0*%
%TO.N,/CA0*%
X176817000Y-112732000D03*
%TO.P,M3,21,DQ0*%
%TO.N,D0*%
X177317000Y-112732000D03*
%TO.P,M3,22,DQ1*%
%TO.N,D1*%
X177817000Y-112732000D03*
%TO.P,M3,23,DQ2*%
%TO.N,D2*%
X178317000Y-112732000D03*
%TO.P,M3,24,GND*%
%TO.N,GND*%
X178817000Y-112732000D03*
%TO.P,M3,25,DQ3*%
%TO.N,D3*%
X179317000Y-112732000D03*
%TO.P,M3,26,DQ4*%
%TO.N,D4*%
X179817000Y-112732000D03*
%TO.P,M3,27,DQ5*%
%TO.N,D5*%
X180317000Y-112732000D03*
%TO.P,M3,28,DQ6*%
%TO.N,D6*%
X180817000Y-112732000D03*
%TO.P,M3,29,DQ7*%
%TO.N,D7*%
X181317000Y-112732000D03*
%TO.P,M3,30,~{CS1}/~{CE1}*%
%TO.N,~{RAM}*%
X181817000Y-112732000D03*
%TO.P,M3,31,A10*%
%TO.N,/CA10*%
X182317000Y-112732000D03*
%TO.P,M3,32,~{OE}*%
%TO.N,~{Read}*%
X182817000Y-112732000D03*
%TD*%
D14*
%TO.P,L6,1,K*%
%TO.N,Net-(L6-K)*%
X189230000Y-121650000D03*
%TO.P,L6,2,A*%
%TO.N,+5V*%
X189230000Y-119650000D03*
%TD*%
D13*
%TO.P,R78,1*%
%TO.N,Net-(L45-A)*%
X244745000Y-59055000D03*
%TO.P,R78,2*%
%TO.N,Net-(PB1-Pin_2)*%
X246745000Y-59055000D03*
%TD*%
D17*
%TO.P,L11,1,K*%
%TO.N,GND*%
X193040000Y-119650000D03*
%TO.P,L11,2,A*%
%TO.N,Net-(L11-A)*%
X193040000Y-121650000D03*
%TD*%
D18*
%TO.P,J48,1,Pin_1*%
%TO.N,unconnected-(J48-Pin_1-Pad1)*%
X231140000Y-77470000D03*
%TD*%
D19*
%TO.P,H8,1*%
%TO.N,N/C*%
X157400000Y-120400000D03*
%TD*%
D13*
%TO.P,R73,1*%
%TO.N,Net-(L40-A)*%
X244745000Y-102235000D03*
%TO.P,R73,2*%
%TO.N,Net-(PA1-Pin_5)*%
X246745000Y-102235000D03*
%TD*%
D18*
%TO.P,J106,1,Pin_1*%
%TO.N,unconnected-(J106-Pin_1-Pad1)*%
X233680000Y-48260000D03*
%TD*%
%TO.P,J75,1,Pin_1*%
%TO.N,unconnected-(J75-Pin_1-Pad1)*%
X226060000Y-90170000D03*
%TD*%
D17*
%TO.P,L5,1,K*%
%TO.N,GND*%
X173990000Y-119650000D03*
%TO.P,L5,2,A*%
%TO.N,Net-(L5-A)*%
X173990000Y-121650000D03*
%TD*%
D12*
%TO.P,Cx18,1*%
%TO.N,+5V*%
X242570000Y-66040000D03*
%TO.P,Cx18,2*%
%TO.N,GND*%
X242570000Y-68540000D03*
%TD*%
D13*
%TO.P,R48,1*%
%TO.N,/~{NMI}*%
X165370000Y-104775000D03*
%TO.P,R48,2*%
%TO.N,+5V*%
X167370000Y-104775000D03*
%TD*%
D17*
%TO.P,L17,1,K*%
%TO.N,GND*%
X209550000Y-119650000D03*
%TO.P,L17,2,A*%
%TO.N,Net-(L17-A)*%
X209550000Y-121650000D03*
%TD*%
D13*
%TO.P,R76,1*%
%TO.N,Net-(L43-A)*%
X244745000Y-94615000D03*
%TO.P,R76,2*%
%TO.N,Net-(PA1-Pin_8)*%
X246745000Y-94615000D03*
%TD*%
D18*
%TO.P,J56,1,Pin_1*%
%TO.N,unconnected-(J56-Pin_1-Pad1)*%
X233680000Y-77470000D03*
%TD*%
%TO.P,J86,1,Pin_1*%
%TO.N,unconnected-(J86-Pin_1-Pad1)*%
X226060000Y-74930000D03*
%TD*%
%TO.P,J98,1,Pin_1*%
%TO.N,unconnected-(J98-Pin_1-Pad1)*%
X231140000Y-48260000D03*
%TD*%
D12*
%TO.P,C2,1*%
%TO.N,GND*%
X219007200Y-37667200D03*
%TO.P,C2,2*%
%TO.N,Net-(U1-EXTAL)*%
X219007200Y-35167200D03*
%TD*%
D20*
%TO.P,S1,1,1*%
%TO.N,MasterReset*%
X214350600Y-119071000D03*
%TO.P,S1,2,2*%
X220850600Y-119071000D03*
%TO.P,S1,3,K*%
%TO.N,GND*%
X214350600Y-123571000D03*
%TO.P,S1,4,A*%
X220850600Y-123571000D03*
%TD*%
D21*
%TO.P,J57,1,Pin_1*%
%TO.N,unconnected-(J57-Pin_1-Pad1)*%
X236220000Y-92710000D03*
%TD*%
D14*
%TO.P,LSys1,1,K*%
%TO.N,Net-(LSys1-K)*%
X245618000Y-68691000D03*
%TO.P,LSys1,2,A*%
%TO.N,+5V*%
X245618000Y-66691000D03*
%TD*%
D18*
%TO.P,J103,1,Pin_1*%
%TO.N,unconnected-(J103-Pin_1-Pad1)*%
X233680000Y-100330000D03*
%TD*%
D13*
%TO.P,R84,1*%
%TO.N,Net-(L51-A)*%
X244745000Y-43815000D03*
%TO.P,R84,2*%
%TO.N,Net-(PB1-Pin_8)*%
X246745000Y-43815000D03*
%TD*%
D21*
%TO.P,J49,1,Pin_1*%
%TO.N,unconnected-(J49-Pin_1-Pad1)*%
X236220000Y-95250000D03*
%TD*%
D13*
%TO.P,R77,1*%
%TO.N,Net-(L44-A)*%
X244745000Y-61595000D03*
%TO.P,R77,2*%
%TO.N,Net-(PB1-Pin_1)*%
X246745000Y-61595000D03*
%TD*%
D18*
%TO.P,J94,1,Pin_1*%
%TO.N,unconnected-(J94-Pin_1-Pad1)*%
X231140000Y-97790000D03*
%TD*%
D22*
%TO.P,L37,1,K*%
%TO.N,GND*%
X240935000Y-109855000D03*
%TO.P,L37,2,A*%
%TO.N,Net-(L37-A)*%
X242935000Y-109855000D03*
%TD*%
D23*
%TO.P,J6,1,Pin_1*%
%TO.N,+5V*%
X160020000Y-36068000D03*
D24*
%TO.P,J6,2,Pin_2*%
X162560000Y-36068000D03*
%TO.P,J6,3,Pin_3*%
%TO.N,D0*%
X160020000Y-38608000D03*
%TO.P,J6,4,Pin_4*%
%TO.N,D1*%
X162560000Y-38608000D03*
%TO.P,J6,5,Pin_5*%
%TO.N,D2*%
X160020000Y-41148000D03*
%TO.P,J6,6,Pin_6*%
%TO.N,D3*%
X162560000Y-41148000D03*
%TO.P,J6,7,Pin_7*%
%TO.N,D4*%
X160020000Y-43688000D03*
%TO.P,J6,8,Pin_8*%
%TO.N,D5*%
X162560000Y-43688000D03*
%TO.P,J6,9,Pin_9*%
%TO.N,D6*%
X160020000Y-46228000D03*
%TO.P,J6,10,Pin_10*%
%TO.N,D7*%
X162560000Y-46228000D03*
%TO.P,J6,11,Pin_11*%
%TO.N,/CA0*%
X160020000Y-48768000D03*
%TO.P,J6,12,Pin_12*%
%TO.N,/CA1*%
X162560000Y-48768000D03*
%TO.P,J6,13,Pin_13*%
%TO.N,/CA2*%
X160020000Y-51308000D03*
%TO.P,J6,14,Pin_14*%
%TO.N,/CA3*%
X162560000Y-51308000D03*
%TO.P,J6,15,Pin_15*%
%TO.N,/CA4*%
X160020000Y-53848000D03*
%TO.P,J6,16,Pin_16*%
%TO.N,/CA5*%
X162560000Y-53848000D03*
%TO.P,J6,17,Pin_17*%
%TO.N,/CA6*%
X160020000Y-56388000D03*
%TO.P,J6,18,Pin_18*%
%TO.N,/CA7*%
X162560000Y-56388000D03*
%TO.P,J6,19,Pin_19*%
%TO.N,/CA8*%
X160020000Y-58928000D03*
%TO.P,J6,20,Pin_20*%
%TO.N,/CA9*%
X162560000Y-58928000D03*
%TO.P,J6,21,Pin_21*%
%TO.N,/CA10*%
X160020000Y-61468000D03*
%TO.P,J6,22,Pin_22*%
%TO.N,/CA11*%
X162560000Y-61468000D03*
%TO.P,J6,23,Pin_23*%
%TO.N,/GA12*%
X160020000Y-64008000D03*
%TO.P,J6,24,Pin_24*%
%TO.N,/GA13*%
X162560000Y-64008000D03*
%TO.P,J6,25,Pin_25*%
%TO.N,/GA14*%
X160020000Y-66548000D03*
%TO.P,J6,26,Pin_26*%
%TO.N,/GA15*%
X162560000Y-66548000D03*
%TO.P,J6,27,Pin_27*%
%TO.N,/A_S_16*%
X160020000Y-69088000D03*
%TO.P,J6,28,Pin_28*%
%TO.N,/B_S_16*%
X162560000Y-69088000D03*
%TO.P,J6,29,Pin_29*%
%TO.N,/A_HALT*%
X160020000Y-71628000D03*
%TO.P,J6,30,Pin_30*%
%TO.N,/mB_HALT*%
X162560000Y-71628000D03*
%TO.P,J6,31,Pin_31*%
%TO.N,/mA_READ*%
X160020000Y-74168000D03*
%TO.P,J6,32,Pin_32*%
%TO.N,/B_READ*%
X162560000Y-74168000D03*
%TO.P,J6,33,Pin_33*%
%TO.N,/A_SHARE_DIRTY*%
X160020000Y-76708000D03*
%TO.P,J6,34,Pin_34*%
%TO.N,/B_SHARE_DIRTY*%
X162560000Y-76708000D03*
%TO.P,J6,35,Pin_35*%
%TO.N,/mA_SHARE_GRANTED*%
X160020000Y-79248000D03*
%TO.P,J6,36,Pin_36*%
%TO.N,/mB_SHARE_GRANTED*%
X162560000Y-79248000D03*
%TO.P,J6,37,Pin_37*%
%TO.N,/A_SHARE_REQUEST*%
X160020000Y-81788000D03*
%TO.P,J6,38,Pin_38*%
%TO.N,/B_SHARE_REQUEST*%
X162560000Y-81788000D03*
%TO.P,J6,39,Pin_39*%
%TO.N,A_S_SELECT*%
X160020000Y-84328000D03*
%TO.P,J6,40,Pin_40*%
%TO.N,B_S_SELECT*%
X162560000Y-84328000D03*
%TO.P,J6,41,Pin_41*%
%TO.N,A_S_READ*%
X160020000Y-86868000D03*
%TO.P,J6,42,Pin_42*%
%TO.N,B_S_READ*%
X162560000Y-86868000D03*
%TO.P,J6,43,Pin_43*%
%TO.N,A_S_WRITE*%
X160020000Y-89408000D03*
%TO.P,J6,44,Pin_44*%
%TO.N,B_S_WRITE*%
X162560000Y-89408000D03*
%TO.P,J6,45,Pin_45*%
%TO.N,A_G_ENABLE*%
X160020000Y-91948000D03*
%TO.P,J6,46,Pin_46*%
%TO.N,B_G_ENABLE*%
X162560000Y-91948000D03*
%TO.P,J6,47,Pin_47*%
%TO.N,A_G_A_DIR*%
X160020000Y-94488000D03*
%TO.P,J6,48,Pin_48*%
%TO.N,B_G_A_DIR*%
X162560000Y-94488000D03*
%TO.P,J6,49,Pin_49*%
%TO.N,A_G_D_DIR*%
X160020000Y-97028000D03*
%TO.P,J6,50,Pin_50*%
%TO.N,B_G_D_DIR*%
X162560000Y-97028000D03*
%TO.P,J6,51,Pin_51*%
%TO.N,/mA_SHARE_SELECT*%
X160020000Y-99568000D03*
%TO.P,J6,52,Pin_52*%
%TO.N,/B_SHARE_SELECT*%
X162560000Y-99568000D03*
%TO.P,J6,53,Pin_53*%
%TO.N,/E*%
X160020000Y-102108000D03*
%TO.P,J6,54,Pin_54*%
%TO.N,/R~{W}*%
X162560000Y-102108000D03*
%TO.P,J6,55,Pin_55*%
%TO.N,/~{NMI}*%
X160020000Y-104648000D03*
%TO.P,J6,56,Pin_56*%
%TO.N,/~{IRQ}*%
X162560000Y-104648000D03*
%TO.P,J6,57,Pin_57*%
%TO.N,/~{FIRQ}*%
X160020000Y-107188000D03*
%TO.P,J6,58,Pin_58*%
%TO.N,/~{Dev_1}*%
X162560000Y-107188000D03*
%TO.P,J6,59,Pin_59*%
%TO.N,/~{Dev_2}*%
X160020000Y-109728000D03*
%TO.P,J6,60,Pin_60*%
%TO.N,/~{Dev_3}*%
X162560000Y-109728000D03*
%TO.P,J6,61,Pin_61*%
%TO.N,/~{Dev_4}*%
X160020000Y-112268000D03*
%TO.P,J6,62,Pin_62*%
%TO.N,MasterReset*%
X162560000Y-112268000D03*
%TO.P,J6,63,Pin_63*%
%TO.N,GND*%
X160020000Y-114808000D03*
%TO.P,J6,64,Pin_64*%
X162560000Y-114808000D03*
%TD*%
D19*
%TO.P,H7,1*%
%TO.N,N/C*%
X247400000Y-120400000D03*
%TD*%
D22*
%TO.P,L56,1,K*%
%TO.N,GND*%
X240935000Y-81915000D03*
%TO.P,L56,2,A*%
%TO.N,Net-(L56-A)*%
X242935000Y-81915000D03*
%TD*%
D13*
%TO.P,R52,1*%
%TO.N,MRDY*%
X212360000Y-43923900D03*
%TO.P,R52,2*%
%TO.N,+5V*%
X214360000Y-43923900D03*
%TD*%
D18*
%TO.P,J64,1,Pin_1*%
%TO.N,unconnected-(J64-Pin_1-Pad1)*%
X236220000Y-77470000D03*
%TD*%
D17*
%TO.P,L12,1,K*%
%TO.N,GND*%
X207010000Y-119650000D03*
%TO.P,L12,2,A*%
%TO.N,Net-(L12-A)*%
X207010000Y-121650000D03*
%TD*%
D13*
%TO.P,R88,1*%
%TO.N,Net-(L55-A)*%
X244745000Y-79375000D03*
%TO.P,R88,2*%
%TO.N,/vCB1*%
X246745000Y-79375000D03*
%TD*%
D22*
%TO.P,L44,1,K*%
%TO.N,GND*%
X240935000Y-61595000D03*
%TO.P,L44,2,A*%
%TO.N,Net-(L44-A)*%
X242935000Y-61595000D03*
%TD*%
D17*
%TO.P,L4,1,K*%
%TO.N,GND*%
X177800000Y-119650000D03*
%TO.P,L4,2,A*%
%TO.N,Net-(L4-A)*%
X177800000Y-121650000D03*
%TD*%
D22*
%TO.P,L52,1,K*%
%TO.N,GND*%
X240935000Y-71755000D03*
%TO.P,L52,2,A*%
%TO.N,Net-(L52-A)*%
X242935000Y-71755000D03*
%TD*%
D12*
%TO.P,Cx23,1*%
%TO.N,Net-(Cx23-Pad1)*%
X217170000Y-116078000D03*
%TO.P,Cx23,2*%
%TO.N,GND*%
X219670000Y-116078000D03*
%TD*%
D11*
%TO.P,Cx27,1*%
%TO.N,+5V*%
X212344000Y-88011000D03*
D12*
%TO.P,Cx27,2*%
%TO.N,GND*%
X214844000Y-88011000D03*
%TD*%
%TO.P,Cx22,1*%
%TO.N,Net-(Cx19-Pad1)*%
X219964000Y-81788000D03*
%TO.P,Cx22,2*%
%TO.N,GND*%
X217464000Y-81788000D03*
%TD*%
D25*
%TO.P,Y1,1,1*%
%TO.N,Net-(Cx23-Pad1)*%
X218567000Y-101092000D03*
%TO.P,Y1,2,2*%
%TO.N,Net-(Cx19-Pad1)*%
X218567000Y-96212000D03*
%TD*%
D18*
%TO.P,J59,1,Pin_1*%
%TO.N,unconnected-(J59-Pin_1-Pad1)*%
X231140000Y-64770000D03*
%TD*%
D13*
%TO.P,R70,1*%
%TO.N,Net-(L37-A)*%
X244745000Y-109855000D03*
%TO.P,R70,2*%
%TO.N,Net-(PA1-Pin_2)*%
X246745000Y-109855000D03*
%TD*%
D18*
%TO.P,J80,1,Pin_1*%
%TO.N,unconnected-(J80-Pin_1-Pad1)*%
X228600000Y-102870000D03*
%TD*%
D22*
%TO.P,L51,1,K*%
%TO.N,GND*%
X240935000Y-43815000D03*
%TO.P,L51,2,A*%
%TO.N,Net-(L51-A)*%
X242935000Y-43815000D03*
%TD*%
D12*
%TO.P,C1,1*%
%TO.N,GND*%
X219007200Y-29541200D03*
%TO.P,C1,2*%
%TO.N,Net-(U1-XTAL)*%
X219007200Y-32041200D03*
%TD*%
D18*
%TO.P,J46,1,Pin_1*%
%TO.N,unconnected-(J46-Pin_1-Pad1)*%
X231140000Y-72390000D03*
%TD*%
D19*
%TO.P,H6,1*%
%TO.N,N/C*%
X247400000Y-30400000D03*
%TD*%
D18*
%TO.P,J39,1,Pin_1*%
%TO.N,unconnected-(J39-Pin_1-Pad1)*%
X228600000Y-74930000D03*
%TD*%
D13*
%TO.P,R51,1*%
%TO.N,~{DMA{slash}BREQ}*%
X212360000Y-47008000D03*
%TO.P,R51,2*%
%TO.N,+5V*%
X214360000Y-47008000D03*
%TD*%
D18*
%TO.P,J50,1,Pin_1*%
%TO.N,unconnected-(J50-Pin_1-Pad1)*%
X231140000Y-80010000D03*
%TD*%
D23*
%TO.P,PB1,1,Pin_1*%
%TO.N,Net-(PB1-Pin_1)*%
X250190000Y-61595000D03*
D24*
%TO.P,PB1,2,Pin_2*%
%TO.N,Net-(PB1-Pin_2)*%
X250190000Y-59055000D03*
%TO.P,PB1,3,Pin_3*%
%TO.N,Net-(PB1-Pin_3)*%
X250190000Y-56515000D03*
%TO.P,PB1,4,Pin_4*%
%TO.N,Net-(PB1-Pin_4)*%
X250190000Y-53975000D03*
%TO.P,PB1,5,Pin_5*%
%TO.N,Net-(PB1-Pin_5)*%
X250190000Y-51435000D03*
%TO.P,PB1,6,Pin_6*%
%TO.N,Net-(PB1-Pin_6)*%
X250190000Y-48895000D03*
%TO.P,PB1,7,Pin_7*%
%TO.N,Net-(PB1-Pin_7)*%
X250190000Y-46355000D03*
%TO.P,PB1,8,Pin_8*%
%TO.N,Net-(PB1-Pin_8)*%
X250190000Y-43815000D03*
%TO.P,PB1,9,Pin_9*%
%TO.N,GND*%
X250190000Y-41275000D03*
%TO.P,PB1,10,Pin_10*%
%TO.N,+5V*%
X250190000Y-38735000D03*
%TD*%
D18*
%TO.P,J89,1,Pin_1*%
%TO.N,unconnected-(J89-Pin_1-Pad1)*%
X226060000Y-64770000D03*
%TD*%
%TO.P,J5,1,Pin_1*%
%TO.N,+5V*%
X231140000Y-87630000D03*
%TD*%
%TO.P,J77,1,Pin_1*%
%TO.N,unconnected-(J77-Pin_1-Pad1)*%
X226060000Y-95250000D03*
%TD*%
D12*
%TO.P,Cx24,1*%
%TO.N,Net-(Cx23-Pad1)*%
X217170000Y-113538000D03*
%TO.P,Cx24,2*%
%TO.N,GND*%
X219670000Y-113538000D03*
%TD*%
D26*
%TO.P,R44,1*%
%TO.N,GND*%
X173070600Y-46175300D03*
%TO.P,R44,2*%
%TO.N,JT_TCK*%
X173070600Y-44350300D03*
%TD*%
D18*
%TO.P,J96,1,Pin_1*%
%TO.N,unconnected-(J96-Pin_1-Pad1)*%
X231140000Y-102870000D03*
%TD*%
%TO.P,J72,1,Pin_1*%
%TO.N,unconnected-(J72-Pin_1-Pad1)*%
X226060000Y-102870000D03*
%TD*%
D23*
%TO.P,PA1,1,Pin_1*%
%TO.N,Net-(PA1-Pin_1)*%
X250190000Y-112395000D03*
D24*
%TO.P,PA1,2,Pin_2*%
%TO.N,Net-(PA1-Pin_2)*%
X250190000Y-109855000D03*
%TO.P,PA1,3,Pin_3*%
%TO.N,Net-(PA1-Pin_3)*%
X250190000Y-107315000D03*
%TO.P,PA1,4,Pin_4*%
%TO.N,Net-(PA1-Pin_4)*%
X250190000Y-104775000D03*
%TO.P,PA1,5,Pin_5*%
%TO.N,Net-(PA1-Pin_5)*%
X250190000Y-102235000D03*
%TO.P,PA1,6,Pin_6*%
%TO.N,Net-(PA1-Pin_6)*%
X250190000Y-99695000D03*
%TO.P,PA1,7,Pin_7*%
%TO.N,Net-(PA1-Pin_7)*%
X250190000Y-97155000D03*
%TO.P,PA1,8,Pin_8*%
%TO.N,Net-(PA1-Pin_8)*%
X250190000Y-94615000D03*
%TO.P,PA1,9,Pin_9*%
%TO.N,GND*%
X250190000Y-92075000D03*
%TO.P,PA1,10,Pin_10*%
%TO.N,+5V*%
X250190000Y-89535000D03*
%TD*%
D17*
%TO.P,L2,1,K*%
%TO.N,GND*%
X171450000Y-119650000D03*
%TO.P,L2,2,A*%
%TO.N,Net-(L2-A)*%
X171450000Y-121650000D03*
%TD*%
D18*
%TO.P,J81,1,Pin_1*%
%TO.N,unconnected-(J81-Pin_1-Pad1)*%
X228600000Y-82550000D03*
%TD*%
D21*
%TO.P,J65,1,Pin_1*%
%TO.N,unconnected-(J65-Pin_1-Pad1)*%
X236220000Y-90170000D03*
%TD*%
D14*
%TO.P,L59,1,K*%
%TO.N,GND*%
X234340400Y-120329200D03*
%TO.P,L59,2,A*%
%TO.N,Net-(L59-A)*%
X234340400Y-118329200D03*
%TD*%
D18*
%TO.P,J51,1,Pin_1*%
%TO.N,unconnected-(J51-Pin_1-Pad1)*%
X233680000Y-67310000D03*
%TD*%
D17*
%TO.P,L8,1,K*%
%TO.N,GND*%
X184150000Y-119650000D03*
%TO.P,L8,2,A*%
%TO.N,Net-(L8-A)*%
X184150000Y-121650000D03*
%TD*%
D14*
%TO.P,L58,1,K*%
%TO.N,GND*%
X236880400Y-120329200D03*
%TO.P,L58,2,A*%
%TO.N,Net-(L58-A)*%
X236880400Y-118329200D03*
%TD*%
D22*
%TO.P,L55,1,K*%
%TO.N,GND*%
X240935000Y-79375000D03*
%TO.P,L55,2,A*%
%TO.N,Net-(L55-A)*%
X242935000Y-79375000D03*
%TD*%
D12*
%TO.P,Cx7,1*%
%TO.N,+5V*%
X190500000Y-44450000D03*
%TO.P,Cx7,2*%
%TO.N,GND*%
X190500000Y-46950000D03*
%TD*%
D17*
%TO.P,L10,1,K*%
%TO.N,GND*%
X195580000Y-119650000D03*
%TO.P,L10,2,A*%
%TO.N,Net-(L10-A)*%
X195580000Y-121650000D03*
%TD*%
D13*
%TO.P,R75,1*%
%TO.N,Net-(L42-A)*%
X244745000Y-97155000D03*
%TO.P,R75,2*%
%TO.N,Net-(PA1-Pin_7)*%
X246745000Y-97155000D03*
%TD*%
D12*
%TO.P,Cx11,1*%
%TO.N,+5V*%
X188595000Y-115570000D03*
%TO.P,Cx11,2*%
%TO.N,GND*%
X191095000Y-115570000D03*
%TD*%
D18*
%TO.P,J82,1,Pin_1*%
%TO.N,unconnected-(J82-Pin_1-Pad1)*%
X228600000Y-48260000D03*
%TD*%
D12*
%TO.P,Cx25,1*%
%TO.N,Net-(Cx23-Pad1)*%
X217170000Y-110998000D03*
%TO.P,Cx25,2*%
%TO.N,GND*%
X219670000Y-110998000D03*
%TD*%
D13*
%TO.P,R71,1*%
%TO.N,Net-(L38-A)*%
X244745000Y-107315000D03*
%TO.P,R71,2*%
%TO.N,Net-(PA1-Pin_3)*%
X246745000Y-107315000D03*
%TD*%
D22*
%TO.P,L38,1,K*%
%TO.N,GND*%
X240935000Y-107315000D03*
%TO.P,L38,2,A*%
%TO.N,Net-(L38-A)*%
X242935000Y-107315000D03*
%TD*%
D18*
%TO.P,J66,1,Pin_1*%
%TO.N,unconnected-(J66-Pin_1-Pad1)*%
X236220000Y-80010000D03*
%TD*%
%TO.P,J42,1,Pin_1*%
%TO.N,unconnected-(J42-Pin_1-Pad1)*%
X228600000Y-80010000D03*
%TD*%
%TO.P,J52,1,Pin_1*%
%TO.N,unconnected-(J52-Pin_1-Pad1)*%
X233680000Y-64770000D03*
%TD*%
D13*
%TO.P,R58,1*%
%TO.N,/~{Dev_4}*%
X165370000Y-112395000D03*
%TO.P,R58,2*%
%TO.N,+5V*%
X167370000Y-112395000D03*
%TD*%
D18*
%TO.P,J74,1,Pin_1*%
%TO.N,unconnected-(J74-Pin_1-Pad1)*%
X236220000Y-82550000D03*
%TD*%
%TO.P,J40,1,Pin_1*%
%TO.N,unconnected-(J40-Pin_1-Pad1)*%
X228600000Y-77470000D03*
%TD*%
D12*
%TO.P,Cx13,1*%
%TO.N,+5V*%
X186055000Y-71120000D03*
%TO.P,Cx13,2*%
%TO.N,GND*%
X186055000Y-73620000D03*
%TD*%
D18*
%TO.P,J76,1,Pin_1*%
%TO.N,unconnected-(J76-Pin_1-Pad1)*%
X226060000Y-92710000D03*
%TD*%
D12*
%TO.P,Cx21,1*%
%TO.N,Net-(Cx19-Pad1)*%
X219964000Y-84328000D03*
%TO.P,Cx21,2*%
%TO.N,GND*%
X217464000Y-84328000D03*
%TD*%
D11*
%TO.P,Cx28,1*%
%TO.N,+5V*%
X177165000Y-82423000D03*
D12*
%TO.P,Cx28,2*%
%TO.N,GND*%
X179665000Y-82423000D03*
%TD*%
D18*
%TO.P,J61,1,Pin_1*%
%TO.N,unconnected-(J61-Pin_1-Pad1)*%
X233680000Y-69850000D03*
%TD*%
%TO.P,J54,1,Pin_1*%
%TO.N,unconnected-(J54-Pin_1-Pad1)*%
X233680000Y-72390000D03*
%TD*%
%TO.P,J105,1,Pin_1*%
%TO.N,unconnected-(J105-Pin_1-Pad1)*%
X233680000Y-82550000D03*
%TD*%
D13*
%TO.P,R74,1*%
%TO.N,Net-(L41-A)*%
X244745000Y-99695000D03*
%TO.P,R74,2*%
%TO.N,Net-(PA1-Pin_6)*%
X246745000Y-99695000D03*
%TD*%
D27*
%TO.P,U5,1,VSS*%
%TO.N,GND*%
X238760000Y-83185000D03*
D12*
%TO.P,U5,2,PA0*%
%TO.N,Net-(PA1-Pin_1)*%
X238760000Y-80645000D03*
%TO.P,U5,3,PA1*%
%TO.N,Net-(PA1-Pin_2)*%
X238760000Y-78105000D03*
%TO.P,U5,4,PA2*%
%TO.N,Net-(PA1-Pin_3)*%
X238760000Y-75565000D03*
%TO.P,U5,5,PA3*%
%TO.N,Net-(PA1-Pin_4)*%
X238760000Y-73025000D03*
%TO.P,U5,6,PA4*%
%TO.N,Net-(PA1-Pin_5)*%
X238760000Y-70485000D03*
%TO.P,U5,7,PA5*%
%TO.N,Net-(PA1-Pin_6)*%
X238760000Y-67945000D03*
%TO.P,U5,8,PA6*%
%TO.N,Net-(PA1-Pin_7)*%
X238760000Y-65405000D03*
%TO.P,U5,9,PA7*%
%TO.N,Net-(PA1-Pin_8)*%
X238760000Y-62865000D03*
%TO.P,U5,10,PB0*%
%TO.N,Net-(PB1-Pin_1)*%
X238760000Y-60325000D03*
%TO.P,U5,11,PB1*%
%TO.N,Net-(PB1-Pin_2)*%
X238760000Y-57785000D03*
%TO.P,U5,12,PB2*%
%TO.N,Net-(PB1-Pin_3)*%
X238760000Y-55245000D03*
%TO.P,U5,13,PB3*%
%TO.N,Net-(PB1-Pin_4)*%
X238760000Y-52705000D03*
%TO.P,U5,14,PB4*%
%TO.N,Net-(PB1-Pin_5)*%
X238760000Y-50165000D03*
%TO.P,U5,15,PB5*%
%TO.N,Net-(PB1-Pin_6)*%
X238760000Y-47625000D03*
%TO.P,U5,16,PB6*%
%TO.N,Net-(PB1-Pin_7)*%
X238760000Y-45085000D03*
%TO.P,U5,17,PB7*%
%TO.N,Net-(PB1-Pin_8)*%
X238760000Y-42545000D03*
%TO.P,U5,18,CB1*%
%TO.N,Net-(Jx1-Pin_2)*%
X238760000Y-40005000D03*
%TO.P,U5,19,CB2*%
%TO.N,/vCB2*%
X238760000Y-37465000D03*
%TO.P,U5,20,VCC*%
%TO.N,+5V*%
X238760000Y-34925000D03*
%TO.P,U5,21,R/~{W}*%
%TO.N,/R~{W}*%
X223520000Y-34925000D03*
%TO.P,U5,22,CS0*%
%TO.N,+5V*%
X223520000Y-37465000D03*
%TO.P,U5,23,~{CS2}*%
%TO.N,~{Dev_Sel_1}*%
X223520000Y-40005000D03*
%TO.P,U5,24,CS1*%
%TO.N,+5V*%
X223520000Y-42545000D03*
%TO.P,U5,25,ENABLE*%
%TO.N,/E*%
X223520000Y-45085000D03*
%TO.P,U5,26,D7*%
%TO.N,D7*%
X223520000Y-47625000D03*
%TO.P,U5,27,D6*%
%TO.N,D6*%
X223520000Y-50165000D03*
%TO.P,U5,28,D5*%
%TO.N,D5*%
X223520000Y-52705000D03*
%TO.P,U5,29,D4*%
%TO.N,D4*%
X223520000Y-55245000D03*
%TO.P,U5,30,D3*%
%TO.N,D3*%
X223520000Y-57785000D03*
%TO.P,U5,31,D2*%
%TO.N,D2*%
X223520000Y-60325000D03*
%TO.P,U5,32,D1*%
%TO.N,D1*%
X223520000Y-62865000D03*
%TO.P,U5,33,D0*%
%TO.N,D0*%
X223520000Y-65405000D03*
%TO.P,U5,34,~{RESET}*%
%TO.N,MasterReset*%
X223520000Y-67945000D03*
%TO.P,U5,35,RS1*%
%TO.N,/CA1*%
X223520000Y-70485000D03*
%TO.P,U5,36,RS0*%
%TO.N,/CA0*%
X223520000Y-73025000D03*
%TO.P,U5,37,~{IRQB}*%
%TO.N,/v~{IRQB}*%
X223520000Y-75565000D03*
%TO.P,U5,38,~{IRQA}*%
%TO.N,/v~{IRQA}*%
X223520000Y-78105000D03*
%TO.P,U5,39,CA2*%
%TO.N,/vCA2*%
X223520000Y-80645000D03*
%TO.P,U5,40,CA1*%
%TO.N,/vCA1*%
X223520000Y-83185000D03*
%TD*%
%TO.P,Cx17,1*%
%TO.N,+5V*%
X227457000Y-118719600D03*
%TO.P,Cx17,2*%
%TO.N,GND*%
X229957000Y-118719600D03*
%TD*%
D28*
%TO.P,R55,1*%
%TO.N,/~{Dev_1}*%
X172450000Y-107333000D03*
%TO.P,R55,2*%
%TO.N,+5V*%
X170450000Y-107333000D03*
%TD*%
D23*
%TO.P,Jx2,1,Pin_1*%
%TO.N,Net-(Jx2-Pin_1)*%
X176859200Y-29645600D03*
D24*
%TO.P,Jx2,2,Pin_2*%
%TO.N,/BootSrc*%
X179399200Y-29645600D03*
%TO.P,Jx2,3,Pin_3*%
%TO.N,Net-(Jx2-Pin_3)*%
X181939200Y-29645600D03*
%TD*%
D12*
%TO.P,Cx16,1*%
%TO.N,+5V*%
X167640000Y-49530000D03*
%TO.P,Cx16,2*%
%TO.N,GND*%
X170140000Y-49530000D03*
%TD*%
D19*
%TO.P,H5,1*%
%TO.N,N/C*%
X157400000Y-30400000D03*
%TD*%
D18*
%TO.P,J22,1,Pin_1*%
%TO.N,unconnected-(J22-Pin_1-Pad1)*%
X226060000Y-67310000D03*
%TD*%
D22*
%TO.P,L53,1,K*%
%TO.N,GND*%
X240935000Y-74295000D03*
%TO.P,L53,2,A*%
%TO.N,Net-(L53-A)*%
X242935000Y-74295000D03*
%TD*%
D18*
%TO.P,J102,1,Pin_1*%
%TO.N,unconnected-(J102-Pin_1-Pad1)*%
X233680000Y-97790000D03*
%TD*%
D11*
%TO.P,Cx14,1*%
%TO.N,+5V*%
X164465000Y-29845000D03*
D12*
%TO.P,Cx14,2*%
%TO.N,GND*%
X166965000Y-29845000D03*
%TD*%
D13*
%TO.P,R56,1*%
%TO.N,/~{Dev_2}*%
X165370000Y-109855000D03*
%TO.P,R56,2*%
%TO.N,+5V*%
X167370000Y-109855000D03*
%TD*%
D18*
%TO.P,J97,1,Pin_1*%
%TO.N,unconnected-(J97-Pin_1-Pad1)*%
X231140000Y-82550000D03*
%TD*%
D22*
%TO.P,L39,1,K*%
%TO.N,GND*%
X240935000Y-104775000D03*
%TO.P,L39,2,A*%
%TO.N,Net-(L39-A)*%
X242935000Y-104775000D03*
%TD*%
D18*
%TO.P,J44,1,Pin_1*%
%TO.N,unconnected-(J44-Pin_1-Pad1)*%
X226060000Y-69850000D03*
%TD*%
D12*
%TO.P,Cx12,1*%
%TO.N,+5V*%
X233680000Y-32385000D03*
%TO.P,Cx12,2*%
%TO.N,GND*%
X231180000Y-32385000D03*
%TD*%
%TO.P,Cx9,1*%
%TO.N,+5V*%
X176530000Y-116840000D03*
%TO.P,Cx9,2*%
%TO.N,GND*%
X179030000Y-116840000D03*
%TD*%
D18*
%TO.P,J92,1,Pin_1*%
%TO.N,unconnected-(J92-Pin_1-Pad1)*%
X228600000Y-90170000D03*
%TD*%
D17*
%TO.P,L3,1,K*%
%TO.N,GND*%
X181610000Y-119650000D03*
%TO.P,L3,2,A*%
%TO.N,Net-(L3-A)*%
X181610000Y-121650000D03*
%TD*%
D13*
%TO.P,R50,1*%
%TO.N,/~{FIRQ}*%
X165370000Y-107315000D03*
%TO.P,R50,2*%
%TO.N,+5V*%
X167370000Y-107315000D03*
%TD*%
D17*
%TO.P,L0,1,K*%
%TO.N,GND*%
X165100000Y-119650000D03*
%TO.P,L0,2,A*%
%TO.N,Net-(L0-A)*%
X165100000Y-121650000D03*
%TD*%
D18*
%TO.P,J21,1,Pin_1*%
%TO.N,unconnected-(J21-Pin_1-Pad1)*%
X228600000Y-67310000D03*
%TD*%
%TO.P,J91,1,Pin_1*%
%TO.N,unconnected-(J91-Pin_1-Pad1)*%
X231140000Y-92710000D03*
%TD*%
D29*
%TO.P,U15,1,PD1/I/O*%
%TO.N,D6*%
X169388600Y-55314800D03*
D30*
X170287798Y-55314799D03*
D29*
%TO.P,U15,2,I/O*%
%TO.N,D7*%
X169388600Y-55814800D03*
D30*
X170287798Y-55814801D03*
D29*
%TO.P,U15,3,VCCIO*%
%TO.N,+5V*%
X169388600Y-56314800D03*
D30*
X170287798Y-56314800D03*
D29*
%TO.P,U15,4,I/O/TDI*%
%TO.N,JT_TDI*%
X169388600Y-56814800D03*
D30*
X170287798Y-56814799D03*
D29*
%TO.P,U15,5,I/O*%
%TO.N,/CA0*%
X169388600Y-57314800D03*
D30*
X170287798Y-57314800D03*
D29*
%TO.P,U15,6,I/O*%
%TO.N,/CA1*%
X169388600Y-57814800D03*
D30*
X170287798Y-57814799D03*
D29*
%TO.P,U15,7,I/O*%
%TO.N,/CA2*%
X169388600Y-58314800D03*
D30*
X170287798Y-58314801D03*
D29*
%TO.P,U15,8,I/O*%
%TO.N,/CA3*%
X169388600Y-58814800D03*
D30*
X170287798Y-58814800D03*
D29*
%TO.P,U15,9,I/O*%
%TO.N,/CA4*%
X169388600Y-59314799D03*
D30*
X170287798Y-59314799D03*
D29*
%TO.P,U15,10,I/O*%
%TO.N,/CA5*%
X169388600Y-59814800D03*
D30*
X170287798Y-59814800D03*
D29*
%TO.P,U15,11,GND*%
%TO.N,GND*%
X169388600Y-60314799D03*
D30*
X170287798Y-60314799D03*
D29*
%TO.P,U15,12,I/O*%
%TO.N,/CA6*%
X169388600Y-60814798D03*
D30*
X170287798Y-60814798D03*
D29*
%TO.P,U15,13,I/O*%
%TO.N,/CA7*%
X169388600Y-61314800D03*
D30*
X170287798Y-61314800D03*
D29*
%TO.P,U15,14,I/O*%
%TO.N,/CA8*%
X169388600Y-61814799D03*
D30*
X170287798Y-61814799D03*
D29*
%TO.P,U15,15,I/O/TMS*%
%TO.N,JT_TMS*%
X169388600Y-62314800D03*
D30*
X170287798Y-62314801D03*
D29*
%TO.P,U15,16,I/O*%
%TO.N,/CA9*%
X169388600Y-62814800D03*
D30*
X170287798Y-62814800D03*
D29*
%TO.P,U15,17,I/O*%
%TO.N,/CA10*%
X169388600Y-63314799D03*
D30*
X170287798Y-63314799D03*
D29*
%TO.P,U15,18,VCCIO*%
%TO.N,+5V*%
X169388600Y-63814800D03*
D30*
X170287798Y-63814800D03*
D29*
%TO.P,U15,19,I/O*%
%TO.N,/CA11*%
X169388600Y-64314799D03*
D30*
X170287798Y-64314799D03*
D29*
%TO.P,U15,20,I/O*%
%TO.N,CA12*%
X169388600Y-64814801D03*
D30*
X170287798Y-64814801D03*
D29*
%TO.P,U15,21,I/O*%
%TO.N,CA13*%
X169388600Y-65314800D03*
D30*
X170287798Y-65314800D03*
D29*
%TO.P,U15,22,I/O*%
%TO.N,CA14*%
X169388600Y-65814800D03*
D30*
X170287798Y-65814799D03*
D29*
%TO.P,U15,23,I/O*%
%TO.N,CA15*%
X169388600Y-66314800D03*
D30*
X170287798Y-66314800D03*
D29*
%TO.P,U15,24,I/O*%
%TO.N,/A_S_16*%
X169388600Y-66814800D03*
D30*
X170287798Y-66814799D03*
D29*
%TO.P,U15,25,I/O*%
%TO.N,/B_S_16*%
X169388600Y-67314801D03*
D30*
X170287798Y-67314801D03*
D31*
%TO.P,U15,26,GND*%
%TO.N,GND*%
X172088599Y-69115602D03*
D32*
X172088600Y-70014800D03*
%TO.P,U15,27,I/O*%
%TO.N,/A_HALT*%
X172588600Y-70014800D03*
D31*
X172588601Y-69115602D03*
%TO.P,U15,28,I/O*%
%TO.N,/mB_HALT*%
X173088600Y-69115602D03*
D32*
X173088600Y-70014800D03*
D31*
%TO.P,U15,29,I/O*%
%TO.N,/mA_READ*%
X173588599Y-69115602D03*
D32*
X173588599Y-70014800D03*
D31*
%TO.P,U15,30,I/O*%
%TO.N,/B_READ*%
X174088600Y-69115602D03*
D32*
X174088600Y-70014800D03*
D31*
%TO.P,U15,31,I/O*%
%TO.N,/A_SHARE_DIRTY*%
X174588599Y-69115602D03*
D32*
X174588599Y-70014800D03*
D31*
%TO.P,U15,32,I/O*%
%TO.N,/B_SHARE_DIRTY*%
X175088601Y-69115602D03*
D32*
X175088601Y-70014800D03*
D31*
%TO.P,U15,33,I/O*%
%TO.N,/mA_SHARE_GRANTED*%
X175588600Y-69115602D03*
D32*
X175588600Y-70014800D03*
D31*
%TO.P,U15,34,VCCIO*%
%TO.N,+5V*%
X176088599Y-69115602D03*
D32*
X176088599Y-70014800D03*
D31*
%TO.P,U15,35,I/O*%
%TO.N,/mB_SHARE_GRANTED*%
X176588600Y-69115602D03*
D32*
X176588600Y-70014800D03*
D31*
%TO.P,U15,36,I/O*%
%TO.N,/A_SHARE_REQUEST*%
X177088599Y-69115602D03*
D32*
X177088599Y-70014800D03*
D31*
%TO.P,U15,37,I/O*%
%TO.N,/B_SHARE_REQUEST*%
X177588601Y-69115602D03*
D32*
X177588601Y-70014800D03*
D31*
%TO.P,U15,38,GND*%
%TO.N,GND*%
X178088600Y-69115602D03*
D32*
X178088600Y-70014800D03*
D31*
%TO.P,U15,39,VCCINT*%
%TO.N,+5V*%
X178588599Y-69115602D03*
D32*
X178588599Y-70014800D03*
D31*
%TO.P,U15,40,I/O*%
%TO.N,A_S_SELECT*%
X179088601Y-69115602D03*
D32*
X179088601Y-70014800D03*
D31*
%TO.P,U15,41,I/O/PD2*%
%TO.N,B_S_SELECT*%
X179588600Y-69115602D03*
D32*
X179588600Y-70014800D03*
D31*
%TO.P,U15,42,I/O*%
%TO.N,A_S_READ*%
X180088601Y-69115602D03*
D32*
X180088601Y-70014800D03*
D31*
%TO.P,U15,43,GND*%
%TO.N,GND*%
X180588600Y-69115602D03*
D32*
X180588600Y-70014800D03*
D31*
%TO.P,U15,44,I/O*%
%TO.N,B_S_READ*%
X181088599Y-69115602D03*
D32*
X181088599Y-70014800D03*
D31*
%TO.P,U15,45,I/O*%
%TO.N,A_S_WRITE*%
X181588601Y-69115602D03*
D32*
X181588601Y-70014800D03*
D31*
%TO.P,U15,46,I/O*%
%TO.N,B_S_WRITE*%
X182088600Y-69115602D03*
D32*
X182088600Y-70014800D03*
D31*
%TO.P,U15,47,I/O*%
%TO.N,A_G_ENABLE*%
X182588601Y-69115602D03*
D32*
X182588601Y-70014800D03*
D31*
%TO.P,U15,48,I/O*%
%TO.N,B_G_ENABLE*%
X183088600Y-69115602D03*
D32*
X183088600Y-70014800D03*
D31*
%TO.P,U15,49,I/O*%
%TO.N,A_G_A_DIR*%
X183588599Y-69115602D03*
D32*
X183588600Y-70014800D03*
%TO.P,U15,50,I/O*%
%TO.N,B_G_A_DIR*%
X184088600Y-70014800D03*
D31*
X184088601Y-69115602D03*
D30*
%TO.P,U15,51,VCCIO*%
%TO.N,+5V*%
X185889402Y-67314801D03*
D29*
X186772402Y-67314801D03*
D30*
%TO.P,U15,52,I/O*%
%TO.N,A_G_D_DIR*%
X185889402Y-66814799D03*
D29*
X186788600Y-66814800D03*
D30*
%TO.P,U15,53,I/O*%
%TO.N,B_G_D_DIR*%
X185889402Y-66314800D03*
D29*
X186788600Y-66314800D03*
D30*
%TO.P,U15,54,I/O*%
%TO.N,/mA_SHARE_SELECT*%
X185889402Y-65814801D03*
D29*
X186772402Y-65814801D03*
D30*
%TO.P,U15,55,I/O*%
%TO.N,/B_SHARE_SELECT*%
X185889402Y-65314800D03*
D29*
X186788600Y-65314800D03*
D30*
%TO.P,U15,56,I/O*%
%TO.N,GA16*%
X185889402Y-64814801D03*
D29*
X186772402Y-64814801D03*
D30*
%TO.P,U15,57,I/O*%
%TO.N,/GA15*%
X185889402Y-64314799D03*
D29*
X186772402Y-64314799D03*
D30*
%TO.P,U15,58,I/O*%
%TO.N,/GA14*%
X185889402Y-63814800D03*
D29*
X186772402Y-63814800D03*
D30*
%TO.P,U15,59,GND*%
%TO.N,GND*%
X185889402Y-63314801D03*
D29*
X186772402Y-63314801D03*
D30*
%TO.P,U15,60,I/O*%
%TO.N,/GA13*%
X185889402Y-62814800D03*
D29*
X186772402Y-62814800D03*
D30*
%TO.P,U15,61,I/O*%
%TO.N,/GA12*%
X185889402Y-62314801D03*
D29*
X186772402Y-62314801D03*
D30*
%TO.P,U15,62,I/O/TCK*%
%TO.N,JT_TCK*%
X185889402Y-61814799D03*
D29*
X186772402Y-61814800D03*
D30*
%TO.P,U15,63,I/O*%
%TO.N,~{Read}*%
X185889402Y-61314800D03*
D29*
X186772402Y-61314800D03*
D30*
%TO.P,U15,64,I/O*%
%TO.N,~{Write}*%
X185889402Y-60814801D03*
D29*
X186772402Y-60814801D03*
D30*
%TO.P,U15,65,I/O*%
%TO.N,~{ROM}*%
X185889402Y-60314799D03*
D29*
X186772402Y-60314799D03*
D30*
%TO.P,U15,66,VCCIO*%
%TO.N,+5V*%
X185889402Y-59814800D03*
D29*
X186772402Y-59814800D03*
D30*
%TO.P,U15,67,I/O*%
%TO.N,~{RAM}*%
X185889402Y-59314799D03*
D29*
X186772402Y-59314800D03*
D30*
%TO.P,U15,68,I/O*%
%TO.N,~{Dev_Sel_1}*%
X185889402Y-58814800D03*
D29*
X186772402Y-58814800D03*
D30*
%TO.P,U15,69,I/O*%
%TO.N,~{Dev_Sel_2}*%
X185889402Y-58314801D03*
D29*
X186772402Y-58314801D03*
D30*
%TO.P,U15,70,I/O*%
%TO.N,/~{Dev_1}*%
X185889402Y-57814799D03*
D29*
X186788600Y-57814800D03*
D30*
%TO.P,U15,71,I/O*%
%TO.N,/~{Dev_2}*%
X185889402Y-57314800D03*
D29*
X186772402Y-57314800D03*
D30*
%TO.P,U15,72,I/O*%
%TO.N,/~{Dev_3}*%
X185889402Y-56814799D03*
D29*
X186788600Y-56814800D03*
D30*
%TO.P,U15,73,I/O/TDO*%
%TO.N,JT_TDO*%
X185889402Y-56314800D03*
D29*
X186772402Y-56314800D03*
D30*
%TO.P,U15,74,GND*%
%TO.N,GND*%
X185889402Y-55814801D03*
D29*
X186772402Y-55814801D03*
D30*
%TO.P,U15,75,I/O*%
%TO.N,/~{Dev_4}*%
X185889402Y-55314799D03*
D29*
X186772402Y-55314799D03*
D32*
%TO.P,U15,76,I/O*%
%TO.N,~{Dev_Sel_7}*%
X184088601Y-52630998D03*
D31*
X184088601Y-53513998D03*
%TO.P,U15,77,I/O*%
%TO.N,BS*%
X183588599Y-53513998D03*
D32*
X183588600Y-52614800D03*
%TO.P,U15,78,I/O*%
%TO.N,MRDY*%
X183088600Y-52614800D03*
D31*
X183088600Y-53513998D03*
D32*
%TO.P,U15,79,I/O*%
%TO.N,~{DMA{slash}BREQ}*%
X182588600Y-52630998D03*
D31*
X182588601Y-53513998D03*
D32*
%TO.P,U15,80,I/O*%
%TO.N,/~{FIRQ}*%
X182088600Y-52630998D03*
D31*
X182088600Y-53513998D03*
D32*
%TO.P,U15,81,I/O*%
%TO.N,/~{IRQ}*%
X181588601Y-52630998D03*
D31*
X181588601Y-53513998D03*
D32*
%TO.P,U15,82,VCCIO*%
%TO.N,+5V*%
X181088599Y-52630998D03*
D31*
X181088599Y-53513998D03*
D32*
%TO.P,U15,83,I/O*%
%TO.N,/~{NMI}*%
X180588600Y-52630998D03*
D31*
X180588600Y-53513998D03*
D32*
%TO.P,U15,84,I/O*%
%TO.N,/BootSrc*%
X180088601Y-52630998D03*
D31*
X180088601Y-53513998D03*
D32*
%TO.P,U15,85,I/O/GCLK3*%
%TO.N,/RomMapped*%
X179588600Y-52630998D03*
D31*
X179588600Y-53513998D03*
D32*
%TO.P,U15,86,GND*%
%TO.N,GND*%
X179088601Y-52630998D03*
D31*
X179088601Y-53513998D03*
D32*
%TO.P,U15,87,INPUT/GCLK1*%
%TO.N,/E*%
X178588599Y-52630998D03*
D31*
X178588599Y-53513998D03*
D32*
%TO.P,U15,88,12V/INPUT/OE1*%
%TO.N,BA*%
X178088600Y-52630998D03*
D31*
X178088600Y-53513998D03*
D32*
%TO.P,U15,89,INPUT/GCLR*%
%TO.N,MasterReset*%
X177588601Y-52630998D03*
D31*
X177588601Y-53513998D03*
D32*
%TO.P,U15,90,INPUT/OE2/GCLK2*%
%TO.N,Q*%
X177088599Y-52630998D03*
D31*
X177088599Y-53513998D03*
D32*
%TO.P,U15,91,VCCINT*%
%TO.N,+5V*%
X176588600Y-52630998D03*
D31*
X176588600Y-53513998D03*
D32*
%TO.P,U15,92,I/O*%
%TO.N,~{HALT}*%
X176088599Y-52630998D03*
D31*
X176088599Y-53513998D03*
D32*
%TO.P,U15,93,I/O*%
%TO.N,/R~{W}*%
X175588600Y-52630998D03*
D31*
X175588600Y-53513998D03*
D32*
%TO.P,U15,94,I/O*%
%TO.N,D0*%
X175088601Y-52630998D03*
D31*
X175088601Y-53513998D03*
D32*
%TO.P,U15,95,GND*%
%TO.N,GND*%
X174588599Y-52630998D03*
D31*
X174588599Y-53513998D03*
D32*
%TO.P,U15,96,I/O*%
%TO.N,D1*%
X174088600Y-52630998D03*
D31*
X174088600Y-53513998D03*
D32*
%TO.P,U15,97,I/O*%
%TO.N,D2*%
X173588599Y-52630998D03*
D31*
X173588599Y-53513998D03*
D32*
%TO.P,U15,98,I/O*%
%TO.N,D3*%
X173088600Y-52630998D03*
D31*
X173088600Y-53513998D03*
D32*
%TO.P,U15,99,I/O*%
%TO.N,D4*%
X172588601Y-52630998D03*
D31*
X172588601Y-53513998D03*
D32*
%TO.P,U15,100,I/O*%
%TO.N,D5*%
X172088599Y-52630998D03*
D31*
X172088599Y-53513998D03*
%TD*%
D27*
%TO.P,U4,1,VSS*%
%TO.N,GND*%
X238760000Y-115570000D03*
D12*
%TO.P,U4,2,Rx_Data*%
%TO.N,/Rx*%
X238760000Y-113030000D03*
%TO.P,U4,3,Rx_CLK*%
%TO.N,ACIA Clk 1.8432 MHz*%
X238760000Y-110490000D03*
%TO.P,U4,4,Tx_CLK*%
X238760000Y-107950000D03*
%TO.P,U4,5,~{RTS}*%
%TO.N,unconnected-(U4-~{RTS}-Pad5)*%
X238760000Y-105410000D03*
%TO.P,U4,6,Tx_Data*%
%TO.N,/Tx*%
X238760000Y-102870000D03*
%TO.P,U4,7,~{IRQ}*%
%TO.N,/~{IRQ}*%
X238760000Y-100330000D03*
%TO.P,U4,8,CS0*%
%TO.N,+5V*%
X238760000Y-97790000D03*
%TO.P,U4,9,CS2*%
%TO.N,~{Dev_Sel_2}*%
X238760000Y-95250000D03*
%TO.P,U4,10,CS1*%
%TO.N,+5V*%
X238760000Y-92710000D03*
%TO.P,U4,11,RS*%
%TO.N,/CA0*%
X238760000Y-90170000D03*
%TO.P,U4,12,VCC*%
%TO.N,+5V*%
X238760000Y-87630000D03*
%TO.P,U4,13,R/~{W}*%
%TO.N,/R~{W}*%
X223520000Y-87630000D03*
%TO.P,U4,14,E*%
%TO.N,/E*%
X223520000Y-90170000D03*
%TO.P,U4,15,D7*%
%TO.N,D7*%
X223520000Y-92710000D03*
%TO.P,U4,16,D6*%
%TO.N,D6*%
X223520000Y-95250000D03*
%TO.P,U4,17,D5*%
%TO.N,D5*%
X223520000Y-97790000D03*
%TO.P,U4,18,D4*%
%TO.N,D4*%
X223520000Y-100330000D03*
%TO.P,U4,19,D3*%
%TO.N,D3*%
X223520000Y-102870000D03*
%TO.P,U4,20,D2*%
%TO.N,D2*%
X223520000Y-105410000D03*
%TO.P,U4,21,D1*%
%TO.N,D1*%
X223520000Y-107950000D03*
%TO.P,U4,22,D0*%
%TO.N,D0*%
X223520000Y-110490000D03*
%TO.P,U4,23,~{DCD}*%
%TO.N,GND*%
X223520000Y-113030000D03*
%TO.P,U4,24,~{CTS}*%
X223520000Y-115570000D03*
%TD*%
D18*
%TO.P,J12,1,Pin_1*%
%TO.N,MasterReset*%
X213969600Y-115798600D03*
%TD*%
D12*
%TO.P,Cx26,1*%
%TO.N,Net-(Cx23-Pad1)*%
X217170000Y-108458000D03*
%TO.P,Cx26,2*%
%TO.N,GND*%
X219670000Y-108458000D03*
%TD*%
D22*
%TO.P,L46,1,K*%
%TO.N,GND*%
X240935000Y-56515000D03*
%TO.P,L46,2,A*%
%TO.N,Net-(L46-A)*%
X242935000Y-56515000D03*
%TD*%
D13*
%TO.P,R80,1*%
%TO.N,Net-(L47-A)*%
X244745000Y-53975000D03*
%TO.P,R80,2*%
%TO.N,Net-(PB1-Pin_4)*%
X246745000Y-53975000D03*
%TD*%
%TO.P,R86,1*%
%TO.N,Net-(L53-A)*%
X244745000Y-74295000D03*
%TO.P,R86,2*%
%TO.N,/v~{IRQA}*%
X246745000Y-74295000D03*
%TD*%
D23*
%TO.P,J3,1,Pin_1*%
%TO.N,/Rx*%
X236982000Y-123164600D03*
D24*
%TO.P,J3,2,Pin_2*%
%TO.N,/Tx*%
X234442000Y-123164600D03*
%TO.P,J3,3,Pin_3*%
%TO.N,GND*%
X231902000Y-123164600D03*
%TO.P,J3,4,Pin_4*%
%TO.N,+5V*%
X229362000Y-123164600D03*
%TD*%
D18*
%TO.P,J73,1,Pin_1*%
%TO.N,unconnected-(J73-Pin_1-Pad1)*%
X226060000Y-82550000D03*
%TD*%
D26*
%TO.P,R46,1*%
%TO.N,GND*%
X178150600Y-46175300D03*
%TO.P,R46,2*%
%TO.N,JT_TMS*%
X178150600Y-44350300D03*
%TD*%
D21*
%TO.P,J88,1,Pin_1*%
%TO.N,unconnected-(J88-Pin_1-Pad1)*%
X236220000Y-100330000D03*
%TD*%
D17*
%TO.P,L13,1,K*%
%TO.N,GND*%
X204470000Y-119650000D03*
%TO.P,L13,2,A*%
%TO.N,Net-(L13-A)*%
X204470000Y-121650000D03*
%TD*%
D22*
%TO.P,L41,1,K*%
%TO.N,GND*%
X240935000Y-99695000D03*
%TO.P,L41,2,A*%
%TO.N,Net-(L41-A)*%
X242935000Y-99695000D03*
%TD*%
D18*
%TO.P,J99,1,Pin_1*%
%TO.N,unconnected-(J99-Pin_1-Pad1)*%
X231140000Y-90170000D03*
%TD*%
D22*
%TO.P,L42,1,K*%
%TO.N,GND*%
X240935000Y-97155000D03*
%TO.P,L42,2,A*%
%TO.N,Net-(L42-A)*%
X242935000Y-97155000D03*
%TD*%
D13*
%TO.P,R69,1*%
%TO.N,Net-(L36-A)*%
X244745000Y-112395000D03*
%TO.P,R69,2*%
%TO.N,Net-(PA1-Pin_1)*%
X246745000Y-112395000D03*
%TD*%
D18*
%TO.P,J69,1,Pin_1*%
%TO.N,unconnected-(J69-Pin_1-Pad1)*%
X236220000Y-69850000D03*
%TD*%
D28*
%TO.P,R57,1*%
%TO.N,/~{Dev_3}*%
X172450000Y-109855000D03*
%TO.P,R57,2*%
%TO.N,+5V*%
X170450000Y-109855000D03*
%TD*%
D18*
%TO.P,J100,1,Pin_1*%
%TO.N,unconnected-(J100-Pin_1-Pad1)*%
X233680000Y-92710000D03*
%TD*%
D22*
%TO.P,L54,1,K*%
%TO.N,GND*%
X240935000Y-76835000D03*
%TO.P,L54,2,A*%
%TO.N,Net-(L54-A)*%
X242935000Y-76835000D03*
%TD*%
D18*
%TO.P,J85,1,Pin_1*%
%TO.N,unconnected-(J85-Pin_1-Pad1)*%
X228600000Y-95250000D03*
%TD*%
%TO.P,J79,1,Pin_1*%
%TO.N,unconnected-(J79-Pin_1-Pad1)*%
X228600000Y-100330000D03*
%TD*%
%TO.P,J90,1,Pin_1*%
%TO.N,unconnected-(J90-Pin_1-Pad1)*%
X226060000Y-80010000D03*
%TD*%
D25*
%TO.P,XTAL1,1,1*%
%TO.N,Net-(U1-XTAL)*%
X213783000Y-32216600D03*
%TO.P,XTAL1,2,2*%
%TO.N,Net-(U1-EXTAL)*%
X213783000Y-37096600D03*
%TD*%
D22*
%TO.P,L40,1,K*%
%TO.N,GND*%
X240935000Y-102235000D03*
%TO.P,L40,2,A*%
%TO.N,Net-(L40-A)*%
X242935000Y-102235000D03*
%TD*%
%TO.P,L45,1,K*%
%TO.N,GND*%
X240935000Y-59055000D03*
%TO.P,L45,2,A*%
%TO.N,Net-(L45-A)*%
X242935000Y-59055000D03*
%TD*%
D12*
%TO.P,Cx19,1*%
%TO.N,Net-(Cx19-Pad1)*%
X219964000Y-89408000D03*
%TO.P,Cx19,2*%
%TO.N,GND*%
X217464000Y-89408000D03*
%TD*%
D18*
%TO.P,J87,1,Pin_1*%
%TO.N,unconnected-(J87-Pin_1-Pad1)*%
X233680000Y-90170000D03*
%TD*%
D13*
%TO.P,R82,1*%
%TO.N,Net-(L49-A)*%
X244745000Y-48895000D03*
%TO.P,R82,2*%
%TO.N,Net-(PB1-Pin_6)*%
X246745000Y-48895000D03*
%TD*%
D18*
%TO.P,J58,1,Pin_1*%
%TO.N,unconnected-(J58-Pin_1-Pad1)*%
X233680000Y-80010000D03*
%TD*%
%TO.P,J83,1,Pin_1*%
%TO.N,unconnected-(J83-Pin_1-Pad1)*%
X226060000Y-77470000D03*
%TD*%
%TO.P,J53,1,Pin_1*%
%TO.N,unconnected-(J53-Pin_1-Pad1)*%
X231140000Y-69850000D03*
%TD*%
%TO.P,J68,1,Pin_1*%
%TO.N,unconnected-(J68-Pin_1-Pad1)*%
X236220000Y-67310000D03*
%TD*%
%TO.P,J93,1,Pin_1*%
%TO.N,unconnected-(J93-Pin_1-Pad1)*%
X231140000Y-95250000D03*
%TD*%
D23*
%TO.P,J2,1,Pin_1*%
%TO.N,+5V*%
X214296000Y-77771000D03*
D24*
%TO.P,J2,2,Pin_2*%
%TO.N,GND*%
X216836000Y-77771000D03*
%TO.P,J2,3,Pin_3*%
%TO.N,+5V*%
X214296000Y-75231000D03*
%TO.P,J2,4,Pin_4*%
%TO.N,GND*%
X216836000Y-75231000D03*
%TO.P,J2,5,Pin_5*%
%TO.N,+5V*%
X214296000Y-72691000D03*
%TO.P,J2,6,Pin_6*%
%TO.N,GND*%
X216836000Y-72691000D03*
%TO.P,J2,7,Pin_7*%
%TO.N,+5V*%
X214296000Y-70151000D03*
%TO.P,J2,8,Pin_8*%
%TO.N,GND*%
X216836000Y-70151000D03*
%TD*%
D13*
%TO.P,R72,1*%
%TO.N,Net-(L39-A)*%
X244745000Y-104775000D03*
%TO.P,R72,2*%
%TO.N,Net-(PA1-Pin_4)*%
X246745000Y-104775000D03*
%TD*%
D22*
%TO.P,L57,1,K*%
%TO.N,GND*%
X240935000Y-84455000D03*
%TO.P,L57,2,A*%
%TO.N,Net-(L57-A)*%
X242935000Y-84455000D03*
%TD*%
D13*
%TO.P,R54,1*%
%TO.N,~{Dev_Sel_2}*%
X240858800Y-91077000D03*
%TO.P,R54,2*%
%TO.N,+5V*%
X242858800Y-91077000D03*
%TD*%
D18*
%TO.P,J55,1,Pin_1*%
%TO.N,unconnected-(J55-Pin_1-Pad1)*%
X233680000Y-74930000D03*
%TD*%
D13*
%TO.P,R64,1*%
%TO.N,+5V*%
X170450000Y-112395000D03*
%TO.P,R64,2*%
%TO.N,MasterReset*%
X172450000Y-112395000D03*
%TD*%
D18*
%TO.P,J78,1,Pin_1*%
%TO.N,unconnected-(J78-Pin_1-Pad1)*%
X228600000Y-97790000D03*
%TD*%
%TO.P,J8,1,Pin_1*%
%TO.N,GND*%
X236220000Y-87630000D03*
%TD*%
D26*
%TO.P,R47,1*%
%TO.N,GND*%
X183230600Y-46175300D03*
%TO.P,R47,2*%
%TO.N,JT_TDI*%
X183230600Y-44350300D03*
%TD*%
D18*
%TO.P,J63,1,Pin_1*%
%TO.N,unconnected-(J63-Pin_1-Pad1)*%
X236220000Y-74930000D03*
%TD*%
D13*
%TO.P,R85,1*%
%TO.N,Net-(L52-A)*%
X244745000Y-71755000D03*
%TO.P,R85,2*%
%TO.N,/v~{IRQB}*%
X246745000Y-71755000D03*
%TD*%
D12*
%TO.P,Cx20,1*%
%TO.N,Net-(Cx19-Pad1)*%
X219964000Y-86868000D03*
%TO.P,Cx20,2*%
%TO.N,GND*%
X217464000Y-86868000D03*
%TD*%
D11*
%TO.P,U1,1,VSS*%
%TO.N,GND*%
X193446400Y-29235400D03*
D12*
%TO.P,U1,2,~{NMI}*%
%TO.N,/~{NMI}*%
X193446400Y-31775400D03*
%TO.P,U1,3,~{IRQ}*%
%TO.N,/~{IRQ}*%
X193446400Y-34315400D03*
%TO.P,U1,4,~{FIRQ}*%
%TO.N,/~{FIRQ}*%
X193446400Y-36855400D03*
%TO.P,U1,5,BS*%
%TO.N,BS*%
X193446400Y-39395400D03*
%TO.P,U1,6,BA*%
%TO.N,BA*%
X193446400Y-41935400D03*
%TO.P,U1,7,VCC*%
%TO.N,+5V*%
X193446400Y-44475400D03*
%TO.P,U1,8,A0*%
%TO.N,/CA0*%
X193446400Y-47015400D03*
%TO.P,U1,9,A1*%
%TO.N,/CA1*%
X193446400Y-49555400D03*
%TO.P,U1,10,A2*%
%TO.N,/CA2*%
X193446400Y-52095400D03*
%TO.P,U1,11,A3*%
%TO.N,/CA3*%
X193446400Y-54635400D03*
%TO.P,U1,12,A4*%
%TO.N,/CA4*%
X193446400Y-57175400D03*
%TO.P,U1,13,A5*%
%TO.N,/CA5*%
X193446400Y-59715400D03*
%TO.P,U1,14,A6*%
%TO.N,/CA6*%
X193446400Y-62255400D03*
%TO.P,U1,15,A7*%
%TO.N,/CA7*%
X193446400Y-64795400D03*
%TO.P,U1,16,A8*%
%TO.N,/CA8*%
X193446400Y-67335400D03*
%TO.P,U1,17,A9*%
%TO.N,/CA9*%
X193446400Y-69875400D03*
%TO.P,U1,18,A10*%
%TO.N,/CA10*%
X193446400Y-72415400D03*
%TO.P,U1,19,A11*%
%TO.N,/CA11*%
X193446400Y-74955400D03*
%TO.P,U1,20,A12*%
%TO.N,CA12*%
X193446400Y-77495400D03*
%TO.P,U1,21,A13*%
%TO.N,CA13*%
X208686400Y-77495400D03*
%TO.P,U1,22,A14*%
%TO.N,CA14*%
X208686400Y-74955400D03*
%TO.P,U1,23,A15*%
%TO.N,CA15*%
X208686400Y-72415400D03*
%TO.P,U1,24,D7*%
%TO.N,D7*%
X208686400Y-69875400D03*
%TO.P,U1,25,D6*%
%TO.N,D6*%
X208686400Y-67335400D03*
%TO.P,U1,26,D5*%
%TO.N,D5*%
X208686400Y-64795400D03*
%TO.P,U1,27,D4*%
%TO.N,D4*%
X208686400Y-62255400D03*
%TO.P,U1,28,D3*%
%TO.N,D3*%
X208686400Y-59715400D03*
%TO.P,U1,29,D2*%
%TO.N,D2*%
X208686400Y-57175400D03*
%TO.P,U1,30,D1*%
%TO.N,D1*%
X208686400Y-54635400D03*
%TO.P,U1,31,D0*%
%TO.N,D0*%
X208686400Y-52095400D03*
%TO.P,U1,32,R/~{W}*%
%TO.N,/R~{W}*%
X208686400Y-49555400D03*
%TO.P,U1,33,~{DMA/BREQ}*%
%TO.N,~{DMA{slash}BREQ}*%
X208686400Y-47015400D03*
%TO.P,U1,34,E*%
%TO.N,/E*%
X208686400Y-44475400D03*
%TO.P,U1,35,Q*%
%TO.N,Q*%
X208686400Y-41935400D03*
%TO.P,U1,36,MRDY*%
%TO.N,MRDY*%
X208686400Y-39395400D03*
%TO.P,U1,37,~{RESET}*%
%TO.N,MasterReset*%
X208686400Y-36855400D03*
%TO.P,U1,38,EXTAL*%
%TO.N,Net-(U1-EXTAL)*%
X208686400Y-34315400D03*
%TO.P,U1,39,XTAL*%
%TO.N,Net-(U1-XTAL)*%
X208686400Y-31775400D03*
%TO.P,U1,40,~{HALT}*%
%TO.N,~{HALT}*%
X208686400Y-29235400D03*
%TD*%
D18*
%TO.P,J43,1,Pin_1*%
%TO.N,unconnected-(J43-Pin_1-Pad1)*%
X231140000Y-67310000D03*
%TD*%
D12*
%TO.P,Cx6,1*%
%TO.N,+5V*%
X188595000Y-29210000D03*
%TO.P,Cx6,2*%
%TO.N,GND*%
X191095000Y-29210000D03*
%TD*%
D23*
%TO.P,Jx1,1,Pin_1*%
%TO.N,/vCB1*%
X241935000Y-40640000D03*
D24*
%TO.P,Jx1,2,Pin_2*%
%TO.N,Net-(Jx1-Pin_2)*%
X241935000Y-38100000D03*
%TO.P,Jx1,3,Pin_3*%
%TO.N,Net-(Jx1-Pin_3)*%
X241935000Y-35560000D03*
%TD*%
D12*
%TO.P,Cx10,1*%
%TO.N,+5V*%
X212725000Y-82550000D03*
%TO.P,Cx10,2*%
%TO.N,GND*%
X215225000Y-82550000D03*
%TD*%
D21*
%TO.P,J41,1,Pin_1*%
%TO.N,unconnected-(J41-Pin_1-Pad1)*%
X236220000Y-97790000D03*
%TD*%
D23*
%TO.P,J4,1,Pin_1*%
%TO.N,+5V*%
X154940000Y-36068000D03*
D24*
%TO.P,J4,2,Pin_2*%
X157480000Y-36068000D03*
%TO.P,J4,3,Pin_3*%
%TO.N,D0*%
X154940000Y-38608000D03*
%TO.P,J4,4,Pin_4*%
%TO.N,D1*%
X157480000Y-38608000D03*
%TO.P,J4,5,Pin_5*%
%TO.N,D2*%
X154940000Y-41148000D03*
%TO.P,J4,6,Pin_6*%
%TO.N,D3*%
X157480000Y-41148000D03*
%TO.P,J4,7,Pin_7*%
%TO.N,D4*%
X154940000Y-43688000D03*
%TO.P,J4,8,Pin_8*%
%TO.N,D5*%
X157480000Y-43688000D03*
%TO.P,J4,9,Pin_9*%
%TO.N,D6*%
X154940000Y-46228000D03*
%TO.P,J4,10,Pin_10*%
%TO.N,D7*%
X157480000Y-46228000D03*
%TO.P,J4,11,Pin_11*%
%TO.N,/CA0*%
X154940000Y-48768000D03*
%TO.P,J4,12,Pin_12*%
%TO.N,/CA1*%
X157480000Y-48768000D03*
%TO.P,J4,13,Pin_13*%
%TO.N,/CA2*%
X154940000Y-51308000D03*
%TO.P,J4,14,Pin_14*%
%TO.N,/CA3*%
X157480000Y-51308000D03*
%TO.P,J4,15,Pin_15*%
%TO.N,/CA4*%
X154940000Y-53848000D03*
%TO.P,J4,16,Pin_16*%
%TO.N,/CA5*%
X157480000Y-53848000D03*
%TO.P,J4,17,Pin_17*%
%TO.N,/CA6*%
X154940000Y-56388000D03*
%TO.P,J4,18,Pin_18*%
%TO.N,/CA7*%
X157480000Y-56388000D03*
%TO.P,J4,19,Pin_19*%
%TO.N,/CA8*%
X154940000Y-58928000D03*
%TO.P,J4,20,Pin_20*%
%TO.N,/CA9*%
X157480000Y-58928000D03*
%TO.P,J4,21,Pin_21*%
%TO.N,/CA10*%
X154940000Y-61468000D03*
%TO.P,J4,22,Pin_22*%
%TO.N,/CA11*%
X157480000Y-61468000D03*
%TO.P,J4,23,Pin_23*%
%TO.N,/GA12*%
X154940000Y-64008000D03*
%TO.P,J4,24,Pin_24*%
%TO.N,/GA13*%
X157480000Y-64008000D03*
%TO.P,J4,25,Pin_25*%
%TO.N,/GA14*%
X154940000Y-66548000D03*
%TO.P,J4,26,Pin_26*%
%TO.N,/GA15*%
X157480000Y-66548000D03*
%TO.P,J4,27,Pin_27*%
%TO.N,/A_S_16*%
X154940000Y-69088000D03*
%TO.P,J4,28,Pin_28*%
%TO.N,/B_S_16*%
X157480000Y-69088000D03*
%TO.P,J4,29,Pin_29*%
%TO.N,/A_HALT*%
X154940000Y-71628000D03*
%TO.P,J4,30,Pin_30*%
%TO.N,/mB_HALT*%
X157480000Y-71628000D03*
%TO.P,J4,31,Pin_31*%
%TO.N,/mA_READ*%
X154940000Y-74168000D03*
%TO.P,J4,32,Pin_32*%
%TO.N,/B_READ*%
X157480000Y-74168000D03*
%TO.P,J4,33,Pin_33*%
%TO.N,/A_SHARE_DIRTY*%
X154940000Y-76708000D03*
%TO.P,J4,34,Pin_34*%
%TO.N,/B_SHARE_DIRTY*%
X157480000Y-76708000D03*
%TO.P,J4,35,Pin_35*%
%TO.N,/mA_SHARE_GRANTED*%
X154940000Y-79248000D03*
%TO.P,J4,36,Pin_36*%
%TO.N,/mB_SHARE_GRANTED*%
X157480000Y-79248000D03*
%TO.P,J4,37,Pin_37*%
%TO.N,/A_SHARE_REQUEST*%
X154940000Y-81788000D03*
%TO.P,J4,38,Pin_38*%
%TO.N,/B_SHARE_REQUEST*%
X157480000Y-81788000D03*
%TO.P,J4,39,Pin_39*%
%TO.N,A_S_SELECT*%
X154940000Y-84328000D03*
%TO.P,J4,40,Pin_40*%
%TO.N,B_S_SELECT*%
X157480000Y-84328000D03*
%TO.P,J4,41,Pin_41*%
%TO.N,A_S_READ*%
X154940000Y-86868000D03*
%TO.P,J4,42,Pin_42*%
%TO.N,B_S_READ*%
X157480000Y-86868000D03*
%TO.P,J4,43,Pin_43*%
%TO.N,A_S_WRITE*%
X154940000Y-89408000D03*
%TO.P,J4,44,Pin_44*%
%TO.N,B_S_WRITE*%
X157480000Y-89408000D03*
%TO.P,J4,45,Pin_45*%
%TO.N,A_G_ENABLE*%
X154940000Y-91948000D03*
%TO.P,J4,46,Pin_46*%
%TO.N,B_G_ENABLE*%
X157480000Y-91948000D03*
%TO.P,J4,47,Pin_47*%
%TO.N,A_G_A_DIR*%
X154940000Y-94488000D03*
%TO.P,J4,48,Pin_48*%
%TO.N,B_G_A_DIR*%
X157480000Y-94488000D03*
%TO.P,J4,49,Pin_49*%
%TO.N,A_G_D_DIR*%
X154940000Y-97028000D03*
%TO.P,J4,50,Pin_50*%
%TO.N,B_G_D_DIR*%
X157480000Y-97028000D03*
%TO.P,J4,51,Pin_51*%
%TO.N,/mA_SHARE_SELECT*%
X154940000Y-99568000D03*
%TO.P,J4,52,Pin_52*%
%TO.N,/B_SHARE_SELECT*%
X157480000Y-99568000D03*
%TO.P,J4,53,Pin_53*%
%TO.N,/E*%
X154940000Y-102108000D03*
%TO.P,J4,54,Pin_54*%
%TO.N,/R~{W}*%
X157480000Y-102108000D03*
%TO.P,J4,55,Pin_55*%
%TO.N,/~{NMI}*%
X154940000Y-104648000D03*
%TO.P,J4,56,Pin_56*%
%TO.N,/~{IRQ}*%
X157480000Y-104648000D03*
%TO.P,J4,57,Pin_57*%
%TO.N,/~{FIRQ}*%
X154940000Y-107188000D03*
%TO.P,J4,58,Pin_58*%
%TO.N,/~{Dev_1}*%
X157480000Y-107188000D03*
%TO.P,J4,59,Pin_59*%
%TO.N,/~{Dev_2}*%
X154940000Y-109728000D03*
%TO.P,J4,60,Pin_60*%
%TO.N,/~{Dev_3}*%
X157480000Y-109728000D03*
%TO.P,J4,61,Pin_61*%
%TO.N,/~{Dev_4}*%
X154940000Y-112268000D03*
%TO.P,J4,62,Pin_62*%
%TO.N,MasterReset*%
X157480000Y-112268000D03*
%TO.P,J4,63,Pin_63*%
%TO.N,GND*%
X154940000Y-114808000D03*
%TO.P,J4,64,Pin_64*%
X157480000Y-114808000D03*
%TD*%
D18*
%TO.P,J60,1,Pin_1*%
%TO.N,unconnected-(J60-Pin_1-Pad1)*%
X226060000Y-72390000D03*
%TD*%
D33*
%TO.P,LS1,1,1*%
%TO.N,+5V*%
X212304400Y-58556200D03*
D34*
%TO.P,LS1,2,2*%
%TO.N,Net-(Q1-C)*%
X219904400Y-58556200D03*
%TD*%
D18*
%TO.P,J70,1,Pin_1*%
%TO.N,unconnected-(J70-Pin_1-Pad1)*%
X226060000Y-97790000D03*
%TD*%
D10*
%TO.P,R96,1*%
%TO.N,Net-(Jx2-Pin_3)*%
X184338000Y-30645600D03*
%TO.P,R96,2*%
%TO.N,GND*%
X184338000Y-28645600D03*
%TD*%
D18*
%TO.P,J84,1,Pin_1*%
%TO.N,unconnected-(J84-Pin_1-Pad1)*%
X228600000Y-92710000D03*
%TD*%
D13*
%TO.P,R83,1*%
%TO.N,Net-(L50-A)*%
X244745000Y-46355000D03*
%TO.P,R83,2*%
%TO.N,Net-(PB1-Pin_7)*%
X246745000Y-46355000D03*
%TD*%
D18*
%TO.P,J101,1,Pin_1*%
%TO.N,unconnected-(J101-Pin_1-Pad1)*%
X233680000Y-95250000D03*
%TD*%
D22*
%TO.P,L50,1,K*%
%TO.N,GND*%
X240935000Y-46355000D03*
%TO.P,L50,2,A*%
%TO.N,Net-(L50-A)*%
X242935000Y-46355000D03*
%TD*%
D18*
%TO.P,J47,1,Pin_1*%
%TO.N,unconnected-(J47-Pin_1-Pad1)*%
X231140000Y-74930000D03*
%TD*%
D12*
%TO.P,C12,1*%
%TO.N,MasterReset*%
X210921600Y-50977800D03*
%TO.P,C12,2*%
%TO.N,GND*%
X213421600Y-50977800D03*
%TD*%
D17*
%TO.P,L14,1,K*%
%TO.N,GND*%
X201930000Y-119650000D03*
%TO.P,L14,2,A*%
%TO.N,Net-(L14-A)*%
X201930000Y-121650000D03*
%TD*%
D28*
%TO.P,R49,1*%
%TO.N,/~{IRQ}*%
X172450000Y-104775000D03*
%TO.P,R49,2*%
%TO.N,+5V*%
X170450000Y-104775000D03*
%TD*%
D23*
%TO.P,Jx4,1,Pin_1*%
%TO.N,/vCA1*%
X250190000Y-84455000D03*
D24*
%TO.P,Jx4,2,Pin_2*%
%TO.N,/vCA2*%
X250190000Y-81915000D03*
%TO.P,Jx4,3,Pin_3*%
%TO.N,/vCB1*%
X250190000Y-79375000D03*
%TO.P,Jx4,4,Pin_4*%
%TO.N,/vCB2*%
X250190000Y-76835000D03*
%TO.P,Jx4,5,Pin_5*%
%TO.N,/v~{IRQA}*%
X250190000Y-74295000D03*
%TO.P,Jx4,6,Pin_6*%
%TO.N,/v~{IRQB}*%
X250190000Y-71755000D03*
%TO.P,Jx4,7,Pin_7*%
%TO.N,GND*%
X250190000Y-69215000D03*
%TO.P,Jx4,8,Pin_8*%
%TO.N,+5V*%
X250190000Y-66675000D03*
%TD*%
D18*
%TO.P,J67,1,Pin_1*%
%TO.N,unconnected-(J67-Pin_1-Pad1)*%
X236220000Y-64770000D03*
%TD*%
D13*
%TO.P,R89,1*%
%TO.N,Net-(L56-A)*%
X244745000Y-81915000D03*
%TO.P,R89,2*%
%TO.N,/vCA2*%
X246745000Y-81915000D03*
%TD*%
D18*
%TO.P,J62,1,Pin_1*%
%TO.N,unconnected-(J62-Pin_1-Pad1)*%
X236220000Y-72390000D03*
%TD*%
D22*
%TO.P,L48,1,K*%
%TO.N,GND*%
X240935000Y-51435000D03*
%TO.P,L48,2,A*%
%TO.N,Net-(L48-A)*%
X242935000Y-51435000D03*
%TD*%
%TO.P,L47,1,K*%
%TO.N,GND*%
X240935000Y-53975000D03*
%TO.P,L47,2,A*%
%TO.N,Net-(L47-A)*%
X242935000Y-53975000D03*
%TD*%
D12*
%TO.P,Cx8,1*%
%TO.N,+5V*%
X179070000Y-86995000D03*
%TO.P,Cx8,2*%
%TO.N,GND*%
X181570000Y-86995000D03*
%TD*%
D18*
%TO.P,J38,1,Pin_1*%
%TO.N,unconnected-(J38-Pin_1-Pad1)*%
X228600000Y-72390000D03*
%TD*%
D13*
%TO.P,R87,1*%
%TO.N,Net-(L54-A)*%
X244745000Y-76835000D03*
%TO.P,R87,2*%
%TO.N,/vCB2*%
X246745000Y-76835000D03*
%TD*%
D18*
%TO.P,J95,1,Pin_1*%
%TO.N,unconnected-(J95-Pin_1-Pad1)*%
X231140000Y-100330000D03*
%TD*%
D13*
%TO.P,R79,1*%
%TO.N,Net-(L46-A)*%
X244745000Y-56515000D03*
%TO.P,R79,2*%
%TO.N,Net-(PB1-Pin_3)*%
X246745000Y-56515000D03*
%TD*%
D18*
%TO.P,J45,1,Pin_1*%
%TO.N,unconnected-(J45-Pin_1-Pad1)*%
X228600000Y-69850000D03*
%TD*%
D26*
%TO.P,R45,1*%
%TO.N,GND*%
X175610600Y-46175300D03*
%TO.P,R45,2*%
%TO.N,JT_TDO*%
X175610600Y-44350300D03*
%TD*%
D13*
%TO.P,R90,1*%
%TO.N,Net-(L57-A)*%
X244745000Y-84455000D03*
%TO.P,R90,2*%
%TO.N,/vCA1*%
X246745000Y-84455000D03*
%TD*%
D17*
%TO.P,L1,1,K*%
%TO.N,GND*%
X167640000Y-119650000D03*
%TO.P,L1,2,A*%
%TO.N,Net-(L1-A)*%
X167640000Y-121650000D03*
%TD*%
D18*
%TO.P,J37,1,Pin_1*%
%TO.N,unconnected-(J37-Pin_1-Pad1)*%
X228600000Y-64770000D03*
%TD*%
D22*
%TO.P,L43,1,K*%
%TO.N,GND*%
X240935000Y-94615000D03*
%TO.P,L43,2,A*%
%TO.N,Net-(L43-A)*%
X242935000Y-94615000D03*
%TD*%
D18*
%TO.P,J104,1,Pin_1*%
%TO.N,unconnected-(J104-Pin_1-Pad1)*%
X233680000Y-102870000D03*
%TD*%
%TO.P,J71,1,Pin_1*%
%TO.N,unconnected-(J71-Pin_1-Pad1)*%
X226060000Y-100330000D03*
%TD*%
D17*
%TO.P,L9,1,K*%
%TO.N,GND*%
X199390000Y-119650000D03*
%TO.P,L9,2,A*%
%TO.N,Net-(L9-A)*%
X199390000Y-121650000D03*
%TD*%
D35*
%TO.P,J1,1,TCK*%
%TO.N,Net-(J1-TCK)*%
X173241800Y-38801400D03*
D24*
%TO.P,J1,2,GND*%
%TO.N,GND*%
X173241800Y-36261400D03*
%TO.P,J1,3,TDO*%
%TO.N,Net-(J1-TDO)*%
X175781800Y-38801400D03*
%TO.P,J1,4,Vcc*%
%TO.N,+5V*%
X175781800Y-36261400D03*
%TO.P,J1,5,TMS*%
%TO.N,Net-(J1-TMS)*%
X178321800Y-38801400D03*
%TO.P,J1,6,NC*%
%TO.N,unconnected-(J1-NC-Pad6)*%
X178321800Y-36261400D03*
%TO.P,J1,7,NC*%
%TO.N,unconnected-(J1-NC-Pad7)*%
X180861800Y-38801400D03*
%TO.P,J1,8,NC*%
%TO.N,unconnected-(J1-NC-Pad8)*%
X180861800Y-36261400D03*
%TO.P,J1,9,TDI*%
%TO.N,Net-(J1-TDI)*%
X183401800Y-38801400D03*
%TO.P,J1,10,GND*%
%TO.N,GND*%
X183401800Y-36261400D03*
%TD*%
D22*
%TO.P,L36,1,K*%
%TO.N,GND*%
X240935000Y-112395000D03*
%TO.P,L36,2,A*%
%TO.N,Net-(L36-A)*%
X242935000Y-112395000D03*
%TD*%
%TO.P,L49,1,K*%
%TO.N,GND*%
X240935000Y-48895000D03*
%TO.P,L49,2,A*%
%TO.N,Net-(L49-A)*%
X242935000Y-48895000D03*
%TD*%
D36*
%TO.N,GND*%
X182195900Y-99658300D03*
X189131300Y-63318400D03*
X239686700Y-51502100D03*
X178503177Y-67594553D03*
X171532200Y-70060500D03*
X182168900Y-46175300D03*
X227940000Y-106019000D03*
X239688400Y-56547100D03*
X179090320Y-119651780D03*
X206375000Y-107676000D03*
X236541900Y-121450700D03*
X239685900Y-48979600D03*
X169520000Y-99661000D03*
X241935000Y-116383000D03*
X200831300Y-119274700D03*
X239141000Y-79375000D03*
X239687600Y-54024600D03*
X239649000Y-43840400D03*
X239649000Y-76835000D03*
X183075500Y-119800600D03*
X194101500Y-119237500D03*
X239685600Y-74202800D03*
X239689200Y-59069600D03*
X240824800Y-101174900D03*
X172926500Y-119800600D03*
X239688500Y-61625400D03*
X171752725Y-59969400D03*
X184251600Y-56261000D03*
X226416000Y-36422800D03*
X175112400Y-54995500D03*
X240806200Y-95974600D03*
X179088600Y-50271400D03*
X210882230Y-119645430D03*
X239685100Y-46457100D03*
X196596000Y-100965000D03*
X236380200Y-102756000D03*
X174548900Y-46175300D03*
X183156344Y-29677276D03*
X204647800Y-97485200D03*
X166161500Y-119237500D03*
X178817000Y-114877400D03*
X220497400Y-52222400D03*
X240935000Y-111325100D03*
X245618000Y-65567100D03*
X239395000Y-71882000D03*
X233263800Y-120017500D03*
X240935000Y-106242200D03*
X205942000Y-119366900D03*
%TO.N,+5V*%
X168482900Y-69391200D03*
X167370000Y-106255700D03*
X171713800Y-56343701D03*
X188620000Y-108633300D03*
X234340000Y-114958300D03*
X178150600Y-47047600D03*
X176588600Y-50272700D03*
X184342268Y-60274200D03*
X170450000Y-70492700D03*
X206105000Y-84907200D03*
X187095393Y-96676193D03*
X204070537Y-108229400D03*
X175920000Y-108608500D03*
X175615600Y-47046500D03*
X215519000Y-27686000D03*
X213995000Y-107137200D03*
X172980200Y-28486200D03*
X169333300Y-112280900D03*
X199660000Y-112836500D03*
X179817600Y-89208100D03*
X187918090Y-119651780D03*
X215469700Y-46940400D03*
X176088600Y-72387300D03*
X186553800Y-67809200D03*
X171740800Y-64012900D03*
X226416000Y-45382400D03*
X243967000Y-92227400D03*
X214376000Y-42291000D03*
X232816000Y-45368300D03*
X227965000Y-40919400D03*
X173075600Y-47050900D03*
X178503177Y-72318500D03*
X168483900Y-109758200D03*
X246693800Y-66853000D03*
X182978314Y-47050686D03*
X180913388Y-54952097D03*
%TO.N,GA16*%
X183798866Y-65583841D03*
X178919700Y-89157400D03*
%TO.N,JT_TDO*%
X176008500Y-45229200D03*
X175820200Y-56870600D03*
%TO.N,D7*%
X210058000Y-97332800D03*
X210108800Y-55041800D03*
X181330600Y-58547000D03*
X189992000Y-62451775D03*
%TO.N,D3*%
X212420200Y-103022400D03*
X182973397Y-57023335D03*
X186062386Y-54489200D03*
X211328000Y-62357000D03*
%TO.N,D2*%
X211797900Y-61556900D03*
X183210200Y-56337200D03*
X212944600Y-106010600D03*
X191466463Y-110847285D03*
X185387389Y-54610462D03*
%TO.N,D1*%
X214096600Y-106222800D03*
X212979000Y-62865000D03*
X195529200Y-111937800D03*
%TO.N,D4*%
X210727915Y-64449315D03*
X211882816Y-99720400D03*
%TO.N,D5*%
X211519841Y-98585460D03*
X210325600Y-66485003D03*
X182614950Y-58202450D03*
X211175600Y-55956200D03*
X189417861Y-59890330D03*
%TO.N,D6*%
X209892000Y-68656200D03*
X181965600Y-58293000D03*
X189841146Y-60797400D03*
X210544719Y-98170181D03*
X210566000Y-55448200D03*
%TO.N,D0*%
X214960200Y-106934000D03*
X182945150Y-55372000D03*
X212013800Y-56489600D03*
X218719400Y-64109600D03*
X186156600Y-52959000D03*
X197227950Y-110337350D03*
%TO.N,~{HALT}*%
X173166800Y-89097000D03*
X175133000Y-84378800D03*
X178399529Y-54962431D03*
%TO.N,JT_TDI*%
X176813497Y-58120439D03*
X183235600Y-43473000D03*
%TO.N,JT_TMS*%
X178150600Y-43478100D03*
X172669200Y-62077600D03*
%TO.N,JT_TCK*%
X173075600Y-43357800D03*
X174500807Y-60371228D03*
%TO.N,CA12*%
X181340500Y-66549100D03*
X184629900Y-68673300D03*
%TO.N,CA15*%
X189271700Y-65880700D03*
X179131500Y-66584100D03*
%TO.N,Q*%
X199390000Y-40335200D03*
%TO.N,CA13*%
X188417000Y-71098900D03*
X179561600Y-65852100D03*
%TO.N,MRDY*%
X189069500Y-49731200D03*
X196443600Y-44958000D03*
%TO.N,BS*%
X184319200Y-50139300D03*
%TO.N,A_G_D_DIR*%
X183122100Y-73202600D03*
X183275000Y-66664200D03*
%TO.N,MasterReset*%
X220319600Y-66522600D03*
X216319100Y-56426100D03*
%TO.N,B_G_D_DIR*%
X189160500Y-66635500D03*
X188341000Y-72314443D03*
%TO.N,Net-(Q1-C)*%
X217373200Y-54356000D03*
%TO.N,/mB_SHARE_GRANTED*%
X184400100Y-97078800D03*
X170510400Y-92593800D03*
%TO.N,/CA11*%
X182448200Y-67360800D03*
X189472950Y-74625200D03*
X189585600Y-73050400D03*
X183045100Y-74663300D03*
X189306199Y-89331799D03*
%TO.N,/CA9*%
X188146458Y-68522942D03*
X188417200Y-88823800D03*
%TO.N,~{Dev_Sel_1}*%
X200685400Y-61264800D03*
X189648723Y-58772271D03*
%TO.N,~{Dev_Sel_2}*%
X187783500Y-98527900D03*
X190398400Y-58549572D03*
%TO.N,~{Dev_Sel_7}*%
X200101200Y-48514000D03*
X233641600Y-61185200D03*
%TO.N,/GA15*%
X174345600Y-64262000D03*
X183916200Y-93259400D03*
X184412803Y-64598806D03*
%TO.N,/GA13*%
X174933214Y-62976614D03*
X184353200Y-86918800D03*
X182930800Y-63601600D03*
%TO.N,/CA3*%
X186534562Y-54102000D03*
X191897000Y-99847400D03*
X179324000Y-59486800D03*
%TO.N,/~{IRQ}*%
X185928000Y-41910000D03*
X181991000Y-49403000D03*
X196570600Y-99212400D03*
%TO.N,/CA8*%
X187350400Y-88163400D03*
X187754100Y-67788400D03*
X184372422Y-63633606D03*
%TO.N,/CA1*%
X184384550Y-57913502D03*
%TO.N,/~{Dev_2}*%
X198602600Y-102717600D03*
X189927278Y-57320063D03*
X190811387Y-99868608D03*
X191935100Y-101739700D03*
%TO.N,/E*%
X199263000Y-45593000D03*
X197586600Y-97332800D03*
%TO.N,/CA10*%
X185242200Y-110770200D03*
X186893200Y-69037200D03*
%TO.N,/R~{W}*%
X165022800Y-100940200D03*
X196977000Y-51003200D03*
X213131400Y-49123600D03*
X196977000Y-96799400D03*
%TO.N,/GA12*%
X175762500Y-62979900D03*
X175234600Y-83591400D03*
%TO.N,/CA4*%
X191414400Y-55168800D03*
X183772317Y-58238947D03*
X187401200Y-54508400D03*
%TO.N,/~{NMI}*%
X184630900Y-42037000D03*
X181130600Y-50269100D03*
%TO.N,/CA5*%
X189927668Y-59431613D03*
X183983206Y-58840794D03*
%TO.N,/mA_SHARE_SELECT*%
X184251600Y-73279000D03*
X184320200Y-66426419D03*
%TO.N,/CA6*%
X183337200Y-59867800D03*
X189895960Y-61419799D03*
%TO.N,/CA0*%
X195827100Y-102566400D03*
X180289200Y-58166000D03*
X196037200Y-84023200D03*
%TO.N,/CA2*%
X180213000Y-59009439D03*
X185507342Y-52858271D03*
%TO.N,/~{Dev_4}*%
X198406700Y-60520100D03*
X200355200Y-116992400D03*
%TO.N,/GA14*%
X173710500Y-64059600D03*
X191744600Y-85699600D03*
X192074800Y-64262000D03*
%TO.N,/CA7*%
X189280800Y-64744600D03*
X180746400Y-61290200D03*
X192074800Y-90119200D03*
%TO.N,/~{FIRQ}*%
X186690000Y-41884600D03*
X182106200Y-50026200D03*
%TO.N,Net-(L58-A)*%
X236783500Y-117219600D03*
%TO.N,Net-(L59-A)*%
X233275800Y-118555300D03*
%TO.N,/~{Dev_3}*%
X199316300Y-99644200D03*
X199113000Y-60932700D03*
%TO.N,~{Write}*%
X202311000Y-68249800D03*
%TO.N,~{Read}*%
X189357000Y-62407800D03*
X186021400Y-111488800D03*
X189052200Y-94488000D03*
X206883000Y-94564200D03*
%TO.N,/BootSrc*%
X180804900Y-43307000D03*
X180804900Y-48506000D03*
%TO.N,/RomMapped*%
X179323317Y-54922614D03*
%TO.N,~{ROM}*%
X177025800Y-100917600D03*
X204114400Y-96037400D03*
X201545900Y-62204600D03*
%TO.N,~{RAM}*%
X181544900Y-110578300D03*
X183537600Y-62570900D03*
%TO.N,Net-(L6-K)*%
X187909200Y-121655840D03*
%TO.N,Net-(L7-K)*%
X185480960Y-121649490D03*
%TO.N,Net-(LSys1-K)*%
X246681500Y-68914200D03*
%TO.N,Net-(L0-A)*%
X166167100Y-121650000D03*
%TO.N,Net-(L1-A)*%
X168699100Y-121650000D03*
%TO.N,/B_S_16*%
X171831000Y-67335400D03*
%TO.N,/~{Dev_1}*%
X190285623Y-57904797D03*
X187683500Y-99585700D03*
%TO.N,/mA_SHARE_GRANTED*%
X183792800Y-96875600D03*
X170956200Y-92038800D03*
%TO.N,/B_SHARE_SELECT*%
X178333400Y-79197200D03*
X183128200Y-65991200D03*
%TO.N,Net-(L2-A)*%
X170390500Y-121650000D03*
%TO.N,Net-(L3-A)*%
X180545400Y-121650000D03*
%TO.N,Net-(L4-A)*%
X179148740Y-121650760D03*
%TO.N,Net-(L5-A)*%
X172927500Y-121650000D03*
%TO.N,Net-(L8-A)*%
X183087000Y-121650000D03*
%TO.N,Net-(L9-A)*%
X198330000Y-121650000D03*
%TO.N,Net-(L10-A)*%
X196642400Y-121650000D03*
%TO.N,Net-(L11-A)*%
X194107100Y-121650000D03*
%TO.N,Net-(L12-A)*%
X205942900Y-121650000D03*
%TO.N,Net-(L13-A)*%
X203402900Y-121650000D03*
%TO.N,Net-(L14-A)*%
X200862900Y-121650000D03*
%TO.N,Net-(L17-A)*%
X208482900Y-121650000D03*
%TD*%
D37*
%TO.N,Net-(U1-XTAL)*%
X218831800Y-32216600D02*
X219007200Y-32041200D01*
X213341800Y-31775400D02*
X213783000Y-32216600D01*
X208686400Y-31775400D02*
X213341800Y-31775400D01*
X213783000Y-32216600D02*
X218831800Y-32216600D01*
%TO.N,Net-(U1-EXTAL)*%
X215712400Y-35167200D02*
X213783000Y-37096600D01*
X211001800Y-34315400D02*
X213783000Y-37096600D01*
X219007200Y-35167200D02*
X215712400Y-35167200D01*
X208686400Y-34315400D02*
X211001800Y-34315400D01*
%TO.N,GND*%
X240447900Y-48979600D02*
X241485400Y-48979600D01*
X165100000Y-119650000D02*
X165512500Y-119237500D01*
X240935000Y-101285100D02*
X240824800Y-101174900D01*
X209550000Y-119650000D02*
X210877660Y-119650000D01*
X240935000Y-46355000D02*
X239787200Y-46355000D01*
X240935000Y-84455000D02*
X240030000Y-84455000D01*
X174548900Y-46175300D02*
X175610600Y-46175300D01*
X184338000Y-28645600D02*
X184188020Y-28645600D01*
X239674400Y-43815000D02*
X239649000Y-43840400D01*
X201930000Y-119650000D02*
X201554700Y-119274700D01*
X171752725Y-60074414D02*
X171752725Y-59969400D01*
X184251600Y-56080958D02*
X184251600Y-56261000D01*
X206726900Y-119366900D02*
X205942000Y-119366900D01*
X188926500Y-63314800D02*
X188930100Y-63318400D01*
X241555400Y-59069600D02*
X241570000Y-59055000D01*
X241570000Y-81915000D02*
X241523500Y-81961500D01*
X240450400Y-56547100D02*
X241537900Y-56547100D01*
X240030000Y-81915000D02*
X238760000Y-83185000D01*
X194101500Y-119237500D02*
X195167500Y-119237500D01*
X241523500Y-81961500D02*
X240386100Y-81961500D01*
X239770500Y-48895000D02*
X239685900Y-48979600D01*
X172088600Y-70014800D02*
X172088600Y-69115600D01*
X241467900Y-46457100D02*
X241570000Y-46355000D01*
X241502900Y-51502100D02*
X241570000Y-51435000D01*
X210877660Y-119650000D02*
X210882230Y-119645430D01*
X241477800Y-74202800D02*
X241570000Y-74295000D01*
X240935000Y-101064700D02*
X240935000Y-99695000D01*
X240935000Y-43815000D02*
X239674400Y-43815000D01*
X241570000Y-84455000D02*
X241339300Y-84224300D01*
X240806200Y-95974600D02*
X240935000Y-95845800D01*
X240449600Y-54024600D02*
X241520400Y-54024600D01*
X241520400Y-54024600D02*
X241570000Y-53975000D01*
X241539600Y-61625400D02*
X241570000Y-61595000D01*
X169388600Y-60314800D02*
X171512339Y-60314800D01*
X180588600Y-69115600D02*
X180588600Y-68078500D01*
X184150000Y-119650000D02*
X183999400Y-119800600D01*
X236541900Y-121450700D02*
X236880400Y-121112200D01*
X178342900Y-67659553D02*
X178407900Y-67594553D01*
X193452500Y-119237500D02*
X194101500Y-119237500D01*
X240935000Y-112395000D02*
X240935000Y-111325100D01*
X184517758Y-55814800D02*
X184251600Y-56080958D01*
X183075500Y-119800600D02*
X181760600Y-119800600D01*
X240935000Y-95845800D02*
X240935000Y-94615000D01*
X240935000Y-74295000D02*
X239777800Y-74295000D01*
X240935000Y-56515000D02*
X239720500Y-56515000D01*
X174588600Y-53514000D02*
X174588600Y-54551100D01*
X186772400Y-63314800D02*
X188926500Y-63314800D01*
X240935000Y-53975000D02*
X239737200Y-53975000D01*
X240935000Y-48895000D02*
X239770500Y-48895000D01*
X240935000Y-51435000D02*
X239753800Y-51435000D01*
X240935000Y-111325100D02*
X240935000Y-109855000D01*
X175112400Y-54995500D02*
X175033000Y-54995500D01*
X185889400Y-63314800D02*
X186772400Y-63314800D01*
X239703800Y-59055000D02*
X239689200Y-59069600D01*
X178342900Y-67824200D02*
X180334300Y-67824200D01*
X240935000Y-96103400D02*
X240935000Y-97155000D01*
X241570000Y-79375000D02*
X241544100Y-79400900D01*
X241537900Y-56547100D02*
X241570000Y-56515000D01*
X239753800Y-51435000D02*
X239686700Y-51502100D01*
X179088600Y-52631000D02*
X179088600Y-50271400D01*
X178407900Y-67594553D02*
X178503177Y-67594553D01*
X240935000Y-59055000D02*
X239703800Y-59055000D01*
X240935000Y-102235000D02*
X240935000Y-101285100D01*
X239777800Y-74295000D02*
X239685600Y-74202800D01*
X183999400Y-119800600D02*
X183075500Y-119800600D01*
X239720500Y-56515000D02*
X239688400Y-56547100D01*
X241485400Y-48979600D02*
X241570000Y-48895000D01*
X236880400Y-121112200D02*
X236880400Y-120329200D01*
X174548900Y-46175300D02*
X173070600Y-46175300D01*
X240935000Y-76835000D02*
X239649000Y-76835000D01*
X193040000Y-119650000D02*
X193452500Y-119237500D01*
X240030000Y-84455000D02*
X238760000Y-83185000D01*
X181760600Y-119800600D02*
X181610000Y-119650000D01*
X239718900Y-61595000D02*
X239688500Y-61625400D01*
X239737200Y-53975000D02*
X239687600Y-54024600D01*
X239787200Y-46355000D02*
X239685100Y-46457100D01*
X171512339Y-60314800D02*
X171752725Y-60074414D01*
X179088600Y-52631000D02*
X179088600Y-53514000D01*
X239522000Y-71755000D02*
X239395000Y-71882000D01*
X179088540Y-119650000D02*
X179090320Y-119651780D01*
X172926500Y-119800600D02*
X171600600Y-119800600D01*
X201554700Y-119274700D02*
X200831300Y-119274700D01*
X180588600Y-69115600D02*
X180588600Y-70014800D01*
X240935000Y-61595000D02*
X239718900Y-61595000D01*
X178088600Y-68078500D02*
X178342900Y-67824200D01*
X167227500Y-119237500D02*
X167640000Y-119650000D01*
X205942000Y-119366900D02*
X204753100Y-119366900D01*
X200831300Y-119274700D02*
X199765300Y-119274700D01*
X241544100Y-79400900D02*
X240382700Y-79400900D01*
X178088600Y-69115600D02*
X178088600Y-70014800D01*
X240935000Y-71755000D02*
X239522000Y-71755000D01*
X240935000Y-106242200D02*
X240935000Y-104775000D01*
X178817000Y-112732000D02*
X178817000Y-114877400D01*
X195167500Y-119237500D02*
X195580000Y-119650000D01*
X186772400Y-55814800D02*
X184517758Y-55814800D01*
X240806200Y-95974600D02*
X240935000Y-96103400D01*
X240450500Y-61625400D02*
X241539600Y-61625400D01*
X175033000Y-54995500D02*
X174588600Y-54551100D01*
X240451200Y-59069600D02*
X241555400Y-59069600D01*
X240448700Y-51502100D02*
X241502900Y-51502100D01*
X240824800Y-101174900D02*
X240935000Y-101064700D01*
X184188020Y-28645600D02*
X183156344Y-29677276D01*
X171577900Y-70014800D02*
X172088600Y-70014800D01*
X180334300Y-67824200D02*
X180588600Y-68078500D01*
X177800000Y-119650000D02*
X179088540Y-119650000D01*
X240935000Y-107315000D02*
X240935000Y-106242200D01*
X166161500Y-119237500D02*
X167227500Y-119237500D01*
X174588600Y-53514000D02*
X174588600Y-52631000D01*
X178088600Y-69115600D02*
X178088600Y-68078500D01*
X175610600Y-46175300D02*
X178150600Y-46175300D01*
X240447100Y-46457100D02*
X241467900Y-46457100D01*
X239141000Y-79375000D02*
X240935000Y-79375000D01*
X173990000Y-119650000D02*
X173839400Y-119800600D01*
X240935000Y-81915000D02*
X240030000Y-81915000D01*
X241339300Y-84224300D02*
X240386100Y-84224300D01*
X234028700Y-120017500D02*
X234340400Y-120329200D01*
X240447600Y-74202800D02*
X241477800Y-74202800D01*
X188930100Y-63318400D02*
X189131300Y-63318400D01*
X204753100Y-119366900D02*
X204470000Y-119650000D01*
X233263800Y-120017500D02*
X234028700Y-120017500D01*
X178342900Y-67824200D02*
X178342900Y-67659553D01*
X207010000Y-119650000D02*
X206726900Y-119366900D01*
X199765300Y-119274700D02*
X199390000Y-119650000D01*
X173839400Y-119800600D02*
X172926500Y-119800600D01*
X171600600Y-119800600D02*
X171450000Y-119650000D01*
X165512500Y-119237500D02*
X166161500Y-119237500D01*
X171532200Y-70060500D02*
X171577900Y-70014800D01*
X183230600Y-46175300D02*
X182168900Y-46175300D01*
%TO.N,+5V*%
X176588600Y-52631000D02*
X176588600Y-50272700D01*
X170287800Y-63814800D02*
X171542700Y-63814800D01*
X176588600Y-52631000D02*
X176588600Y-53514000D01*
X168483900Y-109758200D02*
X170353200Y-109758200D01*
X215417400Y-46940400D02*
X215469700Y-46940400D01*
X187919870Y-119650000D02*
X187918090Y-119651780D01*
X179317000Y-89727200D02*
X179817600Y-89226600D01*
X186772400Y-59814800D02*
X184884331Y-59814800D01*
X171542700Y-63814800D02*
X171740800Y-64012900D01*
X179817600Y-89208100D02*
X179817600Y-89226600D01*
X184884331Y-59814800D02*
X184424931Y-60274200D01*
X170335900Y-112280900D02*
X169333300Y-112280900D01*
X214360000Y-42307000D02*
X214376000Y-42291000D01*
X214360000Y-44431900D02*
X213976900Y-44431900D01*
X214427600Y-46940400D02*
X214360000Y-47008000D01*
X170450000Y-104775000D02*
X170450000Y-107333000D01*
X246693800Y-66853000D02*
X245780000Y-66853000D01*
X170450000Y-112395000D02*
X170335900Y-112280900D01*
X167370000Y-106255700D02*
X167370000Y-104775000D01*
X185889400Y-67314800D02*
X186553800Y-67314800D01*
X186553800Y-67314800D02*
X186772400Y-67314800D01*
X178588600Y-72233077D02*
X178503177Y-72318500D01*
X181088600Y-52631000D02*
X181088600Y-54776885D01*
X214360000Y-44048800D02*
X214360000Y-42307000D01*
X173938800Y-28486200D02*
X172980200Y-28486200D01*
X176088600Y-69115600D02*
X176088600Y-70014800D01*
X215402100Y-47008000D02*
X215469700Y-46940400D01*
X179817600Y-89226600D02*
X180317000Y-89726000D01*
X169388600Y-63814800D02*
X170287800Y-63814800D01*
X171684899Y-56314800D02*
X171713800Y-56343701D01*
X189230000Y-119650000D02*
X187919870Y-119650000D01*
X184424931Y-60274200D02*
X184342268Y-60274200D01*
X170353200Y-109758200D02*
X170450000Y-109855000D01*
X176088600Y-70014800D02*
X176088600Y-72168900D01*
X169333300Y-112280900D02*
X167484100Y-112280900D01*
X167466800Y-109758200D02*
X168483900Y-109758200D01*
X242858800Y-91119200D02*
X243967000Y-92227400D01*
X167370000Y-109855000D02*
X167466800Y-109758200D01*
X174047400Y-28594800D02*
X173938800Y-28486200D01*
X245780000Y-66853000D02*
X245618000Y-66691000D01*
X167484100Y-112280900D02*
X167370000Y-112395000D01*
X167370000Y-107315000D02*
X167370000Y-106255700D01*
X186553800Y-67809200D02*
X186553800Y-67314800D01*
X214360000Y-47008000D02*
X215402100Y-47008000D01*
X180317000Y-89726000D02*
X180317000Y-91357000D01*
X178588600Y-69115600D02*
X178588600Y-72233077D01*
X187916310Y-119650000D02*
X187918090Y-119651780D01*
X169388600Y-56314800D02*
X171684899Y-56314800D01*
X170450000Y-104775000D02*
X167370000Y-104775000D01*
X186690000Y-119650000D02*
X187916310Y-119650000D01*
X176088600Y-72168900D02*
X176088600Y-72387300D01*
X181088600Y-54776885D02*
X180913388Y-54952097D01*
X213976900Y-44431900D02*
X214360000Y-44048800D01*
X179317000Y-91357000D02*
X179317000Y-89727200D01*
X242858800Y-91077000D02*
X242858800Y-91119200D01*
%TO.N,GA16*%
X186772400Y-64814800D02*
X184852300Y-64814800D01*
X184083259Y-65583841D02*
X183798866Y-65583841D01*
X184852300Y-64814800D02*
X184083259Y-65583841D01*
X178919700Y-89157400D02*
X178837000Y-89157400D01*
X178837000Y-89157400D02*
X178317000Y-89677400D01*
X178317000Y-89677400D02*
X178317000Y-91357000D01*
%TO.N,JT_TDO*%
X186772400Y-56314800D02*
X184782000Y-56314800D01*
X176099600Y-56591200D02*
X175820200Y-56870600D01*
X181670264Y-56591200D02*
X176099600Y-56591200D01*
X184782000Y-56314800D02*
X183438800Y-57658000D01*
X182737064Y-57658000D02*
X181670264Y-56591200D01*
X183438800Y-57658000D02*
X182737064Y-57658000D01*
X175610600Y-44831300D02*
X176008500Y-45229200D01*
X175610600Y-44350300D02*
X175610600Y-44831300D01*
%TO.N,D7*%
X170287798Y-55814801D02*
X172892865Y-55814801D01*
X180467000Y-57683400D02*
X181330600Y-58547000D01*
X209639800Y-67790630D02*
X209639800Y-55510800D01*
X184566600Y-114694300D02*
X181660800Y-114694300D01*
X166370000Y-55372000D02*
X166812800Y-55814800D01*
X208686400Y-69875400D02*
X200964800Y-69875400D01*
X162560000Y-46793200D02*
X166370000Y-50603200D01*
X200964800Y-69875400D02*
X194614800Y-63525400D01*
X192608200Y-63525400D02*
X191534575Y-62451775D01*
X174761464Y-57683400D02*
X180467000Y-57683400D01*
X187377100Y-111883800D02*
X184566600Y-114694300D01*
X223520000Y-92710000D02*
X222707200Y-93522800D01*
X181660800Y-114694300D02*
X181317000Y-114350500D01*
X172892865Y-55814801D02*
X174761464Y-57683400D01*
X181317000Y-114350500D02*
X181317000Y-112732000D01*
X214462600Y-93522800D02*
X210652600Y-97332800D01*
X200475400Y-105435400D02*
X194027000Y-111883800D01*
X166370000Y-50603200D02*
X166370000Y-55372000D01*
X170287800Y-55814800D02*
X169388600Y-55814800D01*
X191534575Y-62451775D02*
X189992000Y-62451775D01*
X208686400Y-68744030D02*
X209639800Y-67790630D01*
X208686400Y-69875400D02*
X208686400Y-68744030D01*
X194027000Y-111883800D02*
X187377100Y-111883800D01*
X210652600Y-97332800D02*
X210058000Y-97332800D01*
X166812800Y-55814800D02*
X169388600Y-55814800D01*
X194614800Y-63525400D02*
X192608200Y-63525400D01*
X222707200Y-93522800D02*
X214462600Y-93522800D01*
X208686400Y-105435400D02*
X200475400Y-105435400D01*
X162560000Y-46228000D02*
X162560000Y-46793200D01*
X209639800Y-55510800D02*
X210108800Y-55041800D01*
%TO.N,D3*%
X164117368Y-41148000D02*
X162560000Y-41148000D01*
X204622400Y-55651400D02*
X192760600Y-55651400D01*
X208686400Y-59715400D02*
X204622400Y-55651400D01*
X181549600Y-116582300D02*
X179317000Y-114349700D01*
X223520000Y-102870000D02*
X212572600Y-102870000D01*
X212572600Y-102870000D02*
X212420200Y-103022400D01*
X181838600Y-56184800D02*
X182677135Y-57023335D01*
X173088600Y-53514000D02*
X173088600Y-50119232D01*
X173088600Y-52630998D02*
X173088600Y-54530998D01*
X223520000Y-57785000D02*
X220294200Y-61010800D01*
X157480000Y-41148000D02*
X158486900Y-42154900D01*
X186685934Y-54525860D02*
X186099046Y-54525860D01*
X208686400Y-115595400D02*
X208530000Y-115439000D01*
X192760600Y-55651400D02*
X191160400Y-54051200D01*
X194516900Y-116582300D02*
X181549600Y-116582300D01*
X186099046Y-54525860D02*
X186062386Y-54489200D01*
X211734400Y-61010800D02*
X211328000Y-61417200D01*
X195660200Y-115439000D02*
X194516900Y-116582300D01*
X208530000Y-115439000D02*
X195660200Y-115439000D01*
X220294200Y-61010800D02*
X211734400Y-61010800D01*
X161553100Y-42154900D02*
X162560000Y-41148000D01*
X187160594Y-54051200D02*
X186685934Y-54525860D01*
X211328000Y-61417200D02*
X211328000Y-62357000D01*
X191160400Y-54051200D02*
X187160594Y-54051200D01*
X179317000Y-114349700D02*
X179317000Y-112732000D01*
X174742402Y-56184800D02*
X181838600Y-56184800D01*
X173088600Y-54530998D02*
X174742402Y-56184800D01*
X173088600Y-50119232D02*
X164117368Y-41148000D01*
X182677135Y-57023335D02*
X182973397Y-57023335D01*
X158486900Y-42154900D02*
X161553100Y-42154900D01*
%TO.N,D2*%
X179101401Y-110160100D02*
X190551100Y-110160100D01*
X208686400Y-57175400D02*
X205079600Y-53568600D01*
X212944600Y-106010600D02*
X209836800Y-109118400D01*
X191238285Y-110847285D02*
X191466463Y-110847285D01*
X209836800Y-109118400D02*
X197383400Y-109118400D01*
X154940000Y-41148000D02*
X155944100Y-40143900D01*
X163576000Y-40005000D02*
X161163000Y-40005000D01*
X173588600Y-53514000D02*
X173588600Y-50017600D01*
X223520000Y-60325000D02*
X222300800Y-61544200D01*
X222300800Y-61544200D02*
X211810600Y-61544200D01*
X205079600Y-53568600D02*
X186055000Y-53568600D01*
X155944100Y-40143900D02*
X159015900Y-40143900D01*
X175071601Y-55981600D02*
X182854600Y-55981600D01*
X211810600Y-61544200D02*
X211797900Y-61556900D01*
X190551100Y-110160100D02*
X191238285Y-110847285D01*
X159015900Y-40143900D02*
X160020000Y-41148000D01*
X185387389Y-54236211D02*
X185387389Y-54610462D01*
X178317000Y-110944501D02*
X179101401Y-110160100D01*
X173588599Y-54498598D02*
X175071601Y-55981600D01*
X213545200Y-105410000D02*
X212944600Y-106010600D01*
X178317000Y-112732000D02*
X178317000Y-110944501D01*
X197383400Y-109118400D02*
X193446400Y-113055400D01*
X161163000Y-40005000D02*
X160020000Y-41148000D01*
X173588600Y-50017600D02*
X163576000Y-40005000D01*
X182854600Y-55981600D02*
X183210200Y-56337200D01*
X173588599Y-53513998D02*
X173588599Y-54498598D01*
X223520000Y-105410000D02*
X213545200Y-105410000D01*
X186055000Y-53568600D02*
X185387389Y-54236211D01*
%TO.N,D1*%
X210870800Y-109321600D02*
X213969600Y-106222800D01*
X183487968Y-55778400D02*
X185900968Y-53365400D01*
X213969600Y-106222800D02*
X214096600Y-106222800D01*
X192876300Y-109945300D02*
X178990900Y-109945300D01*
X174088600Y-50136600D02*
X174088600Y-54551100D01*
X158484100Y-39612100D02*
X161555900Y-39612100D01*
X174088600Y-54551100D02*
X175315900Y-55778400D01*
X221792800Y-106222800D02*
X223520000Y-107950000D01*
X195529200Y-111328200D02*
X197535800Y-109321600D01*
X195529200Y-111937800D02*
X195529200Y-111328200D01*
X207416400Y-53365400D02*
X208686400Y-54635400D01*
X185900968Y-53365400D02*
X207416400Y-53365400D01*
X162560000Y-38608000D02*
X174088600Y-50136600D01*
X157480000Y-38608000D02*
X158484100Y-39612100D01*
X178990900Y-109945300D02*
X177817000Y-111119200D01*
X175315900Y-55778400D02*
X183487968Y-55778400D01*
X161555900Y-39612100D02*
X162560000Y-38608000D01*
X193446400Y-110515400D02*
X192876300Y-109945300D01*
X197535800Y-109321600D02*
X210870800Y-109321600D01*
X177817000Y-111119200D02*
X177817000Y-112732000D01*
X223520000Y-62865000D02*
X212979000Y-62865000D01*
X214096600Y-106222800D02*
X221792800Y-106222800D01*
%TO.N,D4*%
X161051900Y-42656100D02*
X165338100Y-42656100D01*
X156210000Y-44958000D02*
X158750000Y-44958000D01*
X207522900Y-114218900D02*
X208686400Y-113055400D01*
X181754432Y-56388000D02*
X182821232Y-57454800D01*
X196723000Y-55880000D02*
X202311000Y-55880000D01*
X222021400Y-57175400D02*
X222021400Y-58699400D01*
X222021400Y-58699400D02*
X220141800Y-60579000D01*
X182821232Y-57454800D02*
X183159400Y-57454800D01*
X179817000Y-112732000D02*
X179817000Y-114379800D01*
X212340016Y-99263200D02*
X211882816Y-99720400D01*
X223520000Y-55245000D02*
X223520000Y-55676800D01*
X210727915Y-60579000D02*
X210727915Y-64449315D01*
X190063100Y-55864000D02*
X196707000Y-55864000D01*
X183695867Y-55954191D02*
X184624358Y-55025700D01*
X183159400Y-57454800D02*
X183695867Y-56918333D01*
X220141800Y-60579000D02*
X210727915Y-60579000D01*
X202311000Y-55880000D02*
X208686400Y-62255400D01*
X160020000Y-43688000D02*
X161051900Y-42656100D01*
X223520000Y-55676800D02*
X222021400Y-57175400D01*
X223520000Y-100330000D02*
X222453200Y-99263200D01*
X154940000Y-43688000D02*
X156210000Y-44958000D01*
X184624358Y-55025700D02*
X189224800Y-55025700D01*
X180767900Y-115330700D02*
X185768200Y-115330700D01*
X165338100Y-42656100D02*
X172588600Y-49906600D01*
X222453200Y-99263200D02*
X212340016Y-99263200D01*
X158750000Y-44958000D02*
X160020000Y-43688000D01*
X172588600Y-54551100D02*
X174425500Y-56388000D01*
X179817000Y-114379800D02*
X180767900Y-115330700D01*
X189224800Y-55025700D02*
X190063100Y-55864000D01*
X185768200Y-115330700D02*
X186880000Y-114218900D01*
X186880000Y-114218900D02*
X207522900Y-114218900D01*
X183695867Y-56918333D02*
X183695867Y-55954191D01*
X174425500Y-56388000D02*
X181754432Y-56388000D01*
X172588600Y-49906600D02*
X172588600Y-54551100D01*
%TO.N,D5*%
X172088599Y-52630998D02*
X172088599Y-54435799D01*
X180317000Y-112732000D02*
X180317000Y-114355800D01*
X191055895Y-60680600D02*
X190265625Y-59890330D01*
X180317000Y-114355800D02*
X181067700Y-115106500D01*
X190265625Y-59890330D02*
X189417861Y-59890330D01*
X205638400Y-61747400D02*
X198008936Y-61747400D01*
X196942136Y-60680600D02*
X191055895Y-60680600D01*
X210286600Y-66446003D02*
X210286600Y-56845200D01*
X172088599Y-50041599D02*
X165735000Y-43688000D01*
X212315301Y-97790000D02*
X211519841Y-98585460D01*
X186793100Y-114014000D02*
X205187800Y-114014000D01*
X205187800Y-114014000D02*
X208686400Y-110515400D01*
X223520000Y-97790000D02*
X212315301Y-97790000D01*
X210325600Y-66485003D02*
X210286600Y-66446003D01*
X185700600Y-115106500D02*
X186793100Y-114014000D01*
X210286600Y-56845200D02*
X211175600Y-55956200D01*
X198008936Y-61747400D02*
X196942136Y-60680600D01*
X172088599Y-52630998D02*
X172088599Y-50041599D01*
X181067700Y-115106500D02*
X185700600Y-115106500D01*
X165735000Y-43688000D02*
X162560000Y-43688000D01*
X172088599Y-54435799D02*
X174929800Y-57277000D01*
X181689500Y-57277000D02*
X182614950Y-58202450D01*
X208686400Y-64795400D02*
X205638400Y-61747400D01*
X174929800Y-57277000D02*
X181689500Y-57277000D01*
%TO.N,D6*%
X188040300Y-112095600D02*
X185236700Y-114899200D01*
X181196701Y-114899200D02*
X180817000Y-114519499D01*
X163563400Y-47231400D02*
X163563400Y-45580400D01*
X169388600Y-55314800D02*
X166820800Y-55314800D01*
X162941000Y-44958000D02*
X161290000Y-44958000D01*
X196829745Y-61142945D02*
X190505145Y-61142945D01*
X209892000Y-68656200D02*
X209892000Y-56122200D01*
X174845632Y-57480200D02*
X181152800Y-57480200D01*
X194104900Y-112095600D02*
X188040300Y-112095600D01*
X190505145Y-61142945D02*
X190159600Y-60797400D01*
X166820800Y-55314800D02*
X166624000Y-55118000D01*
X223520000Y-95250000D02*
X213707632Y-95250000D01*
X205247936Y-107746800D02*
X198453700Y-107746800D01*
X198453700Y-107746800D02*
X194104900Y-112095600D01*
X158985400Y-47262600D02*
X160020000Y-46228000D01*
X169388600Y-55314800D02*
X172680232Y-55314800D01*
X155974600Y-47262600D02*
X158985400Y-47262600D01*
X166624000Y-50292000D02*
X163563400Y-47231400D01*
X209892000Y-56122200D02*
X210566000Y-55448200D01*
X172680232Y-55314800D02*
X174845632Y-57480200D01*
X207555030Y-107975400D02*
X207224830Y-108305600D01*
X208686400Y-107975400D02*
X207555030Y-107975400D01*
X203022200Y-67335400D02*
X196829745Y-61142945D01*
X154940000Y-46228000D02*
X155974600Y-47262600D01*
X185236700Y-114899200D02*
X181196701Y-114899200D01*
X213707632Y-95250000D02*
X210787451Y-98170181D01*
X205806736Y-108305600D02*
X205247936Y-107746800D01*
X207224830Y-108305600D02*
X205806736Y-108305600D01*
X181152800Y-57480200D02*
X181965600Y-58293000D01*
X163563400Y-45580400D02*
X162941000Y-44958000D01*
X161290000Y-44958000D02*
X160020000Y-46228000D01*
X190159600Y-60797400D02*
X189841146Y-60797400D01*
X210787451Y-98170181D02*
X210544719Y-98170181D01*
X180817000Y-114519499D02*
X180817000Y-112732000D01*
X166624000Y-55118000D02*
X166624000Y-50292000D01*
X208686400Y-67335400D02*
X203022200Y-67335400D01*
%TO.N,D0*%
X177317000Y-111087700D02*
X180429300Y-107975400D01*
X160020000Y-38608000D02*
X161039500Y-37588500D01*
X222631000Y-109601000D02*
X214706200Y-109601000D01*
X186359800Y-53162200D02*
X186156600Y-52959000D01*
X223520000Y-110490000D02*
X222631000Y-109601000D01*
X209059432Y-109601000D02*
X209020432Y-109562000D01*
X208686400Y-52095400D02*
X207619600Y-53162200D01*
X161039500Y-37588500D02*
X162960900Y-37588500D01*
X175088600Y-53514000D02*
X175088600Y-52631000D01*
X175088601Y-54389361D02*
X176274440Y-55575200D01*
X207619600Y-53162200D02*
X186359800Y-53162200D01*
X197227950Y-110201650D02*
X197227950Y-110337350D01*
X220014800Y-65405000D02*
X223520000Y-65405000D01*
X175088601Y-53513998D02*
X175088601Y-54389361D01*
X214706200Y-109601000D02*
X214960200Y-109347000D01*
X212013800Y-55422800D02*
X212013800Y-56489600D01*
X182741950Y-55575200D02*
X182945150Y-55372000D01*
X209020432Y-109562000D02*
X197867600Y-109562000D01*
X176274440Y-55575200D02*
X182741950Y-55575200D01*
X197867600Y-109562000D02*
X197227950Y-110201650D01*
X218719400Y-64109600D02*
X220014800Y-65405000D01*
X177317000Y-112732000D02*
X177317000Y-111087700D01*
X208686400Y-52095400D02*
X212013800Y-55422800D01*
X214706200Y-109601000D02*
X209059432Y-109601000D01*
X214960200Y-109347000D02*
X214960200Y-106934000D01*
X180429300Y-107975400D02*
X193446400Y-107975400D01*
X175088600Y-49716200D02*
X175088600Y-52631000D01*
X162960900Y-37588500D02*
X175088600Y-49716200D01*
%TO.N,B_G_ENABLE*%
X182981600Y-72364600D02*
X183088600Y-72257600D01*
X158485400Y-92953400D02*
X161554600Y-92953400D01*
X183088600Y-69115600D02*
X183088600Y-70014800D01*
X162560000Y-91948000D02*
X163130800Y-91948000D01*
X183088600Y-72257600D02*
X183088600Y-70014800D01*
X157480000Y-91948000D02*
X158485400Y-92953400D01*
X161554600Y-92953400D02*
X162560000Y-91948000D01*
X182714200Y-72364600D02*
X182981600Y-72364600D01*
X163130800Y-91948000D02*
X182714200Y-72364600D01*
%TO.N,A_G_ENABLE*%
X161024100Y-90943900D02*
X160020000Y-91948000D01*
X163813600Y-90943900D02*
X161024100Y-90943900D01*
X154940000Y-91948000D02*
X155944100Y-90943900D01*
X182588600Y-69115600D02*
X182588600Y-70014800D01*
X159015900Y-90943900D02*
X160020000Y-91948000D01*
X182588600Y-70014800D02*
X182588600Y-72168900D01*
X182588600Y-72168900D02*
X163813600Y-90943900D01*
X155944100Y-90943900D02*
X159015900Y-90943900D01*
%TO.N,A_S_WRITE*%
X161024100Y-88403900D02*
X160020000Y-89408000D01*
X155944100Y-88403900D02*
X159015900Y-88403900D01*
X154940000Y-89408000D02*
X155944100Y-88403900D01*
X181588600Y-69115600D02*
X181588600Y-70014800D01*
X181588600Y-70014800D02*
X181588600Y-72168900D01*
X181588600Y-72168900D02*
X165353600Y-88403900D01*
X165353600Y-88403900D02*
X161024100Y-88403900D01*
X159015900Y-88403900D02*
X160020000Y-89408000D01*
%TO.N,~{HALT}*%
X175133000Y-87130800D02*
X175133000Y-84378800D01*
X176088600Y-54443351D02*
X176607680Y-54962431D01*
X190892600Y-38364500D02*
X184177300Y-45079800D01*
X176607680Y-54962431D02*
X178399529Y-54962431D01*
X184177300Y-45079800D02*
X181191300Y-45079800D01*
X176088600Y-50182500D02*
X176088600Y-54443351D01*
X199557300Y-38364500D02*
X190892600Y-38364500D01*
X181191300Y-45079800D02*
X176088600Y-50182500D01*
X208686400Y-29235400D02*
X199557300Y-38364500D01*
X173166800Y-89097000D02*
X175133000Y-87130800D01*
%TO.N,JT_TDI*%
X169388600Y-56814800D02*
X173605496Y-56814800D01*
X176579658Y-57886600D02*
X176813497Y-58120439D01*
X183230600Y-43478000D02*
X183235600Y-43473000D01*
X174677296Y-57886600D02*
X176579658Y-57886600D01*
X173605496Y-56814800D02*
X174677296Y-57886600D01*
X183230600Y-44350300D02*
X183230600Y-43478000D01*
%TO.N,JT_TMS*%
X172432000Y-62314800D02*
X172669200Y-62077600D01*
X178150600Y-44350300D02*
X178150600Y-43478100D01*
X169388600Y-62314800D02*
X172432000Y-62314800D01*
%TO.N,JT_TCK*%
X186772400Y-61814800D02*
X184870900Y-61814800D01*
X183706200Y-62979500D02*
X183368100Y-62979500D01*
X173070600Y-43362800D02*
X173075600Y-43357800D01*
X174632379Y-60502800D02*
X174500807Y-60371228D01*
X180891400Y-60502800D02*
X174632379Y-60502800D01*
X173070600Y-44350300D02*
X173070600Y-43362800D01*
X184870900Y-61814800D02*
X183706200Y-62979500D01*
X183368100Y-62979500D02*
X180891400Y-60502800D01*
%TO.N,CA12*%
X180154600Y-65363200D02*
X171873300Y-65363200D01*
X186122500Y-70165900D02*
X186852000Y-70165900D01*
X188823600Y-72872600D02*
X193446400Y-77495400D01*
X186852000Y-70165900D02*
X188823600Y-72137500D01*
X171873300Y-65363200D02*
X171324900Y-64814800D01*
X170287800Y-64814800D02*
X171324900Y-64814800D01*
X188823600Y-72137500D02*
X188823600Y-72872600D01*
X181340500Y-66549100D02*
X180154600Y-65363200D01*
X169388600Y-64814800D02*
X170287800Y-64814800D01*
X184629900Y-68673300D02*
X186122500Y-70165900D01*
%TO.N,CA15*%
X194271100Y-65880700D02*
X189271700Y-65880700D01*
X200804300Y-72413900D02*
X194271100Y-65880700D01*
X169388600Y-66314800D02*
X170287800Y-66314800D01*
X208686400Y-72415400D02*
X208684900Y-72413900D01*
X208684900Y-72413900D02*
X200804300Y-72413900D01*
X178862200Y-66314800D02*
X179131500Y-66584100D01*
X170287800Y-66314800D02*
X178862200Y-66314800D01*
%TO.N,CA14*%
X207439100Y-73708100D02*
X192045700Y-73708100D01*
X180915400Y-67783000D02*
X178947200Y-65814800D01*
X186086400Y-69548600D02*
X184320800Y-67783000D01*
X208686400Y-74955400D02*
X207439100Y-73708100D01*
X184320800Y-67783000D02*
X180915400Y-67783000D01*
X192045700Y-73708100D02*
X187886200Y-69548600D01*
X187886200Y-69548600D02*
X186086400Y-69548600D01*
X178947200Y-65814800D02*
X171324900Y-65814800D01*
X170287800Y-65814800D02*
X171324900Y-65814800D01*
X169838200Y-65814800D02*
X170287800Y-65814800D01*
X169388600Y-65814800D02*
X169838200Y-65814800D01*
%TO.N,Q*%
X185368836Y-45507700D02*
X190527036Y-40349500D01*
X177088600Y-50476900D02*
X182057800Y-45507700D01*
X177088600Y-53514000D02*
X177088600Y-50476900D01*
X182057800Y-45507700D02*
X185368836Y-45507700D01*
X190527036Y-40349500D02*
X199375700Y-40349500D01*
X199375700Y-40349500D02*
X199390000Y-40335200D01*
%TO.N,CA13*%
X191754200Y-73999800D02*
X188853300Y-71098900D01*
X170287800Y-65314800D02*
X171324900Y-65314800D01*
X171598100Y-65588000D02*
X171324900Y-65314800D01*
X205190800Y-73999800D02*
X191754200Y-73999800D01*
X179297500Y-65588000D02*
X171598100Y-65588000D01*
X179561600Y-65852100D02*
X179297500Y-65588000D01*
X188853300Y-71098900D02*
X188417000Y-71098900D01*
X208686400Y-77495400D02*
X205190800Y-73999800D01*
X169388600Y-65314800D02*
X169838200Y-65314800D01*
X169838200Y-65314800D02*
X170287800Y-65314800D01*
%TO.N,~{DMA{slash}BREQ}*%
X182588600Y-52631000D02*
X182588600Y-50476900D01*
X183608800Y-49456700D02*
X182588600Y-50476900D01*
X212360000Y-47008000D02*
X212352600Y-47015400D01*
X212352600Y-47015400D02*
X208686400Y-47015400D01*
X189969100Y-48079700D02*
X188592100Y-49456700D01*
X208686400Y-47015400D02*
X207622100Y-48079700D01*
X188592100Y-49456700D02*
X183608800Y-49456700D01*
X182588600Y-53514000D02*
X182588600Y-52631000D01*
X207622100Y-48079700D02*
X189969100Y-48079700D01*
%TO.N,MRDY*%
X183088600Y-53514000D02*
X183088600Y-52614800D01*
X208686400Y-39395400D02*
X212360000Y-43069000D01*
X183088600Y-50460700D02*
X183818100Y-49731200D01*
X183088600Y-52614800D02*
X183088600Y-50460700D01*
X202006200Y-39395400D02*
X196443600Y-44958000D01*
X212360000Y-43069000D02*
X212360000Y-44431900D01*
X183818100Y-49731200D02*
X189069500Y-49731200D01*
X208686400Y-39395400D02*
X202006200Y-39395400D01*
%TO.N,BA*%
X184498600Y-47665900D02*
X190229100Y-41935400D01*
X190229100Y-41935400D02*
X193446400Y-41935400D01*
X178088600Y-53514000D02*
X178088600Y-50344200D01*
X178088600Y-50344200D02*
X180766900Y-47665900D01*
X180766900Y-47665900D02*
X184498600Y-47665900D01*
%TO.N,B_S_READ*%
X181088600Y-72168900D02*
X166389500Y-86868000D01*
X181088600Y-70014800D02*
X181088600Y-72168900D01*
X166389500Y-86868000D02*
X162560000Y-86868000D01*
X158485400Y-87873400D02*
X161554600Y-87873400D01*
X161554600Y-87873400D02*
X162560000Y-86868000D01*
X181088600Y-69115600D02*
X181088600Y-70014800D01*
X157480000Y-86868000D02*
X158485400Y-87873400D01*
%TO.N,BS*%
X183832500Y-50165000D02*
X183588600Y-50408900D01*
X183588600Y-50408900D02*
X183588600Y-52614800D01*
X184293500Y-50165000D02*
X183832500Y-50165000D01*
X184319200Y-50139300D02*
X184293500Y-50165000D01*
X183588600Y-53514000D02*
X183588600Y-52614800D01*
%TO.N,A_S_SELECT*%
X179088600Y-69115600D02*
X179088600Y-72415577D01*
X155945400Y-85333400D02*
X159014600Y-85333400D01*
X168507377Y-82996800D02*
X161351200Y-82996800D01*
X154940000Y-84328000D02*
X155945400Y-85333400D01*
X161351200Y-82996800D02*
X160020000Y-84328000D01*
X159014600Y-85333400D02*
X160020000Y-84328000D01*
X179088600Y-72415577D02*
X168507377Y-82996800D01*
%TO.N,A_S_READ*%
X166659500Y-85598000D02*
X180088600Y-72168900D01*
X161290000Y-85598000D02*
X166659500Y-85598000D01*
X180088600Y-69115600D02*
X180088600Y-70014800D01*
X154940000Y-86868000D02*
X155946600Y-85861400D01*
X160020000Y-86868000D02*
X161290000Y-85598000D01*
X180088600Y-70014800D02*
X180088600Y-72168900D01*
X155946600Y-85861400D02*
X159013400Y-85861400D01*
X159013400Y-85861400D02*
X160020000Y-86868000D01*
%TO.N,A_G_D_DIR*%
X184614319Y-66814800D02*
X184520100Y-66909019D01*
X182980800Y-73202600D02*
X164719000Y-91464400D01*
X154940000Y-97028000D02*
X155944100Y-96023900D01*
X164719000Y-91464400D02*
X164719000Y-93779900D01*
X159015900Y-96023900D02*
X160020000Y-97028000D01*
X161290000Y-95758000D02*
X160020000Y-97028000D01*
X184520100Y-66909019D02*
X183519819Y-66909019D01*
X186788600Y-66814800D02*
X184614319Y-66814800D01*
X162740900Y-95758000D02*
X161290000Y-95758000D01*
X183122100Y-73202600D02*
X182980800Y-73202600D01*
X183519819Y-66909019D02*
X183275000Y-66664200D01*
X155944100Y-96023900D02*
X159015900Y-96023900D01*
X164719000Y-93779900D02*
X162740900Y-95758000D01*
%TO.N,MasterReset*%
X200138400Y-40780600D02*
X200826750Y-40092250D01*
X210972400Y-51054000D02*
X210972400Y-51079400D01*
X174444300Y-115285900D02*
X172450000Y-113291600D01*
X172450000Y-113291600D02*
X172450000Y-112395000D01*
X195758600Y-115645400D02*
X194616800Y-116787200D01*
D38*
X213969600Y-115798600D02*
X213969600Y-119071000D01*
D37*
X177588600Y-53514000D02*
X177588600Y-50476900D01*
X171591100Y-111536100D02*
X172450000Y-112395000D01*
X210972400Y-51079400D02*
X216319100Y-56426100D01*
X221742000Y-67945000D02*
X220319600Y-66522600D01*
X207564400Y-117373400D02*
X205836400Y-115645400D01*
X179492400Y-115285900D02*
X174444300Y-115285900D01*
X223520000Y-67945000D02*
X221742000Y-67945000D01*
X204063600Y-36855400D02*
X200826750Y-40092250D01*
X208686400Y-36855400D02*
X204063600Y-36855400D01*
X163291900Y-111536100D02*
X171591100Y-111536100D01*
X213969600Y-115798600D02*
X213969600Y-116560600D01*
X162560000Y-112268000D02*
X163291900Y-111536100D01*
X213969600Y-119071000D02*
X214350600Y-119071000D01*
X220850600Y-119071000D02*
X214350600Y-119071000D01*
X180993700Y-116787200D02*
X179492400Y-115285900D01*
X177588600Y-50476900D02*
X180605900Y-47459600D01*
X205836400Y-115645400D02*
X195758600Y-115645400D01*
X184415200Y-47459600D02*
X191094200Y-40780600D01*
X180605900Y-47459600D02*
X184415200Y-47459600D01*
X194616800Y-116787200D02*
X180993700Y-116787200D01*
X191094200Y-40780600D02*
X200138400Y-40780600D01*
X213969600Y-117373400D02*
X207564400Y-117373400D01*
%TO.N,B_G_D_DIR*%
X162560000Y-97028000D02*
X164922200Y-94665800D01*
X183153000Y-73748900D02*
X184575600Y-72326300D01*
X188329143Y-72326300D02*
X188341000Y-72314443D01*
X164922200Y-91590800D02*
X182764100Y-73748900D01*
X184575600Y-72326300D02*
X188329143Y-72326300D01*
X185889400Y-66314800D02*
X186788600Y-66314800D01*
X164922200Y-94665800D02*
X164922200Y-91590800D01*
X162560000Y-97028000D02*
X161555900Y-98032100D01*
X189160500Y-66635500D02*
X188942700Y-66417700D01*
X188942700Y-66417700D02*
X188942700Y-66314800D01*
X161555900Y-98032100D02*
X158484100Y-98032100D01*
X182764100Y-73748900D02*
X183153000Y-73748900D01*
X158484100Y-98032100D02*
X157480000Y-97028000D01*
X186788600Y-66314800D02*
X188942700Y-66314800D01*
%TO.N,B_G_A_DIR*%
X161554600Y-95493400D02*
X162560000Y-94488000D01*
X164515800Y-92532200D02*
X162560000Y-94488000D01*
X182938700Y-72794400D02*
X164515800Y-91217300D01*
X183463100Y-72794400D02*
X182938700Y-72794400D01*
X184088600Y-69115600D02*
X184088600Y-70014800D01*
X184088600Y-72168900D02*
X183463100Y-72794400D01*
X184088600Y-70014800D02*
X184088600Y-72168900D01*
X164515800Y-91217300D02*
X164515800Y-92532200D01*
X157480000Y-94488000D02*
X158485400Y-95493400D01*
X158485400Y-95493400D02*
X161554600Y-95493400D01*
%TO.N,B_S_SELECT*%
X179588600Y-70014800D02*
X179588600Y-72202945D01*
X167463545Y-84328000D02*
X162560000Y-84328000D01*
X179588600Y-69115600D02*
X179588600Y-70014800D01*
X179588600Y-72202945D02*
X167463545Y-84328000D01*
%TO.N,A_G_A_DIR*%
X182780900Y-72589500D02*
X183168000Y-72589500D01*
X164312600Y-91615500D02*
X164312600Y-91057800D01*
X183588600Y-72168900D02*
X183588600Y-70014800D01*
X162472000Y-93456100D02*
X164312600Y-91615500D01*
X159015900Y-93483900D02*
X160020000Y-94488000D01*
X183588600Y-69115600D02*
X183588600Y-70014800D01*
X164312600Y-91057800D02*
X182780900Y-72589500D01*
X154940000Y-94488000D02*
X155944100Y-93483900D01*
X183168000Y-72589500D02*
X183588600Y-72168900D01*
X155944100Y-93483900D02*
X159015900Y-93483900D01*
X160020000Y-94488000D02*
X161051900Y-93456100D01*
X161051900Y-93456100D02*
X162472000Y-93456100D01*
%TO.N,B_S_WRITE*%
X162560000Y-89408000D02*
X164849500Y-89408000D01*
X158485400Y-90413400D02*
X161554600Y-90413400D01*
X182088600Y-69115600D02*
X182088600Y-70014800D01*
X161554600Y-90413400D02*
X162560000Y-89408000D01*
X164849500Y-89408000D02*
X182088600Y-72168900D01*
X157480000Y-89408000D02*
X158485400Y-90413400D01*
X182088600Y-70014800D02*
X182088600Y-72168900D01*
%TO.N,Net-(Q1-C)*%
X217373200Y-54356000D02*
X217373200Y-56025000D01*
X217373200Y-56025000D02*
X219904400Y-58556200D01*
%TO.N,/mB_SHARE_GRANTED*%
X176588600Y-70014800D02*
X176588600Y-72168900D01*
X184120700Y-97358200D02*
X184400100Y-97078800D01*
X175274800Y-97358200D02*
X184120700Y-97358200D01*
X169823500Y-79248000D02*
X162560000Y-79248000D01*
X170510400Y-92593800D02*
X175274800Y-97358200D01*
X176588600Y-72482900D02*
X169823500Y-79248000D01*
X176588600Y-72168900D02*
X176588600Y-72482900D01*
X176588600Y-69115600D02*
X176588600Y-70014800D01*
%TO.N,/CA11*%
X189560200Y-89128600D02*
X202539600Y-89128600D01*
X189422150Y-74676000D02*
X183057800Y-74676000D01*
X158486100Y-62474100D02*
X161553900Y-62474100D01*
X189472950Y-74625200D02*
X189422150Y-74676000D01*
X157480000Y-61468000D02*
X158486100Y-62474100D01*
X202539600Y-89128600D02*
X208686400Y-95275400D01*
X189357000Y-89331800D02*
X189560200Y-89128600D01*
X170287798Y-64314799D02*
X171375799Y-64314799D01*
X172186600Y-65125600D02*
X180492400Y-65125600D01*
X182817000Y-89547200D02*
X183032400Y-89331800D01*
X165406800Y-64314800D02*
X169388600Y-64314800D01*
X169388600Y-64314800D02*
X170287800Y-64314800D01*
X171375799Y-64314799D02*
X172186600Y-65125600D01*
X162560000Y-61468000D02*
X165406800Y-64314800D01*
X191490600Y-74955400D02*
X189585600Y-73050400D01*
X161553900Y-62474100D02*
X162560000Y-61468000D01*
X183032400Y-89331800D02*
X189306199Y-89331799D01*
X183057800Y-74676000D02*
X183045100Y-74663300D01*
X182817000Y-91357000D02*
X182817000Y-89547200D01*
X182448200Y-67081400D02*
X182448200Y-67360800D01*
X180492400Y-65125600D02*
X182448200Y-67081400D01*
X193446400Y-74955400D02*
X191490600Y-74955400D01*
%TO.N,/CA9*%
X185754500Y-68582400D02*
X188087000Y-68582400D01*
X189498916Y-69875400D02*
X188146458Y-68522942D01*
X188366400Y-88874600D02*
X188417200Y-88823800D01*
X157480000Y-58928000D02*
X158623000Y-60071000D01*
X208686400Y-92735400D02*
X204876400Y-88925400D01*
X169388600Y-62814800D02*
X171802000Y-62814800D01*
X193446400Y-69875400D02*
X189498916Y-69875400D01*
X167234500Y-62814800D02*
X163347700Y-58928000D01*
X183185100Y-67151500D02*
X184323600Y-67151500D01*
X180723068Y-64693800D02*
X180727400Y-64693800D01*
X180697668Y-64668400D02*
X180723068Y-64693800D01*
X182317000Y-89569501D02*
X183011901Y-88874600D01*
X169388600Y-62814800D02*
X167234500Y-62814800D01*
X158623000Y-60071000D02*
X161417000Y-60071000D01*
X204876400Y-88925400D02*
X188518800Y-88925400D01*
X173655600Y-64668400D02*
X180697668Y-64668400D01*
X180727400Y-64693800D02*
X183185100Y-67151500D01*
X163347700Y-58928000D02*
X162560000Y-58928000D01*
X182317000Y-91357000D02*
X182317000Y-89569501D01*
X161417000Y-60071000D02*
X162560000Y-58928000D01*
X183011901Y-88874600D02*
X188366400Y-88874600D01*
X184323600Y-67151500D02*
X185754500Y-68582400D01*
X188087000Y-68582400D02*
X188146458Y-68522942D01*
X188518800Y-88925400D02*
X188417200Y-88823800D01*
X171802000Y-62814800D02*
X173655600Y-64668400D01*
%TO.N,/Tx*%
X236018500Y-121588100D02*
X236018500Y-105611500D01*
X236018500Y-105611500D02*
X238760000Y-102870000D01*
X234442000Y-123164600D02*
X236018500Y-121588100D01*
%TO.N,Net-(PA1-Pin_1)*%
X250190000Y-112395000D02*
X246745000Y-112395000D01*
%TO.N,Net-(PA1-Pin_4)*%
X250190000Y-104775000D02*
X246745000Y-104775000D01*
%TO.N,Net-(PA1-Pin_7)*%
X250190000Y-97155000D02*
X246745000Y-97155000D01*
%TO.N,Net-(PA1-Pin_6)*%
X250190000Y-99695000D02*
X246745000Y-99695000D01*
%TO.N,Net-(PA1-Pin_2)*%
X250190000Y-109855000D02*
X246745000Y-109855000D01*
%TO.N,Net-(PA1-Pin_5)*%
X250190000Y-102235000D02*
X246745000Y-102235000D01*
%TO.N,Net-(PA1-Pin_8)*%
X250190000Y-94615000D02*
X246745000Y-94615000D01*
%TO.N,Net-(PA1-Pin_3)*%
X250190000Y-107315000D02*
X246745000Y-107315000D01*
%TO.N,Net-(PB1-Pin_2)*%
X246110000Y-57785000D02*
X247380000Y-59055000D01*
X250190000Y-59055000D02*
X247380000Y-59055000D01*
X238760000Y-57785000D02*
X246110000Y-57785000D01*
%TO.N,Net-(PB1-Pin_5)*%
X238760000Y-50165000D02*
X246110000Y-50165000D01*
X250190000Y-51435000D02*
X247380000Y-51435000D01*
X246110000Y-50165000D02*
X247380000Y-51435000D01*
%TO.N,Net-(PB1-Pin_4)*%
X246110000Y-52705000D02*
X247380000Y-53975000D01*
X250190000Y-53975000D02*
X247380000Y-53975000D01*
X238760000Y-52705000D02*
X246110000Y-52705000D01*
%TO.N,Net-(PB1-Pin_8)*%
X250190000Y-43815000D02*
X247380000Y-43815000D01*
X238760000Y-42545000D02*
X246110000Y-42545000D01*
X246110000Y-42545000D02*
X247380000Y-43815000D01*
%TO.N,Net-(PB1-Pin_1)*%
X250190000Y-61595000D02*
X247380000Y-61595000D01*
X246110000Y-60325000D02*
X247380000Y-61595000D01*
X238760000Y-60325000D02*
X246110000Y-60325000D01*
%TO.N,Net-(PB1-Pin_3)*%
X246110000Y-55245000D02*
X247380000Y-56515000D01*
X250190000Y-56515000D02*
X247380000Y-56515000D01*
X238760000Y-55245000D02*
X246110000Y-55245000D01*
%TO.N,Net-(PB1-Pin_7)*%
X250190000Y-46355000D02*
X247380000Y-46355000D01*
X238760000Y-45085000D02*
X246110000Y-45085000D01*
X246110000Y-45085000D02*
X247380000Y-46355000D01*
%TO.N,Net-(PB1-Pin_6)*%
X246110000Y-47625000D02*
X247380000Y-48895000D01*
X250190000Y-48895000D02*
X247380000Y-48895000D01*
X238760000Y-47625000D02*
X246110000Y-47625000D01*
%TO.N,~{Dev_Sel_1}*%
X191538201Y-59235999D02*
X190402327Y-59235999D01*
X185889400Y-58814800D02*
X189455792Y-58814800D01*
X189455792Y-58814800D02*
X189477468Y-58836476D01*
X189477468Y-58836476D02*
X189584518Y-58836476D01*
X197891400Y-61341000D02*
X195312400Y-58762000D01*
X192012200Y-58762000D02*
X191538201Y-59235999D01*
X200609200Y-61341000D02*
X197891400Y-61341000D01*
X189584518Y-58836476D02*
X189648723Y-58772271D01*
X200685400Y-61264800D02*
X200609200Y-61341000D01*
X195312400Y-58762000D02*
X192012200Y-58762000D01*
X189938599Y-58772271D02*
X189648723Y-58772271D01*
X190402327Y-59235999D02*
X189938599Y-58772271D01*
%TO.N,~{Dev_Sel_2}*%
X197637400Y-98475800D02*
X196138800Y-98475800D01*
X195605400Y-99009200D02*
X194023248Y-99009200D01*
X240858800Y-91077000D02*
X240858800Y-92795600D01*
X210464400Y-99009200D02*
X198170800Y-99009200D01*
X240858800Y-92795600D02*
X238760000Y-94894400D01*
X185889400Y-58314800D02*
X190284495Y-58314800D01*
X218698401Y-97358200D02*
X212115400Y-97358200D01*
X196138800Y-98475800D02*
X195605400Y-99009200D01*
X238760000Y-94894400D02*
X238760000Y-95250000D01*
X190284495Y-58314800D02*
X190398400Y-58428705D01*
X212115400Y-97358200D02*
X210464400Y-99009200D01*
X198170800Y-99009200D02*
X197637400Y-98475800D01*
X192883152Y-98995600D02*
X192869552Y-99009200D01*
X194009648Y-98995600D02*
X192883152Y-98995600D01*
X237423400Y-96586600D02*
X219470001Y-96586600D01*
X238760000Y-95250000D02*
X237423400Y-96586600D01*
X190398400Y-58428705D02*
X190398400Y-58549572D01*
X219470001Y-96586600D02*
X218698401Y-97358200D01*
X192869552Y-99009200D02*
X188264800Y-99009200D01*
X194023248Y-99009200D02*
X194009648Y-98995600D01*
X188264800Y-99009200D02*
X187783500Y-98527900D01*
%TO.N,~{Dev_Sel_7}*%
X184088600Y-50709000D02*
X184124600Y-50673000D01*
X233641600Y-61185200D02*
X233641600Y-57924400D01*
X190779400Y-50673000D02*
X192938400Y-48514000D01*
X233641600Y-57924400D02*
X224612200Y-48895000D01*
X224612200Y-48895000D02*
X220370400Y-48895000D01*
X184124600Y-50673000D02*
X190779400Y-50673000D01*
X219816100Y-48340700D02*
X200274500Y-48340700D01*
X192938400Y-48514000D02*
X200101200Y-48514000D01*
X184088600Y-53514000D02*
X184088600Y-50709000D01*
X200274500Y-48340700D02*
X200101200Y-48514000D01*
X220370400Y-48895000D02*
X219816100Y-48340700D01*
%TO.N,Net-(Jx1-Pin_2)*%
X241935000Y-38100000D02*
X240665000Y-38100000D01*
X240665000Y-38100000D02*
X238760000Y-40005000D01*
%TO.N,/vCB1*%
X250190000Y-79375000D02*
X246745000Y-79375000D01*
%TO.N,/v~{IRQB}*%
X239145500Y-73988900D02*
X240031600Y-73102800D01*
X224293630Y-73660000D02*
X237686100Y-73660000D01*
X237686100Y-73660000D02*
X238015000Y-73988900D01*
X245397200Y-73102800D02*
X246745000Y-71755000D01*
X238015000Y-73988900D02*
X239145500Y-73988900D01*
X246745000Y-71755000D02*
X250190000Y-71755000D01*
X240031600Y-73102800D02*
X245397200Y-73102800D01*
X223520000Y-74433630D02*
X224293630Y-73660000D01*
X223520000Y-75565000D02*
X223520000Y-74433630D01*
%TO.N,/vCA2*%
X237530800Y-81279900D02*
X224154900Y-81279900D01*
X246745000Y-81915000D02*
X246745000Y-81280000D01*
X224154900Y-81279900D02*
X223520000Y-80645000D01*
X246745000Y-81280000D02*
X246237000Y-80772000D01*
X237893800Y-81642900D02*
X237530800Y-81279900D01*
X239282600Y-81642900D02*
X237893800Y-81642900D01*
X246237000Y-80772000D02*
X240153500Y-80772000D01*
X250190000Y-81915000D02*
X246745000Y-81915000D01*
X240153500Y-80772000D02*
X239282600Y-81642900D01*
%TO.N,/vCA1*%
X250190000Y-84455000D02*
X246745000Y-84455000D01*
X245602000Y-85598000D02*
X246745000Y-84455000D01*
X223520000Y-83185000D02*
X225933000Y-85598000D01*
X225933000Y-85598000D02*
X245602000Y-85598000D01*
%TO.N,/vCB2*%
X250190000Y-76835000D02*
X246745000Y-76835000D01*
%TO.N,/v~{IRQA}*%
X238421700Y-77058100D02*
X237517900Y-77961900D01*
X250190000Y-74295000D02*
X247380000Y-74295000D01*
X247380000Y-74295000D02*
X246517900Y-75157100D01*
X237517900Y-77961900D02*
X237517900Y-78351000D01*
X246517900Y-75157100D02*
X240691900Y-75157100D01*
X237128900Y-78740000D02*
X224155000Y-78740000D01*
X238790900Y-77058100D02*
X238421700Y-77058100D01*
X240691900Y-75157100D02*
X238790900Y-77058100D01*
X224155000Y-78740000D02*
X223520000Y-78105000D01*
X237517900Y-78351000D02*
X237128900Y-78740000D01*
%TO.N,/GA15*%
X179817000Y-93002300D02*
X180210500Y-93395800D01*
X183779800Y-93395800D02*
X183916200Y-93259400D01*
X184324100Y-64439800D02*
X184412803Y-64528503D01*
X184412803Y-64528503D02*
X184412803Y-64598806D01*
X174345600Y-64262000D02*
X174961364Y-64262000D01*
X158485400Y-67553400D02*
X161554600Y-67553400D01*
X180210500Y-93395800D02*
X183779800Y-93395800D01*
X184609700Y-64314800D02*
X184412803Y-64511697D01*
X179817000Y-91357000D02*
X179817000Y-93002300D01*
X186772400Y-64314800D02*
X184609700Y-64314800D01*
X161554600Y-67553400D02*
X162560000Y-66548000D01*
X175139164Y-64439800D02*
X184324100Y-64439800D01*
X174961364Y-64262000D02*
X175139164Y-64439800D01*
X184412803Y-64511697D02*
X184412803Y-64598806D01*
X157480000Y-66548000D02*
X158485400Y-67553400D01*
%TO.N,/GA13*%
X182905400Y-63576200D02*
X175532800Y-63576200D01*
X161553400Y-63001400D02*
X162560000Y-64008000D01*
X157480000Y-64008000D02*
X158486600Y-63001400D01*
X175532800Y-63576200D02*
X174933214Y-62976614D01*
X183998200Y-87046400D02*
X184290300Y-86754300D01*
X184479600Y-62814800D02*
X185889402Y-62814800D01*
X208686400Y-87655400D02*
X207480400Y-86449400D01*
X182930800Y-63601600D02*
X183692800Y-63601600D01*
X181317000Y-91357000D02*
X181317000Y-89727600D01*
X182930800Y-63601600D02*
X182905400Y-63576200D01*
X184353200Y-86918800D02*
X184125800Y-86918800D01*
X181317000Y-89727600D02*
X183998200Y-87046400D01*
X183692800Y-63601600D02*
X184479600Y-62814800D01*
X207480400Y-86449400D02*
X184822600Y-86449400D01*
X184822600Y-86449400D02*
X184353200Y-86918800D01*
X158486600Y-63001400D02*
X161553400Y-63001400D01*
X184125800Y-86918800D02*
X183998200Y-87046400D01*
%TO.N,/CA3*%
X175128024Y-59486800D02*
X179324000Y-59486800D01*
X161706800Y-52451000D02*
X158623000Y-52451000D01*
X175317000Y-111101400D02*
X185535700Y-100882700D01*
X192646401Y-53835401D02*
X186801161Y-53835401D01*
X162704900Y-51452900D02*
X165557200Y-54305200D01*
X193446400Y-54635400D02*
X192646401Y-53835401D01*
X191897000Y-99745800D02*
X191897000Y-99847400D01*
X158623000Y-52451000D02*
X157480000Y-51308000D01*
X162311600Y-51846200D02*
X162311600Y-51556400D01*
X191816700Y-99665500D02*
X191897000Y-99745800D01*
X186801161Y-53835401D02*
X186534562Y-54102000D01*
X169388600Y-58814800D02*
X174456024Y-58814800D01*
X165557200Y-54305200D02*
X165557200Y-57099200D01*
X190559400Y-100882700D02*
X191776600Y-99665500D01*
X191776600Y-99665500D02*
X191816700Y-99665500D01*
X167272800Y-58814800D02*
X169388600Y-58814800D01*
X162311600Y-51846200D02*
X162704900Y-51452900D01*
X185535700Y-100882700D02*
X190559400Y-100882700D01*
X174456024Y-58814800D02*
X175128024Y-59486800D01*
X162311600Y-51846200D02*
X161706800Y-52451000D01*
X165557200Y-57099200D02*
X167272800Y-58814800D01*
X175317000Y-112732000D02*
X175317000Y-111101400D01*
X162311600Y-51556400D02*
X162560000Y-51308000D01*
%TO.N,/~{IRQ}*%
X185928000Y-41833800D02*
X185928000Y-41910000D01*
X162560000Y-104648000D02*
X163300700Y-103907300D01*
X192953720Y-99212400D02*
X188180632Y-99212400D01*
X177679200Y-104775000D02*
X172450000Y-104775000D01*
X157480000Y-104648000D02*
X158486600Y-103641400D01*
X181588601Y-49805399D02*
X181991000Y-49403000D01*
X181588601Y-52630998D02*
X181588601Y-49805399D01*
X225011700Y-99096300D02*
X224756200Y-98840800D01*
X211947001Y-98840800D02*
X211575401Y-99212400D01*
X211575401Y-99212400D02*
X193939080Y-99212400D01*
X188016732Y-99048500D02*
X183405700Y-99048500D01*
X192967320Y-99198800D02*
X192953720Y-99212400D01*
X237526300Y-99096300D02*
X225011700Y-99096300D01*
X238760000Y-100330000D02*
X237526300Y-99096300D01*
X158486600Y-103641400D02*
X161553400Y-103641400D01*
X193939080Y-99212400D02*
X193925480Y-99198800D01*
X188180632Y-99212400D02*
X188016732Y-99048500D01*
X171582300Y-103907300D02*
X172450000Y-104775000D01*
X193925480Y-99198800D02*
X192967320Y-99198800D01*
X163300700Y-103907300D02*
X171582300Y-103907300D01*
X161553400Y-103641400D02*
X162560000Y-104648000D01*
X224756200Y-98840800D02*
X211947001Y-98840800D01*
X183405700Y-99048500D02*
X177679200Y-104775000D01*
X193446400Y-34315400D02*
X185928000Y-41833800D01*
%TO.N,/CA8*%
X208686400Y-90195400D02*
X207213200Y-88722200D01*
X167234500Y-61814800D02*
X172347800Y-61814800D01*
X163204700Y-57785000D02*
X167234500Y-61814800D01*
X193446400Y-67335400D02*
X192993400Y-67788400D01*
X188439300Y-88163400D02*
X187350400Y-88163400D01*
X172945300Y-61671200D02*
X175307500Y-64033400D01*
X154940000Y-58928000D02*
X156083000Y-57785000D01*
X181817000Y-91357000D02*
X181817000Y-89569501D01*
X183808900Y-64033400D02*
X184246300Y-63596000D01*
X156083000Y-57785000D02*
X158877000Y-57785000D01*
X188998100Y-88722200D02*
X188439300Y-88163400D01*
X172491400Y-61671200D02*
X172945300Y-61671200D01*
X158877000Y-57785000D02*
X160020000Y-58928000D01*
X184246300Y-63596000D02*
X184334816Y-63596000D01*
X175307500Y-64033400D02*
X183808900Y-64033400D01*
X184334816Y-63596000D02*
X184372422Y-63633606D01*
X172347800Y-61814800D02*
X172491400Y-61671200D01*
X161163000Y-57785000D02*
X163204700Y-57785000D01*
X207213200Y-88722200D02*
X188998100Y-88722200D01*
X160020000Y-58928000D02*
X161163000Y-57785000D01*
X181817000Y-89569501D02*
X183223101Y-88163400D01*
X183223101Y-88163400D02*
X187350400Y-88163400D01*
X192993400Y-67788400D02*
X187754100Y-67788400D01*
%TO.N,/CA1*%
X179948867Y-58597800D02*
X180467000Y-58597800D01*
X169388600Y-57814800D02*
X167488600Y-57814800D01*
X179740428Y-58806239D02*
X179948867Y-58597800D01*
X180840355Y-58971155D02*
X182454654Y-58971155D01*
X222277800Y-51231600D02*
X219604100Y-48557900D01*
X165963600Y-52171600D02*
X162560000Y-48768000D01*
X223520000Y-70485000D02*
X224856600Y-69148400D01*
X193446400Y-102895400D02*
X184532900Y-102895400D01*
X165963600Y-56289800D02*
X165963600Y-52171600D01*
X184384550Y-57886013D02*
X184384550Y-57913502D01*
X225090400Y-63566600D02*
X225158900Y-63498100D01*
X182454654Y-58971155D02*
X183640809Y-57785000D01*
X161417000Y-49911000D02*
X162560000Y-48768000D01*
X224856600Y-63795978D02*
X225085978Y-63566600D01*
X180467000Y-58597800D02*
X180840355Y-58971155D01*
X184283537Y-57785000D02*
X184384550Y-57886013D01*
X184532900Y-102895400D02*
X176317000Y-111111300D01*
X174030760Y-57814800D02*
X175022199Y-58806239D01*
X225158900Y-52694400D02*
X223696100Y-51231600D01*
X175022199Y-58806239D02*
X179740428Y-58806239D01*
X225085978Y-63566600D02*
X225090400Y-63566600D01*
X208248200Y-48557900D02*
X207250700Y-49555400D01*
X183640809Y-57785000D02*
X184283537Y-57785000D01*
X224856600Y-69148400D02*
X224856600Y-63795978D01*
X169388600Y-57814800D02*
X174030760Y-57814800D01*
X176317000Y-111111300D02*
X176317000Y-112732000D01*
X225158900Y-63498100D02*
X225158900Y-52694400D01*
X219604100Y-48557900D02*
X208248200Y-48557900D01*
X157480000Y-48768000D02*
X158623000Y-49911000D01*
X223696100Y-51231600D02*
X222277800Y-51231600D01*
X167488600Y-57814800D02*
X165963600Y-56289800D01*
X207250700Y-49555400D02*
X193446400Y-49555400D01*
X158623000Y-49911000D02*
X161417000Y-49911000D01*
%TO.N,/~{Dev_2}*%
X164457200Y-110767800D02*
X165370000Y-109855000D01*
X198602600Y-102717600D02*
X197624700Y-101739700D01*
X189919541Y-57327800D02*
X189927278Y-57320063D01*
X185902400Y-57327800D02*
X189919541Y-57327800D01*
X185889400Y-57314800D02*
X185902400Y-57327800D01*
X190019400Y-100658200D02*
X190808992Y-99868608D01*
X197624700Y-101739700D02*
X191935100Y-101739700D01*
X190808992Y-99868608D02*
X190811387Y-99868608D01*
X155945100Y-110733100D02*
X159014900Y-110733100D01*
X175265600Y-110739400D02*
X185346800Y-100658200D01*
X154940000Y-109728000D02*
X155945100Y-110733100D01*
X165370000Y-109855000D02*
X166254400Y-110739400D01*
X160020000Y-109728000D02*
X161059800Y-110767800D01*
X185346800Y-100658200D02*
X190019400Y-100658200D01*
X161059800Y-110767800D02*
X164457200Y-110767800D01*
X166254400Y-110739400D02*
X175265600Y-110739400D01*
X159014900Y-110733100D02*
X160020000Y-109728000D01*
%TO.N,/E*%
X158995900Y-101083900D02*
X155964100Y-101083900D01*
X193040000Y-96774000D02*
X191744600Y-98069400D01*
X223308600Y-45296400D02*
X209507400Y-45296400D01*
X223520000Y-90170000D02*
X220370400Y-93319600D01*
X155964100Y-101083900D02*
X154940000Y-102108000D01*
X177640700Y-101530700D02*
X165019700Y-101530700D01*
X181102000Y-98069400D02*
X177640700Y-101530700D01*
X220370400Y-93319600D02*
X214333168Y-93319600D01*
X198399400Y-96774000D02*
X197840600Y-97332800D01*
X214333168Y-93319600D02*
X210878768Y-96774000D01*
X201334800Y-44475400D02*
X208686400Y-44475400D01*
X180862200Y-47871500D02*
X184724400Y-47871500D01*
X223520000Y-45085000D02*
X223308600Y-45296400D01*
X178588600Y-53514000D02*
X178588600Y-50145100D01*
X210878768Y-96774000D02*
X198399400Y-96774000D01*
X160020000Y-102108000D02*
X158995900Y-101083900D01*
X200217200Y-45593000D02*
X201334800Y-44475400D01*
X191744600Y-98069400D02*
X181102000Y-98069400D01*
X184724400Y-47871500D02*
X187002900Y-45593000D01*
X199263000Y-45593000D02*
X200217200Y-45593000D01*
X196075300Y-96774000D02*
X193040000Y-96774000D01*
X187002900Y-45593000D02*
X199263000Y-45593000D01*
X209507400Y-45296400D02*
X208686400Y-44475400D01*
X161029600Y-101098400D02*
X160020000Y-102108000D01*
X197586600Y-97332800D02*
X196634100Y-97332800D01*
X196634100Y-97332800D02*
X196075300Y-96774000D01*
X178588600Y-50145100D02*
X180862200Y-47871500D01*
X165019700Y-101530700D02*
X164587400Y-101098400D01*
X197840600Y-97332800D02*
X197586600Y-97332800D01*
X164587400Y-101098400D02*
X161029600Y-101098400D01*
%TO.N,/CA10*%
X193446400Y-72415400D02*
X191237500Y-72415400D01*
X159013600Y-60461600D02*
X160020000Y-61468000D01*
X186473600Y-110770200D02*
X187174100Y-111470700D01*
X187174100Y-111470700D02*
X193842500Y-111470700D01*
X182618400Y-110770200D02*
X185242200Y-110770200D01*
X164383600Y-60463900D02*
X161024100Y-60463900D01*
X173569100Y-64871600D02*
X172012300Y-63314800D01*
X161024100Y-60463900D02*
X160020000Y-61468000D01*
X193842500Y-111470700D02*
X204957800Y-100355400D01*
X191237500Y-72415400D02*
X187859300Y-69037200D01*
X186893200Y-69037200D02*
X186842400Y-69037200D01*
X185242200Y-110770200D02*
X186473600Y-110770200D01*
X167234500Y-63314800D02*
X164383600Y-60463900D01*
X185867900Y-69037200D02*
X184187100Y-67356400D01*
X180613500Y-64871600D02*
X173569100Y-64871600D01*
X187859300Y-69037200D02*
X186842400Y-69037200D01*
X172012300Y-63314800D02*
X167234500Y-63314800D01*
X182317000Y-112732000D02*
X182317000Y-111071600D01*
X182317000Y-111071600D02*
X182618400Y-110770200D01*
X184187100Y-67356400D02*
X183098300Y-67356400D01*
X204957800Y-100355400D02*
X208686400Y-100355400D01*
X186842400Y-69037200D02*
X185867900Y-69037200D01*
X155946400Y-60461600D02*
X159013600Y-60461600D01*
X154940000Y-61468000D02*
X155946400Y-60461600D01*
X183098300Y-67356400D02*
X180613500Y-64871600D01*
%TO.N,/R~{W}*%
X186613800Y-51003200D02*
X196977000Y-51003200D01*
X209143600Y-49098200D02*
X213106000Y-49098200D01*
X184964425Y-52652575D02*
X186613800Y-51003200D01*
X192892700Y-96514900D02*
X191643000Y-97764600D01*
X196423300Y-96799400D02*
X196138800Y-96514900D01*
X161554600Y-103113400D02*
X158485400Y-103113400D01*
X162560000Y-102108000D02*
X161554600Y-103113400D01*
X210850500Y-96514900D02*
X197967600Y-96514900D01*
X158485400Y-103113400D02*
X157480000Y-102108000D01*
X218033600Y-93116400D02*
X214249000Y-93116400D01*
X207238600Y-51003200D02*
X208686400Y-49555400D01*
X176480300Y-55372000D02*
X182262650Y-55372000D01*
X213106000Y-49098200D02*
X213131400Y-49123600D01*
X177207685Y-101325800D02*
X165408400Y-101325800D01*
X175588600Y-54480300D02*
X176480300Y-55372000D01*
X175588600Y-52631000D02*
X175588600Y-54480300D01*
X182262650Y-55372000D02*
X182719850Y-54914800D01*
X197967600Y-96514900D02*
X197683100Y-96799400D01*
X196977000Y-51003200D02*
X207238600Y-51003200D01*
X165408400Y-101325800D02*
X165022800Y-100940200D01*
X180768885Y-97764600D02*
X177207685Y-101325800D01*
X223520000Y-87630000D02*
X218033600Y-93116400D01*
X182719850Y-54914800D02*
X184064200Y-54914800D01*
X214249000Y-93116400D02*
X210850500Y-96514900D01*
X184964425Y-54014575D02*
X184964425Y-52652575D01*
X208686400Y-49555400D02*
X209143600Y-49098200D01*
X196138800Y-96514900D02*
X192892700Y-96514900D01*
X184064200Y-54914800D02*
X184964425Y-54014575D01*
X191643000Y-97764600D02*
X180768885Y-97764600D01*
X197683100Y-96799400D02*
X196423300Y-96799400D01*
%TO.N,/GA12*%
X177317000Y-86233000D02*
X177317000Y-85801200D01*
X177317000Y-85673800D02*
X177317000Y-85801200D01*
X177901600Y-85115400D02*
X193446400Y-85115400D01*
X154940000Y-64008000D02*
X155946100Y-65014100D01*
X155946100Y-65014100D02*
X159013900Y-65014100D01*
X183791000Y-63184400D02*
X184660600Y-62314800D01*
X185889400Y-62314800D02*
X184852300Y-62314800D01*
X159013900Y-65014100D02*
X160020000Y-64008000D01*
X175234600Y-83591400D02*
X177317000Y-85673800D01*
X175762500Y-62979900D02*
X175967000Y-63184400D01*
X177317000Y-85700000D02*
X177901600Y-85115400D01*
X186772400Y-62314800D02*
X185889400Y-62314800D01*
X184660600Y-62314800D02*
X184852300Y-62314800D01*
X175967000Y-63184400D02*
X183791000Y-63184400D01*
X177317000Y-91357000D02*
X177317000Y-86233000D01*
X177317000Y-86233000D02*
X177317000Y-85700000D01*
%TO.N,/mB_HALT*%
X173088600Y-70014800D02*
X173088600Y-72168900D01*
X158485400Y-72633400D02*
X161554600Y-72633400D01*
X162560000Y-71628000D02*
X163337400Y-72405400D01*
X173088600Y-69115600D02*
X173088600Y-70014800D01*
X163337400Y-72405400D02*
X172852100Y-72405400D01*
X157480000Y-71628000D02*
X158485400Y-72633400D01*
X161554600Y-72633400D02*
X162560000Y-71628000D01*
X172852100Y-72405400D02*
X173088600Y-72168900D01*
%TO.N,/CA4*%
X180845895Y-59174355D02*
X182762114Y-59174355D01*
X171324900Y-59314800D02*
X171356100Y-59283600D01*
X156083000Y-52705000D02*
X154940000Y-53848000D01*
X175247056Y-59893200D02*
X180127050Y-59893200D01*
X175317000Y-92982300D02*
X175317000Y-91357000D01*
X180127050Y-59893200D02*
X180845895Y-59174355D01*
X163322000Y-52705000D02*
X165354000Y-54737000D01*
X167234500Y-59314800D02*
X171324900Y-59314800D01*
X165354000Y-54737000D02*
X165354000Y-57434300D01*
X182762114Y-59174355D02*
X183697522Y-58238947D01*
X161163000Y-52705000D02*
X163322000Y-52705000D01*
X174637456Y-59283600D02*
X175247056Y-59893200D01*
X177610100Y-95275400D02*
X175317000Y-92982300D01*
X158877000Y-52705000D02*
X156083000Y-52705000D01*
X160020000Y-53848000D02*
X158877000Y-52705000D01*
X171356100Y-59283600D02*
X174637456Y-59283600D01*
X187401200Y-54508400D02*
X189814200Y-54508400D01*
X190754000Y-54508400D02*
X191414400Y-55168800D01*
X183697522Y-58238947D02*
X183772317Y-58238947D01*
X189814200Y-54508400D02*
X190754000Y-54508400D01*
X165354000Y-57434300D02*
X167234500Y-59314800D01*
X193446400Y-95275400D02*
X177610100Y-95275400D01*
X160020000Y-53848000D02*
X161163000Y-52705000D01*
%TO.N,/~{NMI}*%
X184630900Y-40590900D02*
X193446400Y-31775400D01*
X161026300Y-105654300D02*
X164490700Y-105654300D01*
X164490700Y-105654300D02*
X165370000Y-104775000D01*
X180588600Y-52631000D02*
X180588600Y-50476900D01*
X180588600Y-53514000D02*
X180588600Y-52631000D01*
X184630900Y-42037000D02*
X184630900Y-40590900D01*
X159014200Y-105653800D02*
X160020000Y-104648000D01*
X160020000Y-104648000D02*
X161026300Y-105654300D01*
X181130600Y-50269100D02*
X180922800Y-50476900D01*
X154940000Y-104648000D02*
X155945800Y-105653800D01*
X180922800Y-50476900D02*
X180588600Y-50476900D01*
X155945800Y-105653800D02*
X159014200Y-105653800D01*
%TO.N,/CA5*%
X165150800Y-56438800D02*
X165150800Y-57518468D01*
X162560000Y-53848000D02*
X162553200Y-53841200D01*
X165150800Y-57518468D02*
X167245532Y-59613200D01*
X180288453Y-60096400D02*
X181007298Y-59377555D01*
X181007298Y-59377555D02*
X183446445Y-59377555D01*
X176926300Y-94079800D02*
X192102000Y-94079800D01*
X190094276Y-59431613D02*
X189927668Y-59431613D01*
X167245532Y-59613200D02*
X167287000Y-59613200D01*
X167488600Y-59814800D02*
X169388600Y-59814800D01*
X170287798Y-59814800D02*
X171329839Y-59814800D01*
X171657839Y-59486800D02*
X174553288Y-59486800D01*
X175162888Y-60096400D02*
X180288453Y-60096400D01*
X169388600Y-59814800D02*
X170287800Y-59814800D01*
X161500900Y-53841200D02*
X160274900Y-55067200D01*
X175817000Y-92970500D02*
X176926300Y-94079800D01*
X190378063Y-59715400D02*
X190094276Y-59431613D01*
X183446445Y-59377555D02*
X183983206Y-58840794D01*
X160274900Y-55067200D02*
X158699200Y-55067200D01*
X175817000Y-91357000D02*
X175817000Y-92970500D01*
X193446400Y-59715400D02*
X190378063Y-59715400D01*
X157480000Y-53848000D02*
X158699200Y-55067200D01*
X167287000Y-59613200D02*
X167488600Y-59814800D01*
X162553200Y-53841200D02*
X161500900Y-53841200D01*
X174553288Y-59486800D02*
X175162888Y-60096400D01*
X162560000Y-53848000D02*
X165150800Y-56438800D01*
X171329839Y-59814800D02*
X171657839Y-59486800D01*
X192102000Y-94079800D02*
X193446400Y-92735400D01*
%TO.N,/mA_SHARE_SELECT*%
X182896700Y-73952100D02*
X183578500Y-73952100D01*
X184433112Y-66305788D02*
X184433112Y-66313507D01*
X183578500Y-73952100D02*
X184251600Y-73279000D01*
X159013900Y-100572100D02*
X155944100Y-100572100D01*
X155944100Y-100572100D02*
X154940000Y-99568000D01*
X162778600Y-98298000D02*
X165125400Y-95951200D01*
X186772400Y-65814800D02*
X184852300Y-65814800D01*
X184852300Y-65886600D02*
X184433112Y-66305788D01*
X165125400Y-91723400D02*
X182896700Y-73952100D01*
X159060100Y-100527900D02*
X159058100Y-100527900D01*
X159058100Y-100527900D02*
X159013900Y-100572100D01*
X184433112Y-66313507D02*
X184320200Y-66426419D01*
X161290000Y-98298000D02*
X162778600Y-98298000D01*
X184852300Y-65814800D02*
X184852300Y-65886600D01*
X165125400Y-95951200D02*
X165125400Y-91723400D01*
X160020000Y-99568000D02*
X161290000Y-98298000D01*
X160020000Y-99568000D02*
X159060100Y-100527900D01*
%TO.N,/CA6*%
X189767800Y-93874000D02*
X177220700Y-93874000D01*
X177220700Y-93874000D02*
X176317000Y-92970300D01*
X174601359Y-59822239D02*
X175078720Y-60299600D01*
X164947600Y-56997600D02*
X164947600Y-58527900D01*
X192315030Y-62255400D02*
X191542780Y-61483150D01*
X172807461Y-59822239D02*
X174601359Y-59822239D01*
X180829821Y-59842400D02*
X183311800Y-59842400D01*
X183311800Y-59842400D02*
X183337200Y-59867800D01*
X161163000Y-55245000D02*
X163195000Y-55245000D01*
X180372621Y-60299600D02*
X180829821Y-59842400D01*
X155999300Y-55328700D02*
X158960700Y-55328700D01*
X193446400Y-62255400D02*
X192315030Y-62255400D01*
X154940000Y-56388000D02*
X155999300Y-55328700D01*
X176317000Y-92970300D02*
X176317000Y-91357000D01*
X167158900Y-60739200D02*
X171890500Y-60739200D01*
X164947600Y-58527900D02*
X167158900Y-60739200D01*
X158960700Y-55328700D02*
X160020000Y-56388000D01*
X191542780Y-61483150D02*
X189959311Y-61483150D01*
X163195000Y-55245000D02*
X164947600Y-56997600D01*
X193446400Y-90195400D02*
X189767800Y-93874000D01*
X160020000Y-56388000D02*
X161163000Y-55245000D01*
X175078720Y-60299600D02*
X180372621Y-60299600D01*
X189959311Y-61483150D02*
X189895960Y-61419799D01*
X171890500Y-60739200D02*
X172807461Y-59822239D01*
%TO.N,/CA0*%
X179656260Y-58603039D02*
X180093299Y-58166000D01*
X157284700Y-47498000D02*
X156022200Y-48760500D01*
X223520000Y-73025000D02*
X222540600Y-73025000D01*
X227596000Y-88900000D02*
X237490000Y-88900000D01*
X222335700Y-83312000D02*
X222335700Y-83639700D01*
X222335700Y-73229900D02*
X222335700Y-83312000D01*
X169388600Y-57314800D02*
X173818128Y-57314800D01*
X175106367Y-58603039D02*
X179656260Y-58603039D01*
X158496000Y-47498000D02*
X157284700Y-47498000D01*
X193446400Y-104947100D02*
X193446400Y-105435400D01*
X166166800Y-50912700D02*
X162752100Y-47498000D01*
X161290000Y-47498000D02*
X160020000Y-48768000D01*
X167488600Y-57314800D02*
X166166800Y-55993000D01*
X222335700Y-83312000D02*
X216458800Y-83312000D01*
X158750000Y-47498000D02*
X158496000Y-47498000D01*
X176817000Y-111107100D02*
X182488700Y-105435400D01*
X156014700Y-48768000D02*
X156022200Y-48760500D01*
X160020000Y-48768000D02*
X158750000Y-47498000D01*
X154940000Y-48768000D02*
X156014700Y-48768000D01*
X169388600Y-57314800D02*
X167488600Y-57314800D01*
X237490000Y-88900000D02*
X238760000Y-90170000D01*
X166166800Y-55993000D02*
X166166800Y-50912700D01*
X173818128Y-57314800D02*
X175106367Y-58603039D01*
X176817000Y-112732000D02*
X176817000Y-111107100D01*
X215747600Y-84023200D02*
X196037200Y-84023200D01*
X222335700Y-83639700D02*
X227596000Y-88900000D01*
X180093299Y-58166000D02*
X180289200Y-58166000D01*
X195827100Y-102566400D02*
X193446400Y-104947100D01*
X222540600Y-73025000D02*
X222335700Y-73229900D01*
X182488700Y-105435400D02*
X193446400Y-105435400D01*
X162752100Y-47498000D02*
X161290000Y-47498000D01*
X216458800Y-83312000D02*
X215747600Y-84023200D01*
%TO.N,/CA2*%
X174243392Y-58314800D02*
X174938031Y-59009439D01*
X154940000Y-51308000D02*
X155946400Y-50301600D01*
X174938031Y-59009439D02*
X180213000Y-59009439D01*
X169388600Y-58314800D02*
X174243392Y-58314800D01*
X162999000Y-50303900D02*
X165760400Y-53065300D01*
X160020000Y-51308000D02*
X161024100Y-50303900D01*
X193446400Y-52095400D02*
X186270213Y-52095400D01*
X165760400Y-53065300D02*
X165760400Y-56586600D01*
X175817000Y-111053200D02*
X185597100Y-101273100D01*
X186270213Y-52095400D02*
X185507342Y-52858271D01*
X161024100Y-50303900D02*
X162999000Y-50303900D01*
X192528700Y-101273100D02*
X193446400Y-100355400D01*
X167488600Y-58314800D02*
X169388600Y-58314800D01*
X175817000Y-112732000D02*
X175817000Y-111053200D01*
X185597100Y-101273100D02*
X192528700Y-101273100D01*
X165760400Y-56586600D02*
X167488600Y-58314800D01*
X155946400Y-50301600D02*
X159013600Y-50301600D01*
X159013600Y-50301600D02*
X160020000Y-51308000D01*
%TO.N,/~{Dev_4}*%
X186772400Y-55314800D02*
X188926500Y-55314800D01*
X160020000Y-112268000D02*
X161024100Y-113272100D01*
X161024100Y-113272100D02*
X164492900Y-113272100D01*
X155944100Y-113272100D02*
X159015900Y-113272100D01*
X154940000Y-112268000D02*
X155944100Y-113272100D01*
X164492900Y-113272100D02*
X165370000Y-112395000D01*
X193976300Y-56089700D02*
X198406700Y-60520100D01*
X165370000Y-112395000D02*
X168615700Y-115640700D01*
X189701400Y-56089700D02*
X193976300Y-56089700D01*
X179290000Y-115640700D02*
X180641700Y-116992400D01*
X180641700Y-116992400D02*
X200355200Y-116992400D01*
X159015900Y-113272100D02*
X160020000Y-112268000D01*
X188926500Y-55314800D02*
X189701400Y-56089700D01*
X185889400Y-55314800D02*
X186772400Y-55314800D01*
X168615700Y-115640700D02*
X179290000Y-115640700D01*
%TO.N,/GA14*%
X178908400Y-88558400D02*
X177817000Y-89649800D01*
X174766132Y-63779400D02*
X175223332Y-64236600D01*
X191846200Y-64033400D02*
X192074800Y-64262000D01*
X181634300Y-88558400D02*
X178908400Y-88558400D01*
X191693800Y-85750400D02*
X191744600Y-85699600D01*
X183893068Y-64236600D02*
X184018068Y-64111600D01*
X181634300Y-88558400D02*
X181646800Y-88558400D01*
X188925200Y-64033400D02*
X191846200Y-64033400D01*
X175223332Y-64236600D02*
X183893068Y-64236600D01*
X184576928Y-64111600D02*
X184855022Y-63833506D01*
X154940000Y-66548000D02*
X155946400Y-65541600D01*
X155946400Y-65541600D02*
X159013600Y-65541600D01*
X184454800Y-85750400D02*
X191693800Y-85750400D01*
X173990700Y-63779400D02*
X174766132Y-63779400D01*
X184855022Y-63814800D02*
X188706600Y-63814800D01*
X184018068Y-64111600D02*
X184576928Y-64111600D01*
X177817000Y-89649800D02*
X177817000Y-91357000D01*
X184855022Y-63833506D02*
X184855022Y-63814800D01*
X159013600Y-65541600D02*
X160020000Y-66548000D01*
X173710500Y-64059600D02*
X173990700Y-63779400D01*
X181646800Y-88558400D02*
X184454800Y-85750400D01*
X188706600Y-63814800D02*
X188925200Y-64033400D01*
%TO.N,/CA7*%
X176817000Y-91357000D02*
X176817000Y-93144499D01*
X193446400Y-64795400D02*
X189331600Y-64795400D01*
X162433900Y-56514100D02*
X162560000Y-56388000D01*
X188526400Y-93667600D02*
X192074800Y-90119200D01*
X158485400Y-57393400D02*
X161554600Y-57393400D01*
X162433900Y-56514100D02*
X167234500Y-61314800D01*
X189331600Y-64795400D02*
X189280800Y-64744600D01*
X176817000Y-93144499D02*
X177340101Y-93667600D01*
X177340101Y-93667600D02*
X188526400Y-93667600D01*
X169388600Y-61314800D02*
X180721800Y-61314800D01*
X157480000Y-56388000D02*
X158485400Y-57393400D01*
X161554600Y-57393400D02*
X162433900Y-56514100D01*
X169388600Y-61314800D02*
X167234500Y-61314800D01*
X180721800Y-61314800D02*
X180746400Y-61290200D01*
%TO.N,/~{FIRQ}*%
X161026300Y-106181700D02*
X164236700Y-106181700D01*
X182106200Y-53496400D02*
X182106200Y-50026200D01*
X160020000Y-107188000D02*
X161026300Y-106181700D01*
X191719200Y-36855400D02*
X186690000Y-41884600D01*
X193446400Y-36855400D02*
X191719200Y-36855400D01*
X182088600Y-53514000D02*
X182106200Y-53496400D01*
X164236700Y-106181700D02*
X165370000Y-107315000D01*
%TO.N,Net-(L36-A)*%
X242935000Y-112395000D02*
X244745000Y-112395000D01*
%TO.N,Net-(L37-A)*%
X242935000Y-109855000D02*
X244745000Y-109855000D01*
%TO.N,Net-(L38-A)*%
X242935000Y-107315000D02*
X244745000Y-107315000D01*
%TO.N,Net-(L39-A)*%
X242935000Y-104775000D02*
X244745000Y-104775000D01*
%TO.N,Net-(L40-A)*%
X242935000Y-102235000D02*
X244745000Y-102235000D01*
%TO.N,Net-(L41-A)*%
X242935000Y-99695000D02*
X244745000Y-99695000D01*
%TO.N,Net-(L42-A)*%
X242935000Y-97155000D02*
X244745000Y-97155000D01*
%TO.N,Net-(L43-A)*%
X242935000Y-94615000D02*
X244745000Y-94615000D01*
%TO.N,Net-(L44-A)*%
X243570000Y-61595000D02*
X245380000Y-61595000D01*
%TO.N,Net-(L45-A)*%
X243570000Y-59055000D02*
X245380000Y-59055000D01*
%TO.N,Net-(L46-A)*%
X243570000Y-56515000D02*
X245380000Y-56515000D01*
%TO.N,Net-(L47-A)*%
X243570000Y-53975000D02*
X245380000Y-53975000D01*
%TO.N,Net-(L48-A)*%
X243570000Y-51435000D02*
X245380000Y-51435000D01*
%TO.N,Net-(L49-A)*%
X243570000Y-48895000D02*
X245380000Y-48895000D01*
%TO.N,Net-(L50-A)*%
X243570000Y-46355000D02*
X245380000Y-46355000D01*
%TO.N,Net-(L51-A)*%
X243570000Y-43815000D02*
X245380000Y-43815000D01*
%TO.N,Net-(L52-A)*%
X242935000Y-71755000D02*
X244745000Y-71755000D01*
%TO.N,Net-(L53-A)*%
X242935000Y-74295000D02*
X244745000Y-74295000D01*
%TO.N,Net-(L54-A)*%
X242935000Y-76835000D02*
X244745000Y-76835000D01*
%TO.N,Net-(L55-A)*%
X243570000Y-79375000D02*
X245380000Y-79375000D01*
%TO.N,Net-(L56-A)*%
X242935000Y-81915000D02*
X244745000Y-81915000D01*
X243570000Y-81915000D02*
X245380000Y-81915000D01*
%TO.N,Net-(L57-A)*%
X243570000Y-84455000D02*
X245380000Y-84455000D01*
X242935000Y-84455000D02*
X244745000Y-84455000D01*
%TO.N,Net-(L58-A)*%
X236880400Y-117316500D02*
X236783500Y-117219600D01*
X236880400Y-118329200D02*
X236880400Y-117316500D01*
%TO.N,Net-(L59-A)*%
X234114300Y-118555300D02*
X233275800Y-118555300D01*
X234340400Y-118329200D02*
X234114300Y-118555300D01*
%TO.N,/~{Dev_3}*%
X183061100Y-99993900D02*
X189214400Y-99993900D01*
X163292300Y-108995700D02*
X171590700Y-108995700D01*
X185889400Y-56814800D02*
X186788600Y-56814800D01*
X162560000Y-109728000D02*
X163292300Y-108995700D01*
X193841312Y-99402000D02*
X193854912Y-99415600D01*
X171590700Y-108995700D02*
X172450000Y-109855000D01*
X195387300Y-58517400D02*
X197802600Y-60932700D01*
X193051488Y-99402000D02*
X193841312Y-99402000D01*
X190038863Y-56814800D02*
X191741463Y-58517400D01*
X199087700Y-99415600D02*
X199316300Y-99644200D01*
X191741463Y-58517400D02*
X195387300Y-58517400D01*
X173200000Y-109855000D02*
X183061100Y-99993900D01*
X189214400Y-99993900D02*
X189792700Y-99415600D01*
X193854912Y-99415600D02*
X195630800Y-99415600D01*
X197866000Y-99745800D02*
X198196200Y-99415600D01*
X193037888Y-99415600D02*
X193051488Y-99402000D01*
X198196200Y-99415600D02*
X199087700Y-99415600D01*
X172450000Y-109855000D02*
X173200000Y-109855000D01*
X195961000Y-99745800D02*
X197866000Y-99745800D01*
X197802600Y-60932700D02*
X199113000Y-60932700D01*
X186788600Y-56814800D02*
X190038863Y-56814800D01*
X189792700Y-99415600D02*
X193037888Y-99415600D01*
X195630800Y-99415600D02*
X195961000Y-99745800D01*
%TO.N,~{Write}*%
X193005300Y-63235800D02*
X195411500Y-63235800D01*
X200425500Y-68249800D02*
X202311000Y-68249800D01*
X191735250Y-61965750D02*
X193005300Y-63235800D01*
X180817000Y-91357000D02*
X180817000Y-89740200D01*
X180817000Y-89740200D02*
X184402800Y-86154400D01*
X185889400Y-60814800D02*
X188608461Y-60814800D01*
X188608461Y-60814800D02*
X189759411Y-61965750D01*
X195411500Y-63235800D02*
X200425500Y-68249800D01*
X184402800Y-86154400D02*
X207647400Y-86154400D01*
X189759411Y-61965750D02*
X191735250Y-61965750D01*
X207647400Y-86154400D02*
X208686400Y-85115400D01*
%TO.N,~{Read}*%
X189218200Y-94322000D02*
X189052200Y-94488000D01*
X185733800Y-111201200D02*
X186021400Y-111488800D01*
X185889400Y-61314800D02*
X188538732Y-61314800D01*
X188538732Y-61314800D02*
X189357000Y-62133068D01*
X206883000Y-94564200D02*
X206640800Y-94322000D01*
X182905400Y-111201200D02*
X185733800Y-111201200D01*
X206640800Y-94322000D02*
X189218200Y-94322000D01*
X189357000Y-62133068D02*
X189357000Y-62407800D01*
%TO.N,/BootSrc*%
X180088600Y-49222300D02*
X180804900Y-48506000D01*
X179578000Y-29824400D02*
X179399200Y-29645600D01*
X180804900Y-42882900D02*
X179578000Y-41656000D01*
X179578000Y-41656000D02*
X179578000Y-29824400D01*
X180088600Y-50476900D02*
X180088600Y-49222300D01*
X180088600Y-53514000D02*
X180088600Y-52631000D01*
X180804900Y-43307000D02*
X180804900Y-42882900D01*
X180088600Y-52631000D02*
X180088600Y-50476900D01*
%TO.N,Net-(Jx2-Pin_1)*%
X174047400Y-30594800D02*
X174905900Y-30594800D01*
X174905900Y-30594800D02*
X175855100Y-29645600D01*
X176859200Y-29645600D02*
X175855100Y-29645600D01*
%TO.N,Net-(Jx2-Pin_3)*%
X182939200Y-30645600D02*
X181939200Y-29645600D01*
X184338000Y-30645600D02*
X182939200Y-30645600D01*
%TO.N,/RomMapped*%
X179588600Y-52631000D02*
X179588600Y-54657331D01*
X179588600Y-54657331D02*
X179323317Y-54922614D01*
%TO.N,~{ROM}*%
X191005727Y-60917800D02*
X196891968Y-60917800D01*
X198094868Y-62120700D02*
X201462000Y-62120700D01*
X192797100Y-96229500D02*
X203922300Y-96229500D01*
X201462000Y-62120700D02*
X201545900Y-62204600D01*
X177025800Y-100917600D02*
X180382000Y-97561400D01*
X191465200Y-97561400D02*
X192797100Y-96229500D01*
X190402727Y-60314800D02*
X191005727Y-60917800D01*
X185889400Y-60314800D02*
X190402727Y-60314800D01*
X196891968Y-60917800D02*
X198094868Y-62120700D01*
X180382000Y-97561400D02*
X191465200Y-97561400D01*
X203922300Y-96229500D02*
X204114400Y-96037400D01*
%TO.N,~{RAM}*%
X184499758Y-59314800D02*
X183921358Y-59893200D01*
X181817000Y-110850400D02*
X181544900Y-110578300D01*
X181817000Y-112732000D02*
X181817000Y-110850400D01*
X186772400Y-59314800D02*
X184499758Y-59314800D01*
X183912400Y-59893200D02*
X183537600Y-60268000D01*
X183537600Y-60268000D02*
X183537600Y-62570900D01*
X183921358Y-59893200D02*
X183912400Y-59893200D01*
%TO.N,Net-(L6-K)*%
X189230000Y-121650000D02*
X187915040Y-121650000D01*
X187915040Y-121650000D02*
X187909200Y-121655840D01*
%TO.N,Net-(L7-K)*%
X185481470Y-121650000D02*
X185480960Y-121649490D01*
X186690000Y-121650000D02*
X185481470Y-121650000D01*
%TO.N,Net-(LSys1-K)*%
X245618000Y-68691000D02*
X245841200Y-68914200D01*
X245841200Y-68914200D02*
X246681500Y-68914200D01*
%TO.N,/A_S_16*%
X162699800Y-67890000D02*
X163774900Y-66814900D01*
X161218000Y-67890000D02*
X162699800Y-67890000D01*
X163774900Y-66814900D02*
X167234500Y-66814900D01*
X160020000Y-69088000D02*
X159014600Y-70093400D01*
X169388600Y-66814800D02*
X167234500Y-66814800D01*
X170287800Y-66814800D02*
X169388600Y-66814800D01*
X167234500Y-66814900D02*
X167234500Y-66814800D01*
X155945400Y-70093400D02*
X154940000Y-69088000D01*
X160020000Y-69088000D02*
X161218000Y-67890000D01*
X159014600Y-70093400D02*
X155945400Y-70093400D01*
%TO.N,/A_SHARE_REQUEST*%
X161290000Y-80518000D02*
X160020000Y-81788000D01*
X177088600Y-69115600D02*
X177088600Y-72274600D01*
X159013400Y-80781400D02*
X160020000Y-81788000D01*
X155946600Y-80781400D02*
X159013400Y-80781400D01*
X168845200Y-80518000D02*
X161290000Y-80518000D01*
X177088600Y-72274600D02*
X168845200Y-80518000D01*
X154940000Y-81788000D02*
X155946600Y-80781400D01*
%TO.N,/A_HALT*%
X155946600Y-70621400D02*
X159013400Y-70621400D01*
X169880200Y-70623900D02*
X161024100Y-70623900D01*
X154940000Y-71628000D02*
X155946600Y-70621400D01*
X172588600Y-72168900D02*
X171425200Y-72168900D01*
X172588600Y-70014800D02*
X172588600Y-72168900D01*
X161024100Y-70623900D02*
X160020000Y-71628000D01*
X171425200Y-72168900D02*
X169880200Y-70623900D01*
X159013400Y-70621400D02*
X160020000Y-71628000D01*
X172588600Y-69115600D02*
X172588600Y-70014800D01*
%TO.N,Net-(L0-A)*%
X165100000Y-121650000D02*
X166167100Y-121650000D01*
%TO.N,Net-(L1-A)*%
X167640000Y-121650000D02*
X168699100Y-121650000D01*
%TO.N,/mA_READ*%
X173588600Y-69115600D02*
X173588600Y-70014800D01*
X173588600Y-70014800D02*
X173588600Y-72168900D01*
X172920700Y-72836800D02*
X162089300Y-72836800D01*
X155945400Y-75173400D02*
X159014600Y-75173400D01*
X159014600Y-75173400D02*
X160020000Y-74168000D01*
X162089300Y-72836800D02*
X160758100Y-74168000D01*
X173588600Y-72168900D02*
X172920700Y-72836800D01*
X160758100Y-74168000D02*
X160020000Y-74168000D01*
X154940000Y-74168000D02*
X155945400Y-75173400D01*
%TO.N,/B_S_16*%
X164333200Y-67314800D02*
X169388600Y-67314800D01*
X162560000Y-69088000D02*
X164333200Y-67314800D01*
X171810401Y-67314801D02*
X171831000Y-67335400D01*
X169388600Y-67314800D02*
X170287800Y-67314800D01*
X169388600Y-67314801D02*
X171810401Y-67314801D01*
%TO.N,/~{Dev_1}*%
X161553900Y-108194100D02*
X162560000Y-107188000D01*
X157480000Y-107188000D02*
X158486100Y-108194100D01*
X190195626Y-57814800D02*
X190285623Y-57904797D01*
X162560000Y-107188000D02*
X163562600Y-108190600D01*
X186788600Y-57814800D02*
X190195626Y-57814800D01*
X185889400Y-57814800D02*
X186788600Y-57814800D01*
X171592400Y-108190600D02*
X172450000Y-107333000D01*
X158486100Y-108194100D02*
X161553900Y-108194100D01*
X163562600Y-108190600D02*
X171592400Y-108190600D01*
X175411800Y-107333000D02*
X183159100Y-99585700D01*
X183159100Y-99585700D02*
X187683500Y-99585700D01*
X172450000Y-107333000D02*
X175411800Y-107333000D01*
%TO.N,/B_SHARE_DIRTY*%
X161554600Y-77713400D02*
X162560000Y-76708000D01*
X157480000Y-76708000D02*
X158485400Y-77713400D01*
X175088600Y-72168900D02*
X170549500Y-76708000D01*
X158485400Y-77713400D02*
X161554600Y-77713400D01*
X175088600Y-70014800D02*
X175088600Y-72168900D01*
X170549500Y-76708000D02*
X162560000Y-76708000D01*
X175088600Y-69115600D02*
X175088600Y-70014800D01*
%TO.N,/mA_SHARE_GRANTED*%
X159014600Y-80253400D02*
X160020000Y-79248000D01*
X155945400Y-80253400D02*
X159014600Y-80253400D01*
X161290000Y-77978000D02*
X169779500Y-77978000D01*
X170956200Y-92038800D02*
X175890400Y-96973000D01*
X183695400Y-96973000D02*
X183792800Y-96875600D01*
X175588600Y-70014800D02*
X175588600Y-72168900D01*
X160020000Y-79248000D02*
X161290000Y-77978000D01*
X175890400Y-96973000D02*
X183695400Y-96973000D01*
X154940000Y-79248000D02*
X155945400Y-80253400D01*
X175588600Y-69115600D02*
X175588600Y-70014800D01*
X169779500Y-77978000D02*
X175588600Y-72168900D01*
%TO.N,/A_SHARE_DIRTY*%
X154940000Y-76708000D02*
X155946600Y-75701400D01*
X174588600Y-69115600D02*
X174588600Y-70014800D01*
X155946600Y-75701400D02*
X159013400Y-75701400D01*
X171319500Y-75438000D02*
X174588600Y-72168900D01*
X161290000Y-75438000D02*
X171319500Y-75438000D01*
X159013400Y-75701400D02*
X160020000Y-76708000D01*
X160020000Y-76708000D02*
X161290000Y-75438000D01*
X174588600Y-70014800D02*
X174588600Y-72168900D01*
%TO.N,/B_SHARE_REQUEST*%
X177588600Y-70014800D02*
X177588600Y-72168900D01*
X167969500Y-81788000D02*
X177588600Y-72168900D01*
X157480000Y-81788000D02*
X158485400Y-82793400D01*
X158485400Y-82793400D02*
X161554600Y-82793400D01*
X161554600Y-82793400D02*
X162560000Y-81788000D01*
X162560000Y-81788000D02*
X167969500Y-81788000D01*
X177588600Y-69115600D02*
X177588600Y-70014800D01*
%TO.N,/B_READ*%
X174088600Y-72168900D02*
X172089500Y-74168000D01*
X172089500Y-74168000D02*
X162560000Y-74168000D01*
X174088600Y-69115600D02*
X174088600Y-70014800D01*
X174088600Y-70014800D02*
X174088600Y-72168900D01*
%TO.N,/B_SHARE_SELECT*%
X183128200Y-65991200D02*
X183262515Y-66125515D01*
X162560000Y-99110300D02*
X165328600Y-96341700D01*
X184773600Y-65314800D02*
X186788600Y-65314800D01*
X178013700Y-79197200D02*
X178333400Y-79197200D01*
X162560000Y-99568000D02*
X162560000Y-99110300D01*
X165328600Y-96341700D02*
X165328600Y-91882300D01*
X183962885Y-66125515D02*
X184773600Y-65314800D01*
X183262515Y-66125515D02*
X183962885Y-66125515D01*
X165328600Y-91882300D02*
X178013700Y-79197200D01*
%TO.N,Net-(L2-A)*%
X171450000Y-121650000D02*
X170390500Y-121650000D01*
%TO.N,Net-(L3-A)*%
X181610000Y-121650000D02*
X180545400Y-121650000D01*
%TO.N,Net-(L4-A)*%
X177892500Y-121742500D02*
X177800000Y-121650000D01*
X179147980Y-121650000D02*
X179148740Y-121650760D01*
X177800000Y-121650000D02*
X179147980Y-121650000D01*
%TO.N,Net-(L5-A)*%
X173990000Y-121650000D02*
X172927500Y-121650000D01*
%TO.N,Net-(L8-A)*%
X184150000Y-121650000D02*
X183087000Y-121650000D01*
%TO.N,Net-(L9-A)*%
X199390000Y-121650000D02*
X198330000Y-121650000D01*
%TO.N,Net-(L10-A)*%
X195580000Y-121650000D02*
X196642400Y-121650000D01*
%TO.N,Net-(L11-A)*%
X193040000Y-121650000D02*
X194107100Y-121650000D01*
%TO.N,Net-(L12-A)*%
X207010000Y-121650000D02*
X205942900Y-121650000D01*
%TO.N,Net-(L13-A)*%
X204470000Y-121650000D02*
X203402900Y-121650000D01*
%TO.N,Net-(L14-A)*%
X201930000Y-121650000D02*
X200862900Y-121650000D01*
%TO.N,Net-(L17-A)*%
X209550000Y-121650000D02*
X208482900Y-121650000D01*
%TD*%
M02*
