%TF.GenerationSoftware,KiCad,Pcbnew,9.0.2*%
%TF.CreationDate,2026-08-20T20:50:25+02:00*%
%TF.ProjectId,retro-003,72657472-6f2d-4303-9033-2e6b69636164,rev?*%
%TF.SameCoordinates,Original*%
%TF.FileFunction,Copper,L4,Bot*%
%TF.FilePolarity,Positive*%
%FSLAX46Y46*%
G04 Gerber Fmt 4.6, Leading zero omitted, Abs format (unit mm)*
G04 Created by KiCad (PCBNEW 9.0.2) date 2026-08-20 20:50:25*
%MOMM*%
%LPD*%
G01*
G04 APERTURE LIST*
G04 Aperture macros list*
%AMRoundRect*
0 Rectangle with rounded corners*
0 $1 Rounding radius*
0 $2 $3 $4 $5 $6 $7 $8 $9 X,Y pos of 4 corners*
0 Add a 4 corners polygon primitive as box body*
4,1,4,$2,$3,$4,$5,$6,$7,$8,$9,$2,$3,0*
0 Add four circle primitives for the rounded corners*
1,1,$1+$1,$2,$3*
1,1,$1+$1,$4,$5*
1,1,$1+$1,$6,$7*
1,1,$1+$1,$8,$9*
0 Add four rect primitives between the rounded corners*
20,1,$1+$1,$2,$3,$4,$5,0*
20,1,$1+$1,$4,$5,$6,$7,0*
20,1,$1+$1,$6,$7,$8,$9,0*
20,1,$1+$1,$8,$9,$2,$3,0*%
%AMFreePoly0*
4,1,9,0.381000,-0.762000,-0.381000,-0.762000,-0.381000,-0.254000,-1.016000,-0.254000,-1.016000,0.381000,-0.381000,0.381000,-0.381000,0.762000,0.381000,0.762000,0.381000,-0.762000,0.381000,-0.762000,$1*%
G04 Aperture macros list end*
%TA.AperFunction,ComponentPad*%
%ADD10RoundRect,0.250000X-0.550000X-0.550000X0.550000X-0.550000X0.550000X0.550000X-0.550000X0.550000X0*%
%TD*%
%TA.AperFunction,ComponentPad*%
%ADD11C,1.600000*%
%TD*%
%TA.AperFunction,ComponentPad*%
%ADD12RoundRect,0.250001X-0.799999X-0.799999X0.799999X-0.799999X0.799999X0.799999X-0.799999X0.799999X0*%
%TD*%
%TA.AperFunction,ComponentPad*%
%ADD13C,6.400000*%
%TD*%
%TA.AperFunction,ComponentPad*%
%ADD14O,3.000000X2.000000*%
%TD*%
%TA.AperFunction,ComponentPad*%
%ADD15RoundRect,0.250001X0.799999X-0.799999X0.799999X0.799999X-0.799999X0.799999X-0.799999X-0.799999X0*%
%TD*%
%TA.AperFunction,ComponentPad*%
%ADD16R,1.700000X1.700000*%
%TD*%
%TA.AperFunction,ComponentPad*%
%ADD17C,1.700000*%
%TD*%
%TA.AperFunction,ComponentPad*%
%ADD18C,1.500000*%
%TD*%
%TA.AperFunction,ComponentPad*%
%ADD19RoundRect,0.250000X0.550000X0.550000X-0.550000X0.550000X-0.550000X-0.550000X0.550000X-0.550000X0*%
%TD*%
%TA.AperFunction,ComponentPad*%
%ADD20R,2.000000X2.000000*%
%TD*%
%TA.AperFunction,ComponentPad*%
%ADD21C,2.000000*%
%TD*%
%TA.AperFunction,ComponentPad*%
%ADD22RoundRect,0.250000X0.600000X-0.600000X0.600000X0.600000X-0.600000X0.600000X-0.600000X-0.600000X0*%
%TD*%
%TA.AperFunction,SMDPad,CuDef*%
%ADD23RoundRect,0.500000X-0.825000X0.750000X-0.825000X-0.750000X0.825000X-0.750000X0.825000X0.750000X0*%
%TD*%
%TA.AperFunction,SMDPad,CuDef*%
%ADD24RoundRect,0.291666X0.408334X-0.458334X0.408334X0.458334X-0.408334X0.458334X-0.408334X-0.458334X0*%
%TD*%
%TA.AperFunction,SMDPad,CuDef*%
%ADD25RoundRect,0.250000X0.450000X-0.262500X0.450000X0.262500X-0.450000X0.262500X-0.450000X-0.262500X0*%
%TD*%
%TA.AperFunction,SMDPad,CuDef*%
%ADD26RoundRect,0.150000X-1.325000X-0.150000X1.325000X-0.150000X1.325000X0.150000X-1.325000X0.150000X0*%
%TD*%
%TA.AperFunction,SMDPad,CuDef*%
%ADD27RoundRect,0.291666X-0.408334X0.458334X-0.408334X-0.458334X0.408334X-0.458334X0.408334X0.458334X0*%
%TD*%
%TA.AperFunction,SMDPad,CuDef*%
%ADD28RoundRect,0.291666X0.458334X0.408334X-0.458334X0.408334X-0.458334X-0.408334X0.458334X-0.408334X0*%
%TD*%
%TA.AperFunction,SMDPad,CuDef*%
%ADD29R,1.000000X1.000000*%
%TD*%
%TA.AperFunction,SMDPad,CuDef*%
%ADD30RoundRect,0.150000X-0.825000X-0.150000X0.825000X-0.150000X0.825000X0.150000X-0.825000X0.150000X0*%
%TD*%
%TA.AperFunction,SMDPad,CuDef*%
%ADD31R,1.524000X0.762000*%
%TD*%
%TA.AperFunction,SMDPad,CuDef*%
%ADD32FreePoly0,270.000000*%
%TD*%
%TA.AperFunction,SMDPad,CuDef*%
%ADD33RoundRect,0.291666X-0.458334X-0.408334X0.458334X-0.408334X0.458334X0.408334X-0.458334X0.408334X0*%
%TD*%
%TA.AperFunction,SMDPad,CuDef*%
%ADD34RoundRect,0.250000X-0.450000X0.262500X-0.450000X-0.262500X0.450000X-0.262500X0.450000X0.262500X0*%
%TD*%
%TA.AperFunction,SMDPad,CuDef*%
%ADD35RoundRect,0.150000X-0.150000X0.587500X-0.150000X-0.587500X0.150000X-0.587500X0.150000X0.587500X0*%
%TD*%
%TA.AperFunction,SMDPad,CuDef*%
%ADD36R,0.762000X1.524000*%
%TD*%
%TA.AperFunction,SMDPad,CuDef*%
%ADD37FreePoly0,180.000000*%
%TD*%
%TA.AperFunction,SMDPad,CuDef*%
%ADD38FreePoly0,90.000000*%
%TD*%
%TA.AperFunction,ViaPad*%
%ADD39C,0.508000*%
%TD*%
%TA.AperFunction,Conductor*%
%ADD40C,0.101600*%
%TD*%
%TA.AperFunction,Conductor*%
%ADD41C,0.406400*%
%TD*%
G04 APERTURE END LIST*
D10*
%TO.P,U14,1,A14*%
%TO.N,/GA14*%
X193446400Y-82575400D03*
D11*
%TO.P,U14,2,A12*%
%TO.N,/GA12*%
X193446400Y-85115400D03*
%TO.P,U14,3,A7*%
%TO.N,/CA7*%
X193446400Y-87655400D03*
%TO.P,U14,4,A6*%
%TO.N,/CA6*%
X193446400Y-90195400D03*
%TO.P,U14,5,A5*%
%TO.N,/CA5*%
X193446400Y-92735400D03*
%TO.P,U14,6,A4*%
%TO.N,/CA4*%
X193446400Y-95275400D03*
%TO.P,U14,7,A3*%
%TO.N,/CA3*%
X193446400Y-97815400D03*
%TO.P,U14,8,A2*%
%TO.N,/CA2*%
X193446400Y-100355400D03*
%TO.P,U14,9,A1*%
%TO.N,/CA1*%
X193446400Y-102895400D03*
%TO.P,U14,10,A0*%
%TO.N,/CA0*%
X193446400Y-105435400D03*
%TO.P,U14,11,D0*%
%TO.N,D0*%
X193446400Y-107975400D03*
%TO.P,U14,12,D1*%
%TO.N,D1*%
X193446400Y-110515400D03*
%TO.P,U14,13,D2*%
%TO.N,D2*%
X193446400Y-113055400D03*
%TO.P,U14,14,GND*%
%TO.N,GND*%
X193446400Y-115595400D03*
%TO.P,U14,15,D3*%
%TO.N,D3*%
X208686400Y-115595400D03*
%TO.P,U14,16,D4*%
%TO.N,D4*%
X208686400Y-113055400D03*
%TO.P,U14,17,D5*%
%TO.N,D5*%
X208686400Y-110515400D03*
%TO.P,U14,18,D6*%
%TO.N,D6*%
X208686400Y-107975400D03*
%TO.P,U14,19,D7*%
%TO.N,D7*%
X208686400Y-105435400D03*
%TO.P,U14,20,~{CS}*%
%TO.N,~{ROM}*%
X208686400Y-102895400D03*
%TO.P,U14,21,A10*%
%TO.N,/CA10*%
X208686400Y-100355400D03*
%TO.P,U14,22,~{OE}*%
%TO.N,~{Read}*%
X208686400Y-97815400D03*
%TO.P,U14,23,A11*%
%TO.N,/CA11*%
X208686400Y-95275400D03*
%TO.P,U14,24,A9*%
%TO.N,/CA9*%
X208686400Y-92735400D03*
%TO.P,U14,25,A8*%
%TO.N,/CA8*%
X208686400Y-90195400D03*
%TO.P,U14,26,A13*%
%TO.N,/GA13*%
X208686400Y-87655400D03*
%TO.P,U14,27,~{WE}*%
%TO.N,~{Write}*%
X208686400Y-85115400D03*
%TO.P,U14,28,VCC*%
%TO.N,+5V*%
X208686400Y-82575400D03*
%TD*%
D10*
%TO.P,Cx15,1*%
%TO.N,+5V*%
X222758000Y-28956000D03*
D11*
%TO.P,Cx15,2*%
%TO.N,GND*%
X225258000Y-28956000D03*
%TD*%
D12*
%TO.P,J48,1,Pin_1*%
%TO.N,unconnected-(J48-Pin_1-Pad1)*%
X231140000Y-77470000D03*
%TD*%
D13*
%TO.P,H8,1*%
%TO.N,N/C*%
X157400000Y-120400000D03*
%TD*%
D12*
%TO.P,J106,1,Pin_1*%
%TO.N,unconnected-(J106-Pin_1-Pad1)*%
X233680000Y-48260000D03*
%TD*%
%TO.P,J75,1,Pin_1*%
%TO.N,unconnected-(J75-Pin_1-Pad1)*%
X226060000Y-90170000D03*
%TD*%
D11*
%TO.P,Cx18,1*%
%TO.N,+5V*%
X242570000Y-66040000D03*
%TO.P,Cx18,2*%
%TO.N,GND*%
X242570000Y-68540000D03*
%TD*%
D12*
%TO.P,J56,1,Pin_1*%
%TO.N,unconnected-(J56-Pin_1-Pad1)*%
X233680000Y-77470000D03*
%TD*%
%TO.P,J86,1,Pin_1*%
%TO.N,unconnected-(J86-Pin_1-Pad1)*%
X226060000Y-74930000D03*
%TD*%
%TO.P,J98,1,Pin_1*%
%TO.N,unconnected-(J98-Pin_1-Pad1)*%
X231140000Y-48260000D03*
%TD*%
D11*
%TO.P,C2,1*%
%TO.N,GND*%
X219007200Y-37667200D03*
%TO.P,C2,2*%
%TO.N,Net-(U1-EXTAL)*%
X219007200Y-35167200D03*
%TD*%
D14*
%TO.P,S1,1,1*%
%TO.N,MasterReset*%
X214350600Y-119071000D03*
%TO.P,S1,2,2*%
X220850600Y-119071000D03*
%TO.P,S1,3,K*%
%TO.N,GND*%
X214350600Y-123571000D03*
%TO.P,S1,4,A*%
X220850600Y-123571000D03*
%TD*%
D15*
%TO.P,J57,1,Pin_1*%
%TO.N,unconnected-(J57-Pin_1-Pad1)*%
X236220000Y-92710000D03*
%TD*%
D12*
%TO.P,J103,1,Pin_1*%
%TO.N,unconnected-(J103-Pin_1-Pad1)*%
X233680000Y-100330000D03*
%TD*%
D15*
%TO.P,J49,1,Pin_1*%
%TO.N,unconnected-(J49-Pin_1-Pad1)*%
X236220000Y-95250000D03*
%TD*%
D12*
%TO.P,J94,1,Pin_1*%
%TO.N,unconnected-(J94-Pin_1-Pad1)*%
X231140000Y-97790000D03*
%TD*%
D16*
%TO.P,J6,1,Pin_1*%
%TO.N,+5V*%
X160020000Y-36068000D03*
D17*
%TO.P,J6,2,Pin_2*%
X162560000Y-36068000D03*
%TO.P,J6,3,Pin_3*%
%TO.N,D0*%
X160020000Y-38608000D03*
%TO.P,J6,4,Pin_4*%
%TO.N,D1*%
X162560000Y-38608000D03*
%TO.P,J6,5,Pin_5*%
%TO.N,D2*%
X160020000Y-41148000D03*
%TO.P,J6,6,Pin_6*%
%TO.N,D3*%
X162560000Y-41148000D03*
%TO.P,J6,7,Pin_7*%
%TO.N,D4*%
X160020000Y-43688000D03*
%TO.P,J6,8,Pin_8*%
%TO.N,D5*%
X162560000Y-43688000D03*
%TO.P,J6,9,Pin_9*%
%TO.N,D6*%
X160020000Y-46228000D03*
%TO.P,J6,10,Pin_10*%
%TO.N,D7*%
X162560000Y-46228000D03*
%TO.P,J6,11,Pin_11*%
%TO.N,/CA0*%
X160020000Y-48768000D03*
%TO.P,J6,12,Pin_12*%
%TO.N,/CA1*%
X162560000Y-48768000D03*
%TO.P,J6,13,Pin_13*%
%TO.N,/CA2*%
X160020000Y-51308000D03*
%TO.P,J6,14,Pin_14*%
%TO.N,/CA3*%
X162560000Y-51308000D03*
%TO.P,J6,15,Pin_15*%
%TO.N,/CA4*%
X160020000Y-53848000D03*
%TO.P,J6,16,Pin_16*%
%TO.N,/CA5*%
X162560000Y-53848000D03*
%TO.P,J6,17,Pin_17*%
%TO.N,/CA6*%
X160020000Y-56388000D03*
%TO.P,J6,18,Pin_18*%
%TO.N,/CA7*%
X162560000Y-56388000D03*
%TO.P,J6,19,Pin_19*%
%TO.N,/CA8*%
X160020000Y-58928000D03*
%TO.P,J6,20,Pin_20*%
%TO.N,/CA9*%
X162560000Y-58928000D03*
%TO.P,J6,21,Pin_21*%
%TO.N,/CA10*%
X160020000Y-61468000D03*
%TO.P,J6,22,Pin_22*%
%TO.N,/CA11*%
X162560000Y-61468000D03*
%TO.P,J6,23,Pin_23*%
%TO.N,/GA12*%
X160020000Y-64008000D03*
%TO.P,J6,24,Pin_24*%
%TO.N,/GA13*%
X162560000Y-64008000D03*
%TO.P,J6,25,Pin_25*%
%TO.N,/GA14*%
X160020000Y-66548000D03*
%TO.P,J6,26,Pin_26*%
%TO.N,/GA15*%
X162560000Y-66548000D03*
%TO.P,J6,27,Pin_27*%
%TO.N,/A_S_16*%
X160020000Y-69088000D03*
%TO.P,J6,28,Pin_28*%
%TO.N,/B_S_16*%
X162560000Y-69088000D03*
%TO.P,J6,29,Pin_29*%
%TO.N,/A_HALT*%
X160020000Y-71628000D03*
%TO.P,J6,30,Pin_30*%
%TO.N,/mB_HALT*%
X162560000Y-71628000D03*
%TO.P,J6,31,Pin_31*%
%TO.N,/mA_READ*%
X160020000Y-74168000D03*
%TO.P,J6,32,Pin_32*%
%TO.N,/B_READ*%
X162560000Y-74168000D03*
%TO.P,J6,33,Pin_33*%
%TO.N,/A_SHARE_DIRTY*%
X160020000Y-76708000D03*
%TO.P,J6,34,Pin_34*%
%TO.N,/B_SHARE_DIRTY*%
X162560000Y-76708000D03*
%TO.P,J6,35,Pin_35*%
%TO.N,/mA_SHARE_GRANTED*%
X160020000Y-79248000D03*
%TO.P,J6,36,Pin_36*%
%TO.N,/mB_SHARE_GRANTED*%
X162560000Y-79248000D03*
%TO.P,J6,37,Pin_37*%
%TO.N,/A_SHARE_REQUEST*%
X160020000Y-81788000D03*
%TO.P,J6,38,Pin_38*%
%TO.N,/B_SHARE_REQUEST*%
X162560000Y-81788000D03*
%TO.P,J6,39,Pin_39*%
%TO.N,A_S_SELECT*%
X160020000Y-84328000D03*
%TO.P,J6,40,Pin_40*%
%TO.N,B_S_SELECT*%
X162560000Y-84328000D03*
%TO.P,J6,41,Pin_41*%
%TO.N,A_S_READ*%
X160020000Y-86868000D03*
%TO.P,J6,42,Pin_42*%
%TO.N,B_S_READ*%
X162560000Y-86868000D03*
%TO.P,J6,43,Pin_43*%
%TO.N,A_S_WRITE*%
X160020000Y-89408000D03*
%TO.P,J6,44,Pin_44*%
%TO.N,B_S_WRITE*%
X162560000Y-89408000D03*
%TO.P,J6,45,Pin_45*%
%TO.N,A_G_ENABLE*%
X160020000Y-91948000D03*
%TO.P,J6,46,Pin_46*%
%TO.N,B_G_ENABLE*%
X162560000Y-91948000D03*
%TO.P,J6,47,Pin_47*%
%TO.N,A_G_A_DIR*%
X160020000Y-94488000D03*
%TO.P,J6,48,Pin_48*%
%TO.N,B_G_A_DIR*%
X162560000Y-94488000D03*
%TO.P,J6,49,Pin_49*%
%TO.N,A_G_D_DIR*%
X160020000Y-97028000D03*
%TO.P,J6,50,Pin_50*%
%TO.N,B_G_D_DIR*%
X162560000Y-97028000D03*
%TO.P,J6,51,Pin_51*%
%TO.N,/mA_SHARE_SELECT*%
X160020000Y-99568000D03*
%TO.P,J6,52,Pin_52*%
%TO.N,/B_SHARE_SELECT*%
X162560000Y-99568000D03*
%TO.P,J6,53,Pin_53*%
%TO.N,/E*%
X160020000Y-102108000D03*
%TO.P,J6,54,Pin_54*%
%TO.N,/R~{W}*%
X162560000Y-102108000D03*
%TO.P,J6,55,Pin_55*%
%TO.N,/~{NMI}*%
X160020000Y-104648000D03*
%TO.P,J6,56,Pin_56*%
%TO.N,/~{IRQ}*%
X162560000Y-104648000D03*
%TO.P,J6,57,Pin_57*%
%TO.N,/~{FIRQ}*%
X160020000Y-107188000D03*
%TO.P,J6,58,Pin_58*%
%TO.N,/~{Dev_1}*%
X162560000Y-107188000D03*
%TO.P,J6,59,Pin_59*%
%TO.N,/~{Dev_2}*%
X160020000Y-109728000D03*
%TO.P,J6,60,Pin_60*%
%TO.N,/~{Dev_3}*%
X162560000Y-109728000D03*
%TO.P,J6,61,Pin_61*%
%TO.N,/~{Dev_4}*%
X160020000Y-112268000D03*
%TO.P,J6,62,Pin_62*%
%TO.N,MasterReset*%
X162560000Y-112268000D03*
%TO.P,J6,63,Pin_63*%
%TO.N,GND*%
X160020000Y-114808000D03*
%TO.P,J6,64,Pin_64*%
X162560000Y-114808000D03*
%TD*%
D13*
%TO.P,H7,1*%
%TO.N,N/C*%
X247400000Y-120400000D03*
%TD*%
D12*
%TO.P,J64,1,Pin_1*%
%TO.N,unconnected-(J64-Pin_1-Pad1)*%
X236220000Y-77470000D03*
%TD*%
D11*
%TO.P,Cx23,1*%
%TO.N,Net-(Cx23-Pad1)*%
X217170000Y-116078000D03*
%TO.P,Cx23,2*%
%TO.N,GND*%
X219670000Y-116078000D03*
%TD*%
D10*
%TO.P,Cx27,1*%
%TO.N,+5V*%
X212344000Y-88011000D03*
D11*
%TO.P,Cx27,2*%
%TO.N,GND*%
X214844000Y-88011000D03*
%TD*%
%TO.P,Cx22,1*%
%TO.N,Net-(Cx19-Pad1)*%
X219964000Y-81788000D03*
%TO.P,Cx22,2*%
%TO.N,GND*%
X217464000Y-81788000D03*
%TD*%
D18*
%TO.P,Y1,1,1*%
%TO.N,Net-(Cx23-Pad1)*%
X218567000Y-101092000D03*
%TO.P,Y1,2,2*%
%TO.N,Net-(Cx19-Pad1)*%
X218567000Y-96212000D03*
%TD*%
D12*
%TO.P,J59,1,Pin_1*%
%TO.N,unconnected-(J59-Pin_1-Pad1)*%
X231140000Y-64770000D03*
%TD*%
%TO.P,J80,1,Pin_1*%
%TO.N,unconnected-(J80-Pin_1-Pad1)*%
X228600000Y-102870000D03*
%TD*%
D11*
%TO.P,C1,1*%
%TO.N,GND*%
X219007200Y-29541200D03*
%TO.P,C1,2*%
%TO.N,Net-(U1-XTAL)*%
X219007200Y-32041200D03*
%TD*%
D12*
%TO.P,J46,1,Pin_1*%
%TO.N,unconnected-(J46-Pin_1-Pad1)*%
X231140000Y-72390000D03*
%TD*%
D13*
%TO.P,H6,1*%
%TO.N,N/C*%
X247400000Y-30400000D03*
%TD*%
D12*
%TO.P,J39,1,Pin_1*%
%TO.N,unconnected-(J39-Pin_1-Pad1)*%
X228600000Y-74930000D03*
%TD*%
%TO.P,J50,1,Pin_1*%
%TO.N,unconnected-(J50-Pin_1-Pad1)*%
X231140000Y-80010000D03*
%TD*%
D16*
%TO.P,PB1,1,Pin_1*%
%TO.N,Net-(PB1-Pin_1)*%
X250190000Y-61595000D03*
D17*
%TO.P,PB1,2,Pin_2*%
%TO.N,Net-(PB1-Pin_2)*%
X250190000Y-59055000D03*
%TO.P,PB1,3,Pin_3*%
%TO.N,Net-(PB1-Pin_3)*%
X250190000Y-56515000D03*
%TO.P,PB1,4,Pin_4*%
%TO.N,Net-(PB1-Pin_4)*%
X250190000Y-53975000D03*
%TO.P,PB1,5,Pin_5*%
%TO.N,Net-(PB1-Pin_5)*%
X250190000Y-51435000D03*
%TO.P,PB1,6,Pin_6*%
%TO.N,Net-(PB1-Pin_6)*%
X250190000Y-48895000D03*
%TO.P,PB1,7,Pin_7*%
%TO.N,Net-(PB1-Pin_7)*%
X250190000Y-46355000D03*
%TO.P,PB1,8,Pin_8*%
%TO.N,Net-(PB1-Pin_8)*%
X250190000Y-43815000D03*
%TO.P,PB1,9,Pin_9*%
%TO.N,GND*%
X250190000Y-41275000D03*
%TO.P,PB1,10,Pin_10*%
%TO.N,+5V*%
X250190000Y-38735000D03*
%TD*%
D12*
%TO.P,J89,1,Pin_1*%
%TO.N,unconnected-(J89-Pin_1-Pad1)*%
X226060000Y-64770000D03*
%TD*%
%TO.P,J5,1,Pin_1*%
%TO.N,+5V*%
X231140000Y-87630000D03*
%TD*%
%TO.P,J77,1,Pin_1*%
%TO.N,unconnected-(J77-Pin_1-Pad1)*%
X226060000Y-95250000D03*
%TD*%
D11*
%TO.P,Cx24,1*%
%TO.N,Net-(Cx23-Pad1)*%
X217170000Y-113538000D03*
%TO.P,Cx24,2*%
%TO.N,GND*%
X219670000Y-113538000D03*
%TD*%
D12*
%TO.P,J96,1,Pin_1*%
%TO.N,unconnected-(J96-Pin_1-Pad1)*%
X231140000Y-102870000D03*
%TD*%
%TO.P,J72,1,Pin_1*%
%TO.N,unconnected-(J72-Pin_1-Pad1)*%
X226060000Y-102870000D03*
%TD*%
D16*
%TO.P,PA1,1,Pin_1*%
%TO.N,Net-(PA1-Pin_1)*%
X250190000Y-112395000D03*
D17*
%TO.P,PA1,2,Pin_2*%
%TO.N,Net-(PA1-Pin_2)*%
X250190000Y-109855000D03*
%TO.P,PA1,3,Pin_3*%
%TO.N,Net-(PA1-Pin_3)*%
X250190000Y-107315000D03*
%TO.P,PA1,4,Pin_4*%
%TO.N,Net-(PA1-Pin_4)*%
X250190000Y-104775000D03*
%TO.P,PA1,5,Pin_5*%
%TO.N,Net-(PA1-Pin_5)*%
X250190000Y-102235000D03*
%TO.P,PA1,6,Pin_6*%
%TO.N,Net-(PA1-Pin_6)*%
X250190000Y-99695000D03*
%TO.P,PA1,7,Pin_7*%
%TO.N,Net-(PA1-Pin_7)*%
X250190000Y-97155000D03*
%TO.P,PA1,8,Pin_8*%
%TO.N,Net-(PA1-Pin_8)*%
X250190000Y-94615000D03*
%TO.P,PA1,9,Pin_9*%
%TO.N,GND*%
X250190000Y-92075000D03*
%TO.P,PA1,10,Pin_10*%
%TO.N,+5V*%
X250190000Y-89535000D03*
%TD*%
D12*
%TO.P,J81,1,Pin_1*%
%TO.N,unconnected-(J81-Pin_1-Pad1)*%
X228600000Y-82550000D03*
%TD*%
D15*
%TO.P,J65,1,Pin_1*%
%TO.N,unconnected-(J65-Pin_1-Pad1)*%
X236220000Y-90170000D03*
%TD*%
D12*
%TO.P,J51,1,Pin_1*%
%TO.N,unconnected-(J51-Pin_1-Pad1)*%
X233680000Y-67310000D03*
%TD*%
D11*
%TO.P,Cx7,1*%
%TO.N,+5V*%
X190500000Y-44450000D03*
%TO.P,Cx7,2*%
%TO.N,GND*%
X190500000Y-46950000D03*
%TD*%
%TO.P,Cx11,1*%
%TO.N,+5V*%
X188595000Y-115570000D03*
%TO.P,Cx11,2*%
%TO.N,GND*%
X191095000Y-115570000D03*
%TD*%
D12*
%TO.P,J82,1,Pin_1*%
%TO.N,unconnected-(J82-Pin_1-Pad1)*%
X228600000Y-48260000D03*
%TD*%
D11*
%TO.P,Cx25,1*%
%TO.N,Net-(Cx23-Pad1)*%
X217170000Y-110998000D03*
%TO.P,Cx25,2*%
%TO.N,GND*%
X219670000Y-110998000D03*
%TD*%
D12*
%TO.P,J66,1,Pin_1*%
%TO.N,unconnected-(J66-Pin_1-Pad1)*%
X236220000Y-80010000D03*
%TD*%
%TO.P,J42,1,Pin_1*%
%TO.N,unconnected-(J42-Pin_1-Pad1)*%
X228600000Y-80010000D03*
%TD*%
%TO.P,J52,1,Pin_1*%
%TO.N,unconnected-(J52-Pin_1-Pad1)*%
X233680000Y-64770000D03*
%TD*%
%TO.P,J74,1,Pin_1*%
%TO.N,unconnected-(J74-Pin_1-Pad1)*%
X236220000Y-82550000D03*
%TD*%
%TO.P,J40,1,Pin_1*%
%TO.N,unconnected-(J40-Pin_1-Pad1)*%
X228600000Y-77470000D03*
%TD*%
D11*
%TO.P,Cx13,1*%
%TO.N,+5V*%
X186055000Y-71120000D03*
%TO.P,Cx13,2*%
%TO.N,GND*%
X186055000Y-73620000D03*
%TD*%
D12*
%TO.P,J76,1,Pin_1*%
%TO.N,unconnected-(J76-Pin_1-Pad1)*%
X226060000Y-92710000D03*
%TD*%
D11*
%TO.P,Cx21,1*%
%TO.N,Net-(Cx19-Pad1)*%
X219964000Y-84328000D03*
%TO.P,Cx21,2*%
%TO.N,GND*%
X217464000Y-84328000D03*
%TD*%
D10*
%TO.P,Cx28,1*%
%TO.N,+5V*%
X177165000Y-82423000D03*
D11*
%TO.P,Cx28,2*%
%TO.N,GND*%
X179665000Y-82423000D03*
%TD*%
D12*
%TO.P,J61,1,Pin_1*%
%TO.N,unconnected-(J61-Pin_1-Pad1)*%
X233680000Y-69850000D03*
%TD*%
%TO.P,J54,1,Pin_1*%
%TO.N,unconnected-(J54-Pin_1-Pad1)*%
X233680000Y-72390000D03*
%TD*%
%TO.P,J105,1,Pin_1*%
%TO.N,unconnected-(J105-Pin_1-Pad1)*%
X233680000Y-82550000D03*
%TD*%
D19*
%TO.P,U5,1,VSS*%
%TO.N,GND*%
X238760000Y-83185000D03*
D11*
%TO.P,U5,2,PA0*%
%TO.N,Net-(PA1-Pin_1)*%
X238760000Y-80645000D03*
%TO.P,U5,3,PA1*%
%TO.N,Net-(PA1-Pin_2)*%
X238760000Y-78105000D03*
%TO.P,U5,4,PA2*%
%TO.N,Net-(PA1-Pin_3)*%
X238760000Y-75565000D03*
%TO.P,U5,5,PA3*%
%TO.N,Net-(PA1-Pin_4)*%
X238760000Y-73025000D03*
%TO.P,U5,6,PA4*%
%TO.N,Net-(PA1-Pin_5)*%
X238760000Y-70485000D03*
%TO.P,U5,7,PA5*%
%TO.N,Net-(PA1-Pin_6)*%
X238760000Y-67945000D03*
%TO.P,U5,8,PA6*%
%TO.N,Net-(PA1-Pin_7)*%
X238760000Y-65405000D03*
%TO.P,U5,9,PA7*%
%TO.N,Net-(PA1-Pin_8)*%
X238760000Y-62865000D03*
%TO.P,U5,10,PB0*%
%TO.N,Net-(PB1-Pin_1)*%
X238760000Y-60325000D03*
%TO.P,U5,11,PB1*%
%TO.N,Net-(PB1-Pin_2)*%
X238760000Y-57785000D03*
%TO.P,U5,12,PB2*%
%TO.N,Net-(PB1-Pin_3)*%
X238760000Y-55245000D03*
%TO.P,U5,13,PB3*%
%TO.N,Net-(PB1-Pin_4)*%
X238760000Y-52705000D03*
%TO.P,U5,14,PB4*%
%TO.N,Net-(PB1-Pin_5)*%
X238760000Y-50165000D03*
%TO.P,U5,15,PB5*%
%TO.N,Net-(PB1-Pin_6)*%
X238760000Y-47625000D03*
%TO.P,U5,16,PB6*%
%TO.N,Net-(PB1-Pin_7)*%
X238760000Y-45085000D03*
%TO.P,U5,17,PB7*%
%TO.N,Net-(PB1-Pin_8)*%
X238760000Y-42545000D03*
%TO.P,U5,18,CB1*%
%TO.N,Net-(Jx1-Pin_2)*%
X238760000Y-40005000D03*
%TO.P,U5,19,CB2*%
%TO.N,/vCB2*%
X238760000Y-37465000D03*
%TO.P,U5,20,VCC*%
%TO.N,+5V*%
X238760000Y-34925000D03*
%TO.P,U5,21,R/~{W}*%
%TO.N,/R~{W}*%
X223520000Y-34925000D03*
%TO.P,U5,22,CS0*%
%TO.N,+5V*%
X223520000Y-37465000D03*
%TO.P,U5,23,~{CS2}*%
%TO.N,~{Dev_Sel_1}*%
X223520000Y-40005000D03*
%TO.P,U5,24,CS1*%
%TO.N,+5V*%
X223520000Y-42545000D03*
%TO.P,U5,25,ENABLE*%
%TO.N,/E*%
X223520000Y-45085000D03*
%TO.P,U5,26,D7*%
%TO.N,D7*%
X223520000Y-47625000D03*
%TO.P,U5,27,D6*%
%TO.N,D6*%
X223520000Y-50165000D03*
%TO.P,U5,28,D5*%
%TO.N,D5*%
X223520000Y-52705000D03*
%TO.P,U5,29,D4*%
%TO.N,D4*%
X223520000Y-55245000D03*
%TO.P,U5,30,D3*%
%TO.N,D3*%
X223520000Y-57785000D03*
%TO.P,U5,31,D2*%
%TO.N,D2*%
X223520000Y-60325000D03*
%TO.P,U5,32,D1*%
%TO.N,D1*%
X223520000Y-62865000D03*
%TO.P,U5,33,D0*%
%TO.N,D0*%
X223520000Y-65405000D03*
%TO.P,U5,34,~{RESET}*%
%TO.N,MasterReset*%
X223520000Y-67945000D03*
%TO.P,U5,35,RS1*%
%TO.N,/CA1*%
X223520000Y-70485000D03*
%TO.P,U5,36,RS0*%
%TO.N,/CA0*%
X223520000Y-73025000D03*
%TO.P,U5,37,~{IRQB}*%
%TO.N,/v~{IRQB}*%
X223520000Y-75565000D03*
%TO.P,U5,38,~{IRQA}*%
%TO.N,/v~{IRQA}*%
X223520000Y-78105000D03*
%TO.P,U5,39,CA2*%
%TO.N,/vCA2*%
X223520000Y-80645000D03*
%TO.P,U5,40,CA1*%
%TO.N,/vCA1*%
X223520000Y-83185000D03*
%TD*%
%TO.P,Cx17,1*%
%TO.N,+5V*%
X227457000Y-118719600D03*
%TO.P,Cx17,2*%
%TO.N,GND*%
X229957000Y-118719600D03*
%TD*%
D16*
%TO.P,Jx2,1,Pin_1*%
%TO.N,Net-(Jx2-Pin_1)*%
X176859200Y-29645600D03*
D17*
%TO.P,Jx2,2,Pin_2*%
%TO.N,/BootSrc*%
X179399200Y-29645600D03*
%TO.P,Jx2,3,Pin_3*%
%TO.N,Net-(Jx2-Pin_3)*%
X181939200Y-29645600D03*
%TD*%
D11*
%TO.P,Cx16,1*%
%TO.N,+5V*%
X167640000Y-49530000D03*
%TO.P,Cx16,2*%
%TO.N,GND*%
X170140000Y-49530000D03*
%TD*%
D13*
%TO.P,H5,1*%
%TO.N,N/C*%
X157400000Y-30400000D03*
%TD*%
D12*
%TO.P,J22,1,Pin_1*%
%TO.N,unconnected-(J22-Pin_1-Pad1)*%
X226060000Y-67310000D03*
%TD*%
%TO.P,J102,1,Pin_1*%
%TO.N,unconnected-(J102-Pin_1-Pad1)*%
X233680000Y-97790000D03*
%TD*%
D10*
%TO.P,Cx14,1*%
%TO.N,+5V*%
X164465000Y-29845000D03*
D11*
%TO.P,Cx14,2*%
%TO.N,GND*%
X166965000Y-29845000D03*
%TD*%
D12*
%TO.P,J97,1,Pin_1*%
%TO.N,unconnected-(J97-Pin_1-Pad1)*%
X231140000Y-82550000D03*
%TD*%
%TO.P,J44,1,Pin_1*%
%TO.N,unconnected-(J44-Pin_1-Pad1)*%
X226060000Y-69850000D03*
%TD*%
D11*
%TO.P,Cx12,1*%
%TO.N,+5V*%
X233680000Y-32385000D03*
%TO.P,Cx12,2*%
%TO.N,GND*%
X231180000Y-32385000D03*
%TD*%
%TO.P,Cx9,1*%
%TO.N,+5V*%
X176530000Y-116840000D03*
%TO.P,Cx9,2*%
%TO.N,GND*%
X179030000Y-116840000D03*
%TD*%
D12*
%TO.P,J92,1,Pin_1*%
%TO.N,unconnected-(J92-Pin_1-Pad1)*%
X228600000Y-90170000D03*
%TD*%
%TO.P,J21,1,Pin_1*%
%TO.N,unconnected-(J21-Pin_1-Pad1)*%
X228600000Y-67310000D03*
%TD*%
%TO.P,J91,1,Pin_1*%
%TO.N,unconnected-(J91-Pin_1-Pad1)*%
X231140000Y-92710000D03*
%TD*%
D19*
%TO.P,U4,1,VSS*%
%TO.N,GND*%
X238760000Y-115570000D03*
D11*
%TO.P,U4,2,Rx_Data*%
%TO.N,/Rx*%
X238760000Y-113030000D03*
%TO.P,U4,3,Rx_CLK*%
%TO.N,ACIA Clk 1.8432 MHz*%
X238760000Y-110490000D03*
%TO.P,U4,4,Tx_CLK*%
X238760000Y-107950000D03*
%TO.P,U4,5,~{RTS}*%
%TO.N,unconnected-(U4-~{RTS}-Pad5)*%
X238760000Y-105410000D03*
%TO.P,U4,6,Tx_Data*%
%TO.N,/Tx*%
X238760000Y-102870000D03*
%TO.P,U4,7,~{IRQ}*%
%TO.N,/~{IRQ}*%
X238760000Y-100330000D03*
%TO.P,U4,8,CS0*%
%TO.N,+5V*%
X238760000Y-97790000D03*
%TO.P,U4,9,CS2*%
%TO.N,~{Dev_Sel_2}*%
X238760000Y-95250000D03*
%TO.P,U4,10,CS1*%
%TO.N,+5V*%
X238760000Y-92710000D03*
%TO.P,U4,11,RS*%
%TO.N,/CA0*%
X238760000Y-90170000D03*
%TO.P,U4,12,VCC*%
%TO.N,+5V*%
X238760000Y-87630000D03*
%TO.P,U4,13,R/~{W}*%
%TO.N,/R~{W}*%
X223520000Y-87630000D03*
%TO.P,U4,14,E*%
%TO.N,/E*%
X223520000Y-90170000D03*
%TO.P,U4,15,D7*%
%TO.N,D7*%
X223520000Y-92710000D03*
%TO.P,U4,16,D6*%
%TO.N,D6*%
X223520000Y-95250000D03*
%TO.P,U4,17,D5*%
%TO.N,D5*%
X223520000Y-97790000D03*
%TO.P,U4,18,D4*%
%TO.N,D4*%
X223520000Y-100330000D03*
%TO.P,U4,19,D3*%
%TO.N,D3*%
X223520000Y-102870000D03*
%TO.P,U4,20,D2*%
%TO.N,D2*%
X223520000Y-105410000D03*
%TO.P,U4,21,D1*%
%TO.N,D1*%
X223520000Y-107950000D03*
%TO.P,U4,22,D0*%
%TO.N,D0*%
X223520000Y-110490000D03*
%TO.P,U4,23,~{DCD}*%
%TO.N,GND*%
X223520000Y-113030000D03*
%TO.P,U4,24,~{CTS}*%
X223520000Y-115570000D03*
%TD*%
D12*
%TO.P,J12,1,Pin_1*%
%TO.N,MasterReset*%
X213969600Y-115798600D03*
%TD*%
D11*
%TO.P,Cx26,1*%
%TO.N,Net-(Cx23-Pad1)*%
X217170000Y-108458000D03*
%TO.P,Cx26,2*%
%TO.N,GND*%
X219670000Y-108458000D03*
%TD*%
D16*
%TO.P,J3,1,Pin_1*%
%TO.N,/Rx*%
X236982000Y-123164600D03*
D17*
%TO.P,J3,2,Pin_2*%
%TO.N,/Tx*%
X234442000Y-123164600D03*
%TO.P,J3,3,Pin_3*%
%TO.N,GND*%
X231902000Y-123164600D03*
%TO.P,J3,4,Pin_4*%
%TO.N,+5V*%
X229362000Y-123164600D03*
%TD*%
D12*
%TO.P,J73,1,Pin_1*%
%TO.N,unconnected-(J73-Pin_1-Pad1)*%
X226060000Y-82550000D03*
%TD*%
D15*
%TO.P,J88,1,Pin_1*%
%TO.N,unconnected-(J88-Pin_1-Pad1)*%
X236220000Y-100330000D03*
%TD*%
D12*
%TO.P,J99,1,Pin_1*%
%TO.N,unconnected-(J99-Pin_1-Pad1)*%
X231140000Y-90170000D03*
%TD*%
%TO.P,J69,1,Pin_1*%
%TO.N,unconnected-(J69-Pin_1-Pad1)*%
X236220000Y-69850000D03*
%TD*%
%TO.P,J100,1,Pin_1*%
%TO.N,unconnected-(J100-Pin_1-Pad1)*%
X233680000Y-92710000D03*
%TD*%
%TO.P,J85,1,Pin_1*%
%TO.N,unconnected-(J85-Pin_1-Pad1)*%
X228600000Y-95250000D03*
%TD*%
%TO.P,J79,1,Pin_1*%
%TO.N,unconnected-(J79-Pin_1-Pad1)*%
X228600000Y-100330000D03*
%TD*%
%TO.P,J90,1,Pin_1*%
%TO.N,unconnected-(J90-Pin_1-Pad1)*%
X226060000Y-80010000D03*
%TD*%
D18*
%TO.P,XTAL1,1,1*%
%TO.N,Net-(U1-XTAL)*%
X213783000Y-32216600D03*
%TO.P,XTAL1,2,2*%
%TO.N,Net-(U1-EXTAL)*%
X213783000Y-37096600D03*
%TD*%
D11*
%TO.P,Cx19,1*%
%TO.N,Net-(Cx19-Pad1)*%
X219964000Y-89408000D03*
%TO.P,Cx19,2*%
%TO.N,GND*%
X217464000Y-89408000D03*
%TD*%
D12*
%TO.P,J87,1,Pin_1*%
%TO.N,unconnected-(J87-Pin_1-Pad1)*%
X233680000Y-90170000D03*
%TD*%
%TO.P,J58,1,Pin_1*%
%TO.N,unconnected-(J58-Pin_1-Pad1)*%
X233680000Y-80010000D03*
%TD*%
%TO.P,J83,1,Pin_1*%
%TO.N,unconnected-(J83-Pin_1-Pad1)*%
X226060000Y-77470000D03*
%TD*%
%TO.P,J53,1,Pin_1*%
%TO.N,unconnected-(J53-Pin_1-Pad1)*%
X231140000Y-69850000D03*
%TD*%
%TO.P,J68,1,Pin_1*%
%TO.N,unconnected-(J68-Pin_1-Pad1)*%
X236220000Y-67310000D03*
%TD*%
%TO.P,J93,1,Pin_1*%
%TO.N,unconnected-(J93-Pin_1-Pad1)*%
X231140000Y-95250000D03*
%TD*%
D16*
%TO.P,J2,1,Pin_1*%
%TO.N,+5V*%
X214296000Y-77771000D03*
D17*
%TO.P,J2,2,Pin_2*%
%TO.N,GND*%
X216836000Y-77771000D03*
%TO.P,J2,3,Pin_3*%
%TO.N,+5V*%
X214296000Y-75231000D03*
%TO.P,J2,4,Pin_4*%
%TO.N,GND*%
X216836000Y-75231000D03*
%TO.P,J2,5,Pin_5*%
%TO.N,+5V*%
X214296000Y-72691000D03*
%TO.P,J2,6,Pin_6*%
%TO.N,GND*%
X216836000Y-72691000D03*
%TO.P,J2,7,Pin_7*%
%TO.N,+5V*%
X214296000Y-70151000D03*
%TO.P,J2,8,Pin_8*%
%TO.N,GND*%
X216836000Y-70151000D03*
%TD*%
D12*
%TO.P,J55,1,Pin_1*%
%TO.N,unconnected-(J55-Pin_1-Pad1)*%
X233680000Y-74930000D03*
%TD*%
%TO.P,J78,1,Pin_1*%
%TO.N,unconnected-(J78-Pin_1-Pad1)*%
X228600000Y-97790000D03*
%TD*%
%TO.P,J8,1,Pin_1*%
%TO.N,GND*%
X236220000Y-87630000D03*
%TD*%
%TO.P,J63,1,Pin_1*%
%TO.N,unconnected-(J63-Pin_1-Pad1)*%
X236220000Y-74930000D03*
%TD*%
D11*
%TO.P,Cx20,1*%
%TO.N,Net-(Cx19-Pad1)*%
X219964000Y-86868000D03*
%TO.P,Cx20,2*%
%TO.N,GND*%
X217464000Y-86868000D03*
%TD*%
D10*
%TO.P,U1,1,VSS*%
%TO.N,GND*%
X193446400Y-29235400D03*
D11*
%TO.P,U1,2,~{NMI}*%
%TO.N,/~{NMI}*%
X193446400Y-31775400D03*
%TO.P,U1,3,~{IRQ}*%
%TO.N,/~{IRQ}*%
X193446400Y-34315400D03*
%TO.P,U1,4,~{FIRQ}*%
%TO.N,/~{FIRQ}*%
X193446400Y-36855400D03*
%TO.P,U1,5,BS*%
%TO.N,BS*%
X193446400Y-39395400D03*
%TO.P,U1,6,BA*%
%TO.N,BA*%
X193446400Y-41935400D03*
%TO.P,U1,7,VCC*%
%TO.N,+5V*%
X193446400Y-44475400D03*
%TO.P,U1,8,A0*%
%TO.N,/CA0*%
X193446400Y-47015400D03*
%TO.P,U1,9,A1*%
%TO.N,/CA1*%
X193446400Y-49555400D03*
%TO.P,U1,10,A2*%
%TO.N,/CA2*%
X193446400Y-52095400D03*
%TO.P,U1,11,A3*%
%TO.N,/CA3*%
X193446400Y-54635400D03*
%TO.P,U1,12,A4*%
%TO.N,/CA4*%
X193446400Y-57175400D03*
%TO.P,U1,13,A5*%
%TO.N,/CA5*%
X193446400Y-59715400D03*
%TO.P,U1,14,A6*%
%TO.N,/CA6*%
X193446400Y-62255400D03*
%TO.P,U1,15,A7*%
%TO.N,/CA7*%
X193446400Y-64795400D03*
%TO.P,U1,16,A8*%
%TO.N,/CA8*%
X193446400Y-67335400D03*
%TO.P,U1,17,A9*%
%TO.N,/CA9*%
X193446400Y-69875400D03*
%TO.P,U1,18,A10*%
%TO.N,/CA10*%
X193446400Y-72415400D03*
%TO.P,U1,19,A11*%
%TO.N,/CA11*%
X193446400Y-74955400D03*
%TO.P,U1,20,A12*%
%TO.N,CA12*%
X193446400Y-77495400D03*
%TO.P,U1,21,A13*%
%TO.N,CA13*%
X208686400Y-77495400D03*
%TO.P,U1,22,A14*%
%TO.N,CA14*%
X208686400Y-74955400D03*
%TO.P,U1,23,A15*%
%TO.N,CA15*%
X208686400Y-72415400D03*
%TO.P,U1,24,D7*%
%TO.N,D7*%
X208686400Y-69875400D03*
%TO.P,U1,25,D6*%
%TO.N,D6*%
X208686400Y-67335400D03*
%TO.P,U1,26,D5*%
%TO.N,D5*%
X208686400Y-64795400D03*
%TO.P,U1,27,D4*%
%TO.N,D4*%
X208686400Y-62255400D03*
%TO.P,U1,28,D3*%
%TO.N,D3*%
X208686400Y-59715400D03*
%TO.P,U1,29,D2*%
%TO.N,D2*%
X208686400Y-57175400D03*
%TO.P,U1,30,D1*%
%TO.N,D1*%
X208686400Y-54635400D03*
%TO.P,U1,31,D0*%
%TO.N,D0*%
X208686400Y-52095400D03*
%TO.P,U1,32,R/~{W}*%
%TO.N,/R~{W}*%
X208686400Y-49555400D03*
%TO.P,U1,33,~{DMA/BREQ}*%
%TO.N,~{DMA{slash}BREQ}*%
X208686400Y-47015400D03*
%TO.P,U1,34,E*%
%TO.N,/E*%
X208686400Y-44475400D03*
%TO.P,U1,35,Q*%
%TO.N,Q*%
X208686400Y-41935400D03*
%TO.P,U1,36,MRDY*%
%TO.N,MRDY*%
X208686400Y-39395400D03*
%TO.P,U1,37,~{RESET}*%
%TO.N,MasterReset*%
X208686400Y-36855400D03*
%TO.P,U1,38,EXTAL*%
%TO.N,Net-(U1-EXTAL)*%
X208686400Y-34315400D03*
%TO.P,U1,39,XTAL*%
%TO.N,Net-(U1-XTAL)*%
X208686400Y-31775400D03*
%TO.P,U1,40,~{HALT}*%
%TO.N,~{HALT}*%
X208686400Y-29235400D03*
%TD*%
D12*
%TO.P,J43,1,Pin_1*%
%TO.N,unconnected-(J43-Pin_1-Pad1)*%
X231140000Y-67310000D03*
%TD*%
D11*
%TO.P,Cx6,1*%
%TO.N,+5V*%
X188595000Y-29210000D03*
%TO.P,Cx6,2*%
%TO.N,GND*%
X191095000Y-29210000D03*
%TD*%
D16*
%TO.P,Jx1,1,Pin_1*%
%TO.N,/vCB1*%
X241935000Y-40640000D03*
D17*
%TO.P,Jx1,2,Pin_2*%
%TO.N,Net-(Jx1-Pin_2)*%
X241935000Y-38100000D03*
%TO.P,Jx1,3,Pin_3*%
%TO.N,Net-(Jx1-Pin_3)*%
X241935000Y-35560000D03*
%TD*%
D11*
%TO.P,Cx10,1*%
%TO.N,+5V*%
X212725000Y-82550000D03*
%TO.P,Cx10,2*%
%TO.N,GND*%
X215225000Y-82550000D03*
%TD*%
D15*
%TO.P,J41,1,Pin_1*%
%TO.N,unconnected-(J41-Pin_1-Pad1)*%
X236220000Y-97790000D03*
%TD*%
D16*
%TO.P,J4,1,Pin_1*%
%TO.N,+5V*%
X154940000Y-36068000D03*
D17*
%TO.P,J4,2,Pin_2*%
X157480000Y-36068000D03*
%TO.P,J4,3,Pin_3*%
%TO.N,D0*%
X154940000Y-38608000D03*
%TO.P,J4,4,Pin_4*%
%TO.N,D1*%
X157480000Y-38608000D03*
%TO.P,J4,5,Pin_5*%
%TO.N,D2*%
X154940000Y-41148000D03*
%TO.P,J4,6,Pin_6*%
%TO.N,D3*%
X157480000Y-41148000D03*
%TO.P,J4,7,Pin_7*%
%TO.N,D4*%
X154940000Y-43688000D03*
%TO.P,J4,8,Pin_8*%
%TO.N,D5*%
X157480000Y-43688000D03*
%TO.P,J4,9,Pin_9*%
%TO.N,D6*%
X154940000Y-46228000D03*
%TO.P,J4,10,Pin_10*%
%TO.N,D7*%
X157480000Y-46228000D03*
%TO.P,J4,11,Pin_11*%
%TO.N,/CA0*%
X154940000Y-48768000D03*
%TO.P,J4,12,Pin_12*%
%TO.N,/CA1*%
X157480000Y-48768000D03*
%TO.P,J4,13,Pin_13*%
%TO.N,/CA2*%
X154940000Y-51308000D03*
%TO.P,J4,14,Pin_14*%
%TO.N,/CA3*%
X157480000Y-51308000D03*
%TO.P,J4,15,Pin_15*%
%TO.N,/CA4*%
X154940000Y-53848000D03*
%TO.P,J4,16,Pin_16*%
%TO.N,/CA5*%
X157480000Y-53848000D03*
%TO.P,J4,17,Pin_17*%
%TO.N,/CA6*%
X154940000Y-56388000D03*
%TO.P,J4,18,Pin_18*%
%TO.N,/CA7*%
X157480000Y-56388000D03*
%TO.P,J4,19,Pin_19*%
%TO.N,/CA8*%
X154940000Y-58928000D03*
%TO.P,J4,20,Pin_20*%
%TO.N,/CA9*%
X157480000Y-58928000D03*
%TO.P,J4,21,Pin_21*%
%TO.N,/CA10*%
X154940000Y-61468000D03*
%TO.P,J4,22,Pin_22*%
%TO.N,/CA11*%
X157480000Y-61468000D03*
%TO.P,J4,23,Pin_23*%
%TO.N,/GA12*%
X154940000Y-64008000D03*
%TO.P,J4,24,Pin_24*%
%TO.N,/GA13*%
X157480000Y-64008000D03*
%TO.P,J4,25,Pin_25*%
%TO.N,/GA14*%
X154940000Y-66548000D03*
%TO.P,J4,26,Pin_26*%
%TO.N,/GA15*%
X157480000Y-66548000D03*
%TO.P,J4,27,Pin_27*%
%TO.N,/A_S_16*%
X154940000Y-69088000D03*
%TO.P,J4,28,Pin_28*%
%TO.N,/B_S_16*%
X157480000Y-69088000D03*
%TO.P,J4,29,Pin_29*%
%TO.N,/A_HALT*%
X154940000Y-71628000D03*
%TO.P,J4,30,Pin_30*%
%TO.N,/mB_HALT*%
X157480000Y-71628000D03*
%TO.P,J4,31,Pin_31*%
%TO.N,/mA_READ*%
X154940000Y-74168000D03*
%TO.P,J4,32,Pin_32*%
%TO.N,/B_READ*%
X157480000Y-74168000D03*
%TO.P,J4,33,Pin_33*%
%TO.N,/A_SHARE_DIRTY*%
X154940000Y-76708000D03*
%TO.P,J4,34,Pin_34*%
%TO.N,/B_SHARE_DIRTY*%
X157480000Y-76708000D03*
%TO.P,J4,35,Pin_35*%
%TO.N,/mA_SHARE_GRANTED*%
X154940000Y-79248000D03*
%TO.P,J4,36,Pin_36*%
%TO.N,/mB_SHARE_GRANTED*%
X157480000Y-79248000D03*
%TO.P,J4,37,Pin_37*%
%TO.N,/A_SHARE_REQUEST*%
X154940000Y-81788000D03*
%TO.P,J4,38,Pin_38*%
%TO.N,/B_SHARE_REQUEST*%
X157480000Y-81788000D03*
%TO.P,J4,39,Pin_39*%
%TO.N,A_S_SELECT*%
X154940000Y-84328000D03*
%TO.P,J4,40,Pin_40*%
%TO.N,B_S_SELECT*%
X157480000Y-84328000D03*
%TO.P,J4,41,Pin_41*%
%TO.N,A_S_READ*%
X154940000Y-86868000D03*
%TO.P,J4,42,Pin_42*%
%TO.N,B_S_READ*%
X157480000Y-86868000D03*
%TO.P,J4,43,Pin_43*%
%TO.N,A_S_WRITE*%
X154940000Y-89408000D03*
%TO.P,J4,44,Pin_44*%
%TO.N,B_S_WRITE*%
X157480000Y-89408000D03*
%TO.P,J4,45,Pin_45*%
%TO.N,A_G_ENABLE*%
X154940000Y-91948000D03*
%TO.P,J4,46,Pin_46*%
%TO.N,B_G_ENABLE*%
X157480000Y-91948000D03*
%TO.P,J4,47,Pin_47*%
%TO.N,A_G_A_DIR*%
X154940000Y-94488000D03*
%TO.P,J4,48,Pin_48*%
%TO.N,B_G_A_DIR*%
X157480000Y-94488000D03*
%TO.P,J4,49,Pin_49*%
%TO.N,A_G_D_DIR*%
X154940000Y-97028000D03*
%TO.P,J4,50,Pin_50*%
%TO.N,B_G_D_DIR*%
X157480000Y-97028000D03*
%TO.P,J4,51,Pin_51*%
%TO.N,/mA_SHARE_SELECT*%
X154940000Y-99568000D03*
%TO.P,J4,52,Pin_52*%
%TO.N,/B_SHARE_SELECT*%
X157480000Y-99568000D03*
%TO.P,J4,53,Pin_53*%
%TO.N,/E*%
X154940000Y-102108000D03*
%TO.P,J4,54,Pin_54*%
%TO.N,/R~{W}*%
X157480000Y-102108000D03*
%TO.P,J4,55,Pin_55*%
%TO.N,/~{NMI}*%
X154940000Y-104648000D03*
%TO.P,J4,56,Pin_56*%
%TO.N,/~{IRQ}*%
X157480000Y-104648000D03*
%TO.P,J4,57,Pin_57*%
%TO.N,/~{FIRQ}*%
X154940000Y-107188000D03*
%TO.P,J4,58,Pin_58*%
%TO.N,/~{Dev_1}*%
X157480000Y-107188000D03*
%TO.P,J4,59,Pin_59*%
%TO.N,/~{Dev_2}*%
X154940000Y-109728000D03*
%TO.P,J4,60,Pin_60*%
%TO.N,/~{Dev_3}*%
X157480000Y-109728000D03*
%TO.P,J4,61,Pin_61*%
%TO.N,/~{Dev_4}*%
X154940000Y-112268000D03*
%TO.P,J4,62,Pin_62*%
%TO.N,MasterReset*%
X157480000Y-112268000D03*
%TO.P,J4,63,Pin_63*%
%TO.N,GND*%
X154940000Y-114808000D03*
%TO.P,J4,64,Pin_64*%
X157480000Y-114808000D03*
%TD*%
D12*
%TO.P,J60,1,Pin_1*%
%TO.N,unconnected-(J60-Pin_1-Pad1)*%
X226060000Y-72390000D03*
%TD*%
D20*
%TO.P,LS1,1,1*%
%TO.N,+5V*%
X212304400Y-58556200D03*
D21*
%TO.P,LS1,2,2*%
%TO.N,Net-(Q1-C)*%
X219904400Y-58556200D03*
%TD*%
D12*
%TO.P,J70,1,Pin_1*%
%TO.N,unconnected-(J70-Pin_1-Pad1)*%
X226060000Y-97790000D03*
%TD*%
%TO.P,J84,1,Pin_1*%
%TO.N,unconnected-(J84-Pin_1-Pad1)*%
X228600000Y-92710000D03*
%TD*%
%TO.P,J101,1,Pin_1*%
%TO.N,unconnected-(J101-Pin_1-Pad1)*%
X233680000Y-95250000D03*
%TD*%
%TO.P,J47,1,Pin_1*%
%TO.N,unconnected-(J47-Pin_1-Pad1)*%
X231140000Y-74930000D03*
%TD*%
D11*
%TO.P,C12,1*%
%TO.N,MasterReset*%
X210921600Y-50977800D03*
%TO.P,C12,2*%
%TO.N,GND*%
X213421600Y-50977800D03*
%TD*%
D16*
%TO.P,Jx4,1,Pin_1*%
%TO.N,/vCA1*%
X250190000Y-84455000D03*
D17*
%TO.P,Jx4,2,Pin_2*%
%TO.N,/vCA2*%
X250190000Y-81915000D03*
%TO.P,Jx4,3,Pin_3*%
%TO.N,/vCB1*%
X250190000Y-79375000D03*
%TO.P,Jx4,4,Pin_4*%
%TO.N,/vCB2*%
X250190000Y-76835000D03*
%TO.P,Jx4,5,Pin_5*%
%TO.N,/v~{IRQA}*%
X250190000Y-74295000D03*
%TO.P,Jx4,6,Pin_6*%
%TO.N,/v~{IRQB}*%
X250190000Y-71755000D03*
%TO.P,Jx4,7,Pin_7*%
%TO.N,GND*%
X250190000Y-69215000D03*
%TO.P,Jx4,8,Pin_8*%
%TO.N,+5V*%
X250190000Y-66675000D03*
%TD*%
D12*
%TO.P,J67,1,Pin_1*%
%TO.N,unconnected-(J67-Pin_1-Pad1)*%
X236220000Y-64770000D03*
%TD*%
%TO.P,J62,1,Pin_1*%
%TO.N,unconnected-(J62-Pin_1-Pad1)*%
X236220000Y-72390000D03*
%TD*%
D11*
%TO.P,Cx8,1*%
%TO.N,+5V*%
X179070000Y-86995000D03*
%TO.P,Cx8,2*%
%TO.N,GND*%
X181570000Y-86995000D03*
%TD*%
D12*
%TO.P,J38,1,Pin_1*%
%TO.N,unconnected-(J38-Pin_1-Pad1)*%
X228600000Y-72390000D03*
%TD*%
%TO.P,J95,1,Pin_1*%
%TO.N,unconnected-(J95-Pin_1-Pad1)*%
X231140000Y-100330000D03*
%TD*%
%TO.P,J45,1,Pin_1*%
%TO.N,unconnected-(J45-Pin_1-Pad1)*%
X228600000Y-69850000D03*
%TD*%
%TO.P,J37,1,Pin_1*%
%TO.N,unconnected-(J37-Pin_1-Pad1)*%
X228600000Y-64770000D03*
%TD*%
%TO.P,J104,1,Pin_1*%
%TO.N,unconnected-(J104-Pin_1-Pad1)*%
X233680000Y-102870000D03*
%TD*%
%TO.P,J71,1,Pin_1*%
%TO.N,unconnected-(J71-Pin_1-Pad1)*%
X226060000Y-100330000D03*
%TD*%
D22*
%TO.P,J1,1,TCK*%
%TO.N,Net-(J1-TCK)*%
X173241800Y-38801400D03*
D17*
%TO.P,J1,2,GND*%
%TO.N,GND*%
X173241800Y-36261400D03*
%TO.P,J1,3,TDO*%
%TO.N,Net-(J1-TDO)*%
X175781800Y-38801400D03*
%TO.P,J1,4,Vcc*%
%TO.N,+5V*%
X175781800Y-36261400D03*
%TO.P,J1,5,TMS*%
%TO.N,Net-(J1-TMS)*%
X178321800Y-38801400D03*
%TO.P,J1,6,NC*%
%TO.N,unconnected-(J1-NC-Pad6)*%
X178321800Y-36261400D03*
%TO.P,J1,7,NC*%
%TO.N,unconnected-(J1-NC-Pad7)*%
X180861800Y-38801400D03*
%TO.P,J1,8,NC*%
%TO.N,unconnected-(J1-NC-Pad8)*%
X180861800Y-36261400D03*
%TO.P,J1,9,TDI*%
%TO.N,Net-(J1-TDI)*%
X183401800Y-38801400D03*
%TO.P,J1,10,GND*%
%TO.N,GND*%
X183401800Y-36261400D03*
%TD*%
D23*
%TO.P,D2,1,K*%
%TO.N,+5V*%
X214376000Y-108947200D03*
%TO.P,D2,2,A*%
%TO.N,MasterReset*%
X214376000Y-112947200D03*
%TD*%
D24*
%TO.P,R4,1*%
%TO.N,Net-(L4-A)*%
X177800000Y-121650000D03*
%TO.P,R4,2*%
%TO.N,Net-(R4-Pad2)*%
X177800000Y-119650000D03*
%TD*%
D25*
%TO.P,R43,1*%
%TO.N,JT_TDI*%
X183235600Y-42365300D03*
%TO.P,R43,2*%
%TO.N,Net-(J1-TDI)*%
X183235600Y-40540300D03*
%TD*%
D26*
%TO.P,J7,1,Pin_1*%
%TO.N,Net-(J7-Pin_1)*%
X228165000Y-60198000D03*
%TO.P,J7,2,Pin_2*%
%TO.N,Net-(J7-Pin_2)*%
X228165000Y-58928000D03*
%TO.P,J7,3,Pin_3*%
%TO.N,Net-(J7-Pin_3)*%
X228165000Y-57658000D03*
%TO.P,J7,4,Pin_4*%
%TO.N,Net-(J7-Pin_4)*%
X228165000Y-56388000D03*
%TO.P,J7,5,Pin_5*%
%TO.N,Net-(J7-Pin_5)*%
X228165000Y-55118000D03*
%TO.P,J7,6,Pin_6*%
%TO.N,Net-(J7-Pin_6)*%
X228165000Y-53848000D03*
%TO.P,J7,7,Pin_7*%
%TO.N,Net-(J7-Pin_7)*%
X228165000Y-52578000D03*
%TO.P,J7,8,Pin_8*%
%TO.N,Net-(J7-Pin_8)*%
X228165000Y-51308000D03*
%TO.P,J7,9,Pin_9*%
%TO.N,Net-(J7-Pin_9)*%
X234115000Y-51308000D03*
%TO.P,J7,10,Pin_10*%
%TO.N,Net-(J7-Pin_10)*%
X234115000Y-52578000D03*
%TO.P,J7,11,Pin_11*%
%TO.N,Net-(J7-Pin_11)*%
X234115000Y-53848000D03*
%TO.P,J7,12,Pin_12*%
%TO.N,Net-(J7-Pin_12)*%
X234115000Y-55118000D03*
%TO.P,J7,13,Pin_13*%
%TO.N,Net-(J7-Pin_13)*%
X234115000Y-56388000D03*
%TO.P,J7,14,Pin_14*%
%TO.N,Net-(J7-Pin_14)*%
X234115000Y-57658000D03*
%TO.P,J7,15,Pin_15*%
%TO.N,Net-(J7-Pin_15)*%
X234115000Y-58928000D03*
%TO.P,J7,16,Pin_16*%
%TO.N,Net-(J7-Pin_16)*%
X234115000Y-60198000D03*
%TD*%
D24*
%TO.P,R1,1*%
%TO.N,Net-(L0-A)*%
X165100000Y-121650000D03*
%TO.P,R1,2*%
%TO.N,Net-(R1-Pad2)*%
X165100000Y-119650000D03*
%TD*%
D27*
%TO.P,R60,1*%
%TO.N,Net-(Cx19-Pad1)*%
X217027400Y-97632800D03*
%TO.P,R60,2*%
%TO.N,Net-(Cx23-Pad1)*%
X217027400Y-99632800D03*
%TD*%
D24*
%TO.P,R9,1*%
%TO.N,Net-(L9-A)*%
X199390000Y-121650000D03*
%TO.P,R9,2*%
%TO.N,Net-(R9-Pad2)*%
X199390000Y-119650000D03*
%TD*%
D28*
%TO.P,R63,1*%
%TO.N,+5V*%
X213090000Y-27025600D03*
%TO.P,R63,2*%
%TO.N,~{HALT}*%
X211090000Y-27025600D03*
%TD*%
D29*
%TO.P,TP7,1,1*%
%TO.N,Net-(J7-Pin_6)*%
X225552000Y-52832000D03*
%TD*%
D24*
%TO.P,R2,1*%
%TO.N,Net-(L1-A)*%
X167640000Y-121650000D03*
%TO.P,R2,2*%
%TO.N,Net-(R2-Pad2)*%
X167640000Y-119650000D03*
%TD*%
D30*
%TO.P,U13,1,~{R}*%
%TO.N,+5V*%
X226416000Y-44704000D03*
%TO.P,U13,2,D*%
%TO.N,/vCB1*%
X226416000Y-43434000D03*
%TO.P,U13,3,C*%
%TO.N,/E*%
X226416000Y-42164000D03*
%TO.P,U13,4,~{S}*%
%TO.N,+5V*%
X226416000Y-40894000D03*
%TO.P,U13,5,Q*%
%TO.N,Net-(Jx1-Pin_3)*%
X226416000Y-39624000D03*
%TO.P,U13,6,~{Q}*%
%TO.N,unconnected-(U13A-~{Q}-Pad6)*%
X226416000Y-38354000D03*
%TO.P,U13,7,GND*%
%TO.N,GND*%
X226416000Y-37084000D03*
%TO.P,U13,8,~{Q}*%
%TO.N,Net-(U13B-~{Q})*%
X232816000Y-37084000D03*
%TO.P,U13,9,Q*%
%TO.N,Net-(U13B-Q)*%
X232816000Y-38354000D03*
%TO.P,U13,10,~{S}*%
%TO.N,Net-(U13B-~{S})*%
X232816000Y-39624000D03*
%TO.P,U13,11,C*%
%TO.N,Net-(U13B-C)*%
X232816000Y-40894000D03*
%TO.P,U13,12,D*%
%TO.N,Net-(U13B-D)*%
X232816000Y-42164000D03*
%TO.P,U13,13,~{R}*%
%TO.N,Net-(U13B-~{R})*%
X232816000Y-43434000D03*
%TO.P,U13,14,VCC*%
%TO.N,+5V*%
X232816000Y-44704000D03*
%TD*%
D24*
%TO.P,R17,1*%
%TO.N,Net-(L17-A)*%
X209550000Y-121650000D03*
%TO.P,R17,2*%
%TO.N,Net-(R17-Pad2)*%
X209550000Y-119650000D03*
%TD*%
D29*
%TO.P,TP3,1,1*%
%TO.N,Net-(J7-Pin_2)*%
X225552000Y-60325000D03*
%TD*%
%TO.P,TP32,1,1*%
%TO.N,~{DMA{slash}BREQ}*%
X206756000Y-46964200D03*
%TD*%
D27*
%TO.P,R92,1*%
%TO.N,Net-(L59-A)*%
X234340400Y-118329200D03*
%TO.P,R92,2*%
%TO.N,/Tx*%
X234340400Y-120329200D03*
%TD*%
D24*
%TO.P,R11,1*%
%TO.N,Net-(L11-A)*%
X193040000Y-121650000D03*
%TO.P,R11,2*%
%TO.N,Net-(R11-Pad2)*%
X193040000Y-119650000D03*
%TD*%
D29*
%TO.P,TP38,1,1*%
%TO.N,Net-(JP5-B)*%
X203835000Y-98679000D03*
%TD*%
%TO.P,TP28,1,1*%
%TO.N,Net-(TP28-Pad1)*%
X236474000Y-106426000D03*
%TD*%
%TO.P,TP30,1,1*%
%TO.N,Net-(TP30-Pad1)*%
X236474000Y-113538000D03*
%TD*%
D31*
%TO.P,JP1,1,A*%
%TO.N,GND*%
X236380200Y-103505000D03*
D32*
%TO.P,JP1,2,B*%
%TO.N,Net-(JP1-B)*%
X236380200Y-104775000D03*
%TD*%
D29*
%TO.P,TP18,1,1*%
%TO.N,Net-(U13B-C)*%
X234950000Y-41656000D03*
%TD*%
%TO.P,TP4,1,1*%
%TO.N,Net-(J7-Pin_3)*%
X225552000Y-58547000D03*
%TD*%
D24*
%TO.P,R7,1*%
%TO.N,Net-(L7-K)*%
X186690000Y-121650000D03*
%TO.P,R7,2*%
%TO.N,Net-(R7-Pad2)*%
X186690000Y-119650000D03*
%TD*%
D31*
%TO.P,JP5,1,A*%
%TO.N,GND*%
X206121000Y-97282000D03*
D32*
%TO.P,JP5,2,B*%
%TO.N,Net-(JP5-B)*%
X206121000Y-98552000D03*
%TD*%
D29*
%TO.P,TP26,1,1*%
%TO.N,Net-(JP3-B)*%
X236474000Y-115316000D03*
%TD*%
%TO.P,TP22,1,1*%
%TO.N,Net-(U13B-~{S})*%
X234950000Y-39878000D03*
%TD*%
D30*
%TO.P,U6,1*%
%TO.N,/A_HALT*%
X169520000Y-107950000D03*
%TO.P,U6,2*%
%TO.N,Net-(R0-Pad2)*%
X169520000Y-106680000D03*
%TO.P,U6,3*%
%TO.N,~{HALT}*%
X169520000Y-105410000D03*
%TO.P,U6,4*%
%TO.N,Net-(R2-Pad2)*%
X169520000Y-104140000D03*
%TO.P,U6,5*%
%TO.N,MasterReset*%
X169520000Y-102870000D03*
%TO.P,U6,6*%
%TO.N,Net-(R1-Pad2)*%
X169520000Y-101600000D03*
%TO.P,U6,7,GND*%
%TO.N,GND*%
X169520000Y-100330000D03*
%TO.P,U6,8*%
%TO.N,Net-(R3-Pad2)*%
X175920000Y-100330000D03*
%TO.P,U6,9*%
%TO.N,~{ROM}*%
X175920000Y-101600000D03*
%TO.P,U6,10*%
%TO.N,Net-(R4-Pad2)*%
X175920000Y-102870000D03*
%TO.P,U6,11*%
%TO.N,/RomMapped*%
X175920000Y-104140000D03*
%TO.P,U6,12*%
%TO.N,Net-(R5-Pad2)*%
X175920000Y-105410000D03*
%TO.P,U6,13*%
%TO.N,/mB_HALT*%
X175920000Y-106680000D03*
%TO.P,U6,14,VCC*%
%TO.N,+5V*%
X175920000Y-107950000D03*
%TD*%
D27*
%TO.P,R91,1*%
%TO.N,Net-(L58-A)*%
X236880400Y-118329200D03*
%TO.P,R91,2*%
%TO.N,/Rx*%
X236880400Y-120329200D03*
%TD*%
D29*
%TO.P,TP8,1,1*%
%TO.N,Net-(J7-Pin_7)*%
X225552000Y-51054000D03*
%TD*%
%TO.P,TP1,1,1*%
%TO.N,Net-(J7-Pin_8)*%
X225552000Y-49276000D03*
%TD*%
%TO.P,TP40,1,1*%
%TO.N,Net-(TP40-Pad1)*%
X201295000Y-98679000D03*
%TD*%
D30*
%TO.P,U7,1*%
%TO.N,/mB_SHARE_GRANTED*%
X182220000Y-107975400D03*
%TO.P,U7,2*%
%TO.N,Net-(R6-Pad2)*%
X182220000Y-106705400D03*
%TO.P,U7,3*%
%TO.N,/mA_SHARE_GRANTED*%
X182220000Y-105435400D03*
%TO.P,U7,4*%
%TO.N,Net-(R7-Pad2)*%
X182220000Y-104165400D03*
%TO.P,U7,5*%
%TO.N,~{RAM}*%
X182220000Y-102895400D03*
%TO.P,U7,6*%
%TO.N,Net-(R8-Pad2)*%
X182220000Y-101625400D03*
%TO.P,U7,7,GND*%
%TO.N,GND*%
X182220000Y-100355400D03*
%TO.P,U7,8*%
%TO.N,Net-(R9-Pad2)*%
X188620000Y-100355400D03*
%TO.P,U7,9*%
%TO.N,/~{Dev_1}*%
X188620000Y-101625400D03*
%TO.P,U7,10*%
%TO.N,Net-(R10-Pad2)*%
X188620000Y-102895400D03*
%TO.P,U7,11*%
%TO.N,~{Dev_Sel_2}*%
X188620000Y-104165400D03*
%TO.P,U7,12*%
%TO.N,Net-(R11-Pad2)*%
X188620000Y-105435400D03*
%TO.P,U7,13*%
%TO.N,~{Dev_Sel_1}*%
X188620000Y-106705400D03*
%TO.P,U7,14,VCC*%
%TO.N,+5V*%
X188620000Y-107975400D03*
%TD*%
D33*
%TO.P,R94,1*%
%TO.N,+5V*%
X170450000Y-71773000D03*
%TO.P,R94,2*%
%TO.N,/mB_HALT*%
X172450000Y-71773000D03*
%TD*%
D25*
%TO.P,R42,1*%
%TO.N,JT_TMS*%
X178155600Y-42365300D03*
%TO.P,R42,2*%
%TO.N,Net-(J1-TMS)*%
X178155600Y-40540300D03*
%TD*%
D34*
%TO.P,R39,1*%
%TO.N,JT_TDI*%
X183230600Y-44350300D03*
%TO.P,R39,2*%
%TO.N,+5V*%
X183230600Y-46175300D03*
%TD*%
D29*
%TO.P,TP23,1,1*%
%TO.N,Net-(JP13-B)*%
X225425000Y-109529800D03*
%TD*%
D24*
%TO.P,R5,1*%
%TO.N,Net-(L5-A)*%
X173990000Y-121650000D03*
%TO.P,R5,2*%
%TO.N,Net-(R5-Pad2)*%
X173990000Y-119650000D03*
%TD*%
D29*
%TO.P,TP9,1,1*%
%TO.N,Net-(J7-Pin_16)*%
X236728000Y-62103000D03*
%TD*%
D35*
%TO.P,Q1,1,B*%
%TO.N,Net-(Q1-B)*%
X217436200Y-51858700D03*
%TO.P,Q1,2,E*%
%TO.N,GND*%
X219336200Y-51858700D03*
%TO.P,Q1,3,C*%
%TO.N,Net-(Q1-C)*%
X218386200Y-53733700D03*
%TD*%
D29*
%TO.P,TP16,1,1*%
%TO.N,Net-(J7-Pin_9)*%
X236728000Y-49403000D03*
%TD*%
%TO.P,TP14,1,1*%
%TO.N,Net-(J7-Pin_11)*%
X236728000Y-52959000D03*
%TD*%
D33*
%TO.P,R98,1*%
%TO.N,~{RAM}*%
X185055000Y-95903000D03*
%TO.P,R98,2*%
%TO.N,+5V*%
X187055000Y-95903000D03*
%TD*%
D29*
%TO.P,TP36,1,1*%
%TO.N,Q*%
X206806800Y-41935000D03*
%TD*%
D24*
%TO.P,R6,1*%
%TO.N,Net-(L6-K)*%
X189230000Y-121650000D03*
%TO.P,R6,2*%
%TO.N,Net-(R6-Pad2)*%
X189230000Y-119650000D03*
%TD*%
%TO.P,R0,1*%
%TO.N,Net-(L2-A)*%
X171450000Y-121650000D03*
%TO.P,R0,2*%
%TO.N,Net-(R0-Pad2)*%
X171450000Y-119650000D03*
%TD*%
%TO.P,R10,1*%
%TO.N,Net-(L10-A)*%
X195580000Y-121650000D03*
%TO.P,R10,2*%
%TO.N,Net-(R10-Pad2)*%
X195580000Y-119650000D03*
%TD*%
D29*
%TO.P,TP13,1,1*%
%TO.N,Net-(J7-Pin_12)*%
X236728000Y-54737000D03*
%TD*%
D24*
%TO.P,R12,1*%
%TO.N,Net-(L12-A)*%
X207010000Y-121650000D03*
%TO.P,R12,2*%
%TO.N,Net-(R12-Pad2)*%
X207010000Y-119650000D03*
%TD*%
D29*
%TO.P,TP2,1,1*%
%TO.N,Net-(J7-Pin_1)*%
X225552000Y-62230000D03*
%TD*%
D34*
%TO.P,R36,1*%
%TO.N,JT_TCK*%
X173075600Y-44350300D03*
%TO.P,R36,2*%
%TO.N,+5V*%
X173075600Y-46175300D03*
%TD*%
D25*
%TO.P,R40,1*%
%TO.N,JT_TCK*%
X173075600Y-42365300D03*
%TO.P,R40,2*%
%TO.N,Net-(J1-TCK)*%
X173075600Y-40540300D03*
%TD*%
D29*
%TO.P,TP17,1,1*%
%TO.N,Net-(U13B-D)*%
X234950000Y-43434000D03*
%TD*%
D30*
%TO.P,U12,1*%
%TO.N,Net-(Cx23-Pad1)*%
X227940000Y-114300000D03*
%TO.P,U12,2*%
%TO.N,Net-(Cx19-Pad1)*%
X227940000Y-113030000D03*
%TO.P,U12,3*%
X227940000Y-111760000D03*
%TO.P,U12,4*%
%TO.N,ACIA Clk 1.8432 MHz*%
X227940000Y-110490000D03*
%TO.P,U12,5*%
%TO.N,Net-(JP13-B)*%
X227940000Y-109220000D03*
%TO.P,U12,6*%
%TO.N,Net-(TP27-Pad1)*%
X227940000Y-107950000D03*
%TO.P,U12,7,GND*%
%TO.N,GND*%
X227940000Y-106680000D03*
%TO.P,U12,8*%
%TO.N,Net-(TP28-Pad1)*%
X234340000Y-106680000D03*
%TO.P,U12,9*%
%TO.N,Net-(JP1-B)*%
X234340000Y-107950000D03*
%TO.P,U12,10*%
%TO.N,Net-(TP29-Pad1)*%
X234340000Y-109220000D03*
%TO.P,U12,11*%
%TO.N,Net-(JP2-B)*%
X234340000Y-110490000D03*
%TO.P,U12,12*%
%TO.N,Net-(TP30-Pad1)*%
X234340000Y-111760000D03*
%TO.P,U12,13*%
%TO.N,Net-(JP3-B)*%
X234340000Y-113030000D03*
%TO.P,U12,14,VCC*%
%TO.N,+5V*%
X234340000Y-114300000D03*
%TD*%
D29*
%TO.P,TP11,1,1*%
%TO.N,Net-(J7-Pin_14)*%
X236728000Y-58547000D03*
%TD*%
D33*
%TO.P,R100,1*%
%TO.N,/A_S_16*%
X165370000Y-69196900D03*
%TO.P,R100,2*%
%TO.N,+5V*%
X167370000Y-69196900D03*
%TD*%
D34*
%TO.P,R37,1*%
%TO.N,JT_TDO*%
X175615600Y-44350300D03*
%TO.P,R37,2*%
%TO.N,+5V*%
X175615600Y-46175300D03*
%TD*%
D29*
%TO.P,TP15,1,1*%
%TO.N,Net-(J7-Pin_10)*%
X236728000Y-51181000D03*
%TD*%
%TO.P,TP20,1,1*%
%TO.N,Net-(U13B-~{Q})*%
X234950000Y-36576000D03*
%TD*%
%TO.P,TP24,1,1*%
%TO.N,Net-(JP1-B)*%
X236474000Y-108204000D03*
%TD*%
D36*
%TO.P,JP2,1,A*%
%TO.N,GND*%
X241935000Y-115095200D03*
D37*
%TO.P,JP2,2,B*%
%TO.N,Net-(JP2-B)*%
X240665000Y-115095200D03*
%TD*%
D24*
%TO.P,R14,1*%
%TO.N,Net-(L14-A)*%
X201930000Y-121650000D03*
%TO.P,R14,2*%
%TO.N,Net-(R14-Pad2)*%
X201930000Y-119650000D03*
%TD*%
%TO.P,R13,1*%
%TO.N,Net-(L13-A)*%
X204470000Y-121650000D03*
%TO.P,R13,2*%
%TO.N,Net-(R13-Pad2)*%
X204470000Y-119650000D03*
%TD*%
D29*
%TO.P,TP21,1,1*%
%TO.N,Net-(U13B-~{R})*%
X234950000Y-44958000D03*
%TD*%
D36*
%TO.P,JP3,1,A*%
%TO.N,GND*%
X241935000Y-117508200D03*
D37*
%TO.P,JP3,2,B*%
%TO.N,Net-(JP3-B)*%
X240665000Y-117508200D03*
%TD*%
D29*
%TO.P,TP19,1,1*%
%TO.N,Net-(U13B-Q)*%
X234950000Y-38354000D03*
%TD*%
%TO.P,TP31,1,1*%
%TO.N,~{Dev_Sel_7}*%
X233680000Y-62230000D03*
%TD*%
D28*
%TO.P,R93,1*%
%TO.N,+5V*%
X167370000Y-71736900D03*
%TO.P,R93,2*%
%TO.N,/A_HALT*%
X165370000Y-71736900D03*
%TD*%
D29*
%TO.P,TP27,1,1*%
%TO.N,Net-(TP27-Pad1)*%
X225425000Y-107950000D03*
%TD*%
D27*
%TO.P,R53,1*%
%TO.N,~{Dev_Sel_1}*%
X221208600Y-40547100D03*
%TO.P,R53,2*%
%TO.N,+5V*%
X221208600Y-42547100D03*
%TD*%
D31*
%TO.P,JP13,1,A*%
%TO.N,GND*%
X225537800Y-112179000D03*
D38*
%TO.P,JP13,2,B*%
%TO.N,Net-(JP13-B)*%
X225537800Y-110909000D03*
%TD*%
D24*
%TO.P,R8,1*%
%TO.N,Net-(L8-A)*%
X184150000Y-121650000D03*
%TO.P,R8,2*%
%TO.N,Net-(R8-Pad2)*%
X184150000Y-119650000D03*
%TD*%
D28*
%TO.P,R102,1*%
%TO.N,/B_S_16*%
X172450000Y-69196900D03*
%TO.P,R102,2*%
%TO.N,+5V*%
X170450000Y-69196900D03*
%TD*%
D29*
%TO.P,TP25,1,1*%
%TO.N,Net-(JP2-B)*%
X236474000Y-111760000D03*
%TD*%
D34*
%TO.P,R38,1*%
%TO.N,JT_TMS*%
X178150600Y-44350300D03*
%TO.P,R38,2*%
%TO.N,+5V*%
X178150600Y-46175300D03*
%TD*%
D27*
%TO.P,R62,1*%
%TO.N,GND*%
X245618000Y-66691000D03*
%TO.P,R62,2*%
%TO.N,Net-(LSys1-K)*%
X245618000Y-68691000D03*
%TD*%
D29*
%TO.P,TP29,1,1*%
%TO.N,Net-(TP29-Pad1)*%
X236474000Y-109982000D03*
%TD*%
D25*
%TO.P,R41,1*%
%TO.N,JT_TDO*%
X175615600Y-42365300D03*
%TO.P,R41,2*%
%TO.N,Net-(J1-TDO)*%
X175615600Y-40540300D03*
%TD*%
D29*
%TO.P,TP6,1,1*%
%TO.N,Net-(J7-Pin_5)*%
X225552000Y-54610000D03*
%TD*%
%TO.P,TP5,1,1*%
%TO.N,Net-(J7-Pin_4)*%
X225552000Y-56769000D03*
%TD*%
%TO.P,TP35,1,1*%
%TO.N,BS*%
X195300600Y-39553000D03*
%TD*%
%TO.P,TP10,1,1*%
%TO.N,Net-(J7-Pin_15)*%
X236728000Y-60325000D03*
%TD*%
%TO.P,TP37,1,1*%
%TO.N,Net-(JP4-B)*%
X206121000Y-104267000D03*
%TD*%
%TO.P,TP12,1,1*%
%TO.N,Net-(J7-Pin_13)*%
X236728000Y-56769000D03*
%TD*%
D28*
%TO.P,R59,1*%
%TO.N,~{Dev_Sel_7}*%
X201660000Y-111778000D03*
%TO.P,R59,2*%
%TO.N,+5V*%
X199660000Y-111778000D03*
%TD*%
D29*
%TO.P,TP33,1,1*%
%TO.N,MRDY*%
X206908400Y-39395000D03*
%TD*%
D33*
%TO.P,R99,1*%
%TO.N,~{ROM}*%
X204130400Y-82644200D03*
%TO.P,R99,2*%
%TO.N,+5V*%
X206130400Y-82644200D03*
%TD*%
D29*
%TO.P,TP39,1,1*%
%TO.N,Net-(TP39-Pad1)*%
X206121000Y-102616000D03*
%TD*%
%TO.P,TP34,1,1*%
%TO.N,BA*%
X195249800Y-41960400D03*
%TD*%
D30*
%TO.P,U8,1*%
%TO.N,/~{Dev_4}*%
X197463000Y-108066800D03*
%TO.P,U8,2*%
%TO.N,Net-(R12-Pad2)*%
X197463000Y-106796800D03*
%TO.P,U8,3*%
%TO.N,/~{Dev_3}*%
X197463000Y-105526800D03*
%TO.P,U8,4*%
%TO.N,Net-(R13-Pad2)*%
X197463000Y-104256800D03*
%TO.P,U8,5*%
%TO.N,/~{Dev_2}*%
X197463000Y-102986800D03*
%TO.P,U8,6*%
%TO.N,Net-(R14-Pad2)*%
X197463000Y-101716800D03*
%TO.P,U8,7,GND*%
%TO.N,GND*%
X197463000Y-100446800D03*
%TO.P,U8,8*%
%TO.N,Net-(TP40-Pad1)*%
X203863000Y-100446800D03*
%TO.P,U8,9*%
%TO.N,Net-(JP5-B)*%
X203863000Y-101716800D03*
%TO.P,U8,10*%
%TO.N,Net-(TP39-Pad1)*%
X203863000Y-102986800D03*
%TO.P,U8,11*%
%TO.N,Net-(JP4-B)*%
X203863000Y-104256800D03*
%TO.P,U8,12*%
%TO.N,Net-(R17-Pad2)*%
X203863000Y-105526800D03*
%TO.P,U8,13*%
%TO.N,~{Dev_Sel_7}*%
X203863000Y-106796800D03*
%TO.P,U8,14,VCC*%
%TO.N,+5V*%
X203863000Y-108066800D03*
%TD*%
D28*
%TO.P,R61,1*%
%TO.N,Net-(PB1-Pin_8)*%
X221460000Y-49636200D03*
%TO.P,R61,2*%
%TO.N,Net-(Q1-B)*%
X219460000Y-49636200D03*
%TD*%
D24*
%TO.P,R3,1*%
%TO.N,Net-(L3-A)*%
X181610000Y-121650000D03*
%TO.P,R3,2*%
%TO.N,Net-(R3-Pad2)*%
X181610000Y-119650000D03*
%TD*%
D31*
%TO.P,JP4,1,A*%
%TO.N,GND*%
X206375000Y-106934000D03*
D38*
%TO.P,JP4,2,B*%
%TO.N,Net-(JP4-B)*%
X206375000Y-105664000D03*
%TD*%
D39*
%TO.N,GND*%
X182195900Y-99658300D03*
X189131300Y-63318400D03*
X239686700Y-51502100D03*
X178503177Y-67594553D03*
X171532200Y-70060500D03*
X182168900Y-46175300D03*
X227940000Y-106019000D03*
X239688400Y-56547100D03*
X179090320Y-119651780D03*
X206375000Y-107676000D03*
X236541900Y-121450700D03*
X239685900Y-48979600D03*
X169520000Y-99661000D03*
X241935000Y-116383000D03*
X200831300Y-119274700D03*
X239141000Y-79375000D03*
X239687600Y-54024600D03*
X239649000Y-43840400D03*
X239649000Y-76835000D03*
X183075500Y-119800600D03*
X194101500Y-119237500D03*
X239685600Y-74202800D03*
X239689200Y-59069600D03*
X240824800Y-101174900D03*
X172926500Y-119800600D03*
X239688500Y-61625400D03*
X171752725Y-59969400D03*
X184251600Y-56261000D03*
X226416000Y-36422800D03*
X175112400Y-54995500D03*
X240806200Y-95974600D03*
X179088600Y-50271400D03*
X210882230Y-119645430D03*
X239685100Y-46457100D03*
X196596000Y-100965000D03*
X236380200Y-102756000D03*
X174548900Y-46175300D03*
X183156344Y-29677276D03*
X204647800Y-97485200D03*
X166161500Y-119237500D03*
X178817000Y-114877400D03*
X220497400Y-52222400D03*
X240935000Y-111325100D03*
X245618000Y-65567100D03*
X239395000Y-71882000D03*
X233263800Y-120017500D03*
X240935000Y-106242200D03*
X205942000Y-119366900D03*
%TO.N,+5V*%
X168482900Y-69391200D03*
X167370000Y-106255700D03*
X171713800Y-56343701D03*
X188620000Y-108633300D03*
X234340000Y-114958300D03*
X178150600Y-47047600D03*
X176588600Y-50272700D03*
X184342268Y-60274200D03*
X170450000Y-70492700D03*
X206105000Y-84907200D03*
X187095393Y-96676193D03*
X204070537Y-108229400D03*
X175920000Y-108608500D03*
X175615600Y-47046500D03*
X215519000Y-27686000D03*
X213995000Y-107137200D03*
X172980200Y-28486200D03*
X169333300Y-112280900D03*
X199660000Y-112836500D03*
X179817600Y-89208100D03*
X187918090Y-119651780D03*
X215469700Y-46940400D03*
X176088600Y-72387300D03*
X186553800Y-67809200D03*
X171740800Y-64012900D03*
X226416000Y-45382400D03*
X243967000Y-92227400D03*
X214376000Y-42291000D03*
X232816000Y-45368300D03*
X227965000Y-40919400D03*
X173075600Y-47050900D03*
X178503177Y-72318500D03*
X168483900Y-109758200D03*
X246693800Y-66853000D03*
X182978314Y-47050686D03*
X180913388Y-54952097D03*
%TO.N,GA16*%
X183798866Y-65583841D03*
X178919700Y-89157400D03*
%TO.N,JT_TDO*%
X176008500Y-45229200D03*
X175820200Y-56870600D03*
%TO.N,D7*%
X210058000Y-97332800D03*
X210108800Y-55041800D03*
X181330600Y-58547000D03*
X189992000Y-62451775D03*
%TO.N,D3*%
X212420200Y-103022400D03*
X182973397Y-57023335D03*
X186062386Y-54489200D03*
X211328000Y-62357000D03*
%TO.N,D2*%
X211797900Y-61556900D03*
X183210200Y-56337200D03*
X212944600Y-106010600D03*
X191466463Y-110847285D03*
X185387389Y-54610462D03*
%TO.N,D1*%
X214096600Y-106222800D03*
X212979000Y-62865000D03*
X195529200Y-111937800D03*
%TO.N,D4*%
X210727915Y-64449315D03*
X211882816Y-99720400D03*
%TO.N,D5*%
X211519841Y-98585460D03*
X210325600Y-66485003D03*
X182614950Y-58202450D03*
X211175600Y-55956200D03*
X189417861Y-59890330D03*
%TO.N,D6*%
X209892000Y-68656200D03*
X181965600Y-58293000D03*
X189841146Y-60797400D03*
X210544719Y-98170181D03*
X210566000Y-55448200D03*
%TO.N,D0*%
X214960200Y-106934000D03*
X182945150Y-55372000D03*
X212013800Y-56489600D03*
X218719400Y-64109600D03*
X186156600Y-52959000D03*
X197227950Y-110337350D03*
%TO.N,~{HALT}*%
X173166800Y-89097000D03*
X175133000Y-84378800D03*
X178399529Y-54962431D03*
%TO.N,JT_TDI*%
X176813497Y-58120439D03*
X183235600Y-43473000D03*
%TO.N,JT_TMS*%
X178150600Y-43478100D03*
X172669200Y-62077600D03*
%TO.N,JT_TCK*%
X173075600Y-43357800D03*
X174500807Y-60371228D03*
%TO.N,CA12*%
X181340500Y-66549100D03*
X184629900Y-68673300D03*
%TO.N,CA15*%
X189271700Y-65880700D03*
X179131500Y-66584100D03*
%TO.N,Q*%
X199390000Y-40335200D03*
%TO.N,CA13*%
X188417000Y-71098900D03*
X179561600Y-65852100D03*
%TO.N,MRDY*%
X189069500Y-49731200D03*
X196443600Y-44958000D03*
%TO.N,BS*%
X184319200Y-50139300D03*
%TO.N,A_G_D_DIR*%
X183122100Y-73202600D03*
X183275000Y-66664200D03*
%TO.N,MasterReset*%
X220319600Y-66522600D03*
X216319100Y-56426100D03*
%TO.N,B_G_D_DIR*%
X189160500Y-66635500D03*
X188341000Y-72314443D03*
%TO.N,Net-(Q1-C)*%
X217373200Y-54356000D03*
%TO.N,/mB_SHARE_GRANTED*%
X184400100Y-97078800D03*
X170510400Y-92593800D03*
%TO.N,/CA11*%
X182448200Y-67360800D03*
X189472950Y-74625200D03*
X189585600Y-73050400D03*
X183045100Y-74663300D03*
X189306199Y-89331799D03*
%TO.N,/CA9*%
X188146458Y-68522942D03*
X188417200Y-88823800D03*
%TO.N,~{Dev_Sel_1}*%
X200685400Y-61264800D03*
X189648723Y-58772271D03*
%TO.N,~{Dev_Sel_2}*%
X187783500Y-98527900D03*
X190398400Y-58549572D03*
%TO.N,~{Dev_Sel_7}*%
X200101200Y-48514000D03*
X233641600Y-61185200D03*
%TO.N,/GA15*%
X174345600Y-64262000D03*
X183916200Y-93259400D03*
X184412803Y-64598806D03*
%TO.N,/GA13*%
X174933214Y-62976614D03*
X184353200Y-86918800D03*
X182930800Y-63601600D03*
%TO.N,/CA3*%
X186534562Y-54102000D03*
X191897000Y-99847400D03*
X179324000Y-59486800D03*
%TO.N,/~{IRQ}*%
X185928000Y-41910000D03*
X181991000Y-49403000D03*
X196570600Y-99212400D03*
%TO.N,/CA8*%
X187350400Y-88163400D03*
X187754100Y-67788400D03*
X184372422Y-63633606D03*
%TO.N,/CA1*%
X184384550Y-57913502D03*
%TO.N,/~{Dev_2}*%
X198602600Y-102717600D03*
X189927278Y-57320063D03*
X190811387Y-99868608D03*
X191935100Y-101739700D03*
%TO.N,/E*%
X199263000Y-45593000D03*
X197586600Y-97332800D03*
%TO.N,/CA10*%
X185242200Y-110770200D03*
X186893200Y-69037200D03*
%TO.N,/R~{W}*%
X165022800Y-100940200D03*
X196977000Y-51003200D03*
X213131400Y-49123600D03*
X196977000Y-96799400D03*
%TO.N,/GA12*%
X175762500Y-62979900D03*
X175234600Y-83591400D03*
%TO.N,/CA4*%
X191414400Y-55168800D03*
X183772317Y-58238947D03*
X187401200Y-54508400D03*
%TO.N,/~{NMI}*%
X184630900Y-42037000D03*
X181130600Y-50269100D03*
%TO.N,/CA5*%
X189927668Y-59431613D03*
X183983206Y-58840794D03*
%TO.N,/mA_SHARE_SELECT*%
X184251600Y-73279000D03*
X184320200Y-66426419D03*
%TO.N,/CA6*%
X183337200Y-59867800D03*
X189895960Y-61419799D03*
%TO.N,/CA0*%
X195827100Y-102566400D03*
X180289200Y-58166000D03*
X196037200Y-84023200D03*
%TO.N,/CA2*%
X180213000Y-59009439D03*
X185507342Y-52858271D03*
%TO.N,/~{Dev_4}*%
X198406700Y-60520100D03*
X200355200Y-116992400D03*
%TO.N,/GA14*%
X173710500Y-64059600D03*
X191744600Y-85699600D03*
X192074800Y-64262000D03*
%TO.N,/CA7*%
X189280800Y-64744600D03*
X180746400Y-61290200D03*
X192074800Y-90119200D03*
%TO.N,/~{FIRQ}*%
X186690000Y-41884600D03*
X182106200Y-50026200D03*
%TO.N,Net-(L58-A)*%
X236783500Y-117219600D03*
%TO.N,Net-(L59-A)*%
X233275800Y-118555300D03*
%TO.N,/~{Dev_3}*%
X199316300Y-99644200D03*
X199113000Y-60932700D03*
%TO.N,~{Write}*%
X202311000Y-68249800D03*
%TO.N,~{Read}*%
X189357000Y-62407800D03*
X186021400Y-111488800D03*
X189052200Y-94488000D03*
X206883000Y-94564200D03*
%TO.N,/BootSrc*%
X180804900Y-43307000D03*
X180804900Y-48506000D03*
%TO.N,/RomMapped*%
X179323317Y-54922614D03*
%TO.N,~{ROM}*%
X177025800Y-100917600D03*
X204114400Y-96037400D03*
X201545900Y-62204600D03*
%TO.N,~{RAM}*%
X181544900Y-110578300D03*
X183537600Y-62570900D03*
%TO.N,Net-(L6-K)*%
X187909200Y-121655840D03*
%TO.N,Net-(L7-K)*%
X185480960Y-121649490D03*
%TO.N,Net-(LSys1-K)*%
X246681500Y-68914200D03*
%TO.N,Net-(L0-A)*%
X166167100Y-121650000D03*
%TO.N,Net-(L1-A)*%
X168699100Y-121650000D03*
%TO.N,/B_S_16*%
X171831000Y-67335400D03*
%TO.N,/~{Dev_1}*%
X190285623Y-57904797D03*
X187683500Y-99585700D03*
%TO.N,/mA_SHARE_GRANTED*%
X183792800Y-96875600D03*
X170956200Y-92038800D03*
%TO.N,/B_SHARE_SELECT*%
X178333400Y-79197200D03*
X183128200Y-65991200D03*
%TO.N,Net-(L2-A)*%
X170390500Y-121650000D03*
%TO.N,Net-(L3-A)*%
X180545400Y-121650000D03*
%TO.N,Net-(L4-A)*%
X179148740Y-121650760D03*
%TO.N,Net-(L5-A)*%
X172927500Y-121650000D03*
%TO.N,Net-(L8-A)*%
X183087000Y-121650000D03*
%TO.N,Net-(L9-A)*%
X198330000Y-121650000D03*
%TO.N,Net-(L10-A)*%
X196642400Y-121650000D03*
%TO.N,Net-(L11-A)*%
X194107100Y-121650000D03*
%TO.N,Net-(L12-A)*%
X205942900Y-121650000D03*
%TO.N,Net-(L13-A)*%
X203402900Y-121650000D03*
%TO.N,Net-(L14-A)*%
X200862900Y-121650000D03*
%TO.N,Net-(L17-A)*%
X208482900Y-121650000D03*
%TD*%
D40*
%TO.N,GND*%
X169520000Y-100330000D02*
X169520000Y-99661000D01*
X206375000Y-107676000D02*
X206375000Y-106934000D01*
X223520000Y-113030000D02*
X224371000Y-112179000D01*
X236380200Y-102756000D02*
X236380200Y-103505000D01*
X219699900Y-52222400D02*
X220497400Y-52222400D01*
X182220000Y-99682400D02*
X182220000Y-100355400D01*
X182195900Y-99658300D02*
X182220000Y-99682400D01*
X245618000Y-65567100D02*
X245618000Y-66691000D01*
X241935000Y-116383000D02*
X241935000Y-115095200D01*
X219336200Y-51858700D02*
X219699900Y-52222400D01*
X197463000Y-100446800D02*
X196944800Y-100965000D01*
X224371000Y-112179000D02*
X225537800Y-112179000D01*
X204851000Y-97282000D02*
X204647800Y-97485200D01*
X241935000Y-117508200D02*
X241935000Y-116383000D01*
X206121000Y-97282000D02*
X204851000Y-97282000D01*
X196944800Y-100965000D02*
X196596000Y-100965000D01*
X227940000Y-106680000D02*
X227940000Y-106019000D01*
X226416000Y-36422800D02*
X226416000Y-37084000D01*
%TO.N,+5V*%
X167608300Y-69391200D02*
X167586300Y-69413200D01*
X167586300Y-69413200D02*
X167586300Y-71520600D01*
X227939600Y-40894000D02*
X227965000Y-40919400D01*
X206130400Y-82644200D02*
X206130400Y-84881800D01*
X167586300Y-71520600D02*
X167370000Y-71736900D01*
X206130400Y-84881800D02*
X206105000Y-84907200D01*
X226416000Y-45382400D02*
X226416000Y-44704000D01*
X167370000Y-69196900D02*
X167586300Y-69413200D01*
X173075600Y-47050900D02*
X173075600Y-46175300D01*
X175920000Y-107950000D02*
X175920000Y-108608500D01*
X203863000Y-108151131D02*
X203941269Y-108229400D01*
X232816000Y-45368300D02*
X232816000Y-44704000D01*
X183230600Y-46798400D02*
X182978314Y-47050686D01*
X226416000Y-40894000D02*
X227939600Y-40894000D01*
X213090000Y-27025600D02*
X214858600Y-27025600D01*
X199660000Y-112836500D02*
X199660000Y-111778000D01*
X183230600Y-46175300D02*
X183230600Y-46798400D01*
X188620000Y-108633300D02*
X188620000Y-107975400D01*
X214376000Y-107518200D02*
X213995000Y-107137200D01*
X170450000Y-69196900D02*
X170450000Y-70492700D01*
X168482900Y-69391200D02*
X167608300Y-69391200D01*
X223517900Y-42547100D02*
X223520000Y-42545000D01*
X214858600Y-27025600D02*
X215519000Y-27686000D01*
X187055000Y-95903000D02*
X187055000Y-96635800D01*
X178150600Y-46175300D02*
X178150600Y-47047600D01*
X203941269Y-108229400D02*
X204070537Y-108229400D01*
X187055000Y-96635800D02*
X187095393Y-96676193D01*
X170450000Y-70492700D02*
X170450000Y-71773000D01*
X221208600Y-42547100D02*
X223517900Y-42547100D01*
X214376000Y-108947200D02*
X214376000Y-107518200D01*
X175615600Y-47046500D02*
X175615600Y-46175300D01*
X203863000Y-108066800D02*
X203863000Y-108151131D01*
X234340000Y-114300000D02*
X234340000Y-114958300D01*
%TO.N,GA16*%
X178919700Y-89157400D02*
X180320100Y-87757000D01*
X183837600Y-65622575D02*
X183798866Y-65583841D01*
X183837600Y-80120000D02*
X183837600Y-65622575D01*
X180320100Y-83637500D02*
X183837600Y-80120000D01*
X180320100Y-87757000D02*
X180320100Y-83637500D01*
%TO.N,JT_TDO*%
X176474200Y-48726300D02*
X175820200Y-49380300D01*
X176474200Y-45694900D02*
X176474200Y-48726300D01*
X175820200Y-49380300D02*
X175820200Y-56870600D01*
X175615600Y-44350300D02*
X176008500Y-44743200D01*
X176008500Y-45229200D02*
X176474200Y-45694900D01*
X175615600Y-44350300D02*
X175615600Y-42365300D01*
X176008500Y-44743200D02*
X176008500Y-45229200D01*
%TO.N,D7*%
X210058000Y-104063800D02*
X210058000Y-97332800D01*
X188504206Y-60756800D02*
X189992000Y-62244594D01*
X208686400Y-69875400D02*
X209968200Y-71157200D01*
X157480000Y-46228000D02*
X158750000Y-44958000D01*
X189992000Y-62244594D02*
X189992000Y-62451775D01*
X183540400Y-60756800D02*
X188504206Y-60756800D01*
X158750000Y-44958000D02*
X161290000Y-44958000D01*
X218973400Y-47625000D02*
X211556600Y-55041800D01*
X208686400Y-105435400D02*
X210058000Y-104063800D01*
X161290000Y-44958000D02*
X162560000Y-46228000D01*
X209968200Y-97243000D02*
X210058000Y-97332800D01*
X223520000Y-47625000D02*
X218973400Y-47625000D01*
X211556600Y-55041800D02*
X210108800Y-55041800D01*
X209968200Y-71157200D02*
X209968200Y-97243000D01*
X181330600Y-58547000D02*
X183540400Y-60756800D01*
%TO.N,D3*%
X211328000Y-62357000D02*
X211328000Y-64531730D01*
X211011400Y-64848330D02*
X211011400Y-66769071D01*
X212420200Y-97823368D02*
X212420200Y-103022400D01*
X210781000Y-96184168D02*
X212420200Y-97823368D01*
X183695867Y-56435733D02*
X183108265Y-57023335D01*
X183695867Y-56232533D02*
X183695867Y-56435733D01*
X211378800Y-62407800D02*
X211328000Y-62357000D01*
X211328000Y-64531730D02*
X211011400Y-64848330D01*
X186062386Y-54568983D02*
X185505661Y-55125708D01*
X184802692Y-55125708D02*
X183695867Y-56232533D01*
X212420200Y-103022400D02*
X212420200Y-111861600D01*
X208686400Y-59715400D02*
X211328000Y-62357000D01*
X185505661Y-55125708D02*
X184802692Y-55125708D01*
X183108265Y-57023335D02*
X182973397Y-57023335D01*
X211011400Y-66769071D02*
X210781000Y-66999471D01*
X212420200Y-111861600D02*
X208686400Y-115595400D01*
X210781000Y-66999471D02*
X210781000Y-96184168D01*
X186062386Y-54489200D02*
X186062386Y-54568983D01*
%TO.N,D2*%
X211734400Y-64412698D02*
X211734400Y-61620400D01*
X212944600Y-98060400D02*
X210984200Y-96100000D01*
X208686400Y-57556400D02*
X210083400Y-58953400D01*
X208686400Y-57175400D02*
X208686400Y-57556400D01*
X193446400Y-113055400D02*
X191466463Y-111075463D01*
X191466463Y-111075463D02*
X191466463Y-110847285D01*
X210083400Y-58953400D02*
X210083400Y-59867800D01*
X210984200Y-67083639D02*
X211214600Y-66853239D01*
X211214600Y-66853239D02*
X211214600Y-64932498D01*
X210083400Y-59867800D02*
X211772500Y-61556900D01*
X184936938Y-54610462D02*
X183210200Y-56337200D01*
X211734400Y-61620400D02*
X211797900Y-61556900D01*
X212944600Y-106010600D02*
X212944600Y-98060400D01*
X211214600Y-64932498D02*
X211734400Y-64412698D01*
X185387389Y-54610462D02*
X184936938Y-54610462D01*
X211772500Y-61556900D02*
X211797900Y-61556900D01*
X210984200Y-96100000D02*
X210984200Y-67083639D01*
%TO.N,D1*%
X212979000Y-62103000D02*
X212979000Y-62865000D01*
X194868800Y-111937800D02*
X195529200Y-111937800D01*
X224700200Y-64045200D02*
X224700200Y-106769800D01*
X211187400Y-95338000D02*
X214096600Y-98247200D01*
X193446400Y-110515400D02*
X194868800Y-111937800D01*
X211937600Y-63906400D02*
X211937600Y-64496866D01*
X208686400Y-54635400D02*
X210489800Y-56438800D01*
X210489800Y-59613800D02*
X212979000Y-62103000D01*
X211417800Y-66937407D02*
X211187400Y-67167807D01*
X211187400Y-67167807D02*
X211187400Y-95338000D01*
X211417800Y-65016666D02*
X211417800Y-66937407D01*
X212979000Y-62865000D02*
X211937600Y-63906400D01*
X223520000Y-62865000D02*
X224700200Y-64045200D01*
X211937600Y-64496866D02*
X211417800Y-65016666D01*
X214096600Y-98247200D02*
X214096600Y-106222800D01*
X224700200Y-106769800D02*
X223520000Y-107950000D01*
X210489800Y-56438800D02*
X210489800Y-59613800D01*
%TO.N,D4*%
X210693000Y-109796232D02*
X210693000Y-111048800D01*
X211882816Y-99720400D02*
X212002441Y-99600775D01*
X210727915Y-64296915D02*
X210727915Y-64449315D01*
X210808200Y-64529600D02*
X210727915Y-64449315D01*
X210808200Y-66684903D02*
X210808200Y-64529600D01*
X211882816Y-108606416D02*
X210693000Y-109796232D01*
X211882816Y-108606416D02*
X211882816Y-99720400D01*
X212002441Y-97692977D02*
X210577800Y-96268336D01*
X208686400Y-62255400D02*
X210727915Y-64296915D01*
X210577800Y-66915303D02*
X210808200Y-66684903D01*
X212002441Y-99600775D02*
X212002441Y-97692977D01*
X210577800Y-96268336D02*
X210577800Y-66915303D01*
X210693000Y-111048800D02*
X208686400Y-113055400D01*
%TO.N,D5*%
X211519841Y-98585460D02*
X211519841Y-97497745D01*
X223520000Y-52705000D02*
X220268800Y-55956200D01*
X210374600Y-66534003D02*
X210325600Y-66485003D01*
X208686400Y-110515400D02*
X211390600Y-107811200D01*
X220268800Y-55956200D02*
X211175600Y-55956200D01*
X211390600Y-107811200D02*
X211390600Y-98714701D01*
X210374600Y-96352504D02*
X210374600Y-66534003D01*
X183235600Y-58823100D02*
X183235600Y-58826400D01*
X210325600Y-66434600D02*
X210325600Y-66485003D01*
X157480000Y-43688000D02*
X158750000Y-42418000D01*
X211519841Y-97497745D02*
X210374600Y-96352504D01*
X188694700Y-59258200D02*
X189326830Y-59890330D01*
X161290000Y-42418000D02*
X162560000Y-43688000D01*
X211390600Y-98714701D02*
X211519841Y-98585460D01*
X158750000Y-42418000D02*
X161290000Y-42418000D01*
X208686400Y-64795400D02*
X210325600Y-66434600D01*
X183235600Y-58826400D02*
X183667400Y-59258200D01*
X183667400Y-59258200D02*
X188694700Y-59258200D01*
X189326830Y-59890330D02*
X189417861Y-59890330D01*
X182614950Y-58202450D02*
X183235600Y-58823100D01*
%TO.N,D6*%
X210171400Y-68935600D02*
X209892000Y-68656200D01*
X210540600Y-98166062D02*
X210540600Y-96805872D01*
X223520000Y-50165000D02*
X223520000Y-50800000D01*
X208686400Y-107975400D02*
X210544719Y-106117081D01*
X208686400Y-67335400D02*
X208849400Y-67335400D01*
X188120368Y-59461400D02*
X189456368Y-60797400D01*
X218871800Y-55448200D02*
X210566000Y-55448200D01*
X183134000Y-59461400D02*
X188120368Y-59461400D01*
X223520000Y-50800000D02*
X218871800Y-55448200D01*
X210171400Y-96436672D02*
X210171400Y-68935600D01*
X209892000Y-68541000D02*
X209892000Y-68656200D01*
X210544719Y-106117081D02*
X210544719Y-98170181D01*
X210544719Y-98170181D02*
X210540600Y-98166062D01*
X208686400Y-67335400D02*
X209892000Y-68541000D01*
X210540600Y-96805872D02*
X210171400Y-96436672D01*
X181965600Y-58293000D02*
X183134000Y-59461400D01*
X189456368Y-60797400D02*
X189841146Y-60797400D01*
%TO.N,D0*%
X214553800Y-59944000D02*
X214553800Y-68474178D01*
X214096600Y-56489600D02*
X212013800Y-56489600D01*
X218719400Y-64109600D02*
X214553800Y-59944000D01*
X185093100Y-53314600D02*
X183035700Y-55372000D01*
X186156600Y-52959000D02*
X185801000Y-53314600D01*
X159004200Y-37592200D02*
X160020000Y-38608000D01*
X214960200Y-94132400D02*
X214960200Y-106934000D01*
X214553800Y-56946800D02*
X214096600Y-56489600D01*
X154940000Y-38608000D02*
X155955800Y-37592200D01*
X155955800Y-37592200D02*
X159004200Y-37592200D01*
X211390600Y-71637378D02*
X211390600Y-90562800D01*
X214553800Y-68474178D02*
X211390600Y-71637378D01*
X185801000Y-53314600D02*
X185093100Y-53314600D01*
X193446400Y-107975400D02*
X194866000Y-107975400D01*
X214553800Y-59944000D02*
X214553800Y-56946800D01*
X211390600Y-90562800D02*
X214960200Y-94132400D01*
X183035700Y-55372000D02*
X182945150Y-55372000D01*
X194866000Y-107975400D02*
X197227950Y-110337350D01*
%TO.N,~{HALT}*%
X169520000Y-105410000D02*
X170009900Y-105410000D01*
X175933200Y-83578600D02*
X175133000Y-84378800D01*
X178020577Y-73321123D02*
X175933200Y-75408500D01*
X175933200Y-75408500D02*
X175933200Y-83578600D01*
X170009900Y-105410000D02*
X173166800Y-102253100D01*
X178399529Y-54962431D02*
X178020577Y-55341383D01*
X208686400Y-29235400D02*
X208762600Y-29235400D01*
X210896200Y-27025600D02*
X208686400Y-29235400D01*
X173166800Y-102253100D02*
X173166800Y-89097000D01*
X211090000Y-27025600D02*
X210896200Y-27025600D01*
X178020577Y-55341383D02*
X178020577Y-73321123D01*
%TO.N,JT_TDI*%
X183235600Y-43473000D02*
X183235600Y-42365300D01*
X176614212Y-57921154D02*
X176813497Y-58120439D01*
X181356000Y-46224900D02*
X181356000Y-49068132D01*
X183235600Y-44345300D02*
X183235600Y-43473000D01*
X176614212Y-53809920D02*
X176614212Y-57921154D01*
X183230600Y-44350300D02*
X181356000Y-46224900D01*
X183230600Y-44350300D02*
X183235600Y-44345300D01*
X181356000Y-49068132D02*
X176614212Y-53809920D01*
%TO.N,JT_TMS*%
X177222700Y-50679300D02*
X176228400Y-51673600D01*
X178150600Y-44350300D02*
X177222700Y-45278200D01*
X176228400Y-59326135D02*
X173476935Y-62077600D01*
X173476935Y-62077600D02*
X172669200Y-62077600D01*
X177222700Y-45278200D02*
X177222700Y-50679300D01*
X178150600Y-42370300D02*
X178155600Y-42365300D01*
X176228400Y-51673600D02*
X176228400Y-59326135D01*
X178150600Y-43478100D02*
X178150600Y-44350300D01*
X178150600Y-43478100D02*
X178150600Y-42370300D01*
%TO.N,JT_TCK*%
X174366428Y-60371228D02*
X174500807Y-60371228D01*
X173939200Y-59944000D02*
X174366428Y-60371228D01*
X173939200Y-45213900D02*
X173939200Y-59944000D01*
X173075600Y-44350300D02*
X173075600Y-43357800D01*
X173075600Y-43357800D02*
X173075600Y-42365300D01*
X173075600Y-44350300D02*
X173939200Y-45213900D01*
%TO.N,CA12*%
X181340500Y-66549100D02*
X182818700Y-65070900D01*
X184802800Y-68500400D02*
X184629900Y-68673300D01*
X184802800Y-65913368D02*
X184802800Y-68500400D01*
X182818700Y-65070900D02*
X183960332Y-65070900D01*
X183960332Y-65070900D02*
X184802800Y-65913368D01*
%TO.N,CA15*%
X182931800Y-61904800D02*
X185295800Y-61904800D01*
X179131500Y-65705100D02*
X182931800Y-61904800D01*
X179131500Y-66584100D02*
X179131500Y-65705100D01*
X185295800Y-61904800D02*
X189271700Y-65880700D01*
%TO.N,Q*%
X208686400Y-41960400D02*
X208686400Y-41935400D01*
X207035400Y-41960400D02*
X208686400Y-41960400D01*
X207035400Y-41960400D02*
X201015200Y-41960400D01*
X201015200Y-41960400D02*
X199390000Y-40335200D01*
%TO.N,CA13*%
X188595000Y-70920900D02*
X188595000Y-67050300D01*
X188417000Y-71098900D02*
X188595000Y-70920900D01*
X188595000Y-67050300D02*
X183670900Y-62126200D01*
X183287500Y-62126200D02*
X179561600Y-65852100D01*
X183670900Y-62126200D02*
X183287500Y-62126200D01*
%TO.N,~{DMA{slash}BREQ}*%
X206857600Y-47015400D02*
X208686400Y-47015400D01*
%TO.N,MRDY*%
X189069500Y-49731200D02*
X193055300Y-45745400D01*
X207562500Y-39395100D02*
X207562500Y-39395000D01*
X208686100Y-39395100D02*
X207562500Y-39395100D01*
X206908400Y-39395000D02*
X207562500Y-39395000D01*
X193055300Y-45745400D02*
X195656200Y-45745400D01*
X195656200Y-45745400D02*
X196443600Y-44958000D01*
X208686400Y-39395400D02*
X208686100Y-39395100D01*
%TO.N,BA*%
X193471400Y-41960400D02*
X193446400Y-41935400D01*
X195249800Y-41960400D02*
X193471400Y-41960400D01*
%TO.N,BS*%
X184319200Y-48522600D02*
X184319200Y-50139300D01*
X193446400Y-39395400D02*
X184319200Y-48522600D01*
X195143000Y-39395400D02*
X193446400Y-39395400D01*
X195300600Y-39553000D02*
X195143000Y-39395400D01*
%TO.N,A_G_D_DIR*%
X183122100Y-73202600D02*
X183122100Y-66817100D01*
X183122100Y-66817100D02*
X183275000Y-66664200D01*
%TO.N,MasterReset*%
X162560000Y-111236100D02*
X163830000Y-109966100D01*
X215925400Y-93319600D02*
X216433400Y-92811600D01*
X163830000Y-105843800D02*
X168557300Y-101116500D01*
X170657800Y-101875100D02*
X169662900Y-102870000D01*
X170657800Y-101267000D02*
X170657800Y-101875100D01*
X220319600Y-76657200D02*
X220319600Y-66522600D01*
X208686400Y-36855400D02*
X210947000Y-39116000D01*
X220319600Y-61925200D02*
X216319100Y-57924700D01*
X215925400Y-106665000D02*
X215925400Y-93319600D01*
X163830000Y-109966100D02*
X163830000Y-105843800D01*
D41*
X214096600Y-113226600D02*
X214096600Y-115112800D01*
D40*
X170507300Y-101116500D02*
X170657800Y-101267000D01*
X216433400Y-80543400D02*
X220319600Y-76657200D01*
X220319600Y-66522600D02*
X220319600Y-61925200D01*
X210947000Y-40081200D02*
X210947000Y-51028600D01*
X162560000Y-111236100D02*
X158511900Y-111236100D01*
X214376000Y-112947200D02*
X215854400Y-111468800D01*
X215854400Y-111468800D02*
X215854400Y-106736000D01*
X210947000Y-39116000D02*
X210947000Y-40081200D01*
X216433400Y-92811600D02*
X216433400Y-80543400D01*
X216319100Y-57924700D02*
X216319100Y-56426100D01*
X162560000Y-112268000D02*
X162560000Y-111236100D01*
X158511900Y-111236100D02*
X157480000Y-112268000D01*
X214376000Y-115392200D02*
X213969600Y-115798600D01*
X169662900Y-102870000D02*
X169520000Y-102870000D01*
X168557300Y-101116500D02*
X170507300Y-101116500D01*
X210947000Y-51028600D02*
X210972400Y-51054000D01*
X215854400Y-106736000D02*
X215925400Y-106665000D01*
D41*
X214376000Y-112947200D02*
X214096600Y-113226600D01*
X214096600Y-115112800D02*
X214376000Y-115392200D01*
D40*
%TO.N,B_G_D_DIR*%
X189160500Y-71367300D02*
X188341000Y-72186800D01*
X188341000Y-72186800D02*
X188341000Y-72314443D01*
X189160500Y-66635500D02*
X189160500Y-71367300D01*
%TO.N,B_S_SELECT*%
X161528100Y-85359900D02*
X162560000Y-84328000D01*
X158511900Y-85359900D02*
X161528100Y-85359900D01*
X157480000Y-84328000D02*
X158511900Y-85359900D01*
%TO.N,Net-(J1-TCK)*%
X173241800Y-40374100D02*
X173241800Y-38801400D01*
X173075600Y-40540300D02*
X173241800Y-40374100D01*
%TO.N,Net-(J1-TMS)*%
X178321800Y-40374100D02*
X178321800Y-38801400D01*
X178155600Y-40540300D02*
X178321800Y-40374100D01*
%TO.N,Net-(J1-TDI)*%
X183235600Y-40540300D02*
X183401800Y-40374100D01*
X183401800Y-40374100D02*
X183401800Y-38801400D01*
%TO.N,Net-(J1-TDO)*%
X175615600Y-40540300D02*
X175781800Y-40374100D01*
X175781800Y-40374100D02*
X175781800Y-38801400D01*
%TO.N,Net-(Q1-C)*%
X217763900Y-54356000D02*
X217373200Y-54356000D01*
X218386200Y-53733700D02*
X217763900Y-54356000D01*
%TO.N,Net-(Q1-B)*%
X217436200Y-51194200D02*
X217436200Y-51858700D01*
X218994200Y-49636200D02*
X217436200Y-51194200D01*
X219460000Y-49636200D02*
X218994200Y-49636200D01*
%TO.N,/mB_SHARE_GRANTED*%
X162020000Y-79788000D02*
X161528100Y-80279900D01*
X161528100Y-80279900D02*
X158511900Y-80279900D01*
X162560000Y-79248000D02*
X162020000Y-79788000D01*
X181090100Y-107820499D02*
X181090100Y-106358300D01*
X158511900Y-80279900D02*
X157480000Y-79248000D01*
X183027200Y-106070400D02*
X184400100Y-104697500D01*
X181090100Y-106358300D02*
X181378000Y-106070400D01*
X181245001Y-107975400D02*
X181090100Y-107820499D01*
X170459400Y-87426800D02*
X170459400Y-92542800D01*
X162820600Y-79788000D02*
X170459400Y-87426800D01*
X170459400Y-92542800D02*
X170510400Y-92593800D01*
X182220000Y-107975400D02*
X181245001Y-107975400D01*
X184400100Y-104697500D02*
X184400100Y-97078800D01*
X162020000Y-79788000D02*
X162820600Y-79788000D01*
X181378000Y-106070400D02*
X183027200Y-106070400D01*
%TO.N,/CA11*%
X182448200Y-67360800D02*
X182448200Y-74041000D01*
X182448200Y-74041000D02*
X183045100Y-74637900D01*
X189306199Y-89331799D02*
X189472950Y-89165048D01*
X189472950Y-74625200D02*
X189472950Y-73163050D01*
X189472950Y-89165048D02*
X189472950Y-74625200D01*
X183045100Y-74637900D02*
X183045100Y-74663300D01*
X189472950Y-73163050D02*
X189585600Y-73050400D01*
%TO.N,/CA9*%
X188417200Y-88823800D02*
X187858400Y-88265000D01*
X187858400Y-68811000D02*
X188146458Y-68522942D01*
X187858400Y-88265000D02*
X187858400Y-68811000D01*
%TO.N,Net-(Cx19-Pad1)*%
X219964000Y-84328000D02*
X219964000Y-81788000D01*
X221919800Y-114046000D02*
X221945200Y-114071400D01*
X217146200Y-97632800D02*
X218567000Y-96212000D01*
X227710000Y-113030000D02*
X227940000Y-113030000D01*
X227940000Y-111760000D02*
X227940000Y-113030000D01*
X219964000Y-86868000D02*
X219964000Y-84328000D01*
X221945200Y-114071400D02*
X226668600Y-114071400D01*
X226668600Y-114071400D02*
X227710000Y-113030000D01*
X218567000Y-98272600D02*
X221919800Y-101625400D01*
X219964000Y-86868000D02*
X219964000Y-89408000D01*
X217027400Y-97632800D02*
X217146200Y-97632800D01*
X218567000Y-96212000D02*
X218567000Y-98272600D01*
X221919800Y-101625400D02*
X221919800Y-114046000D01*
X218567000Y-96212000D02*
X219964000Y-94815000D01*
X219964000Y-94815000D02*
X219964000Y-89408000D01*
%TO.N,Net-(Cx23-Pad1)*%
X220217000Y-105411000D02*
X217170000Y-108458000D01*
X217170000Y-110998000D02*
X217170000Y-113538000D01*
X217170000Y-108458000D02*
X217170000Y-110998000D01*
X227940000Y-115316168D02*
X226035168Y-117221000D01*
X226035168Y-117221000D02*
X218313000Y-117221000D01*
X227940000Y-114300000D02*
X227940000Y-115316168D01*
X220217000Y-102742000D02*
X220217000Y-105411000D01*
X217027400Y-99632800D02*
X217107800Y-99632800D01*
X217107800Y-99632800D02*
X218567000Y-101092000D01*
X218313000Y-117221000D02*
X217170000Y-116078000D01*
X218567000Y-101092000D02*
X220217000Y-102742000D01*
X217170000Y-116078000D02*
X217170000Y-113538000D01*
%TO.N,ACIA Clk 1.8432 MHz*%
X235251400Y-109973300D02*
X235550400Y-110272300D01*
X235868600Y-110681100D02*
X238568900Y-110681100D01*
X238760000Y-107950000D02*
X238760000Y-110490000D01*
X228456700Y-109973300D02*
X235251400Y-109973300D01*
X238568900Y-110681100D02*
X238760000Y-110490000D01*
X227940000Y-110490000D02*
X228456700Y-109973300D01*
X235550400Y-110362900D02*
X235868600Y-110681100D01*
X235550400Y-110272300D02*
X235550400Y-110362900D01*
%TO.N,Net-(J7-Pin_16)*%
X236073900Y-62103000D02*
X234168900Y-60198000D01*
X236728000Y-62103000D02*
X236073900Y-62103000D01*
X234168900Y-60198000D02*
X234115000Y-60198000D01*
%TO.N,Net-(J7-Pin_10)*%
X236073900Y-51181000D02*
X236073900Y-51262800D01*
X236728000Y-51181000D02*
X236073900Y-51181000D01*
X236073900Y-51262800D02*
X234758700Y-52578000D01*
X234758700Y-52578000D02*
X234115000Y-52578000D01*
%TO.N,Net-(J7-Pin_7)*%
X226206100Y-51054000D02*
X226206100Y-51299300D01*
X227484800Y-52578000D02*
X228165000Y-52578000D01*
X225552000Y-51054000D02*
X226206100Y-51054000D01*
X226206100Y-51299300D02*
X227484800Y-52578000D01*
%TO.N,Net-(J7-Pin_1)*%
X226206100Y-62156900D02*
X228165000Y-60198000D01*
X225552000Y-62230000D02*
X226206100Y-62230000D01*
X226206100Y-62230000D02*
X226206100Y-62156900D01*
%TO.N,Net-(J7-Pin_6)*%
X225552000Y-52832000D02*
X226206100Y-52832000D01*
X227222100Y-53848000D02*
X228165000Y-53848000D01*
X226206100Y-52832000D02*
X227222100Y-53848000D01*
%TO.N,Net-(J7-Pin_14)*%
X236073900Y-58547000D02*
X235184900Y-57658000D01*
X236728000Y-58547000D02*
X236073900Y-58547000D01*
X235184900Y-57658000D02*
X234115000Y-57658000D01*
%TO.N,Net-(J7-Pin_4)*%
X227784000Y-56769000D02*
X228165000Y-56388000D01*
X225552000Y-56769000D02*
X227784000Y-56769000D01*
%TO.N,Net-(J7-Pin_11)*%
X235184900Y-53848000D02*
X234115000Y-53848000D01*
X236073900Y-52959000D02*
X235184900Y-53848000D01*
X236728000Y-52959000D02*
X236073900Y-52959000D01*
%TO.N,Net-(J7-Pin_8)*%
X225552000Y-49276000D02*
X226206100Y-49276000D01*
X226206100Y-49276000D02*
X226206100Y-49349100D01*
X226206100Y-49349100D02*
X228165000Y-51308000D01*
%TO.N,Net-(J7-Pin_12)*%
X236728000Y-54737000D02*
X234496000Y-54737000D01*
X234496000Y-54737000D02*
X234115000Y-55118000D01*
%TO.N,Net-(J7-Pin_15)*%
X234758700Y-58928000D02*
X234115000Y-58928000D01*
X236073900Y-60325000D02*
X236073900Y-60243200D01*
X236728000Y-60325000D02*
X236073900Y-60325000D01*
X236073900Y-60243200D02*
X234758700Y-58928000D01*
%TO.N,Net-(J7-Pin_9)*%
X236728000Y-49403000D02*
X236020000Y-49403000D01*
X236020000Y-49403000D02*
X234115000Y-51308000D01*
%TO.N,Net-(J7-Pin_5)*%
X225552000Y-54610000D02*
X227657000Y-54610000D01*
X227657000Y-54610000D02*
X228165000Y-55118000D01*
%TO.N,Net-(J7-Pin_13)*%
X236728000Y-56769000D02*
X234496000Y-56769000D01*
X234496000Y-56769000D02*
X234115000Y-56388000D01*
%TO.N,Net-(J7-Pin_2)*%
X226206100Y-60325000D02*
X226206100Y-60243200D01*
X227521300Y-58928000D02*
X228165000Y-58928000D01*
X226206100Y-60243200D02*
X227521300Y-58928000D01*
X225552000Y-60325000D02*
X226206100Y-60325000D01*
%TO.N,Net-(J7-Pin_3)*%
X227095100Y-57658000D02*
X226206100Y-58547000D01*
X225552000Y-58547000D02*
X226206100Y-58547000D01*
X228165000Y-57658000D02*
X227095100Y-57658000D01*
%TO.N,/Rx*%
X237741500Y-119569700D02*
X237741500Y-114048500D01*
X236982000Y-123164600D02*
X236982000Y-122160500D01*
X237741500Y-114048500D02*
X238760000Y-113030000D01*
X236982000Y-120329200D02*
X237741500Y-119569700D01*
X236982000Y-120329200D02*
X236982000Y-122160500D01*
X236880400Y-120329200D02*
X236982000Y-120329200D01*
%TO.N,/Tx*%
X234442000Y-123164600D02*
X234442000Y-120430800D01*
X234442000Y-120430800D02*
X234340400Y-120329200D01*
%TO.N,Net-(PA1-Pin_1)*%
X250190000Y-112395000D02*
X250190000Y-111390900D01*
X238760000Y-80645000D02*
X239715100Y-81600100D01*
X239715100Y-81600100D02*
X239715100Y-100916000D01*
X239715100Y-100916000D02*
X250190000Y-111390900D01*
%TO.N,Net-(PA1-Pin_4)*%
X248652600Y-103237600D02*
X250190000Y-104775000D01*
X238760000Y-73025000D02*
X238760000Y-74031300D01*
X240397300Y-78083200D02*
X240999200Y-78685100D01*
X238760000Y-74031300D02*
X240397300Y-75668600D01*
X240999200Y-94462000D02*
X248652600Y-102115400D01*
X240397300Y-75668600D02*
X240397300Y-78083200D01*
X240999200Y-78685100D02*
X240999200Y-94462000D01*
X248652600Y-102115400D02*
X248652600Y-103237600D01*
%TO.N,Net-(PA1-Pin_7)*%
X241620801Y-74579070D02*
X241328000Y-74871871D01*
X242131500Y-89096500D02*
X250190000Y-97155000D01*
X241328000Y-73718133D02*
X241620801Y-74010934D01*
X241328000Y-77679700D02*
X242131500Y-78483200D01*
X241328000Y-74871871D02*
X241328000Y-77679700D01*
X241328000Y-67973000D02*
X241328000Y-73718133D01*
X241620801Y-74010934D02*
X241620801Y-74579070D01*
X238760000Y-65405000D02*
X241328000Y-67973000D01*
X242131500Y-78483200D02*
X242131500Y-89096500D01*
%TO.N,Net-(PA1-Pin_6)*%
X241409000Y-78122200D02*
X241409000Y-90914000D01*
X241123100Y-77836300D02*
X241409000Y-78122200D01*
X241409000Y-90914000D02*
X250190000Y-99695000D01*
X241123100Y-74777602D02*
X241123100Y-77836300D01*
X238760000Y-67945000D02*
X241123100Y-70308100D01*
X241417601Y-74483101D02*
X241123100Y-74777602D01*
X241123100Y-70308100D02*
X241123100Y-73800601D01*
X241123100Y-73800601D02*
X241417601Y-74095102D01*
X241417601Y-74095102D02*
X241417601Y-74483101D01*
%TO.N,Net-(PA1-Pin_2)*%
X239938400Y-79283400D02*
X238760000Y-78105000D01*
X250190000Y-109855000D02*
X239938400Y-99603400D01*
X239938400Y-99603400D02*
X239938400Y-79283400D01*
%TO.N,Net-(PA1-Pin_5)*%
X240452401Y-74494902D02*
X240897200Y-74939701D01*
X240897200Y-77900200D02*
X241204100Y-78207100D01*
X241204100Y-93249100D02*
X250190000Y-102235000D01*
X238760000Y-70485000D02*
X240452401Y-72177401D01*
X240452401Y-72177401D02*
X240452401Y-74494902D01*
X240897200Y-74939701D02*
X240897200Y-77900200D01*
X241204100Y-78207100D02*
X241204100Y-93249100D01*
%TO.N,Net-(PA1-Pin_8)*%
X241532900Y-77377200D02*
X241532900Y-74954339D01*
X241532900Y-73635665D02*
X241532900Y-65637900D01*
X242438000Y-78282300D02*
X241532900Y-77377200D01*
X241824001Y-73926766D02*
X241532900Y-73635665D01*
X242438000Y-86863000D02*
X242438000Y-78282300D01*
X241532900Y-74954339D02*
X241824001Y-74663238D01*
X241824001Y-74663238D02*
X241824001Y-73926766D01*
X241532900Y-65637900D02*
X238760000Y-62865000D01*
X250190000Y-94615000D02*
X242438000Y-86863000D01*
%TO.N,Net-(PA1-Pin_3)*%
X238760000Y-76735700D02*
X240794300Y-78770000D01*
X240794300Y-95379300D02*
X242537600Y-97122600D01*
X240794300Y-78770000D02*
X240794300Y-95379300D01*
X242537600Y-99662600D02*
X250190000Y-107315000D01*
X242537600Y-97122600D02*
X242537600Y-99662600D01*
X238760000Y-75565000D02*
X238760000Y-76735700D01*
%TO.N,Net-(PB1-Pin_8)*%
X238760000Y-42545000D02*
X236677200Y-44627800D01*
X236042200Y-46380400D02*
X226441000Y-46380400D01*
X226441000Y-46380400D02*
X223850200Y-48971200D01*
X236677200Y-44627800D02*
X236677200Y-45745400D01*
X222125000Y-48971200D02*
X221460000Y-49636200D01*
X236677200Y-45745400D02*
X236042200Y-46380400D01*
X223850200Y-48971200D02*
X222125000Y-48971200D01*
%TO.N,~{Dev_Sel_1}*%
X187645001Y-106705400D02*
X186792700Y-105853099D01*
X212510000Y-53682000D02*
X208268200Y-53682000D01*
X190440686Y-59274358D02*
X189938599Y-58772271D01*
X186792700Y-98556800D02*
X190440686Y-94908814D01*
X220895100Y-40547100D02*
X220814900Y-40627300D01*
X208268200Y-53682000D02*
X200685400Y-61264800D01*
X219430600Y-46761400D02*
X212510000Y-53682000D01*
X221437200Y-40005000D02*
X220814900Y-40627300D01*
X220814900Y-40627300D02*
X219430600Y-42011600D01*
X221208600Y-40547100D02*
X220895100Y-40547100D01*
X219430600Y-42011600D02*
X219430600Y-46761400D01*
X190440686Y-94908814D02*
X190440686Y-59274358D01*
X186792700Y-105853099D02*
X186792700Y-98556800D01*
X189938599Y-58772271D02*
X189648723Y-58772271D01*
X223520000Y-40005000D02*
X221437200Y-40005000D01*
X188620000Y-106705400D02*
X187645001Y-106705400D01*
%TO.N,~{Dev_Sel_2}*%
X187275300Y-103070700D02*
X188370000Y-104165400D01*
X190643886Y-95667514D02*
X190643886Y-58795058D01*
X188775800Y-104321200D02*
X188620000Y-104165400D01*
X187275300Y-102362000D02*
X187275300Y-103070700D01*
X187783500Y-98527900D02*
X190643886Y-95667514D01*
X187783500Y-98527900D02*
X187275300Y-99036100D01*
X188370000Y-104165400D02*
X188620000Y-104165400D01*
X190643886Y-58795058D02*
X190398400Y-58549572D01*
X187275300Y-99036100D02*
X187275300Y-102362000D01*
%TO.N,Net-(JP1-B)*%
X235565900Y-107950000D02*
X235819900Y-108204000D01*
X234340000Y-107950000D02*
X235565900Y-107950000D01*
X236380200Y-104775000D02*
X237152400Y-105547200D01*
X236474000Y-108204000D02*
X235819900Y-108204000D01*
X237152400Y-107525600D02*
X236474000Y-108204000D01*
X237152400Y-105547200D02*
X237152400Y-107525600D01*
%TO.N,Net-(JP2-B)*%
X239250568Y-111760000D02*
X236474000Y-111760000D01*
X234899200Y-110490000D02*
X236169200Y-111760000D01*
X234340000Y-110490000D02*
X234899200Y-110490000D01*
X240665000Y-113174432D02*
X239250568Y-111760000D01*
X240665000Y-115095200D02*
X240665000Y-113174432D01*
X236169200Y-111760000D02*
X236474000Y-111760000D01*
%TO.N,Net-(JP3-B)*%
X236474000Y-115316000D02*
X236474000Y-115163600D01*
X235712000Y-114554000D02*
X236474000Y-115316000D01*
X234340000Y-113030000D02*
X234721400Y-113030000D01*
X239941400Y-112738200D02*
X239941400Y-116784700D01*
X236474000Y-115163600D02*
X237536600Y-114101000D01*
X239941500Y-116784700D02*
X240665000Y-117508200D01*
X237536600Y-114101000D02*
X237536600Y-112704000D01*
X235712000Y-114020600D02*
X235712000Y-114554000D01*
X239166400Y-111963200D02*
X239941400Y-112738200D01*
X234721400Y-113030000D02*
X235712000Y-114020600D01*
X238277400Y-111963200D02*
X239166400Y-111963200D01*
X239941400Y-116784700D02*
X239941500Y-116784700D01*
X237536600Y-112704000D02*
X238277400Y-111963200D01*
%TO.N,Net-(JP13-B)*%
X225425000Y-109529800D02*
X225752100Y-109529800D01*
X227940000Y-109220000D02*
X226388900Y-109220000D01*
X225752100Y-109529800D02*
X225537800Y-109744100D01*
X226388900Y-109220000D02*
X226079100Y-109529800D01*
X225537800Y-109744100D02*
X225537800Y-110909000D01*
X225752100Y-109529800D02*
X226079100Y-109529800D01*
%TO.N,~{Dev_Sel_7}*%
X199881316Y-101952911D02*
X199881316Y-48733884D01*
X203653400Y-106796800D02*
X203863000Y-106796800D01*
X233680000Y-61575900D02*
X233641600Y-61537500D01*
X199881316Y-48733884D02*
X200101200Y-48514000D01*
X233641600Y-61537500D02*
X233641600Y-61185200D01*
X203653400Y-106796800D02*
X200040162Y-103183562D01*
X201660000Y-108790200D02*
X201660000Y-111778000D01*
X200040162Y-103183562D02*
X200040162Y-102111757D01*
X203653400Y-106796800D02*
X201660000Y-108790200D01*
X233680000Y-62230000D02*
X233680000Y-61575900D01*
X200040162Y-102111757D02*
X199881316Y-101952911D01*
%TO.N,Net-(U13B-D)*%
X234950000Y-43434000D02*
X234295900Y-43434000D01*
X232816000Y-42164000D02*
X233025900Y-42164000D01*
X233025900Y-42164000D02*
X234295900Y-43434000D01*
%TO.N,Net-(U13B-C)*%
X233533900Y-40894000D02*
X234295900Y-41656000D01*
X234950000Y-41656000D02*
X234295900Y-41656000D01*
X232816000Y-40894000D02*
X233533900Y-40894000D01*
%TO.N,Net-(U13B-Q)*%
X232816000Y-38354000D02*
X234950000Y-38354000D01*
%TO.N,Net-(U13B-~{Q})*%
X233787900Y-37084000D02*
X234295900Y-36576000D01*
X234950000Y-36576000D02*
X234295900Y-36576000D01*
X232816000Y-37084000D02*
X233787900Y-37084000D01*
%TO.N,Net-(U13B-~{R})*%
X232968500Y-43434000D02*
X234295900Y-44761400D01*
X234950000Y-44958000D02*
X234295900Y-44958000D01*
X234295900Y-44761400D02*
X234295900Y-44958000D01*
X232816000Y-43434000D02*
X232968500Y-43434000D01*
%TO.N,Net-(U13B-~{S})*%
X232816000Y-39624000D02*
X234041900Y-39624000D01*
X234041900Y-39624000D02*
X234295900Y-39878000D01*
X234950000Y-39878000D02*
X234295900Y-39878000D01*
%TO.N,Net-(TP27-Pad1)*%
X227940000Y-107950000D02*
X225425000Y-107950000D01*
%TO.N,Net-(TP28-Pad1)*%
X236474000Y-106426000D02*
X235819900Y-106426000D01*
X235565900Y-106680000D02*
X235819900Y-106426000D01*
X234340000Y-106680000D02*
X235565900Y-106680000D01*
%TO.N,Net-(TP29-Pad1)*%
X235057900Y-109220000D02*
X235819900Y-109982000D01*
X234340000Y-109220000D02*
X235057900Y-109220000D01*
X236474000Y-109982000D02*
X235819900Y-109982000D01*
%TO.N,Net-(TP30-Pad1)*%
X234340000Y-111760000D02*
X234696000Y-111760000D01*
X234696000Y-111760000D02*
X236474000Y-113538000D01*
%TO.N,/vCB1*%
X248457800Y-77642900D02*
X248457900Y-77642900D01*
X248457800Y-48166900D02*
X248457800Y-77642900D01*
X241935000Y-40640000D02*
X240930900Y-40640000D01*
X240534000Y-41036900D02*
X240930900Y-40640000D01*
X227936700Y-43434000D02*
X230944000Y-40426700D01*
X226416000Y-43434000D02*
X227936700Y-43434000D01*
X234371200Y-40957600D02*
X235602600Y-40957600D01*
X248457900Y-77642900D02*
X250190000Y-79375000D01*
X233840300Y-40426700D02*
X234371200Y-40957600D01*
X235681900Y-41036900D02*
X240534000Y-41036900D01*
X235602600Y-40957600D02*
X235681900Y-41036900D01*
X241935000Y-41644100D02*
X248457800Y-48166900D01*
X230944000Y-40426700D02*
X233840300Y-40426700D01*
X241935000Y-40640000D02*
X241935000Y-41644100D01*
%TO.N,Net-(Jx1-Pin_3)*%
X236217300Y-37699900D02*
X237722200Y-36195000D01*
X241300000Y-36195000D02*
X241935000Y-35560000D01*
X231130800Y-37699900D02*
X236217300Y-37699900D01*
X237722200Y-36195000D02*
X241300000Y-36195000D01*
X226416000Y-39624000D02*
X229206700Y-39624000D01*
X229206700Y-39624000D02*
X231130800Y-37699900D01*
%TO.N,/vCB2*%
X240737000Y-39442000D02*
X238760000Y-37465000D01*
X249185900Y-75830900D02*
X249185900Y-45971200D01*
X249185900Y-45971200D02*
X242656700Y-39442000D01*
X250190000Y-76835000D02*
X249185900Y-75830900D01*
X242656700Y-39442000D02*
X240737000Y-39442000D01*
%TO.N,/GA15*%
X185369200Y-69671000D02*
X185369200Y-65484900D01*
X172059600Y-66548000D02*
X174345600Y-64262000D01*
X184884100Y-92291500D02*
X184884100Y-70156100D01*
X162560000Y-66548000D02*
X172059600Y-66548000D01*
X184884100Y-70156100D02*
X185369200Y-69671000D01*
X183916200Y-93259400D02*
X184884100Y-92291500D01*
X184483106Y-64598806D02*
X184412803Y-64598806D01*
X185369200Y-65484900D02*
X184483106Y-64598806D01*
%TO.N,/GA13*%
X162560000Y-64008000D02*
X163372800Y-63195200D01*
X174714628Y-63195200D02*
X174933214Y-62976614D01*
X184658000Y-69773800D02*
X184658000Y-86766400D01*
X184658000Y-86766400D02*
X184505600Y-86918800D01*
X182930800Y-63601600D02*
X182930800Y-63754000D01*
X185089800Y-69342000D02*
X184658000Y-69773800D01*
X184505600Y-86918800D02*
X184353200Y-86918800D01*
X182930800Y-63754000D02*
X185089800Y-65913000D01*
X185089800Y-65913000D02*
X185089800Y-69342000D01*
X163372800Y-63195200D02*
X174714628Y-63195200D01*
%TO.N,/CA3*%
X193446400Y-54635400D02*
X195212600Y-56401600D01*
X186534562Y-54102000D02*
X186509162Y-54076600D01*
X180901314Y-58036486D02*
X180901314Y-59103286D01*
X195212600Y-96049200D02*
X193446400Y-97815400D01*
X186509162Y-54076600D02*
X184861200Y-54076600D01*
X193446400Y-97815400D02*
X191897000Y-99364800D01*
X195212600Y-56401600D02*
X195212600Y-96049200D01*
X180517800Y-59486800D02*
X179324000Y-59486800D01*
X191897000Y-99364800D02*
X191897000Y-99847400D01*
X180901314Y-59103286D02*
X180517800Y-59486800D01*
X184861200Y-54076600D02*
X180901314Y-58036486D01*
%TO.N,/~{IRQ}*%
X181991000Y-49403000D02*
X185166000Y-46228000D01*
X196443600Y-46253400D02*
X196900800Y-45796200D01*
X185166000Y-42672000D02*
X185928000Y-41910000D01*
X185166000Y-46228000D02*
X185166000Y-42672000D01*
X196900800Y-45796200D02*
X196900800Y-37769800D01*
X196900800Y-37769800D02*
X193446400Y-34315400D01*
X196570600Y-99212400D02*
X196443600Y-99085400D01*
X196443600Y-99085400D02*
X196443600Y-46253400D01*
%TO.N,/CA8*%
X187350400Y-68192100D02*
X187350400Y-88163400D01*
X187754100Y-67788400D02*
X187754100Y-66969200D01*
X184418506Y-63633606D02*
X184372422Y-63633606D01*
X187754100Y-67788400D02*
X187350400Y-68192100D01*
X187754100Y-66969200D02*
X184418506Y-63633606D01*
%TO.N,/CA1*%
X191033400Y-56406400D02*
X185612768Y-56406400D01*
X191124700Y-56406400D02*
X191033400Y-56406400D01*
X191287400Y-100050600D02*
X191287400Y-56569100D01*
X190906400Y-52095400D02*
X190906400Y-56337200D01*
X191287400Y-56569100D02*
X191124700Y-56406400D01*
X185612768Y-56406400D02*
X184384550Y-57634618D01*
X190906400Y-56337200D02*
X190975600Y-56406400D01*
X193446400Y-102209600D02*
X191287400Y-100050600D01*
X190975600Y-56406400D02*
X191033400Y-56406400D01*
X193446400Y-49555400D02*
X190906400Y-52095400D01*
X193446400Y-102895400D02*
X193446400Y-102209600D01*
X184384550Y-57634618D02*
X184384550Y-57913502D01*
%TO.N,/~{Dev_2}*%
X191084200Y-99595795D02*
X191084200Y-58108112D01*
X190811387Y-99868608D02*
X191084200Y-99595795D01*
X190096851Y-57489636D02*
X189927278Y-57320063D01*
X190465724Y-57489636D02*
X190096851Y-57489636D01*
X190811387Y-100615987D02*
X191935100Y-101739700D01*
X190811387Y-99868608D02*
X190811387Y-100615987D01*
X197732200Y-102717600D02*
X197463000Y-102986800D01*
X198602600Y-102717600D02*
X197732200Y-102717600D01*
X191084200Y-58108112D02*
X190465724Y-57489636D01*
%TO.N,/E*%
X197586600Y-47269400D02*
X199263000Y-45593000D01*
X223520000Y-45085000D02*
X223610200Y-45085000D01*
X223610200Y-44823800D02*
X223610200Y-45085000D01*
X226270000Y-42164000D02*
X223610200Y-44823800D01*
X226416000Y-42164000D02*
X226270000Y-42164000D01*
X197586600Y-97332800D02*
X197586600Y-47269400D01*
%TO.N,/CA10*%
X185242200Y-110770200D02*
X185242200Y-98145600D01*
X185242200Y-98145600D02*
X185958400Y-97429400D01*
X185958400Y-97429400D02*
X185958400Y-88895000D01*
X185958400Y-88895000D02*
X187071000Y-87782400D01*
X187071000Y-69215000D02*
X186893200Y-69037200D01*
X187071000Y-87782400D02*
X187071000Y-69215000D01*
%TO.N,/R~{W}*%
X213131400Y-45313600D02*
X213131400Y-49123600D01*
X163727800Y-100940200D02*
X165022800Y-100940200D01*
X223520000Y-34925000D02*
X213131400Y-45313600D01*
X162560000Y-102108000D02*
X163727800Y-100940200D01*
X196977000Y-96799400D02*
X196977000Y-51003200D01*
%TO.N,/GA12*%
X175762400Y-62979900D02*
X175762500Y-62979900D01*
X166506300Y-63577000D02*
X165040700Y-65042600D01*
X175762400Y-63153600D02*
X175762400Y-62979900D01*
X175339000Y-63577000D02*
X175762400Y-63153600D01*
X165040700Y-65042600D02*
X161054600Y-65042600D01*
X161054600Y-65042600D02*
X160020000Y-64008000D01*
X175234600Y-63681400D02*
X175234600Y-83591400D01*
X175339000Y-63577000D02*
X175234600Y-63681400D01*
X175339000Y-63577000D02*
X166506300Y-63577000D01*
%TO.N,/mB_HALT*%
X162560000Y-71628000D02*
X163604200Y-72672200D01*
X174157700Y-103825900D02*
X175106800Y-104775000D01*
X177059400Y-105705000D02*
X176084400Y-106680000D01*
X177059400Y-105109900D02*
X177059400Y-105705000D01*
X171550800Y-72672200D02*
X172450000Y-71773000D01*
X176084400Y-106680000D02*
X175920000Y-106680000D01*
X163604200Y-72672200D02*
X171550800Y-72672200D01*
X171550800Y-72672200D02*
X174157700Y-75279100D01*
X174157700Y-75279100D02*
X174157700Y-103825900D01*
X175106800Y-104775000D02*
X176724500Y-104775000D01*
X176724500Y-104775000D02*
X177059400Y-105109900D01*
%TO.N,/CA4*%
X187107152Y-54508400D02*
X183772317Y-57843235D01*
X195009400Y-58738400D02*
X195009400Y-93712400D01*
X183772317Y-57843235D02*
X183772317Y-58238947D01*
X193446400Y-57175400D02*
X195009400Y-58738400D01*
X191414400Y-55168800D02*
X191439800Y-55168800D01*
X187401200Y-54508400D02*
X187107152Y-54508400D01*
X191439800Y-55168800D02*
X193446400Y-57175400D01*
X195009400Y-93712400D02*
X193446400Y-95275400D01*
%TO.N,/~{NMI}*%
X181381400Y-49330100D02*
X184630900Y-46080600D01*
X177296097Y-54103603D02*
X177296097Y-58545806D01*
X155963500Y-103624500D02*
X154940000Y-104648000D01*
X177296097Y-58545806D02*
X173281703Y-62560200D01*
X181130600Y-50269100D02*
X181381400Y-50018300D01*
X181381400Y-50018300D02*
X181381400Y-49330100D01*
X173281703Y-62560200D02*
X155963500Y-62560200D01*
X155963500Y-62560200D02*
X155963500Y-103624500D01*
X184630900Y-46080600D02*
X184630900Y-42037000D01*
X181130600Y-50269100D02*
X177296097Y-54103603D01*
%TO.N,/CA5*%
X189303260Y-59431613D02*
X189927668Y-59431613D01*
X194806200Y-61075200D02*
X193446400Y-59715400D01*
X183997600Y-58826400D02*
X188698047Y-58826400D01*
X183983206Y-58840794D02*
X183997600Y-58826400D01*
X194806200Y-91375600D02*
X194806200Y-61075200D01*
X193446400Y-92735400D02*
X194806200Y-91375600D01*
X188698047Y-58826400D02*
X189303260Y-59431613D01*
%TO.N,/mA_SHARE_SELECT*%
X184320200Y-66426419D02*
X184200800Y-66545819D01*
X184200800Y-66545819D02*
X184200800Y-73228200D01*
X184200800Y-73228200D02*
X184251600Y-73279000D01*
%TO.N,/CA6*%
X189791399Y-61419799D02*
X189895960Y-61419799D01*
X193446400Y-62255400D02*
X194603000Y-63412000D01*
X183337200Y-59867800D02*
X188239400Y-59867800D01*
X194603000Y-63412000D02*
X194603000Y-89038800D01*
X194603000Y-89038800D02*
X193446400Y-90195400D01*
X188239400Y-59867800D02*
X189791399Y-61419799D01*
%TO.N,/CA0*%
X195630800Y-98559968D02*
X195827100Y-98756268D01*
X195630800Y-49804200D02*
X193984600Y-48158000D01*
X186898200Y-50541000D02*
X180289200Y-57150000D01*
X190911400Y-50541000D02*
X186898200Y-50541000D01*
X193446400Y-48158000D02*
X193446400Y-47015400D01*
X193446400Y-48158000D02*
X193294400Y-48158000D01*
X195827100Y-102566400D02*
X195827100Y-98756268D01*
X195630800Y-98559968D02*
X195630800Y-84023200D01*
X180289200Y-57150000D02*
X180289200Y-58166000D01*
X195630800Y-84023200D02*
X196037200Y-84023200D01*
X193984600Y-48158000D02*
X193446400Y-48158000D01*
X195630800Y-84023200D02*
X195630800Y-49804200D01*
X193294400Y-48158000D02*
X190911400Y-50541000D01*
%TO.N,/CA2*%
X180698114Y-57028454D02*
X180698114Y-58524325D01*
X195415800Y-98386000D02*
X193446400Y-100355400D01*
X180698114Y-58524325D02*
X180213000Y-59009439D01*
X185507342Y-52858271D02*
X184868297Y-52858271D01*
X193446400Y-52095400D02*
X195415800Y-54064800D01*
X195415800Y-54064800D02*
X195415800Y-98386000D01*
X184868297Y-52858271D02*
X180698114Y-57028454D01*
%TO.N,/~{Dev_4}*%
X198908100Y-102053232D02*
X198908100Y-68090300D01*
X199288400Y-102433532D02*
X198908100Y-102053232D01*
X197463000Y-108066800D02*
X198116950Y-108720750D01*
X196330000Y-105168300D02*
X196534500Y-104963800D01*
X198116950Y-114754150D02*
X200355200Y-116992400D01*
X198116950Y-108720750D02*
X198116950Y-114754150D01*
X198209100Y-104963800D02*
X199288400Y-103884500D01*
X198406700Y-67588900D02*
X198406700Y-60520100D01*
X198908100Y-68090300D02*
X198406700Y-67588900D01*
X197463000Y-108066800D02*
X196488001Y-108066800D01*
X196534500Y-104963800D02*
X198209100Y-104963800D01*
X199288400Y-103884500D02*
X199288400Y-102433532D01*
X196330000Y-107908799D02*
X196330000Y-105168300D01*
X196488001Y-108066800D02*
X196330000Y-107908799D01*
%TO.N,/GA14*%
X172117600Y-65543900D02*
X173601900Y-64059600D01*
X191744600Y-84277200D02*
X193446400Y-82575400D01*
X173601900Y-64059600D02*
X173710500Y-64059600D01*
X192074800Y-82003800D02*
X192074800Y-64262000D01*
X160020000Y-66548000D02*
X161024100Y-65543900D01*
X192646400Y-82575400D02*
X192074800Y-82003800D01*
X191744600Y-85699600D02*
X191744600Y-84277200D01*
X193446400Y-82575400D02*
X192646400Y-82575400D01*
X161024100Y-65543900D02*
X172117600Y-65543900D01*
%TO.N,/CA7*%
X194399800Y-65748800D02*
X194399800Y-86702000D01*
X193446400Y-87655400D02*
X193446400Y-88747600D01*
X194399800Y-86702000D02*
X193446400Y-87655400D01*
X189280800Y-64744600D02*
X185826400Y-61290200D01*
X193446400Y-64795400D02*
X194399800Y-65748800D01*
X193446400Y-88747600D02*
X192074800Y-90119200D01*
X185826400Y-61290200D02*
X180746400Y-61290200D01*
%TO.N,/~{FIRQ}*%
X173340471Y-62788800D02*
X177499297Y-58629974D01*
X158750000Y-105918000D02*
X160020000Y-107188000D01*
X156189700Y-62788800D02*
X173340471Y-62788800D01*
X177499297Y-54633103D02*
X182106200Y-50026200D01*
X185623200Y-46509200D02*
X185623200Y-42799000D01*
X186537600Y-41884600D02*
X186690000Y-41884600D01*
X177499297Y-58629974D02*
X177499297Y-54633103D01*
X156189700Y-105897700D02*
X156189700Y-62788800D01*
X156210000Y-105918000D02*
X156189700Y-105897700D01*
X182106200Y-50026200D02*
X185623200Y-46509200D01*
X156210000Y-105918000D02*
X158750000Y-105918000D01*
X154940000Y-107188000D02*
X156210000Y-105918000D01*
X185623200Y-42799000D02*
X186537600Y-41884600D01*
%TO.N,Net-(L58-A)*%
X236880400Y-118329200D02*
X236783500Y-118232300D01*
X236783500Y-118232300D02*
X236783500Y-117219600D01*
%TO.N,Net-(L59-A)*%
X234340400Y-118329200D02*
X233501900Y-118329200D01*
X233501900Y-118329200D02*
X233275800Y-118555300D01*
%TO.N,/~{Dev_3}*%
X157480000Y-109728000D02*
X158485400Y-110733400D01*
X199113000Y-99440900D02*
X199316300Y-99644200D01*
X161554600Y-110733400D02*
X162560000Y-109728000D01*
X158485400Y-110733400D02*
X161554600Y-110733400D01*
X199491600Y-99819500D02*
X199113000Y-99440900D01*
X197463000Y-105526800D02*
X198437999Y-105526800D01*
X199113000Y-99440900D02*
X199113000Y-99256900D01*
X199491600Y-104473199D02*
X199491600Y-99819500D01*
X198437999Y-105526800D02*
X199491600Y-104473199D01*
X199113000Y-99256900D02*
X199113000Y-60932700D01*
%TO.N,~{Write}*%
X208686400Y-85115400D02*
X207493700Y-83922700D01*
X207493700Y-83922700D02*
X207493700Y-73432500D01*
X207493700Y-73432500D02*
X202311000Y-68249800D01*
%TO.N,~{Read}*%
X207695800Y-95580200D02*
X206883000Y-94767400D01*
X189052200Y-94488000D02*
X189052200Y-95401886D01*
X207695800Y-95633112D02*
X207695800Y-95580200D01*
X185928000Y-111395400D02*
X186021400Y-111488800D01*
X206883000Y-94767400D02*
X206883000Y-94564200D01*
X189052200Y-95401886D02*
X185928000Y-98526086D01*
X208686400Y-97815400D02*
X208686400Y-96623712D01*
X189357000Y-62458600D02*
X189357000Y-62407800D01*
X189052200Y-94488000D02*
X190042800Y-93497400D01*
X190042800Y-93497400D02*
X190042800Y-63144400D01*
X185928000Y-98526086D02*
X185928000Y-111395400D01*
X190042800Y-63144400D02*
X189357000Y-62458600D01*
X208686400Y-96623712D02*
X207695800Y-95633112D01*
%TO.N,/BootSrc*%
X180804900Y-43307000D02*
X180804900Y-48506000D01*
%TO.N,/RomMapped*%
X174739700Y-89223000D02*
X176158200Y-87804500D01*
X178985777Y-67394653D02*
X178723400Y-67132276D01*
X178760500Y-72743677D02*
X178985777Y-72518400D01*
X178985777Y-72518400D02*
X178985777Y-67394653D01*
X174945001Y-104140000D02*
X174739700Y-103934699D01*
X176158200Y-80721900D02*
X178760500Y-78119600D01*
X178760500Y-78119600D02*
X178760500Y-72743677D01*
X178723400Y-55522531D02*
X179323317Y-54922614D01*
X175920000Y-104140000D02*
X174945001Y-104140000D01*
X174739700Y-103934699D02*
X174739700Y-89223000D01*
X178723400Y-67132276D02*
X178723400Y-55522531D01*
X176158200Y-87804500D02*
X176158200Y-80721900D01*
%TO.N,~{ROM}*%
X204105000Y-93785600D02*
X204114400Y-93795000D01*
X177025100Y-100918300D02*
X177025800Y-100917600D01*
X207313700Y-101522700D02*
X208686400Y-102895400D01*
X204105000Y-82618800D02*
X201545900Y-80059700D01*
X207313700Y-96994300D02*
X207313700Y-101522700D01*
X201545900Y-80059700D02*
X201545900Y-62204600D01*
X204105000Y-93785600D02*
X204105000Y-82618800D01*
X176601700Y-100918300D02*
X177025100Y-100918300D01*
X204114400Y-93795000D02*
X204114400Y-96037400D01*
X204105000Y-93785600D02*
X207313700Y-96994300D01*
X175920000Y-101600000D02*
X176601700Y-100918300D01*
%TO.N,~{RAM}*%
X183387200Y-103848600D02*
X182434000Y-102895400D01*
X184082900Y-95903000D02*
X185055000Y-95903000D01*
X183537700Y-63373800D02*
X183537700Y-62570900D01*
X180885000Y-105358900D02*
X181514000Y-104729900D01*
X184242500Y-64078600D02*
X183537700Y-63373800D01*
X181544900Y-110578300D02*
X180885000Y-109918400D01*
X185089000Y-95869000D02*
X185089000Y-70240900D01*
X182434000Y-102895400D02*
X183349700Y-101979700D01*
X183349700Y-101979700D02*
X183349700Y-97115000D01*
X183310200Y-97075500D02*
X183310200Y-96675700D01*
X182434000Y-102895400D02*
X182220000Y-102895400D01*
X184540100Y-64078600D02*
X184242500Y-64078600D01*
X185572400Y-65110900D02*
X184540100Y-64078600D01*
X185055000Y-95903000D02*
X185089000Y-95869000D01*
X185089000Y-70240900D02*
X185572400Y-69757500D01*
X183104700Y-104729900D02*
X183387200Y-104447400D01*
X180885000Y-109918400D02*
X180885000Y-105358900D01*
X183310200Y-96675700D02*
X184082900Y-95903000D01*
X183387200Y-104447400D02*
X183387200Y-103848600D01*
X183537700Y-62570900D02*
X183537600Y-62570900D01*
X185572400Y-69757500D02*
X185572400Y-65110900D01*
X181514000Y-104729900D02*
X183104700Y-104729900D01*
X183349700Y-97115000D02*
X183310200Y-97075500D01*
%TO.N,Net-(L6-K)*%
X187915040Y-121650000D02*
X189230000Y-121650000D01*
X187909200Y-121655840D02*
X187915040Y-121650000D01*
%TO.N,Net-(L7-K)*%
X185481470Y-121650000D02*
X186690000Y-121650000D01*
X185480960Y-121649490D02*
X185481470Y-121650000D01*
%TO.N,Net-(LSys1-K)*%
X245618000Y-68691000D02*
X246458300Y-68691000D01*
X246458300Y-68691000D02*
X246681500Y-68914200D01*
%TO.N,Net-(R0-Pad2)*%
X169760300Y-106680000D02*
X171450000Y-108369700D01*
X171450000Y-108369700D02*
X171450000Y-119650000D01*
X169520000Y-106680000D02*
X169760300Y-106680000D01*
%TO.N,Net-(R1-Pad2)*%
X165100000Y-119650000D02*
X165100000Y-105838900D01*
X169338900Y-101600000D02*
X169520000Y-101600000D01*
X165100000Y-105838900D02*
X169338900Y-101600000D01*
%TO.N,Net-(R2-Pad2)*%
X169080600Y-104140000D02*
X167792400Y-105428200D01*
X169520000Y-104140000D02*
X169080600Y-104140000D01*
X167792400Y-119497600D02*
X167640000Y-119650000D01*
X167792400Y-105428200D02*
X167792400Y-119497600D01*
%TO.N,Net-(R3-Pad2)*%
X180245600Y-103553900D02*
X180245600Y-118285600D01*
X180245600Y-118285600D02*
X181610000Y-119650000D01*
X177021700Y-100330000D02*
X180245600Y-103553900D01*
X175920000Y-100330000D02*
X177021700Y-100330000D01*
%TO.N,Net-(R4-Pad2)*%
X177800000Y-104598300D02*
X176071700Y-102870000D01*
X176071700Y-102870000D02*
X175920000Y-102870000D01*
X177800000Y-119650000D02*
X177800000Y-104598300D01*
%TO.N,Net-(R5-Pad2)*%
X173990000Y-107155400D02*
X175735400Y-105410000D01*
X173990000Y-119650000D02*
X173990000Y-107155400D01*
X175735400Y-105410000D02*
X175920000Y-105410000D01*
%TO.N,Net-(R6-Pad2)*%
X189230000Y-119650000D02*
X189230000Y-118900000D01*
X183194999Y-106705400D02*
X182220000Y-106705400D01*
X189230000Y-118900000D02*
X184759600Y-114429600D01*
X184759600Y-114429600D02*
X184759600Y-108270001D01*
X184759600Y-108270001D02*
X183194999Y-106705400D01*
%TO.N,Net-(R7-Pad2)*%
X186690000Y-119650000D02*
X180655400Y-113615400D01*
X180655400Y-113615400D02*
X180655400Y-105229900D01*
X181719900Y-104165400D02*
X182220000Y-104165400D01*
X180655400Y-105229900D02*
X181719900Y-104165400D01*
%TO.N,Net-(R8-Pad2)*%
X182220000Y-101625400D02*
X182081600Y-101625400D01*
X182081600Y-101625400D02*
X180450500Y-103256500D01*
X180450500Y-115950500D02*
X184150000Y-119650000D01*
X180450500Y-103256500D02*
X180450500Y-115950500D01*
%TO.N,Net-(R9-Pad2)*%
X190881000Y-102419700D02*
X190881000Y-110998000D01*
X192493000Y-112610000D02*
X192493000Y-116039000D01*
X197985000Y-118245000D02*
X199390000Y-119650000D01*
X188816700Y-100355400D02*
X190881000Y-102419700D01*
X190881000Y-110998000D02*
X192493000Y-112610000D01*
X188620000Y-100355400D02*
X188816700Y-100355400D01*
X194699000Y-118245000D02*
X197985000Y-118245000D01*
X192493000Y-116039000D02*
X194699000Y-118245000D01*
%TO.N,Net-(R10-Pad2)*%
X192151000Y-116586000D02*
X195215000Y-119650000D01*
X190394400Y-104155600D02*
X190394400Y-111050000D01*
X188620000Y-102895400D02*
X189134200Y-102895400D01*
X195215000Y-119650000D02*
X195580000Y-119650000D01*
X190394400Y-111050000D02*
X192151000Y-112806600D01*
X192151000Y-112806600D02*
X192151000Y-116586000D01*
X189134200Y-102895400D02*
X190394400Y-104155600D01*
%TO.N,Net-(R11-Pad2)*%
X188759000Y-105435400D02*
X188620000Y-105435400D01*
X193040000Y-119650000D02*
X189992800Y-116602800D01*
X189992800Y-106669200D02*
X188759000Y-105435400D01*
X189992800Y-116602800D02*
X189992800Y-106669200D01*
%TO.N,Net-(R12-Pad2)*%
X207010000Y-119650000D02*
X200663000Y-113303000D01*
X197611900Y-106796800D02*
X197463000Y-106796800D01*
X200663000Y-109847900D02*
X197611900Y-106796800D01*
X200663000Y-113303000D02*
X200663000Y-109847900D01*
%TO.N,Net-(R13-Pad2)*%
X202803000Y-117983000D02*
X200497700Y-117983000D01*
X196107200Y-108121400D02*
X196107200Y-104637601D01*
X204470000Y-119650000D02*
X202803000Y-117983000D01*
X197913750Y-109927950D02*
X196107200Y-108121400D01*
X196488001Y-104256800D02*
X197463000Y-104256800D01*
X200497700Y-117983000D02*
X197913750Y-115399050D01*
X196107200Y-104637601D02*
X196488001Y-104256800D01*
X197913750Y-115399050D02*
X197913750Y-109927950D01*
%TO.N,Net-(R14-Pad2)*%
X199085200Y-102517700D02*
X198284300Y-101716800D01*
X201930000Y-119650000D02*
X201856900Y-119650000D01*
X199085200Y-102917500D02*
X199085200Y-102517700D01*
X196663000Y-103621800D02*
X198380900Y-103621800D01*
X198284300Y-101716800D02*
X197463000Y-101716800D01*
X197710550Y-110203350D02*
X195884400Y-108377200D01*
X197710550Y-115503650D02*
X197710550Y-110203350D01*
X201856900Y-119650000D02*
X197710550Y-115503650D01*
X195884400Y-108377200D02*
X195884400Y-104400400D01*
X195884400Y-104400400D02*
X196663000Y-103621800D01*
X198380900Y-103621800D02*
X199085200Y-102917500D01*
%TO.N,Net-(R17-Pad2)*%
X209550000Y-119650000D02*
X205182500Y-115282500D01*
X205182500Y-115282500D02*
X205182500Y-106595000D01*
X205182500Y-106595000D02*
X204114300Y-105526800D01*
X204114300Y-105526800D02*
X203863000Y-105526800D01*
%TO.N,/A_S_16*%
X161026600Y-68081400D02*
X164254500Y-68081400D01*
X160020000Y-69088000D02*
X161026600Y-68081400D01*
X164254500Y-68081400D02*
X165370000Y-69196900D01*
%TO.N,/A_HALT*%
X170384600Y-104703000D02*
X171364300Y-103723300D01*
X161081800Y-71657000D02*
X162121500Y-70617300D01*
X169332100Y-107950000D02*
X168348300Y-106966200D01*
X169520000Y-107950000D02*
X169332100Y-107950000D01*
X162121500Y-70617300D02*
X164250400Y-70617300D01*
X171364300Y-103723300D02*
X171364300Y-81540000D01*
X164250400Y-70617300D02*
X165370000Y-71736900D01*
X168815100Y-104703000D02*
X170384600Y-104703000D01*
X160020000Y-71628000D02*
X161052800Y-71628000D01*
X161052800Y-71628000D02*
X161081800Y-71657000D01*
X168348300Y-105169800D02*
X168815100Y-104703000D01*
X168348300Y-106966200D02*
X168348300Y-105169800D01*
X162322800Y-72898000D02*
X161081800Y-71657000D01*
X162722300Y-72898000D02*
X162322800Y-72898000D01*
X171364300Y-81540000D02*
X162722300Y-72898000D01*
%TO.N,Net-(L0-A)*%
X165100000Y-121650000D02*
X166167100Y-121650000D01*
%TO.N,Net-(L1-A)*%
X167640000Y-121650000D02*
X168699100Y-121650000D01*
%TO.N,/B_S_16*%
X158491100Y-70099100D02*
X161548900Y-70099100D01*
X161548900Y-70099100D02*
X162560000Y-69088000D01*
X157480000Y-69088000D02*
X158491100Y-70099100D01*
X171831000Y-67335400D02*
X172450000Y-67954400D01*
X172450000Y-67954400D02*
X172450000Y-69196900D01*
%TO.N,/~{Dev_1}*%
X190556992Y-57904797D02*
X190285623Y-57904797D01*
X187683500Y-99585700D02*
X190847086Y-96422114D01*
X187482900Y-99786300D02*
X187683500Y-99585700D01*
X188620000Y-101625400D02*
X188459800Y-101625400D01*
X190847086Y-58194891D02*
X190556992Y-57904797D01*
X188459800Y-101625400D02*
X187482900Y-100648500D01*
X187482900Y-100648500D02*
X187482900Y-99786300D01*
X190847086Y-96422114D02*
X190847086Y-58194891D01*
%TO.N,/mA_SHARE_GRANTED*%
X183792800Y-104837599D02*
X183792800Y-96875600D01*
X183194999Y-105435400D02*
X183792800Y-104837599D01*
X163017200Y-78028800D02*
X170956200Y-85967800D01*
X182220000Y-105435400D02*
X183194999Y-105435400D01*
X160020000Y-79248000D02*
X161239200Y-78028800D01*
X161239200Y-78028800D02*
X163017200Y-78028800D01*
X170956200Y-85967800D02*
X170956200Y-92038800D01*
%TO.N,/B_READ*%
X157480000Y-74168000D02*
X158496500Y-73151500D01*
X161543500Y-73151500D02*
X162560000Y-74168000D01*
X158496500Y-73151500D02*
X161543500Y-73151500D01*
%TO.N,/B_SHARE_SELECT*%
X157480000Y-99568000D02*
X158487200Y-100575200D01*
X183128200Y-65991200D02*
X181051200Y-68068200D01*
X181051200Y-76479400D02*
X178333400Y-79197200D01*
X158487200Y-100575200D02*
X161552800Y-100575200D01*
X181051200Y-68068200D02*
X181051200Y-76479400D01*
X161552800Y-100575200D02*
X162560000Y-99568000D01*
%TO.N,Net-(L2-A)*%
X171450000Y-121650000D02*
X170390500Y-121650000D01*
%TO.N,Net-(L3-A)*%
X181610000Y-121650000D02*
X180545400Y-121650000D01*
%TO.N,Net-(L4-A)*%
X179147980Y-121650000D02*
X177800000Y-121650000D01*
X179148740Y-121650760D02*
X179147980Y-121650000D01*
%TO.N,Net-(L5-A)*%
X173990000Y-121650000D02*
X172927500Y-121650000D01*
%TO.N,Net-(L8-A)*%
X184150000Y-121650000D02*
X183087000Y-121650000D01*
%TO.N,Net-(L9-A)*%
X199390000Y-121650000D02*
X198330000Y-121650000D01*
%TO.N,Net-(L10-A)*%
X195580000Y-121650000D02*
X196642400Y-121650000D01*
%TO.N,Net-(L11-A)*%
X193040000Y-121650000D02*
X194107100Y-121650000D01*
%TO.N,Net-(L12-A)*%
X207010000Y-121650000D02*
X205942900Y-121650000D01*
%TO.N,Net-(L13-A)*%
X204470000Y-121650000D02*
X203402900Y-121650000D01*
%TO.N,Net-(L14-A)*%
X201930000Y-121650000D02*
X200862900Y-121650000D01*
%TO.N,Net-(L17-A)*%
X209550000Y-121650000D02*
X208482900Y-121650000D01*
%TO.N,Net-(JP4-B)*%
X205456700Y-104256800D02*
X205466900Y-104267000D01*
X206375000Y-105664000D02*
X206121000Y-105410000D01*
X203863000Y-104256800D02*
X205456700Y-104256800D01*
X206121000Y-104267000D02*
X205466900Y-104267000D01*
X206121000Y-105410000D02*
X206121000Y-104267000D01*
%TO.N,Net-(JP5-B)*%
X205136600Y-99536400D02*
X205241600Y-99431400D01*
X203835000Y-98679000D02*
X204489100Y-98679000D01*
X203863000Y-101716800D02*
X204001200Y-101716800D01*
X204001200Y-101716800D02*
X205136600Y-100581400D01*
X205241600Y-99431400D02*
X204489100Y-98679000D01*
X205241600Y-99431400D02*
X206121000Y-98552000D01*
X205136600Y-100581400D02*
X205136600Y-99536400D01*
%TO.N,Net-(TP39-Pad1)*%
X205096100Y-102986800D02*
X205466900Y-102616000D01*
X203863000Y-102986800D02*
X205096100Y-102986800D01*
X206121000Y-102616000D02*
X205466900Y-102616000D01*
%TO.N,Net-(TP40-Pad1)*%
X203863000Y-100446800D02*
X203716900Y-100446800D01*
X203716900Y-100446800D02*
X201949100Y-98679000D01*
X201295000Y-98679000D02*
X201949100Y-98679000D01*
%TD*%
M02*
