M48
; DRILL file {KiCad 9.0.2} date 2026-08-20T20:50:37+0200
; FORMAT={-:-/ absolute / metric / decimal}
; #@! TF.CreationDate,2026-08-20T20:50:37+02:00
; #@! TF.GenerationSoftware,Kicad,Pcbnew,9.0.2
; #@! TF.FileFunction,Plated,1,4,PTH
FMAT,2
METRIC
; #@! TA.AperFunction,Plated,PTH,ViaDrill
T1C0.305
; #@! TA.AperFunction,Plated,PTH,ComponentDrill
T2C0.800
; #@! TA.AperFunction,Plated,PTH,ComponentDrill
T3C1.000
; #@! TA.AperFunction,Plated,PTH,ComponentDrill
T4C1.016
; #@! TA.AperFunction,Plated,PTH,ComponentDrill
T5C1.100
; #@! TA.AperFunction,Plated,PTH,ComponentDrill
T6C3.200
%
G90
G05
T1
X165.023Y-100.94
X166.161Y-119.237
X166.167Y-121.65
X167.37Y-106.256
X168.483Y-69.391
X168.484Y-109.758
X168.699Y-121.65
X169.333Y-112.281
X169.52Y-99.661
X170.391Y-121.65
X170.45Y-70.493
X170.51Y-92.594
X170.956Y-92.039
X171.532Y-70.06
X171.714Y-56.344
X171.741Y-64.013
X171.753Y-59.969
X171.831Y-67.335
X172.669Y-62.078
X172.927Y-119.801
X172.927Y-121.65
X172.98Y-28.486
X173.076Y-43.358
X173.076Y-47.051
X173.167Y-89.097
X173.71Y-64.06
X174.346Y-64.262
X174.501Y-60.371
X174.549Y-46.175
X174.933Y-62.977
X175.112Y-54.995
X175.133Y-84.379
X175.235Y-83.591
X175.616Y-47.046
X175.762Y-62.98
X175.82Y-56.871
X175.92Y-108.608
X176.008Y-45.229
X176.089Y-72.387
X176.589Y-50.273
X176.813Y-58.12
X177.026Y-100.918
X178.151Y-43.478
X178.151Y-47.048
X178.333Y-79.197
X178.4Y-54.962
X178.503Y-67.595
X178.503Y-72.319
X178.817Y-114.877
X178.92Y-89.157
X179.089Y-50.271
X179.09Y-119.652
X179.131Y-66.584
X179.149Y-121.651
X179.323Y-54.923
X179.324Y-59.487
X179.562Y-65.852
X179.818Y-89.208
X180.213Y-59.009
X180.289Y-58.166
X180.545Y-121.65
X180.746Y-61.29
X180.805Y-43.307
X180.805Y-48.506
X180.913Y-54.952
X181.131Y-50.269
X181.331Y-58.547
X181.34Y-66.549
X181.545Y-110.578
X181.966Y-58.293
X181.991Y-49.403
X182.106Y-50.026
X182.169Y-46.175
X182.196Y-99.658
X182.448Y-67.361
X182.615Y-58.202
X182.931Y-63.602
X182.945Y-55.372
X182.973Y-57.023
X182.978Y-47.051
X183.045Y-74.663
X183.076Y-119.801
X183.087Y-121.65
X183.122Y-73.203
X183.128Y-65.991
X183.156Y-29.677
X183.21Y-56.337
X183.236Y-43.473
X183.275Y-66.664
X183.337Y-59.868
X183.538Y-62.571
X183.772Y-58.239
X183.793Y-96.876
X183.799Y-65.584
X183.916Y-93.259
X183.983Y-58.841
X184.252Y-56.261
X184.252Y-73.279
X184.319Y-50.139
X184.32Y-66.426
X184.342Y-60.274
X184.353Y-86.919
X184.372Y-63.634
X184.385Y-57.914
X184.4Y-97.079
X184.413Y-64.599
X184.63Y-68.673
X184.631Y-42.037
X185.242Y-110.77
X185.387Y-54.61
X185.481Y-121.649
X185.507Y-52.858
X185.928Y-41.91
X186.021Y-111.489
X186.062Y-54.489
X186.157Y-52.959
X186.535Y-54.102
X186.554Y-67.809
X186.69Y-41.885
X186.893Y-69.037
X187.095Y-96.676
X187.35Y-88.163
X187.401Y-54.508
X187.683Y-99.586
X187.754Y-67.788
X187.784Y-98.528
X187.909Y-121.656
X187.918Y-119.652
X188.146Y-68.523
X188.341Y-72.314
X188.417Y-71.099
X188.417Y-88.824
X188.62Y-108.633
X189.052Y-94.488
X189.07Y-49.731
X189.131Y-63.318
X189.16Y-66.635
X189.272Y-65.881
X189.281Y-64.745
X189.306Y-89.332
X189.357Y-62.408
X189.418Y-59.89
X189.473Y-74.625
X189.586Y-73.05
X189.649Y-58.772
X189.841Y-60.797
X189.896Y-61.42
X189.927Y-57.32
X189.928Y-59.432
X189.992Y-62.452
X190.286Y-57.905
X190.398Y-58.55
X190.811Y-99.869
X191.414Y-55.169
X191.466Y-110.847
X191.745Y-85.7
X191.897Y-99.847
X191.935Y-101.74
X192.075Y-64.262
X192.075Y-90.119
X194.101Y-119.237
X194.107Y-121.65
X195.529Y-111.938
X195.827Y-102.566
X196.037Y-84.023
X196.444Y-44.958
X196.571Y-99.212
X196.596Y-100.965
X196.642Y-121.65
X196.977Y-51.003
X196.977Y-96.799
X197.228Y-110.337
X197.587Y-97.333
X198.33Y-121.65
X198.407Y-60.52
X198.603Y-102.718
X199.113Y-60.933
X199.263Y-45.593
X199.316Y-99.644
X199.39Y-40.335
X199.66Y-112.837
X200.101Y-48.514
X200.355Y-116.992
X200.685Y-61.265
X200.831Y-119.275
X200.863Y-121.65
X201.546Y-62.205
X202.311Y-68.25
X203.403Y-121.65
X204.071Y-108.229
X204.114Y-96.037
X204.648Y-97.485
X205.942Y-119.367
X205.943Y-121.65
X206.105Y-84.907
X206.375Y-107.676
X206.883Y-94.564
X208.483Y-121.65
X209.892Y-68.656
X210.058Y-97.333
X210.109Y-55.042
X210.326Y-66.485
X210.545Y-98.17
X210.566Y-55.448
X210.728Y-64.449
X210.882Y-119.645
X211.176Y-55.956
X211.328Y-62.357
X211.52Y-98.585
X211.798Y-61.557
X211.883Y-99.72
X212.014Y-56.49
X212.42Y-103.022
X212.945Y-106.011
X212.979Y-62.865
X213.131Y-49.124
X213.995Y-107.137
X214.097Y-106.223
X214.376Y-42.291
X214.96Y-106.934
X215.47Y-46.94
X215.519Y-27.686
X216.319Y-56.426
X217.373Y-54.356
X218.719Y-64.11
X220.32Y-66.523
X220.497Y-52.222
X226.416Y-36.423
X226.416Y-45.382
X227.94Y-106.019
X227.965Y-40.919
X232.816Y-45.368
X233.264Y-120.017
X233.276Y-118.555
X233.642Y-61.185
X234.34Y-114.958
X236.38Y-102.756
X236.542Y-121.451
X236.783Y-117.22
X239.141Y-79.375
X239.395Y-71.882
X239.649Y-43.84
X239.649Y-76.835
X239.685Y-46.457
X239.686Y-74.203
X239.686Y-48.98
X239.687Y-51.502
X239.688Y-54.025
X239.688Y-56.547
X239.688Y-61.625
X239.689Y-59.07
X240.806Y-95.975
X240.825Y-101.175
X240.935Y-106.242
X240.935Y-111.325
X241.935Y-116.383
X243.967Y-92.227
X245.618Y-65.567
X246.681Y-68.914
X246.694Y-66.853
T2
X164.465Y-29.845
X166.965Y-29.845
X167.64Y-49.53
X170.14Y-49.53
X176.53Y-116.84
X177.165Y-82.423
X179.03Y-116.84
X179.07Y-86.995
X179.665Y-82.423
X181.57Y-86.995
X186.055Y-71.12
X186.055Y-73.62
X188.595Y-29.21
X188.595Y-115.57
X190.5Y-44.45
X190.5Y-46.95
X191.095Y-29.21
X191.095Y-115.57
X193.446Y-29.235
X193.446Y-31.775
X193.446Y-34.315
X193.446Y-36.855
X193.446Y-39.395
X193.446Y-41.935
X193.446Y-44.475
X193.446Y-47.015
X193.446Y-49.555
X193.446Y-52.095
X193.446Y-54.635
X193.446Y-57.175
X193.446Y-59.715
X193.446Y-62.255
X193.446Y-64.795
X193.446Y-67.335
X193.446Y-69.875
X193.446Y-72.415
X193.446Y-74.955
X193.446Y-77.495
X193.446Y-82.575
X193.446Y-85.115
X193.446Y-87.655
X193.446Y-90.195
X193.446Y-92.735
X193.446Y-95.275
X193.446Y-97.815
X193.446Y-100.355
X193.446Y-102.895
X193.446Y-105.435
X193.446Y-107.975
X193.446Y-110.515
X193.446Y-113.055
X193.446Y-115.595
X208.686Y-29.235
X208.686Y-31.775
X208.686Y-34.315
X208.686Y-36.855
X208.686Y-39.395
X208.686Y-41.935
X208.686Y-44.475
X208.686Y-47.015
X208.686Y-49.555
X208.686Y-52.095
X208.686Y-54.635
X208.686Y-57.175
X208.686Y-59.715
X208.686Y-62.255
X208.686Y-64.795
X208.686Y-67.335
X208.686Y-69.875
X208.686Y-72.415
X208.686Y-74.955
X208.686Y-77.495
X208.686Y-82.575
X208.686Y-85.115
X208.686Y-87.655
X208.686Y-90.195
X208.686Y-92.735
X208.686Y-95.275
X208.686Y-97.815
X208.686Y-100.355
X208.686Y-102.895
X208.686Y-105.435
X208.686Y-107.975
X208.686Y-110.515
X208.686Y-113.055
X208.686Y-115.595
X210.922Y-50.978
X212.344Y-88.011
X212.725Y-82.55
X213.422Y-50.978
X213.783Y-32.217
X213.783Y-37.097
X214.844Y-88.011
X215.225Y-82.55
X217.17Y-108.458
X217.17Y-110.998
X217.17Y-113.538
X217.17Y-116.078
X217.464Y-81.788
X217.464Y-84.328
X217.464Y-86.868
X217.464Y-89.408
X218.567Y-96.212
X218.567Y-101.092
X219.007Y-29.541
X219.007Y-32.041
X219.007Y-35.167
X219.007Y-37.667
X219.67Y-108.458
X219.67Y-110.998
X219.67Y-113.538
X219.67Y-116.078
X219.964Y-81.788
X219.964Y-84.328
X219.964Y-86.868
X219.964Y-89.408
X222.758Y-28.956
X223.52Y-34.925
X223.52Y-37.465
X223.52Y-40.005
X223.52Y-42.545
X223.52Y-45.085
X223.52Y-47.625
X223.52Y-50.165
X223.52Y-52.705
X223.52Y-55.245
X223.52Y-57.785
X223.52Y-60.325
X223.52Y-62.865
X223.52Y-65.405
X223.52Y-67.945
X223.52Y-70.485
X223.52Y-73.025
X223.52Y-75.565
X223.52Y-78.105
X223.52Y-80.645
X223.52Y-83.185
X223.52Y-87.63
X223.52Y-90.17
X223.52Y-92.71
X223.52Y-95.25
X223.52Y-97.79
X223.52Y-100.33
X223.52Y-102.87
X223.52Y-105.41
X223.52Y-107.95
X223.52Y-110.49
X223.52Y-113.03
X223.52Y-115.57
X225.258Y-28.956
X227.457Y-118.72
X229.957Y-118.72
X231.18Y-32.385
X233.68Y-32.385
X238.76Y-34.925
X238.76Y-37.465
X238.76Y-40.005
X238.76Y-42.545
X238.76Y-45.085
X238.76Y-47.625
X238.76Y-50.165
X238.76Y-52.705
X238.76Y-55.245
X238.76Y-57.785
X238.76Y-60.325
X238.76Y-62.865
X238.76Y-65.405
X238.76Y-67.945
X238.76Y-70.485
X238.76Y-73.025
X238.76Y-75.565
X238.76Y-78.105
X238.76Y-80.645
X238.76Y-83.185
X238.76Y-87.63
X238.76Y-90.17
X238.76Y-92.71
X238.76Y-95.25
X238.76Y-97.79
X238.76Y-100.33
X238.76Y-102.87
X238.76Y-105.41
X238.76Y-107.95
X238.76Y-110.49
X238.76Y-113.03
X238.76Y-115.57
X242.57Y-66.04
X242.57Y-68.54
T3
X154.94Y-36.068
X154.94Y-38.608
X154.94Y-41.148
X154.94Y-43.688
X154.94Y-46.228
X154.94Y-48.768
X154.94Y-51.308
X154.94Y-53.848
X154.94Y-56.388
X154.94Y-58.928
X154.94Y-61.468
X154.94Y-64.008
X154.94Y-66.548
X154.94Y-69.088
X154.94Y-71.628
X154.94Y-74.168
X154.94Y-76.708
X154.94Y-79.248
X154.94Y-81.788
X154.94Y-84.328
X154.94Y-86.868
X154.94Y-89.408
X154.94Y-91.948
X154.94Y-94.488
X154.94Y-97.028
X154.94Y-99.568
X154.94Y-102.108
X154.94Y-104.648
X154.94Y-107.188
X154.94Y-109.728
X154.94Y-112.268
X154.94Y-114.808
X157.48Y-36.068
X157.48Y-38.608
X157.48Y-41.148
X157.48Y-43.688
X157.48Y-46.228
X157.48Y-48.768
X157.48Y-51.308
X157.48Y-53.848
X157.48Y-56.388
X157.48Y-58.928
X157.48Y-61.468
X157.48Y-64.008
X157.48Y-66.548
X157.48Y-69.088
X157.48Y-71.628
X157.48Y-74.168
X157.48Y-76.708
X157.48Y-79.248
X157.48Y-81.788
X157.48Y-84.328
X157.48Y-86.868
X157.48Y-89.408
X157.48Y-91.948
X157.48Y-94.488
X157.48Y-97.028
X157.48Y-99.568
X157.48Y-102.108
X157.48Y-104.648
X157.48Y-107.188
X157.48Y-109.728
X157.48Y-112.268
X157.48Y-114.808
X160.02Y-36.068
X160.02Y-38.608
X160.02Y-41.148
X160.02Y-43.688
X160.02Y-46.228
X160.02Y-48.768
X160.02Y-51.308
X160.02Y-53.848
X160.02Y-56.388
X160.02Y-58.928
X160.02Y-61.468
X160.02Y-64.008
X160.02Y-66.548
X160.02Y-69.088
X160.02Y-71.628
X160.02Y-74.168
X160.02Y-76.708
X160.02Y-79.248
X160.02Y-81.788
X160.02Y-84.328
X160.02Y-86.868
X160.02Y-89.408
X160.02Y-91.948
X160.02Y-94.488
X160.02Y-97.028
X160.02Y-99.568
X160.02Y-102.108
X160.02Y-104.648
X160.02Y-107.188
X160.02Y-109.728
X160.02Y-112.268
X160.02Y-114.808
X162.56Y-36.068
X162.56Y-38.608
X162.56Y-41.148
X162.56Y-43.688
X162.56Y-46.228
X162.56Y-48.768
X162.56Y-51.308
X162.56Y-53.848
X162.56Y-56.388
X162.56Y-58.928
X162.56Y-61.468
X162.56Y-64.008
X162.56Y-66.548
X162.56Y-69.088
X162.56Y-71.628
X162.56Y-74.168
X162.56Y-76.708
X162.56Y-79.248
X162.56Y-81.788
X162.56Y-84.328
X162.56Y-86.868
X162.56Y-89.408
X162.56Y-91.948
X162.56Y-94.488
X162.56Y-97.028
X162.56Y-99.568
X162.56Y-102.108
X162.56Y-104.648
X162.56Y-107.188
X162.56Y-109.728
X162.56Y-112.268
X162.56Y-114.808
X173.242Y-36.261
X173.242Y-38.801
X175.782Y-36.261
X175.782Y-38.801
X176.859Y-29.646
X178.322Y-36.261
X178.322Y-38.801
X179.399Y-29.646
X180.862Y-36.261
X180.862Y-38.801
X181.939Y-29.646
X183.402Y-36.261
X183.402Y-38.801
X212.304Y-58.556
X214.296Y-70.151
X214.296Y-72.691
X214.296Y-75.231
X214.296Y-77.771
X216.836Y-70.151
X216.836Y-72.691
X216.836Y-75.231
X216.836Y-77.771
X219.904Y-58.556
X229.362Y-123.165
X231.902Y-123.165
X234.442Y-123.165
X236.982Y-123.165
X241.935Y-35.56
X241.935Y-38.1
X241.935Y-40.64
X250.19Y-38.735
X250.19Y-41.275
X250.19Y-43.815
X250.19Y-46.355
X250.19Y-48.895
X250.19Y-51.435
X250.19Y-53.975
X250.19Y-56.515
X250.19Y-59.055
X250.19Y-61.595
X250.19Y-66.675
X250.19Y-69.215
X250.19Y-71.755
X250.19Y-74.295
X250.19Y-76.835
X250.19Y-79.375
X250.19Y-81.915
X250.19Y-84.455
X250.19Y-89.535
X250.19Y-92.075
X250.19Y-94.615
X250.19Y-97.155
X250.19Y-99.695
X250.19Y-102.235
X250.19Y-104.775
X250.19Y-107.315
X250.19Y-109.855
X250.19Y-112.395
T4
X214.351Y-119.071
X214.351Y-123.571
X220.851Y-119.071
X220.851Y-123.571
T5
X213.97Y-115.799
X226.06Y-64.77
X226.06Y-67.31
X226.06Y-69.85
X226.06Y-72.39
X226.06Y-74.93
X226.06Y-77.47
X226.06Y-80.01
X226.06Y-82.55
X226.06Y-90.17
X226.06Y-92.71
X226.06Y-95.25
X226.06Y-97.79
X226.06Y-100.33
X226.06Y-102.87
X228.6Y-48.26
X228.6Y-64.77
X228.6Y-67.31
X228.6Y-69.85
X228.6Y-72.39
X228.6Y-74.93
X228.6Y-77.47
X228.6Y-80.01
X228.6Y-82.55
X228.6Y-90.17
X228.6Y-92.71
X228.6Y-95.25
X228.6Y-97.79
X228.6Y-100.33
X228.6Y-102.87
X231.14Y-48.26
X231.14Y-64.77
X231.14Y-67.31
X231.14Y-69.85
X231.14Y-72.39
X231.14Y-74.93
X231.14Y-77.47
X231.14Y-80.01
X231.14Y-82.55
X231.14Y-87.63
X231.14Y-90.17
X231.14Y-92.71
X231.14Y-95.25
X231.14Y-97.79
X231.14Y-100.33
X231.14Y-102.87
X233.68Y-48.26
X233.68Y-64.77
X233.68Y-67.31
X233.68Y-69.85
X233.68Y-72.39
X233.68Y-74.93
X233.68Y-77.47
X233.68Y-80.01
X233.68Y-82.55
X233.68Y-90.17
X233.68Y-92.71
X233.68Y-95.25
X233.68Y-97.79
X233.68Y-100.33
X233.68Y-102.87
X236.22Y-64.77
X236.22Y-67.31
X236.22Y-69.85
X236.22Y-72.39
X236.22Y-74.93
X236.22Y-77.47
X236.22Y-80.01
X236.22Y-82.55
X236.22Y-87.63
X236.22Y-90.17
X236.22Y-92.71
X236.22Y-95.25
X236.22Y-97.79
X236.22Y-100.33
T6
X157.4Y-30.4
X157.4Y-120.4
X247.4Y-30.4
X247.4Y-120.4
M30
