%TF.GenerationSoftware,KiCad,Pcbnew,9.0.2*%
%TF.CreationDate,2026-08-20T20:50:25+02:00*%
%TF.ProjectId,retro-003,72657472-6f2d-4303-9033-2e6b69636164,rev?*%
%TF.SameCoordinates,Original*%
%TF.FileFunction,Soldermask,Top*%
%TF.FilePolarity,Negative*%
%FSLAX46Y46*%
G04 Gerber Fmt 4.6, Leading zero omitted, Abs format (unit mm)*
G04 Created by KiCad (PCBNEW 9.0.2) date 2026-08-20 20:50:25*
%MOMM*%
%LPD*%
G01*
G04 APERTURE LIST*
G04 Aperture macros list*
%AMRoundRect*
0 Rectangle with rounded corners*
0 $1 Rounding radius*
0 $2 $3 $4 $5 $6 $7 $8 $9 X,Y pos of 4 corners*
0 Add a 4 corners polygon primitive as box body*
4,1,4,$2,$3,$4,$5,$6,$7,$8,$9,$2,$3,0*
0 Add four circle primitives for the rounded corners*
1,1,$1+$1,$2,$3*
1,1,$1+$1,$4,$5*
1,1,$1+$1,$6,$7*
1,1,$1+$1,$8,$9*
0 Add four rect primitives between the rounded corners*
20,1,$1+$1,$2,$3,$4,$5,0*
20,1,$1+$1,$4,$5,$6,$7,0*
20,1,$1+$1,$6,$7,$8,$9,0*
20,1,$1+$1,$8,$9,$2,$3,0*%
G04 Aperture macros list end*
%ADD10RoundRect,0.291666X0.408334X-0.458334X0.408334X0.458334X-0.408334X0.458334X-0.408334X-0.458334X0*%
%ADD11RoundRect,0.250000X-0.550000X-0.550000X0.550000X-0.550000X0.550000X0.550000X-0.550000X0.550000X0*%
%ADD12C,1.600000*%
%ADD13RoundRect,0.291666X-0.458334X-0.408334X0.458334X-0.408334X0.458334X0.408334X-0.458334X0.408334X0*%
%ADD14RoundRect,0.350000X0.350000X-0.400000X0.350000X0.400000X-0.350000X0.400000X-0.350000X-0.400000X0*%
%ADD15RoundRect,0.171450X-0.400050X1.289050X-0.400050X-1.289050X0.400050X-1.289050X0.400050X1.289050X0*%
%ADD16RoundRect,0.075000X-0.075000X1.712500X-0.075000X-1.712500X0.075000X-1.712500X0.075000X1.712500X0*%
%ADD17RoundRect,0.350000X-0.350000X0.400000X-0.350000X-0.400000X0.350000X-0.400000X0.350000X0.400000X0*%
%ADD18RoundRect,0.250001X-0.799999X-0.799999X0.799999X-0.799999X0.799999X0.799999X-0.799999X0.799999X0*%
%ADD19C,6.400000*%
%ADD20O,3.000000X2.000000*%
%ADD21RoundRect,0.250001X0.799999X-0.799999X0.799999X0.799999X-0.799999X0.799999X-0.799999X-0.799999X0*%
%ADD22RoundRect,0.350000X-0.400000X-0.350000X0.400000X-0.350000X0.400000X0.350000X-0.400000X0.350000X0*%
%ADD23R,1.700000X1.700000*%
%ADD24C,1.700000*%
%ADD25C,1.500000*%
%ADD26RoundRect,0.250000X0.450000X-0.262500X0.450000X0.262500X-0.450000X0.262500X-0.450000X-0.262500X0*%
%ADD27RoundRect,0.250000X0.550000X0.550000X-0.550000X0.550000X-0.550000X-0.550000X0.550000X-0.550000X0*%
%ADD28RoundRect,0.291666X0.458334X0.408334X-0.458334X0.408334X-0.458334X-0.408334X0.458334X-0.408334X0*%
%ADD29O,4.000000X0.200000*%
%ADD30R,1.766000X0.270000*%
%ADD31R,0.270000X1.766000*%
%ADD32O,0.200000X4.000000*%
%ADD33R,2.000000X2.000000*%
%ADD34C,2.000000*%
%ADD35RoundRect,0.250000X0.600000X-0.600000X0.600000X0.600000X-0.600000X0.600000X-0.600000X-0.600000X0*%
G04 APERTURE END LIST*
D10*
%TO.C,R95*%
X174047400Y-30594800D03*
X174047400Y-28594800D03*
%TD*%
D11*
%TO.C,U14*%
X193446400Y-82575400D03*
D12*
X193446400Y-85115400D03*
X193446400Y-87655400D03*
X193446400Y-90195400D03*
X193446400Y-92735400D03*
X193446400Y-95275400D03*
X193446400Y-97815400D03*
X193446400Y-100355400D03*
X193446400Y-102895400D03*
X193446400Y-105435400D03*
X193446400Y-107975400D03*
X193446400Y-110515400D03*
X193446400Y-113055400D03*
X193446400Y-115595400D03*
X208686400Y-115595400D03*
X208686400Y-113055400D03*
X208686400Y-110515400D03*
X208686400Y-107975400D03*
X208686400Y-105435400D03*
X208686400Y-102895400D03*
X208686400Y-100355400D03*
X208686400Y-97815400D03*
X208686400Y-95275400D03*
X208686400Y-92735400D03*
X208686400Y-90195400D03*
X208686400Y-87655400D03*
X208686400Y-85115400D03*
X208686400Y-82575400D03*
%TD*%
D13*
%TO.C,R81*%
X244745000Y-51435000D03*
X246745000Y-51435000D03*
%TD*%
D14*
%TO.C,L7*%
X186690000Y-121650000D03*
X186690000Y-119650000D03*
%TD*%
D11*
%TO.C,Cx15*%
X222758000Y-28956000D03*
D12*
X225258000Y-28956000D03*
%TD*%
D15*
%TO.C,M3*%
X183816800Y-91122500D03*
X174317200Y-91122500D03*
X183816800Y-112966500D03*
X174317200Y-112966500D03*
D16*
X182817000Y-91357000D03*
X182317000Y-91357000D03*
X181817000Y-91357000D03*
X181317000Y-91357000D03*
X180817000Y-91357000D03*
X180317000Y-91357000D03*
X179817000Y-91357000D03*
X179317000Y-91357000D03*
X178817000Y-91357000D03*
X178317000Y-91357000D03*
X177817000Y-91357000D03*
X177317000Y-91357000D03*
X176817000Y-91357000D03*
X176317000Y-91357000D03*
X175817000Y-91357000D03*
X175317000Y-91357000D03*
X175317000Y-112732000D03*
X175817000Y-112732000D03*
X176317000Y-112732000D03*
X176817000Y-112732000D03*
X177317000Y-112732000D03*
X177817000Y-112732000D03*
X178317000Y-112732000D03*
X178817000Y-112732000D03*
X179317000Y-112732000D03*
X179817000Y-112732000D03*
X180317000Y-112732000D03*
X180817000Y-112732000D03*
X181317000Y-112732000D03*
X181817000Y-112732000D03*
X182317000Y-112732000D03*
X182817000Y-112732000D03*
%TD*%
D14*
%TO.C,L6*%
X189230000Y-121650000D03*
X189230000Y-119650000D03*
%TD*%
D13*
%TO.C,R78*%
X244745000Y-59055000D03*
X246745000Y-59055000D03*
%TD*%
D17*
%TO.C,L11*%
X193040000Y-119650000D03*
X193040000Y-121650000D03*
%TD*%
D18*
%TO.C,J48*%
X231140000Y-77470000D03*
%TD*%
D19*
%TO.C,H8*%
X157400000Y-120400000D03*
%TD*%
D13*
%TO.C,R73*%
X244745000Y-102235000D03*
X246745000Y-102235000D03*
%TD*%
D18*
%TO.C,J106*%
X233680000Y-48260000D03*
%TD*%
%TO.C,J75*%
X226060000Y-90170000D03*
%TD*%
D17*
%TO.C,L5*%
X173990000Y-119650000D03*
X173990000Y-121650000D03*
%TD*%
D12*
%TO.C,Cx18*%
X242570000Y-66040000D03*
X242570000Y-68540000D03*
%TD*%
D13*
%TO.C,R48*%
X165370000Y-104775000D03*
X167370000Y-104775000D03*
%TD*%
D17*
%TO.C,L17*%
X209550000Y-119650000D03*
X209550000Y-121650000D03*
%TD*%
D13*
%TO.C,R76*%
X244745000Y-94615000D03*
X246745000Y-94615000D03*
%TD*%
D18*
%TO.C,J56*%
X233680000Y-77470000D03*
%TD*%
%TO.C,J86*%
X226060000Y-74930000D03*
%TD*%
%TO.C,J98*%
X231140000Y-48260000D03*
%TD*%
D12*
%TO.C,C2*%
X219007200Y-37667200D03*
X219007200Y-35167200D03*
%TD*%
D20*
%TO.C,S1*%
X214350600Y-119071000D03*
X220850600Y-119071000D03*
X214350600Y-123571000D03*
X220850600Y-123571000D03*
%TD*%
D21*
%TO.C,J57*%
X236220000Y-92710000D03*
%TD*%
D14*
%TO.C,LSys1*%
X245618000Y-68691000D03*
X245618000Y-66691000D03*
%TD*%
D18*
%TO.C,J103*%
X233680000Y-100330000D03*
%TD*%
D13*
%TO.C,R84*%
X244745000Y-43815000D03*
X246745000Y-43815000D03*
%TD*%
D21*
%TO.C,J49*%
X236220000Y-95250000D03*
%TD*%
D13*
%TO.C,R77*%
X244745000Y-61595000D03*
X246745000Y-61595000D03*
%TD*%
D18*
%TO.C,J94*%
X231140000Y-97790000D03*
%TD*%
D22*
%TO.C,L37*%
X240935000Y-109855000D03*
X242935000Y-109855000D03*
%TD*%
D23*
%TO.C,J6*%
X160020000Y-36068000D03*
D24*
X162560000Y-36068000D03*
X160020000Y-38608000D03*
X162560000Y-38608000D03*
X160020000Y-41148000D03*
X162560000Y-41148000D03*
X160020000Y-43688000D03*
X162560000Y-43688000D03*
X160020000Y-46228000D03*
X162560000Y-46228000D03*
X160020000Y-48768000D03*
X162560000Y-48768000D03*
X160020000Y-51308000D03*
X162560000Y-51308000D03*
X160020000Y-53848000D03*
X162560000Y-53848000D03*
X160020000Y-56388000D03*
X162560000Y-56388000D03*
X160020000Y-58928000D03*
X162560000Y-58928000D03*
X160020000Y-61468000D03*
X162560000Y-61468000D03*
X160020000Y-64008000D03*
X162560000Y-64008000D03*
X160020000Y-66548000D03*
X162560000Y-66548000D03*
X160020000Y-69088000D03*
X162560000Y-69088000D03*
X160020000Y-71628000D03*
X162560000Y-71628000D03*
X160020000Y-74168000D03*
X162560000Y-74168000D03*
X160020000Y-76708000D03*
X162560000Y-76708000D03*
X160020000Y-79248000D03*
X162560000Y-79248000D03*
X160020000Y-81788000D03*
X162560000Y-81788000D03*
X160020000Y-84328000D03*
X162560000Y-84328000D03*
X160020000Y-86868000D03*
X162560000Y-86868000D03*
X160020000Y-89408000D03*
X162560000Y-89408000D03*
X160020000Y-91948000D03*
X162560000Y-91948000D03*
X160020000Y-94488000D03*
X162560000Y-94488000D03*
X160020000Y-97028000D03*
X162560000Y-97028000D03*
X160020000Y-99568000D03*
X162560000Y-99568000D03*
X160020000Y-102108000D03*
X162560000Y-102108000D03*
X160020000Y-104648000D03*
X162560000Y-104648000D03*
X160020000Y-107188000D03*
X162560000Y-107188000D03*
X160020000Y-109728000D03*
X162560000Y-109728000D03*
X160020000Y-112268000D03*
X162560000Y-112268000D03*
X160020000Y-114808000D03*
X162560000Y-114808000D03*
%TD*%
D19*
%TO.C,H7*%
X247400000Y-120400000D03*
%TD*%
D22*
%TO.C,L56*%
X240935000Y-81915000D03*
X242935000Y-81915000D03*
%TD*%
D13*
%TO.C,R52*%
X212360000Y-43923900D03*
X214360000Y-43923900D03*
%TD*%
D18*
%TO.C,J64*%
X236220000Y-77470000D03*
%TD*%
D17*
%TO.C,L12*%
X207010000Y-119650000D03*
X207010000Y-121650000D03*
%TD*%
D13*
%TO.C,R88*%
X244745000Y-79375000D03*
X246745000Y-79375000D03*
%TD*%
D22*
%TO.C,L44*%
X240935000Y-61595000D03*
X242935000Y-61595000D03*
%TD*%
D17*
%TO.C,L4*%
X177800000Y-119650000D03*
X177800000Y-121650000D03*
%TD*%
D22*
%TO.C,L52*%
X240935000Y-71755000D03*
X242935000Y-71755000D03*
%TD*%
D12*
%TO.C,Cx23*%
X217170000Y-116078000D03*
X219670000Y-116078000D03*
%TD*%
D11*
%TO.C,Cx27*%
X212344000Y-88011000D03*
D12*
X214844000Y-88011000D03*
%TD*%
%TO.C,Cx22*%
X219964000Y-81788000D03*
X217464000Y-81788000D03*
%TD*%
D25*
%TO.C,Y1*%
X218567000Y-101092000D03*
X218567000Y-96212000D03*
%TD*%
D18*
%TO.C,J59*%
X231140000Y-64770000D03*
%TD*%
D13*
%TO.C,R70*%
X244745000Y-109855000D03*
X246745000Y-109855000D03*
%TD*%
D18*
%TO.C,J80*%
X228600000Y-102870000D03*
%TD*%
D22*
%TO.C,L51*%
X240935000Y-43815000D03*
X242935000Y-43815000D03*
%TD*%
D12*
%TO.C,C1*%
X219007200Y-29541200D03*
X219007200Y-32041200D03*
%TD*%
D18*
%TO.C,J46*%
X231140000Y-72390000D03*
%TD*%
D19*
%TO.C,H6*%
X247400000Y-30400000D03*
%TD*%
D18*
%TO.C,J39*%
X228600000Y-74930000D03*
%TD*%
D13*
%TO.C,R51*%
X212360000Y-47008000D03*
X214360000Y-47008000D03*
%TD*%
D18*
%TO.C,J50*%
X231140000Y-80010000D03*
%TD*%
D23*
%TO.C,PB1*%
X250190000Y-61595000D03*
D24*
X250190000Y-59055000D03*
X250190000Y-56515000D03*
X250190000Y-53975000D03*
X250190000Y-51435000D03*
X250190000Y-48895000D03*
X250190000Y-46355000D03*
X250190000Y-43815000D03*
X250190000Y-41275000D03*
X250190000Y-38735000D03*
%TD*%
D18*
%TO.C,J89*%
X226060000Y-64770000D03*
%TD*%
%TO.C,J5*%
X231140000Y-87630000D03*
%TD*%
%TO.C,J77*%
X226060000Y-95250000D03*
%TD*%
D12*
%TO.C,Cx24*%
X217170000Y-113538000D03*
X219670000Y-113538000D03*
%TD*%
D26*
%TO.C,R44*%
X173070600Y-46175300D03*
X173070600Y-44350300D03*
%TD*%
D18*
%TO.C,J96*%
X231140000Y-102870000D03*
%TD*%
%TO.C,J72*%
X226060000Y-102870000D03*
%TD*%
D23*
%TO.C,PA1*%
X250190000Y-112395000D03*
D24*
X250190000Y-109855000D03*
X250190000Y-107315000D03*
X250190000Y-104775000D03*
X250190000Y-102235000D03*
X250190000Y-99695000D03*
X250190000Y-97155000D03*
X250190000Y-94615000D03*
X250190000Y-92075000D03*
X250190000Y-89535000D03*
%TD*%
D17*
%TO.C,L2*%
X171450000Y-119650000D03*
X171450000Y-121650000D03*
%TD*%
D18*
%TO.C,J81*%
X228600000Y-82550000D03*
%TD*%
D21*
%TO.C,J65*%
X236220000Y-90170000D03*
%TD*%
D14*
%TO.C,L59*%
X234340400Y-120329200D03*
X234340400Y-118329200D03*
%TD*%
D18*
%TO.C,J51*%
X233680000Y-67310000D03*
%TD*%
D17*
%TO.C,L8*%
X184150000Y-119650000D03*
X184150000Y-121650000D03*
%TD*%
D14*
%TO.C,L58*%
X236880400Y-120329200D03*
X236880400Y-118329200D03*
%TD*%
D22*
%TO.C,L55*%
X240935000Y-79375000D03*
X242935000Y-79375000D03*
%TD*%
D12*
%TO.C,Cx7*%
X190500000Y-44450000D03*
X190500000Y-46950000D03*
%TD*%
D17*
%TO.C,L10*%
X195580000Y-119650000D03*
X195580000Y-121650000D03*
%TD*%
D13*
%TO.C,R75*%
X244745000Y-97155000D03*
X246745000Y-97155000D03*
%TD*%
D12*
%TO.C,Cx11*%
X188595000Y-115570000D03*
X191095000Y-115570000D03*
%TD*%
D18*
%TO.C,J82*%
X228600000Y-48260000D03*
%TD*%
D12*
%TO.C,Cx25*%
X217170000Y-110998000D03*
X219670000Y-110998000D03*
%TD*%
D13*
%TO.C,R71*%
X244745000Y-107315000D03*
X246745000Y-107315000D03*
%TD*%
D22*
%TO.C,L38*%
X240935000Y-107315000D03*
X242935000Y-107315000D03*
%TD*%
D18*
%TO.C,J66*%
X236220000Y-80010000D03*
%TD*%
%TO.C,J42*%
X228600000Y-80010000D03*
%TD*%
%TO.C,J52*%
X233680000Y-64770000D03*
%TD*%
D13*
%TO.C,R58*%
X165370000Y-112395000D03*
X167370000Y-112395000D03*
%TD*%
D18*
%TO.C,J74*%
X236220000Y-82550000D03*
%TD*%
%TO.C,J40*%
X228600000Y-77470000D03*
%TD*%
D12*
%TO.C,Cx13*%
X186055000Y-71120000D03*
X186055000Y-73620000D03*
%TD*%
D18*
%TO.C,J76*%
X226060000Y-92710000D03*
%TD*%
D12*
%TO.C,Cx21*%
X219964000Y-84328000D03*
X217464000Y-84328000D03*
%TD*%
D11*
%TO.C,Cx28*%
X177165000Y-82423000D03*
D12*
X179665000Y-82423000D03*
%TD*%
D18*
%TO.C,J61*%
X233680000Y-69850000D03*
%TD*%
%TO.C,J54*%
X233680000Y-72390000D03*
%TD*%
%TO.C,J105*%
X233680000Y-82550000D03*
%TD*%
D13*
%TO.C,R74*%
X244745000Y-99695000D03*
X246745000Y-99695000D03*
%TD*%
D27*
%TO.C,U5*%
X238760000Y-83185000D03*
D12*
X238760000Y-80645000D03*
X238760000Y-78105000D03*
X238760000Y-75565000D03*
X238760000Y-73025000D03*
X238760000Y-70485000D03*
X238760000Y-67945000D03*
X238760000Y-65405000D03*
X238760000Y-62865000D03*
X238760000Y-60325000D03*
X238760000Y-57785000D03*
X238760000Y-55245000D03*
X238760000Y-52705000D03*
X238760000Y-50165000D03*
X238760000Y-47625000D03*
X238760000Y-45085000D03*
X238760000Y-42545000D03*
X238760000Y-40005000D03*
X238760000Y-37465000D03*
X238760000Y-34925000D03*
X223520000Y-34925000D03*
X223520000Y-37465000D03*
X223520000Y-40005000D03*
X223520000Y-42545000D03*
X223520000Y-45085000D03*
X223520000Y-47625000D03*
X223520000Y-50165000D03*
X223520000Y-52705000D03*
X223520000Y-55245000D03*
X223520000Y-57785000D03*
X223520000Y-60325000D03*
X223520000Y-62865000D03*
X223520000Y-65405000D03*
X223520000Y-67945000D03*
X223520000Y-70485000D03*
X223520000Y-73025000D03*
X223520000Y-75565000D03*
X223520000Y-78105000D03*
X223520000Y-80645000D03*
X223520000Y-83185000D03*
%TD*%
%TO.C,Cx17*%
X227457000Y-118719600D03*
X229957000Y-118719600D03*
%TD*%
D28*
%TO.C,R55*%
X172450000Y-107333000D03*
X170450000Y-107333000D03*
%TD*%
D23*
%TO.C,Jx2*%
X176859200Y-29645600D03*
D24*
X179399200Y-29645600D03*
X181939200Y-29645600D03*
%TD*%
D12*
%TO.C,Cx16*%
X167640000Y-49530000D03*
X170140000Y-49530000D03*
%TD*%
D19*
%TO.C,H5*%
X157400000Y-30400000D03*
%TD*%
D18*
%TO.C,J22*%
X226060000Y-67310000D03*
%TD*%
D22*
%TO.C,L53*%
X240935000Y-74295000D03*
X242935000Y-74295000D03*
%TD*%
D18*
%TO.C,J102*%
X233680000Y-97790000D03*
%TD*%
D11*
%TO.C,Cx14*%
X164465000Y-29845000D03*
D12*
X166965000Y-29845000D03*
%TD*%
D13*
%TO.C,R56*%
X165370000Y-109855000D03*
X167370000Y-109855000D03*
%TD*%
D18*
%TO.C,J97*%
X231140000Y-82550000D03*
%TD*%
D22*
%TO.C,L39*%
X240935000Y-104775000D03*
X242935000Y-104775000D03*
%TD*%
D18*
%TO.C,J44*%
X226060000Y-69850000D03*
%TD*%
D12*
%TO.C,Cx12*%
X233680000Y-32385000D03*
X231180000Y-32385000D03*
%TD*%
%TO.C,Cx9*%
X176530000Y-116840000D03*
X179030000Y-116840000D03*
%TD*%
D18*
%TO.C,J92*%
X228600000Y-90170000D03*
%TD*%
D17*
%TO.C,L3*%
X181610000Y-119650000D03*
X181610000Y-121650000D03*
%TD*%
D13*
%TO.C,R50*%
X165370000Y-107315000D03*
X167370000Y-107315000D03*
%TD*%
D17*
%TO.C,L0*%
X165100000Y-119650000D03*
X165100000Y-121650000D03*
%TD*%
D18*
%TO.C,J21*%
X228600000Y-67310000D03*
%TD*%
%TO.C,J91*%
X231140000Y-92710000D03*
%TD*%
D29*
%TO.C,U15*%
X169388600Y-55314800D03*
D30*
X170287798Y-55314799D03*
D29*
X169388600Y-55814800D03*
D30*
X170287798Y-55814801D03*
D29*
X169388600Y-56314800D03*
D30*
X170287798Y-56314800D03*
D29*
X169388600Y-56814800D03*
D30*
X170287798Y-56814799D03*
D29*
X169388600Y-57314800D03*
D30*
X170287798Y-57314800D03*
D29*
X169388600Y-57814800D03*
D30*
X170287798Y-57814799D03*
D29*
X169388600Y-58314800D03*
D30*
X170287798Y-58314801D03*
D29*
X169388600Y-58814800D03*
D30*
X170287798Y-58814800D03*
D29*
X169388600Y-59314799D03*
D30*
X170287798Y-59314799D03*
D29*
X169388600Y-59814800D03*
D30*
X170287798Y-59814800D03*
D29*
X169388600Y-60314799D03*
D30*
X170287798Y-60314799D03*
D29*
X169388600Y-60814798D03*
D30*
X170287798Y-60814798D03*
D29*
X169388600Y-61314800D03*
D30*
X170287798Y-61314800D03*
D29*
X169388600Y-61814799D03*
D30*
X170287798Y-61814799D03*
D29*
X169388600Y-62314800D03*
D30*
X170287798Y-62314801D03*
D29*
X169388600Y-62814800D03*
D30*
X170287798Y-62814800D03*
D29*
X169388600Y-63314799D03*
D30*
X170287798Y-63314799D03*
D29*
X169388600Y-63814800D03*
D30*
X170287798Y-63814800D03*
D29*
X169388600Y-64314799D03*
D30*
X170287798Y-64314799D03*
D29*
X169388600Y-64814801D03*
D30*
X170287798Y-64814801D03*
D29*
X169388600Y-65314800D03*
D30*
X170287798Y-65314800D03*
D29*
X169388600Y-65814800D03*
D30*
X170287798Y-65814799D03*
D29*
X169388600Y-66314800D03*
D30*
X170287798Y-66314800D03*
D29*
X169388600Y-66814800D03*
D30*
X170287798Y-66814799D03*
D29*
X169388600Y-67314801D03*
D30*
X170287798Y-67314801D03*
D31*
X172088599Y-69115602D03*
D32*
X172088600Y-70014800D03*
X172588600Y-70014800D03*
D31*
X172588601Y-69115602D03*
X173088600Y-69115602D03*
D32*
X173088600Y-70014800D03*
D31*
X173588599Y-69115602D03*
D32*
X173588599Y-70014800D03*
D31*
X174088600Y-69115602D03*
D32*
X174088600Y-70014800D03*
D31*
X174588599Y-69115602D03*
D32*
X174588599Y-70014800D03*
D31*
X175088601Y-69115602D03*
D32*
X175088601Y-70014800D03*
D31*
X175588600Y-69115602D03*
D32*
X175588600Y-70014800D03*
D31*
X176088599Y-69115602D03*
D32*
X176088599Y-70014800D03*
D31*
X176588600Y-69115602D03*
D32*
X176588600Y-70014800D03*
D31*
X177088599Y-69115602D03*
D32*
X177088599Y-70014800D03*
D31*
X177588601Y-69115602D03*
D32*
X177588601Y-70014800D03*
D31*
X178088600Y-69115602D03*
D32*
X178088600Y-70014800D03*
D31*
X178588599Y-69115602D03*
D32*
X178588599Y-70014800D03*
D31*
X179088601Y-69115602D03*
D32*
X179088601Y-70014800D03*
D31*
X179588600Y-69115602D03*
D32*
X179588600Y-70014800D03*
D31*
X180088601Y-69115602D03*
D32*
X180088601Y-70014800D03*
D31*
X180588600Y-69115602D03*
D32*
X180588600Y-70014800D03*
D31*
X181088599Y-69115602D03*
D32*
X181088599Y-70014800D03*
D31*
X181588601Y-69115602D03*
D32*
X181588601Y-70014800D03*
D31*
X182088600Y-69115602D03*
D32*
X182088600Y-70014800D03*
D31*
X182588601Y-69115602D03*
D32*
X182588601Y-70014800D03*
D31*
X183088600Y-69115602D03*
D32*
X183088600Y-70014800D03*
D31*
X183588599Y-69115602D03*
D32*
X183588600Y-70014800D03*
X184088600Y-70014800D03*
D31*
X184088601Y-69115602D03*
D30*
X185889402Y-67314801D03*
D29*
X186772402Y-67314801D03*
D30*
X185889402Y-66814799D03*
D29*
X186788600Y-66814800D03*
D30*
X185889402Y-66314800D03*
D29*
X186788600Y-66314800D03*
D30*
X185889402Y-65814801D03*
D29*
X186772402Y-65814801D03*
D30*
X185889402Y-65314800D03*
D29*
X186788600Y-65314800D03*
D30*
X185889402Y-64814801D03*
D29*
X186772402Y-64814801D03*
D30*
X185889402Y-64314799D03*
D29*
X186772402Y-64314799D03*
D30*
X185889402Y-63814800D03*
D29*
X186772402Y-63814800D03*
D30*
X185889402Y-63314801D03*
D29*
X186772402Y-63314801D03*
D30*
X185889402Y-62814800D03*
D29*
X186772402Y-62814800D03*
D30*
X185889402Y-62314801D03*
D29*
X186772402Y-62314801D03*
D30*
X185889402Y-61814799D03*
D29*
X186772402Y-61814800D03*
D30*
X185889402Y-61314800D03*
D29*
X186772402Y-61314800D03*
D30*
X185889402Y-60814801D03*
D29*
X186772402Y-60814801D03*
D30*
X185889402Y-60314799D03*
D29*
X186772402Y-60314799D03*
D30*
X185889402Y-59814800D03*
D29*
X186772402Y-59814800D03*
D30*
X185889402Y-59314799D03*
D29*
X186772402Y-59314800D03*
D30*
X185889402Y-58814800D03*
D29*
X186772402Y-58814800D03*
D30*
X185889402Y-58314801D03*
D29*
X186772402Y-58314801D03*
D30*
X185889402Y-57814799D03*
D29*
X186788600Y-57814800D03*
D30*
X185889402Y-57314800D03*
D29*
X186772402Y-57314800D03*
D30*
X185889402Y-56814799D03*
D29*
X186788600Y-56814800D03*
D30*
X185889402Y-56314800D03*
D29*
X186772402Y-56314800D03*
D30*
X185889402Y-55814801D03*
D29*
X186772402Y-55814801D03*
D30*
X185889402Y-55314799D03*
D29*
X186772402Y-55314799D03*
D32*
X184088601Y-52630998D03*
D31*
X184088601Y-53513998D03*
X183588599Y-53513998D03*
D32*
X183588600Y-52614800D03*
X183088600Y-52614800D03*
D31*
X183088600Y-53513998D03*
D32*
X182588600Y-52630998D03*
D31*
X182588601Y-53513998D03*
D32*
X182088600Y-52630998D03*
D31*
X182088600Y-53513998D03*
D32*
X181588601Y-52630998D03*
D31*
X181588601Y-53513998D03*
D32*
X181088599Y-52630998D03*
D31*
X181088599Y-53513998D03*
D32*
X180588600Y-52630998D03*
D31*
X180588600Y-53513998D03*
D32*
X180088601Y-52630998D03*
D31*
X180088601Y-53513998D03*
D32*
X179588600Y-52630998D03*
D31*
X179588600Y-53513998D03*
D32*
X179088601Y-52630998D03*
D31*
X179088601Y-53513998D03*
D32*
X178588599Y-52630998D03*
D31*
X178588599Y-53513998D03*
D32*
X178088600Y-52630998D03*
D31*
X178088600Y-53513998D03*
D32*
X177588601Y-52630998D03*
D31*
X177588601Y-53513998D03*
D32*
X177088599Y-52630998D03*
D31*
X177088599Y-53513998D03*
D32*
X176588600Y-52630998D03*
D31*
X176588600Y-53513998D03*
D32*
X176088599Y-52630998D03*
D31*
X176088599Y-53513998D03*
D32*
X175588600Y-52630998D03*
D31*
X175588600Y-53513998D03*
D32*
X175088601Y-52630998D03*
D31*
X175088601Y-53513998D03*
D32*
X174588599Y-52630998D03*
D31*
X174588599Y-53513998D03*
D32*
X174088600Y-52630998D03*
D31*
X174088600Y-53513998D03*
D32*
X173588599Y-52630998D03*
D31*
X173588599Y-53513998D03*
D32*
X173088600Y-52630998D03*
D31*
X173088600Y-53513998D03*
D32*
X172588601Y-52630998D03*
D31*
X172588601Y-53513998D03*
D32*
X172088599Y-52630998D03*
D31*
X172088599Y-53513998D03*
%TD*%
D27*
%TO.C,U4*%
X238760000Y-115570000D03*
D12*
X238760000Y-113030000D03*
X238760000Y-110490000D03*
X238760000Y-107950000D03*
X238760000Y-105410000D03*
X238760000Y-102870000D03*
X238760000Y-100330000D03*
X238760000Y-97790000D03*
X238760000Y-95250000D03*
X238760000Y-92710000D03*
X238760000Y-90170000D03*
X238760000Y-87630000D03*
X223520000Y-87630000D03*
X223520000Y-90170000D03*
X223520000Y-92710000D03*
X223520000Y-95250000D03*
X223520000Y-97790000D03*
X223520000Y-100330000D03*
X223520000Y-102870000D03*
X223520000Y-105410000D03*
X223520000Y-107950000D03*
X223520000Y-110490000D03*
X223520000Y-113030000D03*
X223520000Y-115570000D03*
%TD*%
D18*
%TO.C,J12*%
X213969600Y-115798600D03*
%TD*%
D12*
%TO.C,Cx26*%
X217170000Y-108458000D03*
X219670000Y-108458000D03*
%TD*%
D22*
%TO.C,L46*%
X240935000Y-56515000D03*
X242935000Y-56515000D03*
%TD*%
D13*
%TO.C,R80*%
X244745000Y-53975000D03*
X246745000Y-53975000D03*
%TD*%
%TO.C,R86*%
X244745000Y-74295000D03*
X246745000Y-74295000D03*
%TD*%
D23*
%TO.C,J3*%
X236982000Y-123164600D03*
D24*
X234442000Y-123164600D03*
X231902000Y-123164600D03*
X229362000Y-123164600D03*
%TD*%
D18*
%TO.C,J73*%
X226060000Y-82550000D03*
%TD*%
D26*
%TO.C,R46*%
X178150600Y-46175300D03*
X178150600Y-44350300D03*
%TD*%
D21*
%TO.C,J88*%
X236220000Y-100330000D03*
%TD*%
D17*
%TO.C,L13*%
X204470000Y-119650000D03*
X204470000Y-121650000D03*
%TD*%
D22*
%TO.C,L41*%
X240935000Y-99695000D03*
X242935000Y-99695000D03*
%TD*%
D18*
%TO.C,J99*%
X231140000Y-90170000D03*
%TD*%
D22*
%TO.C,L42*%
X240935000Y-97155000D03*
X242935000Y-97155000D03*
%TD*%
D13*
%TO.C,R69*%
X244745000Y-112395000D03*
X246745000Y-112395000D03*
%TD*%
D18*
%TO.C,J69*%
X236220000Y-69850000D03*
%TD*%
D28*
%TO.C,R57*%
X172450000Y-109855000D03*
X170450000Y-109855000D03*
%TD*%
D18*
%TO.C,J100*%
X233680000Y-92710000D03*
%TD*%
D22*
%TO.C,L54*%
X240935000Y-76835000D03*
X242935000Y-76835000D03*
%TD*%
D18*
%TO.C,J85*%
X228600000Y-95250000D03*
%TD*%
%TO.C,J79*%
X228600000Y-100330000D03*
%TD*%
%TO.C,J90*%
X226060000Y-80010000D03*
%TD*%
D25*
%TO.C,XTAL1*%
X213783000Y-32216600D03*
X213783000Y-37096600D03*
%TD*%
D22*
%TO.C,L40*%
X240935000Y-102235000D03*
X242935000Y-102235000D03*
%TD*%
%TO.C,L45*%
X240935000Y-59055000D03*
X242935000Y-59055000D03*
%TD*%
D12*
%TO.C,Cx19*%
X219964000Y-89408000D03*
X217464000Y-89408000D03*
%TD*%
D18*
%TO.C,J87*%
X233680000Y-90170000D03*
%TD*%
D13*
%TO.C,R82*%
X244745000Y-48895000D03*
X246745000Y-48895000D03*
%TD*%
D18*
%TO.C,J58*%
X233680000Y-80010000D03*
%TD*%
%TO.C,J83*%
X226060000Y-77470000D03*
%TD*%
%TO.C,J53*%
X231140000Y-69850000D03*
%TD*%
%TO.C,J68*%
X236220000Y-67310000D03*
%TD*%
%TO.C,J93*%
X231140000Y-95250000D03*
%TD*%
D23*
%TO.C,J2*%
X214296000Y-77771000D03*
D24*
X216836000Y-77771000D03*
X214296000Y-75231000D03*
X216836000Y-75231000D03*
X214296000Y-72691000D03*
X216836000Y-72691000D03*
X214296000Y-70151000D03*
X216836000Y-70151000D03*
%TD*%
D13*
%TO.C,R72*%
X244745000Y-104775000D03*
X246745000Y-104775000D03*
%TD*%
D22*
%TO.C,L57*%
X240935000Y-84455000D03*
X242935000Y-84455000D03*
%TD*%
D13*
%TO.C,R54*%
X240858800Y-91077000D03*
X242858800Y-91077000D03*
%TD*%
D18*
%TO.C,J55*%
X233680000Y-74930000D03*
%TD*%
D13*
%TO.C,R64*%
X170450000Y-112395000D03*
X172450000Y-112395000D03*
%TD*%
D18*
%TO.C,J78*%
X228600000Y-97790000D03*
%TD*%
%TO.C,J8*%
X236220000Y-87630000D03*
%TD*%
D26*
%TO.C,R47*%
X183230600Y-46175300D03*
X183230600Y-44350300D03*
%TD*%
D18*
%TO.C,J63*%
X236220000Y-74930000D03*
%TD*%
D13*
%TO.C,R85*%
X244745000Y-71755000D03*
X246745000Y-71755000D03*
%TD*%
D12*
%TO.C,Cx20*%
X219964000Y-86868000D03*
X217464000Y-86868000D03*
%TD*%
D11*
%TO.C,U1*%
X193446400Y-29235400D03*
D12*
X193446400Y-31775400D03*
X193446400Y-34315400D03*
X193446400Y-36855400D03*
X193446400Y-39395400D03*
X193446400Y-41935400D03*
X193446400Y-44475400D03*
X193446400Y-47015400D03*
X193446400Y-49555400D03*
X193446400Y-52095400D03*
X193446400Y-54635400D03*
X193446400Y-57175400D03*
X193446400Y-59715400D03*
X193446400Y-62255400D03*
X193446400Y-64795400D03*
X193446400Y-67335400D03*
X193446400Y-69875400D03*
X193446400Y-72415400D03*
X193446400Y-74955400D03*
X193446400Y-77495400D03*
X208686400Y-77495400D03*
X208686400Y-74955400D03*
X208686400Y-72415400D03*
X208686400Y-69875400D03*
X208686400Y-67335400D03*
X208686400Y-64795400D03*
X208686400Y-62255400D03*
X208686400Y-59715400D03*
X208686400Y-57175400D03*
X208686400Y-54635400D03*
X208686400Y-52095400D03*
X208686400Y-49555400D03*
X208686400Y-47015400D03*
X208686400Y-44475400D03*
X208686400Y-41935400D03*
X208686400Y-39395400D03*
X208686400Y-36855400D03*
X208686400Y-34315400D03*
X208686400Y-31775400D03*
X208686400Y-29235400D03*
%TD*%
D18*
%TO.C,J43*%
X231140000Y-67310000D03*
%TD*%
D12*
%TO.C,Cx6*%
X188595000Y-29210000D03*
X191095000Y-29210000D03*
%TD*%
D23*
%TO.C,Jx1*%
X241935000Y-40640000D03*
D24*
X241935000Y-38100000D03*
X241935000Y-35560000D03*
%TD*%
D12*
%TO.C,Cx10*%
X212725000Y-82550000D03*
X215225000Y-82550000D03*
%TD*%
D21*
%TO.C,J41*%
X236220000Y-97790000D03*
%TD*%
D23*
%TO.C,J4*%
X154940000Y-36068000D03*
D24*
X157480000Y-36068000D03*
X154940000Y-38608000D03*
X157480000Y-38608000D03*
X154940000Y-41148000D03*
X157480000Y-41148000D03*
X154940000Y-43688000D03*
X157480000Y-43688000D03*
X154940000Y-46228000D03*
X157480000Y-46228000D03*
X154940000Y-48768000D03*
X157480000Y-48768000D03*
X154940000Y-51308000D03*
X157480000Y-51308000D03*
X154940000Y-53848000D03*
X157480000Y-53848000D03*
X154940000Y-56388000D03*
X157480000Y-56388000D03*
X154940000Y-58928000D03*
X157480000Y-58928000D03*
X154940000Y-61468000D03*
X157480000Y-61468000D03*
X154940000Y-64008000D03*
X157480000Y-64008000D03*
X154940000Y-66548000D03*
X157480000Y-66548000D03*
X154940000Y-69088000D03*
X157480000Y-69088000D03*
X154940000Y-71628000D03*
X157480000Y-71628000D03*
X154940000Y-74168000D03*
X157480000Y-74168000D03*
X154940000Y-76708000D03*
X157480000Y-76708000D03*
X154940000Y-79248000D03*
X157480000Y-79248000D03*
X154940000Y-81788000D03*
X157480000Y-81788000D03*
X154940000Y-84328000D03*
X157480000Y-84328000D03*
X154940000Y-86868000D03*
X157480000Y-86868000D03*
X154940000Y-89408000D03*
X157480000Y-89408000D03*
X154940000Y-91948000D03*
X157480000Y-91948000D03*
X154940000Y-94488000D03*
X157480000Y-94488000D03*
X154940000Y-97028000D03*
X157480000Y-97028000D03*
X154940000Y-99568000D03*
X157480000Y-99568000D03*
X154940000Y-102108000D03*
X157480000Y-102108000D03*
X154940000Y-104648000D03*
X157480000Y-104648000D03*
X154940000Y-107188000D03*
X157480000Y-107188000D03*
X154940000Y-109728000D03*
X157480000Y-109728000D03*
X154940000Y-112268000D03*
X157480000Y-112268000D03*
X154940000Y-114808000D03*
X157480000Y-114808000D03*
%TD*%
D18*
%TO.C,J60*%
X226060000Y-72390000D03*
%TD*%
D33*
%TO.C,LS1*%
X212304400Y-58556200D03*
D34*
X219904400Y-58556200D03*
%TD*%
D18*
%TO.C,J70*%
X226060000Y-97790000D03*
%TD*%
D10*
%TO.C,R96*%
X184338000Y-30645600D03*
X184338000Y-28645600D03*
%TD*%
D18*
%TO.C,J84*%
X228600000Y-92710000D03*
%TD*%
D13*
%TO.C,R83*%
X244745000Y-46355000D03*
X246745000Y-46355000D03*
%TD*%
D18*
%TO.C,J101*%
X233680000Y-95250000D03*
%TD*%
D22*
%TO.C,L50*%
X240935000Y-46355000D03*
X242935000Y-46355000D03*
%TD*%
D18*
%TO.C,J47*%
X231140000Y-74930000D03*
%TD*%
D12*
%TO.C,C12*%
X210921600Y-50977800D03*
X213421600Y-50977800D03*
%TD*%
D17*
%TO.C,L14*%
X201930000Y-119650000D03*
X201930000Y-121650000D03*
%TD*%
D28*
%TO.C,R49*%
X172450000Y-104775000D03*
X170450000Y-104775000D03*
%TD*%
D23*
%TO.C,Jx4*%
X250190000Y-84455000D03*
D24*
X250190000Y-81915000D03*
X250190000Y-79375000D03*
X250190000Y-76835000D03*
X250190000Y-74295000D03*
X250190000Y-71755000D03*
X250190000Y-69215000D03*
X250190000Y-66675000D03*
%TD*%
D18*
%TO.C,J67*%
X236220000Y-64770000D03*
%TD*%
D13*
%TO.C,R89*%
X244745000Y-81915000D03*
X246745000Y-81915000D03*
%TD*%
D18*
%TO.C,J62*%
X236220000Y-72390000D03*
%TD*%
D22*
%TO.C,L48*%
X240935000Y-51435000D03*
X242935000Y-51435000D03*
%TD*%
%TO.C,L47*%
X240935000Y-53975000D03*
X242935000Y-53975000D03*
%TD*%
D12*
%TO.C,Cx8*%
X179070000Y-86995000D03*
X181570000Y-86995000D03*
%TD*%
D18*
%TO.C,J38*%
X228600000Y-72390000D03*
%TD*%
D13*
%TO.C,R87*%
X244745000Y-76835000D03*
X246745000Y-76835000D03*
%TD*%
D18*
%TO.C,J95*%
X231140000Y-100330000D03*
%TD*%
D13*
%TO.C,R79*%
X244745000Y-56515000D03*
X246745000Y-56515000D03*
%TD*%
D18*
%TO.C,J45*%
X228600000Y-69850000D03*
%TD*%
D26*
%TO.C,R45*%
X175610600Y-46175300D03*
X175610600Y-44350300D03*
%TD*%
D13*
%TO.C,R90*%
X244745000Y-84455000D03*
X246745000Y-84455000D03*
%TD*%
D17*
%TO.C,L1*%
X167640000Y-119650000D03*
X167640000Y-121650000D03*
%TD*%
D18*
%TO.C,J37*%
X228600000Y-64770000D03*
%TD*%
D22*
%TO.C,L43*%
X240935000Y-94615000D03*
X242935000Y-94615000D03*
%TD*%
D18*
%TO.C,J104*%
X233680000Y-102870000D03*
%TD*%
%TO.C,J71*%
X226060000Y-100330000D03*
%TD*%
D17*
%TO.C,L9*%
X199390000Y-119650000D03*
X199390000Y-121650000D03*
%TD*%
D35*
%TO.C,J1*%
X173241800Y-38801400D03*
D24*
X173241800Y-36261400D03*
X175781800Y-38801400D03*
X175781800Y-36261400D03*
X178321800Y-38801400D03*
X178321800Y-36261400D03*
X180861800Y-38801400D03*
X180861800Y-36261400D03*
X183401800Y-38801400D03*
X183401800Y-36261400D03*
%TD*%
D22*
%TO.C,L36*%
X240935000Y-112395000D03*
X242935000Y-112395000D03*
%TD*%
%TO.C,L49*%
X240935000Y-48895000D03*
X242935000Y-48895000D03*
%TD*%
M02*
