%TF.GenerationSoftware,KiCad,Pcbnew,9.0.2*%
%TF.CreationDate,2026-08-20T20:50:25+02:00*%
%TF.ProjectId,retro-003,72657472-6f2d-4303-9033-2e6b69636164,rev?*%
%TF.SameCoordinates,Original*%
%TF.FileFunction,Paste,Bot*%
%TF.FilePolarity,Positive*%
%FSLAX46Y46*%
G04 Gerber Fmt 4.6, Leading zero omitted, Abs format (unit mm)*
G04 Created by KiCad (PCBNEW 9.0.2) date 2026-08-20 20:50:25*
%MOMM*%
%LPD*%
G01*
G04 APERTURE LIST*
G04 Aperture macros list*
%AMRoundRect*
0 Rectangle with rounded corners*
0 $1 Rounding radius*
0 $2 $3 $4 $5 $6 $7 $8 $9 X,Y pos of 4 corners*
0 Add a 4 corners polygon primitive as box body*
4,1,4,$2,$3,$4,$5,$6,$7,$8,$9,$2,$3,0*
0 Add four circle primitives for the rounded corners*
1,1,$1+$1,$2,$3*
1,1,$1+$1,$4,$5*
1,1,$1+$1,$6,$7*
1,1,$1+$1,$8,$9*
0 Add four rect primitives between the rounded corners*
20,1,$1+$1,$2,$3,$4,$5,0*
20,1,$1+$1,$4,$5,$6,$7,0*
20,1,$1+$1,$6,$7,$8,$9,0*
20,1,$1+$1,$8,$9,$2,$3,0*%
G04 Aperture macros list end*
%ADD10RoundRect,0.500000X-0.825000X0.750000X-0.825000X-0.750000X0.825000X-0.750000X0.825000X0.750000X0*%
%ADD11RoundRect,0.291666X0.408334X-0.458334X0.408334X0.458334X-0.408334X0.458334X-0.408334X-0.458334X0*%
%ADD12RoundRect,0.250000X0.450000X-0.262500X0.450000X0.262500X-0.450000X0.262500X-0.450000X-0.262500X0*%
%ADD13RoundRect,0.150000X-1.325000X-0.150000X1.325000X-0.150000X1.325000X0.150000X-1.325000X0.150000X0*%
%ADD14RoundRect,0.291666X-0.408334X0.458334X-0.408334X-0.458334X0.408334X-0.458334X0.408334X0.458334X0*%
%ADD15RoundRect,0.291666X0.458334X0.408334X-0.458334X0.408334X-0.458334X-0.408334X0.458334X-0.408334X0*%
%ADD16RoundRect,0.150000X-0.825000X-0.150000X0.825000X-0.150000X0.825000X0.150000X-0.825000X0.150000X0*%
%ADD17RoundRect,0.291666X-0.458334X-0.408334X0.458334X-0.408334X0.458334X0.408334X-0.458334X0.408334X0*%
%ADD18RoundRect,0.250000X-0.450000X0.262500X-0.450000X-0.262500X0.450000X-0.262500X0.450000X0.262500X0*%
%ADD19RoundRect,0.150000X-0.150000X0.587500X-0.150000X-0.587500X0.150000X-0.587500X0.150000X0.587500X0*%
G04 APERTURE END LIST*
D10*
%TO.C,D2*%
X214376000Y-108947200D03*
X214376000Y-112947200D03*
%TD*%
D11*
%TO.C,R4*%
X177800000Y-121650000D03*
X177800000Y-119650000D03*
%TD*%
D12*
%TO.C,R43*%
X183235600Y-42365300D03*
X183235600Y-40540300D03*
%TD*%
D13*
%TO.C,J7*%
X228165000Y-60198000D03*
X228165000Y-58928000D03*
X228165000Y-57658000D03*
X228165000Y-56388000D03*
X228165000Y-55118000D03*
X228165000Y-53848000D03*
X228165000Y-52578000D03*
X228165000Y-51308000D03*
X234115000Y-51308000D03*
X234115000Y-52578000D03*
X234115000Y-53848000D03*
X234115000Y-55118000D03*
X234115000Y-56388000D03*
X234115000Y-57658000D03*
X234115000Y-58928000D03*
X234115000Y-60198000D03*
%TD*%
D11*
%TO.C,R1*%
X165100000Y-121650000D03*
X165100000Y-119650000D03*
%TD*%
D14*
%TO.C,R60*%
X217027400Y-97632800D03*
X217027400Y-99632800D03*
%TD*%
D11*
%TO.C,R9*%
X199390000Y-121650000D03*
X199390000Y-119650000D03*
%TD*%
D15*
%TO.C,R63*%
X213090000Y-27025600D03*
X211090000Y-27025600D03*
%TD*%
D11*
%TO.C,R2*%
X167640000Y-121650000D03*
X167640000Y-119650000D03*
%TD*%
D16*
%TO.C,U13*%
X226416000Y-44704000D03*
X226416000Y-43434000D03*
X226416000Y-42164000D03*
X226416000Y-40894000D03*
X226416000Y-39624000D03*
X226416000Y-38354000D03*
X226416000Y-37084000D03*
X232816000Y-37084000D03*
X232816000Y-38354000D03*
X232816000Y-39624000D03*
X232816000Y-40894000D03*
X232816000Y-42164000D03*
X232816000Y-43434000D03*
X232816000Y-44704000D03*
%TD*%
D11*
%TO.C,R17*%
X209550000Y-121650000D03*
X209550000Y-119650000D03*
%TD*%
D14*
%TO.C,R92*%
X234340400Y-118329200D03*
X234340400Y-120329200D03*
%TD*%
D11*
%TO.C,R11*%
X193040000Y-121650000D03*
X193040000Y-119650000D03*
%TD*%
%TO.C,R7*%
X186690000Y-121650000D03*
X186690000Y-119650000D03*
%TD*%
D16*
%TO.C,U6*%
X169520000Y-107950000D03*
X169520000Y-106680000D03*
X169520000Y-105410000D03*
X169520000Y-104140000D03*
X169520000Y-102870000D03*
X169520000Y-101600000D03*
X169520000Y-100330000D03*
X175920000Y-100330000D03*
X175920000Y-101600000D03*
X175920000Y-102870000D03*
X175920000Y-104140000D03*
X175920000Y-105410000D03*
X175920000Y-106680000D03*
X175920000Y-107950000D03*
%TD*%
D14*
%TO.C,R91*%
X236880400Y-118329200D03*
X236880400Y-120329200D03*
%TD*%
D16*
%TO.C,U7*%
X182220000Y-107975400D03*
X182220000Y-106705400D03*
X182220000Y-105435400D03*
X182220000Y-104165400D03*
X182220000Y-102895400D03*
X182220000Y-101625400D03*
X182220000Y-100355400D03*
X188620000Y-100355400D03*
X188620000Y-101625400D03*
X188620000Y-102895400D03*
X188620000Y-104165400D03*
X188620000Y-105435400D03*
X188620000Y-106705400D03*
X188620000Y-107975400D03*
%TD*%
D17*
%TO.C,R94*%
X170450000Y-71773000D03*
X172450000Y-71773000D03*
%TD*%
D12*
%TO.C,R42*%
X178155600Y-42365300D03*
X178155600Y-40540300D03*
%TD*%
D18*
%TO.C,R39*%
X183230600Y-44350300D03*
X183230600Y-46175300D03*
%TD*%
D11*
%TO.C,R5*%
X173990000Y-121650000D03*
X173990000Y-119650000D03*
%TD*%
D19*
%TO.C,Q1*%
X217436200Y-51858700D03*
X219336200Y-51858700D03*
X218386200Y-53733700D03*
%TD*%
D17*
%TO.C,R98*%
X185055000Y-95903000D03*
X187055000Y-95903000D03*
%TD*%
D11*
%TO.C,R6*%
X189230000Y-121650000D03*
X189230000Y-119650000D03*
%TD*%
%TO.C,R0*%
X171450000Y-121650000D03*
X171450000Y-119650000D03*
%TD*%
%TO.C,R10*%
X195580000Y-121650000D03*
X195580000Y-119650000D03*
%TD*%
%TO.C,R12*%
X207010000Y-121650000D03*
X207010000Y-119650000D03*
%TD*%
D18*
%TO.C,R36*%
X173075600Y-44350300D03*
X173075600Y-46175300D03*
%TD*%
D12*
%TO.C,R40*%
X173075600Y-42365300D03*
X173075600Y-40540300D03*
%TD*%
D16*
%TO.C,U12*%
X227940000Y-114300000D03*
X227940000Y-113030000D03*
X227940000Y-111760000D03*
X227940000Y-110490000D03*
X227940000Y-109220000D03*
X227940000Y-107950000D03*
X227940000Y-106680000D03*
X234340000Y-106680000D03*
X234340000Y-107950000D03*
X234340000Y-109220000D03*
X234340000Y-110490000D03*
X234340000Y-111760000D03*
X234340000Y-113030000D03*
X234340000Y-114300000D03*
%TD*%
D17*
%TO.C,R100*%
X165370000Y-69196900D03*
X167370000Y-69196900D03*
%TD*%
D18*
%TO.C,R37*%
X175615600Y-44350300D03*
X175615600Y-46175300D03*
%TD*%
D11*
%TO.C,R14*%
X201930000Y-121650000D03*
X201930000Y-119650000D03*
%TD*%
%TO.C,R13*%
X204470000Y-121650000D03*
X204470000Y-119650000D03*
%TD*%
D15*
%TO.C,R93*%
X167370000Y-71736900D03*
X165370000Y-71736900D03*
%TD*%
D14*
%TO.C,R53*%
X221208600Y-40547100D03*
X221208600Y-42547100D03*
%TD*%
D11*
%TO.C,R8*%
X184150000Y-121650000D03*
X184150000Y-119650000D03*
%TD*%
D15*
%TO.C,R102*%
X172450000Y-69196900D03*
X170450000Y-69196900D03*
%TD*%
D18*
%TO.C,R38*%
X178150600Y-44350300D03*
X178150600Y-46175300D03*
%TD*%
D14*
%TO.C,R62*%
X245618000Y-66691000D03*
X245618000Y-68691000D03*
%TD*%
D12*
%TO.C,R41*%
X175615600Y-42365300D03*
X175615600Y-40540300D03*
%TD*%
D15*
%TO.C,R59*%
X201660000Y-111778000D03*
X199660000Y-111778000D03*
%TD*%
D17*
%TO.C,R99*%
X204130400Y-82644200D03*
X206130400Y-82644200D03*
%TD*%
D16*
%TO.C,U8*%
X197463000Y-108066800D03*
X197463000Y-106796800D03*
X197463000Y-105526800D03*
X197463000Y-104256800D03*
X197463000Y-102986800D03*
X197463000Y-101716800D03*
X197463000Y-100446800D03*
X203863000Y-100446800D03*
X203863000Y-101716800D03*
X203863000Y-102986800D03*
X203863000Y-104256800D03*
X203863000Y-105526800D03*
X203863000Y-106796800D03*
X203863000Y-108066800D03*
%TD*%
D15*
%TO.C,R61*%
X221460000Y-49636200D03*
X219460000Y-49636200D03*
%TD*%
D11*
%TO.C,R3*%
X181610000Y-121650000D03*
X181610000Y-119650000D03*
%TD*%
M02*
